<?xml version="1.0" standalone="no"?>
<!DOCTYPE svg PUBLIC "-//W3C//DTD SVG 1.1//EN" "http://www.w3.org/Graphics/SVG/1.1/DTD/svg11.dtd" >
<svg>
<metadata>
Created by FontForge 20090622 at Mon May 20 07:13:02 2019
 By deploy user
&#194;&#169; 1990, 2002 Adobe Systems Incorporated. All rights reserved.
</metadata>
<defs>
<font id="HelveticaNeueLTStd-MdCnO" horiz-adv-x="222" >
  <font-face 
    font-family="HelveticaNeueLT Std Med Cn"
    font-weight="500"
    font-style="italic"
    font-stretch="condensed"
    units-per-em="1000"
    panose-1="2 11 6 6 3 5 2 3 2 4"
    ascent="714"
    descent="-286"
    x-height="538"
    cap-height="714"
    bbox="-171 -271 1079.58 951"
    underline-thickness="50"
    underline-position="-50"
    slope="-12"
    unicode-range="U+0020-U+FB02"
  />
<missing-glyph horiz-adv-x="649" 
d="M149 0v700h500v-700h-500zM399 395l170 255h-340zM429 350l170 -255v510zM229 50h340l-170 255zM199 605v-510l170 255z" />
    <glyph glyph-name="f_i" unicode="fi" horiz-adv-x="500" 
d="M335 0l114 538h108l-114 -538h-108zM466 614l22 108h108l-22 -108h-108zM85 0l97 458h-75l17 80h75l11 50q16 74 56 104t109 30q35 0 59 -3l-18 -83h-30q-58 0 -69 -51l-10 -47h88l-17 -80h-88l-97 -458h-108z" />
    <glyph glyph-name="f_l" unicode="fl" horiz-adv-x="500" 
d="M335 0l152 714h108l-152 -714h-108zM85 0l97 458h-75l17 80h75l11 50q16 74 56 104t109 30q35 0 59 -3l-18 -83h-30q-58 0 -69 -51l-10 -47h88l-17 -80h-88l-97 -458h-108z" />
    <glyph glyph-name=".notdef" horiz-adv-x="649" 
d="M149 0v700h500v-700h-500zM399 395l170 255h-340zM429 350l170 -255v510zM229 50h340l-170 255zM199 605v-510l170 255z" />
    <glyph glyph-name=".null" horiz-adv-x="0" 
 />
    <glyph glyph-name="nonmarkingreturn" horiz-adv-x="333" 
 />
    <glyph glyph-name="space" unicode=" " horiz-adv-x="240" 
 />
    <glyph glyph-name="exclam" unicode="!" horiz-adv-x="278" 
d="M140 192l46 296l48 226h114l-48 -226l-80 -296h-80zM82 0l24 114h114l-24 -114h-114z" />
    <glyph glyph-name="quotedbl" unicode="&#x22;" horiz-adv-x="426" 
d="M355 428l61 286h86l-61 -286h-86zM167 428l61 286h86l-61 -286h-86z" />
    <glyph glyph-name="numbersign" unicode="#" horiz-adv-x="480" 
d="M235 274h106l51 146h-106zM40 200l15 74h97l51 146h-88l16 74h98l71 200h83l-71 -200h106l71 200h83l-71 -200h87l-16 -74h-97l-51 -146h88l-15 -74h-98l-71 -200h-83l71 200h-106l-71 -200h-83l71 200h-87z" />
    <glyph glyph-name="dollar" unicode="$" horiz-adv-x="480" 
d="M321 287l-46 -215q44 6 74 35t38 65q10 48 -6 74.5t-60 40.5zM305 418l43 204q-34 -3 -61 -29t-36 -71q-15 -70 54 -104zM195 -100l18 86q-198 11 -155 212l3 16h114l-3 -16q-12 -57 1.5 -87.5t57.5 -38.5l50 232l-38 15q-73 29 -98.5 73.5t-9.5 119.5q18 85 84 140.5
t147 55.5l15 70h44l-15 -70q44 0 75.5 -12.5t47.5 -32t25 -44t7.5 -49t-4.5 -46.5l-3 -14h-114l3 14q20 90 -55 98l-47 -221l59 -22q68 -27 92.5 -70.5t8.5 -113.5q-42 -198 -248 -209l-18 -86h-44z" />
    <glyph glyph-name="percent" unicode="%" horiz-adv-x="759" 
d="M310 646q-30 0 -46.5 -29t-31.5 -101q-16 -70 -11.5 -100t34.5 -30t46.5 29t32.5 101q15 70 10.5 100t-34.5 30zM647 708h77l-472 -722h-75zM651 308q-30 0 -46 -28.5t-32 -101.5q-16 -70 -11.5 -100t34.5 -30t46.5 29t32.5 101q16 70 11 100t-35 30zM323 708
q65 0 92 -43.5t5 -148.5q-23 -105 -68 -148.5t-110 -43.5t-92 43.5t-4 148.5q22 105 67 148.5t110 43.5zM665 370q65 0 92 -43.5t4 -148.5t-68 -148.5t-110 -43.5t-92 43.5t-4 148.5t68 148.5t110 43.5z" />
    <glyph glyph-name="ampersand" unicode="&#x26;" horiz-adv-x="574" 
d="M379 392l88 -176q38 46 51 109l3 14h90l-2 -9q-8 -39 -34 -93.5t-68 -100.5l68 -136h-121l-30 61q-98 -75 -196 -75q-47 0 -82 13.5t-53 34.5t-28.5 47.5t-9 52.5t4.5 49q23 111 140 187l52 34l-19 40q-30 74 -21 117q16 74 72 113.5t131 39.5q23 0 46 -6.5t46 -21
t33 -45t1 -72.5q-18 -85 -119 -150zM344 458l30 23q64 51 72 92q7 31 -7.5 49t-46.5 18q-26 0 -49.5 -15t-30.5 -47q-9 -41 21 -99zM287 336l-24 -18q-78 -53 -93 -127q-10 -48 18 -81t78 -33q60 0 123 55z" />
    <glyph glyph-name="quotesingle" unicode="'" horiz-adv-x="240" 
d="M168 428l61 286h86l-61 -286h-86z" />
    <glyph glyph-name="parenleft" unicode="(" horiz-adv-x="259" 
d="M336 714h75q-155 -191 -210 -449q-26 -108 -23 -234t42 -215h-77q-46 84 -61 195t11 254q28 129 94 246.5t149 202.5z" />
    <glyph glyph-name="parenright" unicode=")" horiz-adv-x="259" 
d="M36 -184h-75q155 192 209 449q26 108 23 234t-41 215h77q46 -84 60.5 -195t-11.5 -254q-28 -130 -94 -247t-148 -202z" />
    <glyph glyph-name="asterisk" unicode="*" horiz-adv-x="370" 
d="M304 714h68l-27 -124l121 43l9 -66l-121 -33l56 -103l-66 -43l-53 105l-97 -105l-46 43l98 103l-109 33l37 66l103 -44z" />
    <glyph glyph-name="plus" unicode="+" horiz-adv-x="600" 
d="M320 296l45 210h86l-45 -210h210l-18 -86h-210l-45 -210h-86l45 210h-210l18 86h210z" />
    <glyph glyph-name="comma" unicode="," horiz-adv-x="240" 
d="M63 0l28 132h114l-28 -132q-14 -64 -48 -103t-99 -51l13 58q52 13 67 81l3 15h-50z" />
    <glyph glyph-name="hyphen" unicode="-" horiz-adv-x="352" 
d="M96 238l21 102h262l-21 -102h-262z" />
    <glyph glyph-name="period" unicode="." horiz-adv-x="240" 
d="M63 0l28 132h114l-28 -132h-114z" />
    <glyph glyph-name="slash" unicode="/" horiz-adv-x="296" 
d="M-13 -14l385 742h89l-385 -742h-89z" />
    <glyph glyph-name="zero" unicode="0" horiz-adv-x="480" 
d="M216 347q-17 -80 -23.5 -131t-3 -86t19 -49.5t45.5 -14.5q57 0 90.5 61.5t67.5 219.5q23 107 27 166t-11.5 87t-54.5 28q-57 0 -90 -61t-67 -220zM102 347q42 198 111.5 279.5t176.5 81.5q71 0 108.5 -32.5t48 -112.5t-20.5 -216q-43 -198 -112.5 -279.5t-176.5 -81.5
q-71 0 -108.5 32.5t-48 112.5t21.5 216z" />
    <glyph glyph-name="one" unicode="1" horiz-adv-x="480" 
d="M321 0h-114l109 514h-147l16 74h11q143 0 190 106l2 14h83z" />
    <glyph glyph-name="two" unicode="2" horiz-adv-x="480" 
d="M467 96l-20 -96h-414q13 62 40.5 113.5t61 86.5t71.5 65t75.5 56t69.5 53.5t56.5 65t33.5 81.5q10 47 -5.5 77t-60.5 30q-99 0 -130 -148h-108q49 228 257 228q103 0 140.5 -52.5t19.5 -136.5q-12 -55 -39 -100.5t-60 -75t-73 -59.5t-75.5 -54t-70.5 -59t-56 -75h287z
" />
    <glyph glyph-name="three" unicode="3" horiz-adv-x="480" 
d="M73 197h108q-27 -131 69 -131q50 0 82 35t44 92q15 67 -4.5 99.5t-82.5 32.5h-44l17 80h41q102 0 128 121q9 42 -5.5 72t-55.5 30q-89 0 -116 -124h-108q21 100 83.5 152t163.5 52q35 0 64 -8.5t55 -29t33.5 -55.5t-0.5 -88q-12 -57 -53 -102t-93 -53l-1 -3
q56 -5 83 -48.5t12 -115.5q-47 -219 -263 -219q-203 0 -157 211z" />
    <glyph glyph-name="four" unicode="4" horiz-adv-x="480" 
d="M55 159l21 98l340 451h116l-97 -458h77l-19 -91h-77l-34 -159h-108l34 159h-253zM327 250l62 292h-2l-221 -292h161z" />
    <glyph glyph-name="five" unicode="5" horiz-adv-x="480" 
d="M69 176l4 15h108l-4 -19q-10 -43 7.5 -71.5t63.5 -28.5q101 0 136 161q31 151 -63 151q-36 0 -64.5 -17.5t-42.5 -47.5l-100 4l114 371h341l-20 -91h-256l-62 -186l1 -2q60 55 131 55q43 0 73 -14t45.5 -36.5t21.5 -54t4 -63t-9 -66.5q-24 -113 -92.5 -181.5
t-178.5 -68.5q-95 0 -136 48.5t-22 141.5z" />
    <glyph glyph-name="six" unicode="6" horiz-adv-x="480" 
d="M556 536h-114q8 36 -5 64t-52 28q-38 0 -67 -22t-47.5 -63.5t-28.5 -75t-21 -83.5l2 -2q57 75 154 75q76 0 114 -54.5t16 -156.5q-26 -125 -94 -192.5t-178 -67.5q-65 0 -103.5 23.5t-50.5 71t-8.5 104.5t21.5 140q18 87 41 150.5t58.5 119t87.5 84.5t120 29
q192 0 155 -172zM194 213q-14 -65 2.5 -106t64.5 -41q49 0 80.5 42t45.5 110q33 153 -61 153q-57 0 -86.5 -42t-45.5 -116z" />
    <glyph glyph-name="seven" unicode="7" horiz-adv-x="480" 
d="M156 592l22 102h420l-20 -90q-108 -112 -207 -280t-144 -324h-120q44 152 145 315t214 277h-310z" />
    <glyph glyph-name="eight" unicode="8" horiz-adv-x="480" 
d="M262 522q-23 -108 66 -108t112 108q23 106 -67 106q-88 0 -111 -106zM183 200q-29 -134 71 -134t129 134q13 63 -1.5 98.5t-70.5 35.5q-101 0 -128 -134zM237 -14q-213 0 -169 212q16 76 59 121t100 56v2q-90 34 -65 153q17 83 78.5 130.5t149.5 47.5q89 0 130 -48
t24 -130q-25 -119 -131 -153v-2q53 -11 76 -56t7 -121q-44 -212 -259 -212z" />
    <glyph glyph-name="nine" unicode="9" horiz-adv-x="480" 
d="M72 158h114q-8 -36 4.5 -64t51.5 -28q38 0 67 22t48 63.5t29 75.5t21 83l-3 2q-57 -75 -154 -75q-76 0 -114 54.5t-16 156.5q56 260 272 260q86 0 126 -43t38 -118t-23 -178q-18 -87 -41 -150.5t-58.5 -119t-87.5 -84.5t-120 -29q-191 0 -154 172zM433 481
q14 65 -2.5 106t-64.5 41q-93 0 -126 -152q-33 -153 62 -153q57 0 86 41.5t45 116.5z" />
    <glyph glyph-name="colon" unicode=":" horiz-adv-x="240" 
d="M144 380l28 132h114l-28 -132h-114zM63 0l28 132h114l-28 -132h-114z" />
    <glyph glyph-name="semicolon" unicode=";" horiz-adv-x="240" 
d="M63 0l28 132h114l-28 -132q-14 -64 -48 -103t-99 -51l13 58q52 13 67 81l3 15h-50zM144 380l28 132h114l-28 -132h-114z" />
    <glyph glyph-name="less" unicode="&#x3c;" horiz-adv-x="600" 
d="M93 216l16 74l554 226l-19 -86l-441 -177l366 -177l-18 -86z" />
    <glyph glyph-name="equal" unicode="=" horiz-adv-x="600" 
d="M114 314l18 86h506l-18 -86h-506zM70 106l18 86h506l-18 -86h-506z" />
    <glyph glyph-name="greater" unicode="&#x3e;" horiz-adv-x="600" 
d="M615 290l-16 -74l-554 -226l18 86l442 177l-367 177l19 86z" />
    <glyph glyph-name="question" unicode="?" horiz-adv-x="463" 
d="M210 192l13 60q8 40 29.5 70.5t47 51l51 41t47 51t30.5 70.5q23 106 -59 106q-90 0 -120 -141h-108q22 102 83 164.5t163 62.5q93 0 133.5 -50t21.5 -142q-10 -47 -34.5 -86t-53 -64.5l-56.5 -48.5t-49.5 -49t-27.5 -54l-9 -42h-102zM162 0l24 114h114l-24 -114h-114z
" />
    <glyph glyph-name="at" unicode="@" horiz-adv-x="800" 
d="M574 397q21 96 -60 96q-59 0 -112.5 -58t-67.5 -123q-10 -47 7.5 -74t64.5 -27q49 0 102.5 63.5t65.5 122.5zM656 549h71l-133 -270q-21 -47 -21 -49q-2 -11 3.5 -16.5t24.5 -5.5q44 0 96.5 61t69.5 141q22 104 -42 171t-171 67q-128 0 -231 -87t-128 -207
q-27 -128 40.5 -208t186.5 -80q157 0 266 88h84q-58 -76 -153.5 -122t-213.5 -46q-80 0 -143.5 25t-104.5 73t-56 117t4 157q34 158 164 264t302 106q153 0 235.5 -85t54.5 -220q-12 -57 -40 -106t-62 -81.5t-73 -55.5t-74.5 -33t-65.5 -10q-36 0 -50 16t-7 43h-2
q-67 -59 -137 -59q-59 0 -89 44.5t-15 117.5q22 106 107.5 187t172.5 81q76 0 98 -77z" />
    <glyph glyph-name="A" unicode="A" horiz-adv-x="519" 
d="M234 266h169l-8 352h-2zM-9 0l355 714h146l36 -714h-119l-7 175h-209l-83 -175h-119z" />
    <glyph glyph-name="B" unicode="B" horiz-adv-x="537" 
d="M261 413h90q51 0 84.5 30.5t44.5 82.5q12 59 -13.5 80.5t-80.5 21.5h-80zM191 86h113q51 0 85 32.5t47 93.5q12 57 -12 89t-74 32h-106zM59 0l152 714h231q86 0 130 -42t25 -131q-28 -130 -139 -162l-1 -2q60 -11 84 -53.5t5 -128.5q-19 -89 -89.5 -142t-171.5 -53h-226z
" />
    <glyph glyph-name="C" unicode="C" horiz-adv-x="519" 
d="M438 256h114l-3 -15q-11 -51 -31 -94.5t-52.5 -81t-81 -58.5t-109.5 -21q-132 0 -166.5 90t9.5 281q42 197 113 284t203 87q215 0 167 -224l-3 -13h-114l3 12q6 35 6 66.5t-20 52.5t-59 20q-44 0 -74 -22t-56.5 -84.5t-50.5 -175.5q-34 -172 -20 -230t80 -58
q107 0 143 172z" />
    <glyph glyph-name="D" unicode="D" horiz-adv-x="556" 
d="M306 628l-115 -542h94q72 0 115 59t76 212q32 151 15 211t-91 60h-94zM59 0l152 714h203q66 0 108.5 -17.5t63.5 -46.5t26 -77t-1 -97t-21 -119t-30 -119t-40.5 -97t-58.5 -77t-83 -46.5t-116 -17.5h-203z" />
    <glyph glyph-name="E" unicode="E" horiz-adv-x="481" 
d="M59 0l152 714h386l-21 -96h-272l-42 -198h256l-20 -96h-256l-49 -228h280l-20 -96h-394z" />
    <glyph glyph-name="F" unicode="F" horiz-adv-x="463" 
d="M59 0l152 714h381l-21 -96h-267l-42 -198h251l-20 -96h-251l-69 -324h-114z" />
    <glyph glyph-name="G" unicode="G" horiz-adv-x="537" 
d="M412 0l18 83h-2q-35 -51 -75.5 -74t-101.5 -23q-115 0 -145.5 90t12.5 281q41 192 117 281.5t199 89.5q51 0 87 -15.5t53 -38t24.5 -52t6.5 -53.5t-6 -47l-3 -13h-108l4 17q10 47 -6.5 81.5t-69.5 34.5q-65 0 -107 -59.5t-76 -222.5q-34 -172 -21 -230t74 -58
q65 -1 102.5 49.5t63.5 168.5h-120l18 86h228l-80 -376h-86z" />
    <glyph glyph-name="H" unicode="H" horiz-adv-x="556" 
d="M59 0l152 714h114l-61 -286h210l61 286h114l-152 -714h-114l71 332h-210l-71 -332h-114z" />
    <glyph glyph-name="I" unicode="I" 
d="M54 0l152 714h114l-152 -714h-114z" />
    <glyph glyph-name="J" unicode="J" horiz-adv-x="444" 
d="M62 215h108l-8 -35q-13 -44 -1.5 -75.5t54.5 -32.5q22 0 39 8.5t27 20t18.5 33.5t12 37t9.5 43l107 500h114l-110 -517q-45 -213 -237 -211q-178 1 -143 183z" />
    <glyph glyph-name="K" unicode="K" horiz-adv-x="519" 
d="M59 0l152 714h114l-66 -311h2l282 311h125l-270 -301l140 -413h-129l-105 321l-82 -90l-49 -231h-114z" />
    <glyph glyph-name="L" unicode="L" horiz-adv-x="444" 
d="M46 0l152 714h114l-132 -618h276l-20 -96h-390z" />
    <glyph glyph-name="M" unicode="M" horiz-adv-x="722" 
d="M59 0l152 714h178l13 -529h2l237 529h174l-152 -714h-108l126 594h-2l-270 -594h-96l-18 594h-2l-126 -594h-108z" />
    <glyph glyph-name="N" unicode="N" horiz-adv-x="574" 
d="M59 0l152 714h139l94 -532h2l113 532h108l-152 -714h-139l-91 546h-2l-116 -546h-108z" />
    <glyph glyph-name="O" unicode="O" horiz-adv-x="556" 
d="M275 -14q-123 0 -160.5 90t3.5 281q41 192 116.5 281.5t198.5 89.5t160.5 -90t-3.5 -281q-41 -192 -116.5 -281.5t-198.5 -89.5zM293 72q28 0 50.5 11t46.5 40.5t46 88.5t41 148q18 87 21.5 145t-8.5 86.5t-30 39.5t-46 11t-50.5 -11t-46 -39.5t-45 -86.5t-39.5 -145
q-19 -89 -23 -148t7.5 -88.5t29.5 -40.5t46 -11z" />
    <glyph glyph-name="P" unicode="P" horiz-adv-x="500" 
d="M306 628l-52 -247h81q50 0 88.5 30t51.5 93q13 61 -9 92.5t-87 31.5h-73zM59 0l152 714h226q99 0 136 -56t17 -152q-21 -97 -88 -154t-166 -57h-100l-63 -295h-114z" />
    <glyph glyph-name="Q" unicode="Q" horiz-adv-x="556" 
d="M449 -64l-57 74q-45 -24 -117 -24q-123 0 -160.5 90t3.5 281q41 192 116.5 281.5t198.5 89.5t160.5 -90t-3.5 -281q-41 -192 -116 -283l56 -77zM293 132l79 65l37 -47q35 60 68 210q18 87 21.5 145t-8.5 86.5t-30 39.5t-46 11t-50.5 -11t-46 -39.5t-45 -86.5t-39.5 -145
q-19 -89 -23 -148t7.5 -88.5t29.5 -40.5t46 -11q23 0 43 7z" />
    <glyph glyph-name="R" unicode="R" horiz-adv-x="537" 
d="M59 0l152 714h252q81 0 121.5 -44.5t20.5 -139.5q-15 -71 -56.5 -118.5t-100.5 -56.5v-2q54 -5 73.5 -39t7.5 -107q-20 -103 -27 -145q-6 -41 21 -62h-129q-11 18 -6 63q3 25 12 72.5l12 62.5q12 60 -5.5 86t-74.5 26h-93l-66 -310h-114zM257 396h91q54 0 91 31t48 85
q24 116 -84 116h-97z" />
    <glyph glyph-name="S" unicode="S" horiz-adv-x="519" 
d="M80 221h114l-4 -18q-27 -131 89 -131q51 0 86 30.5t44 73.5q11 54 -8 83t-67 44l-72 27q-72 30 -97.5 75.5t-9.5 120.5q20 96 91.5 149t173.5 53q203 0 162 -188l-4 -16h-114l4 15q21 103 -79 103q-41 0 -73.5 -25t-43.5 -78q-10 -45 9 -72t72 -49l71 -28
q70 -27 95.5 -71.5t9.5 -117.5q-47 -215 -282 -215q-63 0 -104 20t-55.5 51.5t-18.5 70t7 76.5z" />
    <glyph glyph-name="T" unicode="T" horiz-adv-x="463" 
d="M176 0l131 618h-170l21 96h451l-21 -96h-167l-131 -618h-114z" />
    <glyph glyph-name="U" unicode="U" horiz-adv-x="537" 
d="M202 714h114l-109 -512q-27 -130 77 -130q105 0 132 130l109 512h114l-107 -503q-25 -119 -92 -172t-174 -53t-151.5 53t-19.5 172z" />
    <glyph glyph-name="V" unicode="V" horiz-adv-x="481" 
d="M162 0l-16 714h121v-570h2l249 570h121l-332 -714h-145z" />
    <glyph glyph-name="W" unicode="W" horiz-adv-x="741" 
d="M144 0l14 714h115l-24 -555h2l212 555h120l-23 -558h2l212 558h113l-294 -714h-132l22 538h-2l-205 -538h-132z" />
    <glyph glyph-name="X" unicode="X" horiz-adv-x="500" 
d="M0 0l265 363l-97 351h126l63 -237l163 237h123l-248 -351l105 -363h-126l-69 258l-182 -258h-123z" />
    <glyph glyph-name="Y" unicode="Y" horiz-adv-x="481" 
d="M180 0l59 279l-91 435h127l54 -308l189 308h119l-284 -435l-59 -279h-114z" />
    <glyph glyph-name="Z" unicode="Z" horiz-adv-x="463" 
d="M18 0l19 90l411 528h-281l21 96h406l-21 -96l-410 -522h302l-20 -96h-427z" />
    <glyph glyph-name="bracketleft" unicode="[" horiz-adv-x="278" 
d="M38 -184l191 898h203l-17 -80h-101l-157 -738h101l-17 -80h-203z" />
    <glyph glyph-name="backslash" unicode="\" horiz-adv-x="296" 
d="M214 -14l-69 742h89l69 -742h-89z" />
    <glyph glyph-name="bracketright" unicode="]" horiz-adv-x="278" 
d="M-41 -184l17 80h101l157 738h-101l17 80h203l-191 -898h-203z" />
    <glyph glyph-name="asciicircum" unicode="^" horiz-adv-x="600" 
d="M517 280l-88 328l-226 -328h-86l292 414h76l118 -414h-86z" />
    <glyph glyph-name="underscore" unicode="_" horiz-adv-x="500" 
d="M-27 -125l11 50h500l-11 -50h-500z" />
    <glyph glyph-name="grave" unicode="`" 
d="M221 608l-75 144h120l29 -144h-74z" />
    <glyph glyph-name="a" unicode="a" horiz-adv-x="463" 
d="M494 420l-65 -308q-3 -15 2.5 -26.5t17.5 -11.5t18 3l-15 -70q-30 -13 -55 -13q-39 0 -60.5 17t-15.5 54h-2q-60 -79 -151 -79q-66 0 -95 38t-13 113q18 82 54.5 115t106.5 54l89 23q36 10 53.5 23.5t24.5 45.5q8 39 -4 59.5t-53 20.5q-49 0 -71.5 -28t-32.5 -75h-102
q19 89 71 133t155 44q77 0 117 -32t26 -100zM344 194l19 90q-19 -13 -70.5 -30t-59.5 -20q-48 -21 -63 -87q-7 -36 5.5 -58.5t44.5 -22.5q48 0 79.5 33.5t44.5 94.5z" />
    <glyph glyph-name="b" unicode="b" horiz-adv-x="481" 
d="M52 0l152 714h108l-51 -239h2q48 77 138 77q27 0 47.5 -5.5t40 -23t28.5 -47t7.5 -80.5t-15.5 -120q-31 -143 -88.5 -216.5t-149.5 -73.5q-51 0 -72.5 22.5t-28.5 57.5h-2l-14 -66h-102zM210 263q-22 -86 -12 -138.5t62 -52.5q53 0 83 49.5t51 149.5q23 109 13 152
t-56 43q-59 0 -89 -48.5t-52 -154.5z" />
    <glyph glyph-name="c" unicode="c" horiz-adv-x="444" 
d="M355 196h102q-28 -104 -81 -157t-148 -53q-75 0 -113.5 36.5t-40.5 99t14 147.5q29 137 89.5 210t170.5 73q46 1 78 -13t47 -34.5t21 -48.5t4.5 -51t-6.5 -46h-108q4 26 5 51.5t-13.5 44t-44.5 17.5q-54 0 -84 -51t-51 -152q-23 -89 -14 -146t63 -57q43 -1 69.5 32.5
t40.5 97.5z" />
    <glyph glyph-name="d" unicode="d" horiz-adv-x="481" 
d="M327 0l14 66h-2q-48 -80 -135 -80q-177 0 -114 290q18 86 44 143.5t57 85t59.5 37.5t63.5 10q43 0 70.5 -20.5t35.5 -56.5h2l51 239h108l-152 -714h-102zM383 263q24 97 13.5 150t-68.5 53q-47 0 -75 -43.5t-50 -151.5q-23 -91 -14 -145t62 -54q52 0 81.5 48t50.5 143z
" />
    <glyph glyph-name="e" unicode="e" horiz-adv-x="463" 
d="M480 255h-281l-6 -31q-36 -164 55 -164q27 0 48.5 13.5t34 35t18.5 38.5t10 33h102q-19 -89 -80.5 -141.5t-149.5 -52.5q-25 0 -44.5 3.5t-42 12.5t-36 28.5t-23 48.5t-8 75.5t14.5 106.5q10 47 22.5 85t34 78t48.5 67t67 44t89 17q107 0 136 -59.5t3 -180.5zM215 329
h173l6 29q26 120 -57 120q-48 0 -77.5 -39t-42.5 -99z" />
    <glyph glyph-name="f" unicode="f" horiz-adv-x="278" 
d="M85 0l97 458h-75l17 80h75l11 50q16 74 56 104t109 30q35 0 59 -3l-18 -83h-30q-58 0 -69 -51l-10 -47h88l-17 -80h-88l-97 -458h-108z" />
    <glyph glyph-name="g" unicode="g" horiz-adv-x="481" 
d="M48 -46h102q-5 -26 12.5 -45t52.5 -19q42 0 72 27t40 74l19 87h-2q-22 -34 -60 -54t-78 -20q-161 0 -104 271q9 42 19 75t29 73t42.5 66.5t59.5 44.5t80 18q45 0 72.5 -24.5t28.5 -55.5h2l14 66h102l-108 -512q-45 -210 -246 -210q-46 0 -77.5 10.5t-46.5 25t-22 35
t-6.5 36t3.5 31.5zM213 286q-6 -28 -9.5 -47t-6.5 -44t-0.5 -42t8 -32.5t18.5 -23t32 -7.5q94 0 134 191q8 38 11 67t0.5 58t-17 44.5t-41.5 15.5q-54 0 -82.5 -46.5t-46.5 -133.5z" />
    <glyph glyph-name="h" unicode="h" horiz-adv-x="481" 
d="M52 0l152 714h108l-50 -234l3 -2q63 74 147 74q65 0 92.5 -34t10.5 -112l-86 -406h-108l78 369q11 53 -1.5 75t-52.5 22q-35 0 -66 -27.5t-42 -77.5l-77 -361h-108z" />
    <glyph glyph-name="i" unicode="i" 
d="M57 0l114 538h108l-114 -538h-108zM188 614l22 108h108l-22 -108h-108z" />
    <glyph glyph-name="j" unicode="j" 
d="M171 538h108l-121 -573q-18 -82 -59 -115.5t-115 -33.5q-24 0 -46 3l17 83h25q31 0 47 15.5t25 57.5zM210 722h108l-22 -108h-108z" />
    <glyph glyph-name="k" unicode="k" horiz-adv-x="463" 
d="M52 0l152 714h108l-85 -401h2l210 225l126 1l-207 -208l113 -331h-118l-80 245l-77 -74l-36 -171h-108z" />
    <glyph glyph-name="l" unicode="l" 
d="M57 0l152 714h108l-152 -714h-108z" />
    <glyph glyph-name="m" unicode="m" horiz-adv-x="740" 
d="M57 0l114 538h102l-13 -63h3q27 36 66.5 56.5t78.5 20.5q95 0 108 -82q66 82 153 82q131 0 101 -143l-87 -409h-108l78 369q11 53 0.5 75t-44.5 22q-35 0 -66 -27.5t-42 -77.5l-77 -361h-108l78 369q11 52 0 74.5t-45 22.5q-35 0 -65.5 -27.5t-41.5 -77.5l-77 -361h-108z
" />
    <glyph glyph-name="n" unicode="n" horiz-adv-x="481" 
d="M52 0l114 538h102l-13 -63h3q59 77 154 77q65 0 92.5 -34t10.5 -112l-86 -406h-108l78 369q11 53 -1.5 75t-52.5 22q-35 0 -66 -27.5t-42 -77.5l-77 -361h-108z" />
    <glyph glyph-name="o" unicode="o" horiz-adv-x="463" 
d="M88 269q29 137 89.5 210t170.5 73q76 0 114.5 -36.5t41 -99t-14.5 -147.5q-59 -283 -261 -283q-199 0 -140 283zM196 269q-25 -103 -15.5 -153t64.5 -50q56 0 84.5 46.5t51.5 156.5q23 89 14 146t-64 57q-54 0 -84 -51t-51 -152z" />
    <glyph glyph-name="p" unicode="p" horiz-adv-x="481" 
d="M15 -176l151 714h102l-14 -66h2q55 80 138 80q173 0 112 -290q-17 -81 -44.5 -138t-59 -85.5t-61 -40.5t-60.5 -12q-43 0 -70.5 20.5t-35.5 56.5h-2l-50 -239h-108zM212 275q-11 -52 -14.5 -87t0.5 -62.5t19.5 -40.5t43.5 -13q48 0 78.5 43t53.5 152q23 91 13.5 145
t-62.5 54q-52 0 -81.5 -48t-50.5 -143z" />
    <glyph glyph-name="q" unicode="q" horiz-adv-x="481" 
d="M284 -176l50 239h-2q-48 -77 -139 -77q-34 0 -58.5 12.5t-43.5 44t-19 84.5t15 135q30 143 87.5 216.5t149.5 73.5q87 0 101 -80h2l14 66h102l-151 -714h-108zM385 275q22 86 12 138.5t-62 52.5q-53 0 -82.5 -49t-50.5 -150q-22 -109 -11.5 -152t53.5 -43q59 0 89 48.5
t52 154.5z" />
    <glyph glyph-name="r" unicode="r" horiz-adv-x="315" 
d="M52 0l114 538h108l-18 -84h2q60 98 146 98q13 0 25 -4l-23 -110q-21 6 -44 6q-107 0 -134 -122l-68 -322h-108z" />
    <glyph glyph-name="s" unicode="s" horiz-adv-x="426" 
d="M467 381h-102l3 14q17 83 -53 83q-78 0 -92 -70q-7 -31 6 -47.5t53 -31.5l64 -24q57 -21 77 -56.5t7 -98.5q-18 -82 -79.5 -123t-148.5 -41q-97 0 -128 42t-13 125l4 20h96l-4 -17q-10 -48 4.5 -72t59.5 -24q87 0 105 79q12 59 -43 79l-81 31q-57 21 -76 56t-6 99
q15 74 72 111t143 37q49 0 81 -13.5t44 -35t16 -47.5t-4 -51z" />
    <glyph glyph-name="t" unicode="t" horiz-adv-x="278" 
d="M101 458l17 80h74l33 153h108l-33 -153h88l-17 -80h-88l-68 -321q-7 -32 1 -44.5t36 -12.5q24 0 40 3l-17 -80q-37 -9 -89 -9q-59 0 -78.5 26t-3.5 104l71 334h-74z" />
    <glyph glyph-name="u" unicode="u" horiz-adv-x="481" 
d="M327 0l13 63h-3q-59 -77 -154 -77q-65 0 -91 39t-6 137l80 376h108l-82 -386q-9 -43 5.5 -61.5t50.5 -18.5q37 0 67.5 23.5t39.5 66.5l80 376h108l-114 -538h-102z" />
    <glyph glyph-name="v" unicode="v" horiz-adv-x="426" 
d="M151 0l-30 538h116l4 -424h2l175 424h115l-256 -538h-126z" />
    <glyph glyph-name="w" unicode="w" horiz-adv-x="685" 
d="M137 0l-8 538h112l-15 -424h2l170 424h122l-10 -424h2l164 424h108l-237 -538h-121l5 418h-2l-166 -418h-126z" />
    <glyph glyph-name="x" unicode="x" horiz-adv-x="426" 
d="M3 0l206 279l-84 259h118l47 -178l125 178h116l-195 -259l87 -279h-117l-52 199l-136 -199h-115z" />
    <glyph glyph-name="y" unicode="y" horiz-adv-x="426" 
d="M122 538h116l7 -404h2l172 404h113l-266 -558q-53 -107 -95 -136.5t-128 -27.5q-16 0 -42 4l18 86q24 -4 34 -4q59 0 82 42l23 44z" />
    <glyph glyph-name="z" unicode="z" horiz-adv-x="407" 
d="M25 0l18 84l312 363h-221l19 91h343l-19 -89l-302 -358h226l-19 -91h-357z" />
    <glyph glyph-name="braceleft" unicode="{" horiz-adv-x="278" 
d="M56 232l14 66q33 2 64 32t39 70l39 183q13 61 53 96t86 35h72l-13 -62h-33q-27 0 -41.5 -17.5t-21.5 -51.5l-39 -183q-13 -61 -51 -94t-69 -40l-1 -2q29 -7 53 -40t11 -94l-39 -183q-9 -31 -1.5 -50t34.5 -19h33l-13 -62h-72q-45 0 -70.5 35t-12.5 96l39 183q8 40 -10 70
t-50 32z" />
    <glyph glyph-name="bar" unicode="|" horiz-adv-x="407" 
d="M238 815h82v-1086h-82v1086z" />
    <glyph glyph-name="braceright" unicode="}" horiz-adv-x="278" 
d="M334 298l-14 -66q-33 -2 -63.5 -32t-38.5 -70l-39 -183q-13 -61 -53 -96t-86 -35h-72l13 62h33q27 0 41.5 17.5t21.5 51.5l39 183q13 61 51 94t69 40l1 2q-29 7 -53 40t-11 94l39 183q9 31 1.5 50t-34.5 19h-33l13 62h72q45 0 70.5 -35t12.5 -96l-39 -183q-8 -40 9.5 -70
t49.5 -32z" />
    <glyph glyph-name="asciitilde" unicode="~" horiz-adv-x="600" 
d="M141 169l-20 76q63 87 144 87q40 0 108 -37q66 -35 89 -35q46 0 105 77l19 -76q-69 -87 -143 -87q-40 0 -108 37q-66 35 -90 35q-45 0 -104 -77z" />
    <glyph glyph-name="uni00A0" unicode="&#xa0;" horiz-adv-x="240" 
 />
    <glyph glyph-name="exclamdown" unicode="&#xa1;" horiz-adv-x="278" 
d="M253 346l-46 -296l-48 -226h-114l48 226l80 296h80zM310 538l-24 -114h-114l24 114h114z" />
    <glyph glyph-name="cent" unicode="&#xa2;" horiz-adv-x="480" 
d="M238 66l86 406q-42 -12 -67 -63.5t-44 -139.5q-19 -78 -15.5 -133.5t40.5 -69.5zM202 -102l19 88q-65 5 -97.5 43t-33 99t14.5 141q28 129 83 202t153 81l16 75h44l-16 -75q50 -3 80.5 -24t39.5 -52.5t9 -59.5t-6 -57h-108q11 32 4.5 69t-36.5 44l-86 -406q66 17 90 130
h102q-27 -98 -75.5 -151t-133.5 -59l-19 -88h-44z" />
    <glyph glyph-name="sterling" unicode="&#xa3;" horiz-adv-x="480" 
d="M85 315l14 68h69l-9 35q-20 62 -10 111q16 72 81 125.5t164 53.5q75 0 118 -28.5t53.5 -70.5t-0.5 -95l-2 -12h-108l2 11q3 23 3 48.5t-20 46t-58 20.5q-45 0 -76.5 -23.5t-39.5 -62.5q-11 -52 8 -113l13 -46h166l-14 -68h-140q4 -32 -3 -59q-11 -53 -49.5 -92
t-103.5 -81l1 -4q43 23 78 23q20 0 60 -15t58 -15q29 0 81 26l33 16l21 -79l-22 -12q-72 -38 -135 -37q-34 1 -86 20t-80 19q-37 0 -101 -31l-24 77l21 13q120 76 139 165q6 29 -4 66h-98z" />
    <glyph glyph-name="currency" unicode="&#xa4;" horiz-adv-x="480" 
d="M39 157l62 51q-33 64 -17 139q16 80 76 139l-40 51l55 45l40 -51q72 46 148 46q75 0 128 -46l62 51l35 -45l-62 -52q34 -62 18 -138q-16 -77 -77 -138l40 -52l-54 -45l-41 52q-70 -47 -147 -47q-76 0 -128 47l-62 -52zM281 191q63 0 116 45t67 111t-20 111t-97 45
t-116.5 -45t-66.5 -111q-14 -66 20 -111t97 -45z" />
    <glyph glyph-name="yen" unicode="&#xa5;" horiz-adv-x="480" 
d="M182 0l34 162h-141l15 68h141l10 47l-5 23h-131l14 68h101l-70 326h124l53 -284l180 284h119l-217 -326h100l-14 -68h-130l-16 -23l-10 -47h141l-15 -68h-141l-34 -162h-108z" />
    <glyph glyph-name="brokenbar" unicode="&#xa6;" horiz-adv-x="408" 
d="M238 734h82v-380h-82v380zM238 190h82v-379h-82v379z" />
    <glyph glyph-name="section" unicode="&#xa7;" horiz-adv-x="481" 
d="M376 346l-105 69l-15 -11q-58 -35 -66 -76q-6 -25 7.5 -41t50.5 -41l100 -67l19 12q41 31 50 71q4 21 -2.5 38.5t-15.5 26.5t-23 19zM545 571h-108q17 77 -61 77q-34 0 -59.5 -18.5t-31.5 -46.5q-5 -24 8.5 -43t49.5 -42l119 -75q75 -48 53 -149q-9 -42 -38 -78.5
t-71 -60.5q47 -49 32 -116q-17 -84 -79.5 -129.5t-147.5 -45.5q-96 0 -134 50t-20 133h108q-21 -97 64 -97q33 0 59 20t33 55q7 34 -7.5 54t-46.5 40l-101 62q-95 59 -75 154q19 89 123 142q-56 36 -39 115q15 74 77 115t144 41q52 0 87 -15t48 -38t17.5 -51t-3.5 -53z" />
    <glyph glyph-name="dieresis" unicode="&#xa8;" 
d="M279 628l23 108h96l-23 -108h-96zM113 628l23 108h96l-23 -108h-96z" />
    <glyph glyph-name="copyright" unicode="&#xa9;" horiz-adv-x="800" 
d="M572 292h83q-28 -74 -88.5 -116t-134.5 -42q-91 0 -133.5 61t-20.5 163q22 103 91.5 163t164.5 60q70 0 111 -40.5t36 -112.5h-80q0 36 -22 58.5t-62 20.5q-57 0 -98 -42t-55 -107q-14 -66 10 -108t83 -42q38 0 70 23t45 61zM414 66q116 0 216.5 85t125.5 206
q26 121 -38 206t-180 85t-216.5 -85t-125.5 -206q-26 -121 38 -206t180 -85zM105 357q32 154 164 262.5t286 108.5t239 -108.5t53 -262.5q-33 -154 -164.5 -262.5t-285.5 -108.5t-239.5 108.5t-52.5 262.5z" />
    <glyph glyph-name="ordfeminine" unicode="&#xaa;" horiz-adv-x="316" 
d="M105 457q11 51 36.5 71t77.5 33l55 13q25 6 37.5 14.5t16.5 27.5q3 17 -5 26.5t-33 9.5q-53 0 -64 -50h-74q11 54 46.5 80t111.5 26q54 0 82 -19t19 -60l-38 -177q-4 -23 12 -23q5 0 15 2l-13 -57q-31 -7 -42 -7q-26 0 -41 11.5t-11 35.5h-3q-41 -47 -106 -47
q-97 0 -79 90zM301 490l12 57q-11 -7 -43.5 -17t-40.5 -14q-28 -12 -36 -51q-3 -14 6 -25t28 -11q27 0 48 17t26 44z" />
    <glyph glyph-name="guillemotleft" unicode="&#xab;" horiz-adv-x="407" 
d="M262 232l25 114l172 135l-23 -110l-106 -82l71 -82l-23 -110zM99 232l25 114l172 135l-23 -110l-106 -82l71 -82l-23 -110z" />
    <glyph glyph-name="logicalnot" unicode="&#xac;" horiz-adv-x="600" 
d="M490 106l44 208h-420l18 86h506l-62 -294h-86z" />
    <glyph glyph-name="uni00AD" unicode="&#xad;" horiz-adv-x="352" 
d="M96 238l21 102h262l-21 -102h-262z" />
    <glyph glyph-name="registered" unicode="&#xae;" horiz-adv-x="800" 
d="M516 145l-70 179h-63l-38 -179h-74l90 424h165q80 0 113 -29t20 -93q-21 -100 -134 -120l77 -182h-86zM396 386h76q32 0 51.5 3.5t38 18t24.5 42.5q7 33 -17.5 45t-64.5 12h-82zM414 66q116 0 216.5 85t125.5 206q26 121 -38 206t-180 85t-216.5 -85t-125.5 -206
q-26 -121 38 -206t180 -85zM105 357q32 154 164 262.5t286 108.5t239 -108.5t53 -262.5q-33 -154 -164.5 -262.5t-285.5 -108.5t-239.5 108.5t-52.5 262.5z" />
    <glyph glyph-name="macron" unicode="&#xaf;" 
d="M122 714h282l-13 -62h-282z" />
    <glyph glyph-name="degree" unicode="&#xb0;" horiz-adv-x="400" 
d="M170 559q13 61 65.5 105t114.5 44q61 0 96 -43.5t22 -105.5q-14 -62 -67 -105.5t-114 -43.5q-62 0 -96 44t-21 105zM238 559q-7 -34 11.5 -57.5t52.5 -23.5t62 23.5t36 57.5q7 34 -11.5 57.5t-52.5 23.5t-62.5 -23.5t-35.5 -57.5z" />
    <glyph glyph-name="plusminus" unicode="&#xb1;" horiz-adv-x="600" 
d="M332 355l33 151h86l-33 -151h210l-18 -86h-210l-32 -151h-86l32 151h-210l18 86h210zM47 0l18 86h506l-18 -86h-506z" />
    <glyph glyph-name="twosuperior" unicode="&#xb2;" horiz-adv-x="313" 
d="M366 348l-14 -68h-276q12 55 40.5 96t62 64.5t66 43.5t58 45.5t32.5 58.5q12 58 -39 58q-55 0 -72 -76h-86q30 138 172 138q137 0 112 -114q-10 -46 -42 -81.5t-66.5 -54.5t-74 -48.5t-58.5 -61.5h185z" />
    <glyph glyph-name="threesuperior" unicode="&#xb3;" horiz-adv-x="313" 
d="M216 471l13 62h27q32 0 51.5 17.5t24.5 41.5q4 21 -5.5 37.5t-33.5 16.5q-27 0 -43.5 -19t-22.5 -42h-86q13 59 58.5 91t112.5 32q52 0 85.5 -27.5t22.5 -80.5q-8 -33 -37 -61t-63 -33l-1 -2q39 -2 59 -28.5t11 -70.5q-13 -62 -62 -97t-114 -35q-74 0 -103 30.5t-15 96.5
h86q-5 -24 4.5 -44.5t40.5 -20.5t50.5 20.5t26.5 50.5q14 65 -57 65h-30z" />
    <glyph glyph-name="acute" unicode="&#xb4;" 
d="M185 608l91 144h120l-137 -144h-74z" />
    <glyph glyph-name="mu" unicode="&#xb5;" horiz-adv-x="481" 
d="M15 -176l151 714h108l-78 -369q-11 -53 1.5 -75t52.5 -22q36 0 67 27.5t42 77.5l76 361h108l-114 -538h-102l13 63h-3q-28 -36 -63 -56.5t-67 -20.5t-46 18l-38 -180h-108z" />
    <glyph glyph-name="paragraph" unicode="&#xb6;" horiz-adv-x="600" 
d="M413 -142l167 788h-111l-167 -788h-91l103 486q-78 0 -122 52t-27 130q20 97 91.5 142.5t181.5 45.5h248l-182 -856h-91z" />
    <glyph glyph-name="periodcentered" unicode="&#xb7;" horiz-adv-x="240" 
d="M113 308q7 30 32.5 51t55.5 21t46.5 -21t9.5 -51q-6 -30 -31.5 -51t-55.5 -21t-46.5 21t-10.5 51z" />
    <glyph glyph-name="cedilla" unicode="&#xb8;" 
d="M96 0h50l-53 -57q25 5 41 5q33 0 51 -22t11 -52q-8 -40 -47 -65t-89 -25q-55 0 -97 17l24 40q33 -13 63 -13q56 0 65 38q3 17 -8 27.5t-30 10.5q-11 0 -40 -8l-14 17z" />
    <glyph glyph-name="onesuperior" unicode="&#xb9;" horiz-adv-x="313" 
d="M190 280l64 305h-90l12 56h7q94 0 122 59l1 8h60l-90 -428h-86z" />
    <glyph glyph-name="ordmasculine" unicode="&#xba;" horiz-adv-x="316" 
d="M236 367q-79 0 -102 43.5t-6 125.5q18 84 59.5 128t120.5 44t102.5 -44.5t5.5 -127.5q-17 -81 -59 -125t-121 -44zM249 429q34 0 52.5 28.5t28.5 78.5q24 110 -35 110q-34 0 -52 -29t-29 -81q-23 -107 35 -107z" />
    <glyph glyph-name="guillemotright" unicode="&#xbb;" horiz-adv-x="407" 
d="M268 346l-25 -114l-172 -135l23 110l105 82l-70 82l23 110zM431 346l-25 -114l-172 -135l23 110l105 82l-70 82l23 110z" />
    <glyph glyph-name="onequarter" unicode="&#xbc;" horiz-adv-x="721" 
d="M545 0l20 94h-164l13 61l216 273h86l-59 -278h50l-12 -56h-50l-20 -94h-80zM577 150l39 182h-2l-142 -182h105zM67 -31l582 756h74l-582 -756h-74zM160 280l64 305h-90l12 56h7q94 0 122 59l1 8h60l-90 -428h-86z" />
    <glyph glyph-name="onehalf" unicode="&#xbd;" horiz-adv-x="721" 
d="M67 -31l582 756h74l-582 -756h-74zM160 280l64 305h-90l12 56h7q94 0 122 59l1 8h60l-90 -428h-86zM687 0h-276q12 55 40.5 96t62 64.5t66.5 43.5t58 45.5t32 58.5q13 58 -38 58q-32 0 -49 -23t-23 -53h-86q28 138 172 138q135 0 112 -114q-10 -46 -42 -81.5t-66.5 -54.5
t-74 -48.5t-59.5 -61.5h185z" />
    <glyph glyph-name="threequarters" unicode="&#xbe;" horiz-adv-x="721" 
d="M545 0l20 94h-164l13 61l216 273h86l-59 -278h50l-12 -56h-50l-20 -94h-80zM577 150l39 182h-2l-142 -182h105zM101 -31l582 756h74l-582 -756h-74zM190 471l13 62h27q32 0 51.5 17.5t24.5 41.5q4 21 -5.5 37.5t-33.5 16.5q-27 0 -43.5 -19t-22.5 -42h-86q13 59 58.5 91
t112.5 32q52 0 85.5 -27.5t22.5 -80.5q-8 -33 -37 -61t-63 -33l-1 -2q39 -2 59 -28.5t11 -70.5q-13 -62 -62 -97t-114 -35q-74 0 -103 30.5t-15 96.5h86q-5 -24 4.5 -44.5t40.5 -20.5t50.5 20.5t26.5 50.5q14 65 -57 65h-30z" />
    <glyph glyph-name="questiondown" unicode="&#xbf;" horiz-adv-x="463" 
d="M368 346l-13 -60q-9 -40 -30.5 -70.5t-47 -51l-51 -41t-47 -51t-30.5 -70.5q-21 -106 59 -106q90 0 120 141h108q-22 -102 -82.5 -164.5t-162.5 -62.5q-93 0 -134 50t-22 142q10 47 34.5 86t53.5 64.5l57 48.5t49.5 49t27.5 54l9 42h102zM415 538l-24 -114h-114l24 114
h114z" />
    <glyph glyph-name="Agrave" unicode="&#xc0;" horiz-adv-x="519" 
d="M234 266h169l-8 352h-2zM-9 0l355 714h146l36 -714h-119l-7 175h-209l-83 -175h-119zM408 754l-75 144h120l29 -144h-74z" />
    <glyph glyph-name="Aacute" unicode="&#xc1;" horiz-adv-x="519" 
d="M234 266h169l-8 352h-2zM-9 0l355 714h146l36 -714h-119l-7 175h-209l-83 -175h-119zM372 754l91 144h120l-137 -144h-74z" />
    <glyph glyph-name="Acircumflex" unicode="&#xc2;" horiz-adv-x="519" 
d="M234 266h169l-8 352h-2zM-9 0l355 714h146l36 -714h-119l-7 175h-209l-83 -175h-119zM283 754l122 144h108l58 -144h-91l-35 88l-76 -88h-86z" />
    <glyph glyph-name="Atilde" unicode="&#xc3;" horiz-adv-x="519" 
d="M234 266h169l-8 352h-2zM-9 0l355 714h146l36 -714h-119l-7 175h-209l-83 -175h-119zM544 884h62q-8 -39 -40 -78.5t-71 -39.5q-24 0 -61.5 17.5t-51.5 17.5q-16 0 -27.5 -12t-14.5 -28h-62q9 41 42.5 80.5t83.5 39.5q12 0 50 -17q34 -18 52 -18q30 0 38 38z" />
    <glyph glyph-name="Adieresis" unicode="&#xc4;" horiz-adv-x="519" 
d="M234 266h169l-8 352h-2zM-9 0l355 714h146l36 -714h-119l-7 175h-209l-83 -175h-119zM467 774l22 108h96l-22 -108h-96zM301 774l22 108h96l-22 -108h-96z" />
    <glyph glyph-name="Aring" unicode="&#xc5;" horiz-adv-x="519" 
d="M234 266h169l-8 352h-2zM-9 0l355 714h146l36 -714h-119l-7 175h-209l-83 -175h-119zM391 845q-5 -23 8 -39.5t36 -16.5t43 16.5t25 39.5t-8 39.5t-36 16.5t-43.5 -16.5t-24.5 -39.5zM341 845q9 44 46.5 75t81.5 31t68.5 -31t15.5 -75q-10 -44 -47.5 -75t-81.5 -31
t-68.5 31t-14.5 75z" />
    <glyph glyph-name="AE" unicode="&#xc6;" horiz-adv-x="741" 
d="M257 266h137l75 357h-9zM-12 0l425 714h437l-21 -96h-253l-42 -198h239l-20 -96h-239l-49 -228h262l-20 -96h-370l37 175h-167l-100 -175h-119z" />
    <glyph glyph-name="Ccedilla" unicode="&#xc7;" horiz-adv-x="519" 
d="M184 -87l62 73q-112 10 -140.5 100.5t12.5 270.5q42 197 113 284t203 87q215 0 167 -224l-3 -13h-114l3 12q6 35 6 66.5t-20 52.5t-59 20q-44 0 -74 -22t-56.5 -84.5t-50.5 -175.5q-34 -172 -20 -230t80 -58q107 0 143 172l2 12h114l-3 -15q-14 -67 -42.5 -120t-83.5 -92
t-129 -43l-40 -43q25 5 41 5q33 0 51 -22t11 -52q-8 -40 -47 -65t-89 -25q-55 0 -97 17l24 40q32 -13 63 -13q56 0 65 38q3 17 -8 27.5t-30 10.5q-11 0 -40 -8z" />
    <glyph glyph-name="Egrave" unicode="&#xc8;" horiz-adv-x="481" 
d="M59 0l152 714h386l-21 -96h-272l-42 -198h256l-20 -96h-256l-49 -228h280l-20 -96h-394zM394 754l-75 144h120l29 -144h-74z" />
    <glyph glyph-name="Eacute" unicode="&#xc9;" horiz-adv-x="481" 
d="M59 0l152 714h386l-21 -96h-272l-42 -198h256l-20 -96h-256l-49 -228h280l-20 -96h-394zM358 754l91 144h120l-137 -144h-74z" />
    <glyph glyph-name="Ecircumflex" unicode="&#xca;" horiz-adv-x="481" 
d="M59 0l152 714h386l-21 -96h-272l-42 -198h256l-20 -96h-256l-49 -228h280l-20 -96h-394zM269 754l122 144h108l58 -144h-91l-35 88l-76 -88h-86z" />
    <glyph glyph-name="Edieresis" unicode="&#xcb;" horiz-adv-x="481" 
d="M59 0l152 714h386l-21 -96h-272l-42 -198h256l-20 -96h-256l-49 -228h280l-20 -96h-394zM453 774l22 108h96l-22 -108h-96zM287 774l22 108h96l-22 -108h-96z" />
    <glyph glyph-name="Igrave" unicode="&#xcc;" 
d="M54 0l152 714h114l-152 -714h-114zM252 754l-75 144h120l29 -144h-74z" />
    <glyph glyph-name="Iacute" unicode="&#xcd;" 
d="M54 0l152 714h114l-152 -714h-114zM216 754l91 144h120l-137 -144h-74z" />
    <glyph glyph-name="Icircumflex" unicode="&#xce;" 
d="M54 0l152 714h114l-152 -714h-114zM127 754l122 144h108l58 -144h-91l-35 88l-76 -88h-86z" />
    <glyph glyph-name="Idieresis" unicode="&#xcf;" 
d="M54 0l152 714h114l-152 -714h-114zM311 774l22 108h96l-22 -108h-96zM145 774l22 108h96l-22 -108h-96z" />
    <glyph glyph-name="Eth" unicode="&#xd0;" horiz-adv-x="556" 
d="M59 0l71 333h-59l17 80h59l64 301h203q66 0 108.5 -17.5t63.5 -46.5t26 -77t-1 -97t-21 -119t-30 -119t-40.5 -97t-58.5 -77t-83 -46.5t-116 -17.5h-203zM191 86h94q72 0 115 59t76 212q32 151 15 211t-91 60h-94l-45 -215h119l-17 -80h-119z" />
    <glyph glyph-name="Ntilde" unicode="&#xd1;" horiz-adv-x="574" 
d="M59 0l152 714h139l94 -532h2l113 532h108l-152 -714h-139l-91 546h-2l-116 -546h-108zM564 884h62q-8 -39 -40 -78.5t-71 -39.5q-24 0 -61.5 17.5t-51.5 17.5q-16 0 -27.5 -12t-14.5 -28h-62q9 41 42.5 80.5t83.5 39.5q12 0 50 -17q34 -18 52 -18q30 0 38 38z" />
    <glyph glyph-name="Ograve" unicode="&#xd2;" horiz-adv-x="556" 
d="M275 -14q-123 0 -160.5 90t3.5 281q41 192 116.5 281.5t198.5 89.5t160.5 -90t-3.5 -281q-41 -192 -116.5 -281.5t-198.5 -89.5zM293 72q28 0 50.5 11t46.5 40.5t46 88.5t41 148q18 87 21.5 145t-8.5 86.5t-30 39.5t-46 11t-50.5 -11t-46 -39.5t-45 -86.5t-39.5 -145
q-19 -89 -23 -148t7.5 -88.5t29.5 -40.5t46 -11zM419 754l-75 144h120l29 -144h-74z" />
    <glyph glyph-name="Oacute" unicode="&#xd3;" horiz-adv-x="556" 
d="M275 -14q-123 0 -160.5 90t3.5 281q41 192 116.5 281.5t198.5 89.5t160.5 -90t-3.5 -281q-41 -192 -116.5 -281.5t-198.5 -89.5zM293 72q28 0 50.5 11t46.5 40.5t46 88.5t41 148q18 87 21.5 145t-8.5 86.5t-30 39.5t-46 11t-50.5 -11t-46 -39.5t-45 -86.5t-39.5 -145
q-19 -89 -23 -148t7.5 -88.5t29.5 -40.5t46 -11zM383 754l91 144h120l-137 -144h-74z" />
    <glyph glyph-name="Ocircumflex" unicode="&#xd4;" horiz-adv-x="556" 
d="M275 -14q-123 0 -160.5 90t3.5 281q41 192 116.5 281.5t198.5 89.5t160.5 -90t-3.5 -281q-41 -192 -116.5 -281.5t-198.5 -89.5zM293 72q28 0 50.5 11t46.5 40.5t46 88.5t41 148q18 87 21.5 145t-8.5 86.5t-30 39.5t-46 11t-50.5 -11t-46 -39.5t-45 -86.5t-39.5 -145
q-19 -89 -23 -148t7.5 -88.5t29.5 -40.5t46 -11zM294 754l122 144h108l58 -144h-91l-35 88l-76 -88h-86z" />
    <glyph glyph-name="Otilde" unicode="&#xd5;" horiz-adv-x="556" 
d="M275 -14q-123 0 -160.5 90t3.5 281q41 192 116.5 281.5t198.5 89.5t160.5 -90t-3.5 -281q-41 -192 -116.5 -281.5t-198.5 -89.5zM293 72q28 0 50.5 11t46.5 40.5t46 88.5t41 148q18 87 21.5 145t-8.5 86.5t-30 39.5t-46 11t-50.5 -11t-46 -39.5t-45 -86.5t-39.5 -145
q-19 -89 -23 -148t7.5 -88.5t29.5 -40.5t46 -11zM555 884h62q-8 -39 -40 -78.5t-71 -39.5q-24 0 -61.5 17.5t-51.5 17.5q-16 0 -27.5 -12t-14.5 -28h-62q9 41 42.5 80.5t83.5 39.5q12 0 50 -17q34 -18 52 -18q30 0 38 38z" />
    <glyph glyph-name="Odieresis" unicode="&#xd6;" horiz-adv-x="556" 
d="M275 -14q-123 0 -160.5 90t3.5 281q41 192 116.5 281.5t198.5 89.5t160.5 -90t-3.5 -281q-41 -192 -116.5 -281.5t-198.5 -89.5zM293 72q28 0 50.5 11t46.5 40.5t46 88.5t41 148q18 87 21.5 145t-8.5 86.5t-30 39.5t-46 11t-50.5 -11t-46 -39.5t-45 -86.5t-39.5 -145
q-19 -89 -23 -148t7.5 -88.5t29.5 -40.5t46 -11zM478 774l22 108h96l-22 -108h-96zM312 774l22 108h96l-22 -108h-96z" />
    <glyph glyph-name="multiply" unicode="&#xd7;" horiz-adv-x="600" 
d="M298 253l-137 174l68 56l136 -174l212 174l44 -56l-212 -174l138 -174l-68 -56l-138 175l-210 -175l-44 56z" />
    <glyph glyph-name="Oslash" unicode="&#xd8;" horiz-adv-x="556" 
d="M497 535l-271 -428q18 -35 67 -35q28 0 50.5 11t46.5 40.5t46 88.5t41 148q22 109 22 175h-2zM212 179l271 428q-19 35 -69 35q-28 0 -50.5 -11t-46 -39.5t-45 -86.5t-39.5 -145q-25 -116 -23 -181h2zM125 -52l-46 24l50 78q-58 85 -11 307q41 192 116.5 281.5
t198.5 89.5q68 0 109 -28l41 65l46 -24l-50 -77q58 -85 11 -307q-41 -192 -116.5 -281.5t-198.5 -89.5q-68 0 -108 28z" />
    <glyph glyph-name="Ugrave" unicode="&#xd9;" horiz-adv-x="537" 
d="M202 714h114l-109 -512q-27 -130 77 -130q105 0 132 130l109 512h114l-107 -503q-25 -119 -92 -172t-174 -53t-151.5 53t-19.5 172zM410 754l-75 144h120l29 -144h-74z" />
    <glyph glyph-name="Uacute" unicode="&#xda;" horiz-adv-x="537" 
d="M202 714h114l-109 -512q-27 -130 77 -130q105 0 132 130l109 512h114l-107 -503q-25 -119 -92 -172t-174 -53t-151.5 53t-19.5 172zM374 754l91 144h120l-137 -144h-74z" />
    <glyph glyph-name="Ucircumflex" unicode="&#xdb;" horiz-adv-x="537" 
d="M202 714h114l-109 -512q-27 -130 77 -130q105 0 132 130l109 512h114l-107 -503q-25 -119 -92 -172t-174 -53t-151.5 53t-19.5 172zM285 754l122 144h108l58 -144h-91l-35 88l-76 -88h-86z" />
    <glyph glyph-name="Udieresis" unicode="&#xdc;" horiz-adv-x="537" 
d="M202 714h114l-109 -512q-27 -130 77 -130q105 0 132 130l109 512h114l-107 -503q-25 -119 -92 -172t-174 -53t-151.5 53t-19.5 172zM469 774l22 108h96l-22 -108h-96zM303 774l22 108h96l-22 -108h-96z" />
    <glyph glyph-name="Yacute" unicode="&#xdd;" horiz-adv-x="481" 
d="M180 0l59 279l-91 435h127l54 -308l189 308h119l-284 -435l-59 -279h-114zM346 754l91 144h120l-137 -144h-74z" />
    <glyph glyph-name="Thorn" unicode="&#xde;" horiz-adv-x="500" 
d="M278 492l-53 -247h81q50 0 88.5 30t51.5 93q13 61 -8 92.5t-87 31.5h-73zM59 0l152 714h114l-29 -136h112q99 0 136 -56t17 -152q-21 -97 -88 -154t-166 -57h-100l-34 -159h-114z" />
    <glyph glyph-name="germandbls" unicode="&#xdf;" horiz-adv-x="481" 
d="M208 -6l18 86h27q100 0 130 140q29 143 -69 143h-26l17 80h19q27 0 59 23t43 75q21 101 -59 101q-78 0 -100 -101l-115 -541h-108l113 533q41 189 228 189q50 0 87 -13t58 -51.5t8 -99.5q-27 -123 -132 -148v-2q48 -5 72.5 -34t25 -68.5t-6.5 -83.5q-22 -105 -82 -166.5
t-156 -61.5h-51z" />
    <glyph glyph-name="agrave" unicode="&#xe0;" horiz-adv-x="463" 
d="M494 420l-65 -308q-3 -15 2.5 -26.5t17.5 -11.5t18 3l-15 -70q-30 -13 -55 -13q-39 0 -60.5 17t-15.5 54h-2q-60 -79 -151 -79q-66 0 -95 38t-13 113q18 82 54.5 115t106.5 54l89 23q36 10 53.5 23.5t24.5 45.5q8 39 -4 59.5t-53 20.5q-49 0 -71.5 -28t-32.5 -75h-102
q19 89 71 133t155 44q77 0 117 -32t26 -100zM344 194l19 90q-19 -13 -70.5 -30t-59.5 -20q-48 -21 -63 -87q-7 -36 5.5 -58.5t44.5 -22.5q48 0 79.5 33.5t44.5 94.5zM342 608l-75 144h120l29 -144h-74z" />
    <glyph glyph-name="aacute" unicode="&#xe1;" horiz-adv-x="463" 
d="M494 420l-65 -308q-3 -15 2.5 -26.5t17.5 -11.5t18 3l-15 -70q-30 -13 -55 -13q-39 0 -60.5 17t-15.5 54h-2q-60 -79 -151 -79q-66 0 -95 38t-13 113q18 82 54.5 115t106.5 54l89 23q36 10 53.5 23.5t24.5 45.5q8 39 -4 59.5t-53 20.5q-49 0 -71.5 -28t-32.5 -75h-102
q19 89 71 133t155 44q77 0 117 -32t26 -100zM344 194l19 90q-19 -13 -70.5 -30t-59.5 -20q-48 -21 -63 -87q-7 -36 5.5 -58.5t44.5 -22.5q48 0 79.5 33.5t44.5 94.5zM306 608l91 144h120l-137 -144h-74z" />
    <glyph glyph-name="acircumflex" unicode="&#xe2;" horiz-adv-x="463" 
d="M494 420l-65 -308q-3 -15 2.5 -26.5t17.5 -11.5t18 3l-15 -70q-30 -13 -55 -13q-39 0 -60.5 17t-15.5 54h-2q-60 -79 -151 -79q-66 0 -95 38t-13 113q18 82 54.5 115t106.5 54l89 23q36 10 53.5 23.5t24.5 45.5q8 39 -4 59.5t-53 20.5q-49 0 -71.5 -28t-32.5 -75h-102
q19 89 71 133t155 44q77 0 117 -32t26 -100zM344 194l19 90q-19 -13 -70.5 -30t-59.5 -20q-48 -21 -63 -87q-7 -36 5.5 -58.5t44.5 -22.5q48 0 79.5 33.5t44.5 94.5zM217 608l122 144h108l58 -144h-91l-35 88l-76 -88h-86z" />
    <glyph glyph-name="atilde" unicode="&#xe3;" horiz-adv-x="463" 
d="M494 420l-65 -308q-3 -15 2.5 -26.5t17.5 -11.5t18 3l-15 -70q-30 -13 -55 -13q-39 0 -60.5 17t-15.5 54h-2q-60 -79 -151 -79q-66 0 -95 38t-13 113q18 82 54.5 115t106.5 54l89 23q36 10 53.5 23.5t24.5 45.5q8 39 -4 59.5t-53 20.5q-49 0 -71.5 -28t-32.5 -75h-102
q19 89 71 133t155 44q77 0 117 -32t26 -100zM344 194l19 90q-19 -13 -70.5 -30t-59.5 -20q-48 -21 -63 -87q-7 -36 5.5 -58.5t44.5 -22.5q48 0 79.5 33.5t44.5 94.5zM478 738h62q-8 -39 -40 -78.5t-71 -39.5q-24 0 -61.5 17.5t-51.5 17.5q-16 0 -27.5 -12t-14.5 -28h-62
q9 41 42.5 80.5t83.5 39.5q12 0 50 -17q34 -18 52 -18q30 0 38 38z" />
    <glyph glyph-name="adieresis" unicode="&#xe4;" horiz-adv-x="463" 
d="M494 420l-65 -308q-3 -15 2.5 -26.5t17.5 -11.5t18 3l-15 -70q-30 -13 -55 -13q-39 0 -60.5 17t-15.5 54h-2q-60 -79 -151 -79q-66 0 -95 38t-13 113q18 82 54.5 115t106.5 54l89 23q36 10 53.5 23.5t24.5 45.5q8 39 -4 59.5t-53 20.5q-49 0 -71.5 -28t-32.5 -75h-102
q19 89 71 133t155 44q77 0 117 -32t26 -100zM344 194l19 90q-19 -13 -70.5 -30t-59.5 -20q-48 -21 -63 -87q-7 -36 5.5 -58.5t44.5 -22.5q48 0 79.5 33.5t44.5 94.5zM400 628l23 108h96l-23 -108h-96zM234 628l23 108h96l-23 -108h-96z" />
    <glyph glyph-name="aring" unicode="&#xe5;" horiz-adv-x="463" 
d="M494 420l-65 -308q-3 -15 2.5 -26.5t17.5 -11.5t18 3l-15 -70q-30 -13 -55 -13q-39 0 -60.5 17t-15.5 54h-2q-60 -79 -151 -79q-66 0 -95 38t-13 113q18 82 54.5 115t106.5 54l89 23q36 10 53.5 23.5t24.5 45.5q8 39 -4 59.5t-53 20.5q-49 0 -71.5 -28t-32.5 -75h-102
q19 89 71 133t155 44q77 0 117 -32t26 -100zM344 194l19 90q-19 -13 -70.5 -30t-59.5 -20q-48 -21 -63 -87q-7 -36 5.5 -58.5t44.5 -22.5q48 0 79.5 33.5t44.5 94.5zM325 699q-5 -23 8 -39.5t36 -16.5t43 16.5t25 39.5t-8.5 39.5t-36.5 16.5t-43 -16.5t-24 -39.5zM275 699
q9 44 46.5 75t81.5 31t68.5 -31t15.5 -75q-10 -44 -47.5 -75t-81.5 -31t-68.5 31t-14.5 75z" />
    <glyph glyph-name="ae" unicode="&#xe6;" horiz-adv-x="704" 
d="M469 329h160l6 29q26 120 -52 120q-43 0 -71.5 -40.5t-37.5 -85.5zM721 255h-269l-8 -38q-33 -153 46 -157q27 0 48.5 13.5t34 35t18.5 38.5t10 33h102q-19 -89 -80.5 -141.5t-149.5 -52.5q-37 1 -62.5 10.5t-38 28t-17 30t-8.5 29.5q-30 -47 -74 -72.5t-92 -25.5
q-65 0 -101 38t-20 113q17 78 58 113t110 52l90 22q29 7 41.5 21.5t20.5 52.5q16 80 -49 80q-49 0 -71.5 -28t-32.5 -75h-102q19 89 71 133t155 44q31 0 54 -7.5t34.5 -20t16.5 -22t7 -19.5q54 67 146 69q66 0 99.5 -29t36.5 -82t-12 -129zM337 191l18 85q-16 -15 -85 -32
q-53 -14 -72.5 -37.5t-28.5 -65.5q-6 -31 6 -53t41 -22q94 0 121 125z" />
    <glyph glyph-name="ccedilla" unicode="&#xe7;" horiz-adv-x="444" 
d="M146 -87l62 75q-67 4 -100 41.5t-34.5 98t14.5 141.5q29 137 89.5 210t170.5 73q46 1 78 -13t47 -34.5t21 -48.5t4.5 -51t-6.5 -46h-108q4 26 5 51.5t-13.5 44t-44.5 17.5q-54 0 -84 -51t-51 -152q-23 -89 -14 -146t63 -57q43 -1 69.5 32.5t40.5 97.5h102
q-25 -94 -71.5 -146.5t-126.5 -60.5l-43 -46q25 5 41 5q33 0 51 -22t11 -52q-8 -40 -47 -65t-89 -25q-55 0 -97 17l24 40q32 -13 63 -13q56 0 65 38q3 17 -8 27.5t-30 10.5q-11 0 -40 -8z" />
    <glyph glyph-name="egrave" unicode="&#xe8;" horiz-adv-x="463" 
d="M480 255h-281l-6 -31q-36 -164 55 -164q27 0 48.5 13.5t34 35t18.5 38.5t10 33h102q-19 -89 -80.5 -141.5t-149.5 -52.5q-25 0 -44.5 3.5t-42 12.5t-36 28.5t-23 48.5t-8 75.5t14.5 106.5q10 47 22.5 85t34 78t48.5 67t67 44t89 17q107 0 136 -59.5t3 -180.5zM215 329
h173l6 29q26 120 -57 120q-48 0 -77.5 -39t-42.5 -99zM354 608l-75 144h120l29 -144h-74z" />
    <glyph glyph-name="eacute" unicode="&#xe9;" horiz-adv-x="463" 
d="M480 255h-281l-6 -31q-36 -164 55 -164q27 0 48.5 13.5t34 35t18.5 38.5t10 33h102q-19 -89 -80.5 -141.5t-149.5 -52.5q-25 0 -44.5 3.5t-42 12.5t-36 28.5t-23 48.5t-8 75.5t14.5 106.5q10 47 22.5 85t34 78t48.5 67t67 44t89 17q107 0 136 -59.5t3 -180.5zM215 329
h173l6 29q26 120 -57 120q-48 0 -77.5 -39t-42.5 -99zM318 608l91 144h120l-137 -144h-74z" />
    <glyph glyph-name="ecircumflex" unicode="&#xea;" horiz-adv-x="463" 
d="M480 255h-281l-6 -31q-36 -164 55 -164q27 0 48.5 13.5t34 35t18.5 38.5t10 33h102q-19 -89 -80.5 -141.5t-149.5 -52.5q-25 0 -44.5 3.5t-42 12.5t-36 28.5t-23 48.5t-8 75.5t14.5 106.5q10 47 22.5 85t34 78t48.5 67t67 44t89 17q107 0 136 -59.5t3 -180.5zM215 329
h173l6 29q26 120 -57 120q-48 0 -77.5 -39t-42.5 -99zM229 608l122 144h108l58 -144h-91l-35 88l-76 -88h-86z" />
    <glyph glyph-name="edieresis" unicode="&#xeb;" horiz-adv-x="463" 
d="M480 255h-281l-6 -31q-36 -164 55 -164q27 0 48.5 13.5t34 35t18.5 38.5t10 33h102q-19 -89 -80.5 -141.5t-149.5 -52.5q-25 0 -44.5 3.5t-42 12.5t-36 28.5t-23 48.5t-8 75.5t14.5 106.5q10 47 22.5 85t34 78t48.5 67t67 44t89 17q107 0 136 -59.5t3 -180.5zM215 329
h173l6 29q26 120 -57 120q-48 0 -77.5 -39t-42.5 -99zM412 628l23 108h96l-23 -108h-96zM246 628l23 108h96l-23 -108h-96z" />
    <glyph glyph-name="igrave" unicode="&#xec;" 
d="M57 0l114 538h108l-114 -538h-108zM221 608l-75 144h120l29 -144h-74z" />
    <glyph glyph-name="iacute" unicode="&#xed;" 
d="M57 0l114 538h108l-114 -538h-108zM185 608l91 144h120l-137 -144h-74z" />
    <glyph glyph-name="icircumflex" unicode="&#xee;" 
d="M57 0l114 538h108l-114 -538h-108zM96 608l122 144h108l58 -144h-91l-35 88l-76 -88h-86z" />
    <glyph glyph-name="idieresis" unicode="&#xef;" 
d="M57 0l114 538h108l-114 -538h-108zM279 628l23 108h96l-23 -108h-96zM113 628l23 108h96l-23 -108h-96z" />
    <glyph glyph-name="eth" unicode="&#xf0;" horiz-adv-x="463" 
d="M196 269q-25 -103 -15.5 -153t64.5 -50q56 0 84.5 46.5t51.5 156.5q9 44 12 75t-0.5 58.5t-19.5 41.5t-45 14q-54 0 -83.5 -49t-48.5 -140zM221 598l-28 36l96 47q-29 33 -53 52l88 43q21 -15 55 -51l102 49l24 -36l-96 -47q78 -93 95 -186t-15 -236q-59 -283 -261 -283
q-199 0 -140 283q57 269 241 269q52 0 75 -33l3 2q-33 71 -89 139z" />
    <glyph glyph-name="ntilde" unicode="&#xf1;" horiz-adv-x="481" 
d="M52 0l114 538h102l-13 -63h3q59 77 154 77q65 0 92.5 -34t10.5 -112l-86 -406h-108l78 369q11 53 -1.5 75t-52.5 22q-35 0 -66 -27.5t-42 -77.5l-77 -361h-108zM487 738h62q-8 -39 -40 -78.5t-71 -39.5q-24 0 -61.5 17.5t-51.5 17.5q-16 0 -27.5 -12t-14.5 -28h-62
q9 41 42.5 80.5t83.5 39.5q12 0 50 -17q34 -18 52 -18q30 0 38 38z" />
    <glyph glyph-name="ograve" unicode="&#xf2;" horiz-adv-x="463" 
d="M88 269q29 137 89.5 210t170.5 73q76 0 114.5 -36.5t41 -99t-14.5 -147.5q-59 -283 -261 -283q-199 0 -140 283zM196 269q-25 -103 -15.5 -153t64.5 -50q56 0 84.5 46.5t51.5 156.5q23 89 14 146t-64 57q-54 0 -84 -51t-51 -152zM342 608l-75 144h120l29 -144h-74z" />
    <glyph glyph-name="oacute" unicode="&#xf3;" horiz-adv-x="463" 
d="M88 269q29 137 89.5 210t170.5 73q76 0 114.5 -36.5t41 -99t-14.5 -147.5q-59 -283 -261 -283q-199 0 -140 283zM196 269q-25 -103 -15.5 -153t64.5 -50q56 0 84.5 46.5t51.5 156.5q23 89 14 146t-64 57q-54 0 -84 -51t-51 -152zM306 608l91 144h120l-137 -144h-74z" />
    <glyph glyph-name="ocircumflex" unicode="&#xf4;" horiz-adv-x="463" 
d="M88 269q29 137 89.5 210t170.5 73q76 0 114.5 -36.5t41 -99t-14.5 -147.5q-59 -283 -261 -283q-199 0 -140 283zM196 269q-25 -103 -15.5 -153t64.5 -50q56 0 84.5 46.5t51.5 156.5q23 89 14 146t-64 57q-54 0 -84 -51t-51 -152zM217 608l122 144h108l58 -144h-91l-35 88
l-76 -88h-86z" />
    <glyph glyph-name="otilde" unicode="&#xf5;" horiz-adv-x="463" 
d="M88 269q29 137 89.5 210t170.5 73q76 0 114.5 -36.5t41 -99t-14.5 -147.5q-59 -283 -261 -283q-199 0 -140 283zM196 269q-25 -103 -15.5 -153t64.5 -50q56 0 84.5 46.5t51.5 156.5q23 89 14 146t-64 57q-54 0 -84 -51t-51 -152zM478 738h62q-8 -39 -40 -78.5t-71 -39.5
q-24 0 -61.5 17.5t-51.5 17.5q-16 0 -27.5 -12t-14.5 -28h-62q9 41 42.5 80.5t83.5 39.5q12 0 50 -17q34 -18 52 -18q30 0 38 38z" />
    <glyph glyph-name="odieresis" unicode="&#xf6;" horiz-adv-x="463" 
d="M88 269q29 137 89.5 210t170.5 73q76 0 114.5 -36.5t41 -99t-14.5 -147.5q-59 -283 -261 -283q-199 0 -140 283zM196 269q-25 -103 -15.5 -153t64.5 -50q56 0 84.5 46.5t51.5 156.5q23 89 14 146t-64 57q-54 0 -84 -51t-51 -152zM400 628l23 108h96l-23 -108h-96z
M234 628l23 108h96l-23 -108h-96z" />
    <glyph glyph-name="divide" unicode="&#xf7;" horiz-adv-x="600" 
d="M238 48q7 30 32.5 51t55.5 21t46.5 -21t9.5 -51q-6 -30 -31.5 -51t-55.5 -21t-46.5 21t-10.5 51zM92 210l18 86h506l-18 -86h-506zM325 458q7 30 32.5 51t55.5 21t46.5 -21t9.5 -51q-6 -30 -31.5 -51t-55.5 -21t-46.5 21t-10.5 51z" />
    <glyph glyph-name="oslash" unicode="&#xf8;" horiz-adv-x="463" 
d="M181 153l201 297q-17 22 -51 22q-54 0 -84 -51t-51 -152q-14 -69 -17 -116h2zM396 386l-200 -298q16 -22 49 -22q55 0 85 51t51 152q16 70 17 117h-2zM51 -36l51 74q-49 62 -14 231q29 137 89.5 210t170.5 73q55 0 89 -20l44 65l42 -26l-48 -70q50 -64 14 -232
q-29 -136 -89.5 -209.5t-171.5 -73.5q-55 0 -89 19l-45 -67z" />
    <glyph glyph-name="ugrave" unicode="&#xf9;" horiz-adv-x="481" 
d="M327 0l13 63h-3q-59 -77 -154 -77q-65 0 -91 39t-6 137l80 376h108l-82 -386q-9 -43 5.5 -61.5t50.5 -18.5q37 0 67.5 23.5t39.5 66.5l80 376h108l-114 -538h-102zM351 608l-75 144h120l29 -144h-74z" />
    <glyph glyph-name="uacute" unicode="&#xfa;" horiz-adv-x="481" 
d="M327 0l13 63h-3q-59 -77 -154 -77q-65 0 -91 39t-6 137l80 376h108l-82 -386q-9 -43 5.5 -61.5t50.5 -18.5q37 0 67.5 23.5t39.5 66.5l80 376h108l-114 -538h-102zM315 608l91 144h120l-137 -144h-74z" />
    <glyph glyph-name="ucircumflex" unicode="&#xfb;" horiz-adv-x="481" 
d="M327 0l13 63h-3q-59 -77 -154 -77q-65 0 -91 39t-6 137l80 376h108l-82 -386q-9 -43 5.5 -61.5t50.5 -18.5q37 0 67.5 23.5t39.5 66.5l80 376h108l-114 -538h-102zM226 608l122 144h108l58 -144h-91l-35 88l-76 -88h-86z" />
    <glyph glyph-name="udieresis" unicode="&#xfc;" horiz-adv-x="481" 
d="M327 0l13 63h-3q-59 -77 -154 -77q-65 0 -91 39t-6 137l80 376h108l-82 -386q-9 -43 5.5 -61.5t50.5 -18.5q37 0 67.5 23.5t39.5 66.5l80 376h108l-114 -538h-102zM409 628l23 108h96l-23 -108h-96zM243 628l23 108h96l-23 -108h-96z" />
    <glyph glyph-name="yacute" unicode="&#xfd;" horiz-adv-x="426" 
d="M122 538h116l7 -404h2l172 404h113l-266 -558q-53 -107 -95 -136.5t-128 -27.5q-16 0 -42 4l18 86q24 -4 34 -4q59 0 82 42l23 44zM287 608l91 144h120l-137 -144h-74z" />
    <glyph glyph-name="thorn" unicode="&#xfe;" horiz-adv-x="481" 
d="M15 -176l189 890h108l-51 -239h2q48 77 138 77q166 0 105 -290q-17 -81 -44.5 -138t-59 -85.5t-61 -40.5t-60.5 -12q-43 0 -70.5 20.5t-35.5 56.5h-2l-50 -239h-108zM212 275q-11 -52 -14.5 -87t0.5 -62.5t19.5 -40.5t43.5 -13q48 0 78.5 43t53.5 152q23 91 13.5 145
t-62.5 54q-52 0 -81.5 -48t-50.5 -143z" />
    <glyph glyph-name="ydieresis" unicode="&#xff;" horiz-adv-x="426" 
d="M122 538h116l7 -404h2l172 404h113l-266 -558q-53 -107 -95 -136.5t-128 -27.5q-16 0 -42 4l18 86q24 -4 34 -4q59 0 82 42l23 44zM381 628l23 108h96l-23 -108h-96zM215 628l23 108h96l-23 -108h-96z" />
    <glyph glyph-name="dotlessi" unicode="&#x131;" 
d="M57 0l114 538h108l-114 -538h-108z" />
    <glyph glyph-name="Lslash" unicode="&#x141;" horiz-adv-x="444" 
d="M46 0l55 261l-64 -39l21 98l64 39l76 355h114l-59 -277l167 101l-20 -98l-168 -101l-52 -243h276l-20 -96h-390z" />
    <glyph glyph-name="lslash" unicode="&#x142;" 
d="M57 0l61 286l-66 -40l21 96l65 40l71 332h108l-55 -258l65 40l-20 -96l-65 -40l-77 -360h-108z" />
    <glyph glyph-name="OE" unicode="&#x152;" horiz-adv-x="796" 
d="M400 0l11 51h-2q-55 -65 -152 -65q-112 0 -145.5 88.5t6.5 282.5q40 190 114 280.5t187 90.5q95 0 121 -58h2l10 44h354l-21 -96h-254l-42 -198h238l-20 -96h-238l-49 -228h262l-20 -96h-362zM442 236l52 242q20 95 -0.5 129.5t-71.5 34.5q-31 0 -55 -11t-48.5 -40
t-45.5 -86.5t-40 -144.5q-19 -89 -23 -148t7.5 -88.5t29.5 -40.5t46 -11q56 0 92.5 34t56.5 130z" />
    <glyph glyph-name="oe" unicode="&#x153;" horiz-adv-x="722" 
d="M493 329h160l6 29q26 120 -52 120q-43 0 -71.5 -40.5t-37.5 -85.5zM625 180h102q-19 -89 -80.5 -141.5t-149.5 -52.5q-34 0 -58.5 10.5t-35.5 27t-15 27.5t-5 21q-61 -86 -166 -86q-70 0 -105.5 36.5t-37.5 99t14 147.5q29 136 89 209.5t167 73.5q35 0 60 -7.5t39 -22
t20 -25t12 -27.5q66 82 158 82q66 0 99.5 -29t36.5 -82t-12 -129l-12 -57h-269l-8 -38q-33 -153 46 -157q27 0 48.5 13.5t34 35t18.5 38.5t10 33zM196 269q-23 -89 -14.5 -146t59.5 -57q55 0 85 51t51 152q23 89 14 146t-64 57q-52 0 -81 -51.5t-50 -151.5z" />
    <glyph glyph-name="Scaron" unicode="&#x160;" horiz-adv-x="519" 
d="M80 221h114l-4 -18q-27 -131 89 -131q51 0 86 30.5t44 73.5q11 54 -8 83t-67 44l-72 27q-72 30 -97.5 75.5t-9.5 120.5q20 96 91.5 149t173.5 53q203 0 162 -188l-4 -16h-114l4 15q21 103 -79 103q-41 0 -73.5 -25t-43.5 -78q-10 -45 9 -72t72 -49l71 -28
q70 -27 95.5 -71.5t9.5 -117.5q-47 -215 -282 -215q-63 0 -104 20t-55.5 51.5t-18.5 70t7 76.5zM365 754l-58 144h91l35 -88l76 88h86l-122 -144h-108z" />
    <glyph glyph-name="scaron" unicode="&#x161;" horiz-adv-x="426" 
d="M467 381h-102l3 14q17 83 -53 83q-78 0 -92 -70q-7 -31 6 -47.5t53 -31.5l64 -24q57 -21 77 -56.5t7 -98.5q-18 -82 -79.5 -123t-148.5 -41q-97 0 -128 42t-13 125l4 20h96l-4 -17q-10 -48 4.5 -72t59.5 -24q87 0 105 79q12 59 -43 79l-81 31q-57 21 -76 56t-6 99
q15 74 72 111t143 37q49 0 81 -13.5t44 -35t16 -47.5t-4 -51zM287 608l-58 144h91l35 -88l76 88h86l-122 -144h-108z" />
    <glyph glyph-name="Ydieresis" unicode="&#x178;" horiz-adv-x="481" 
d="M180 0l59 279l-91 435h127l54 -308l189 308h119l-284 -435l-59 -279h-114zM441 774l22 108h96l-22 -108h-96zM275 774l22 108h96l-22 -108h-96z" />
    <glyph glyph-name="Zcaron" unicode="&#x17d;" horiz-adv-x="463" 
d="M18 0l19 90l411 528h-281l21 96h406l-21 -96l-410 -522h302l-20 -96h-427zM337 754l-58 144h91l35 -88l76 88h86l-122 -144h-108z" />
    <glyph glyph-name="zcaron" unicode="&#x17e;" horiz-adv-x="407" 
d="M25 0l18 84l312 363h-221l19 91h343l-19 -89l-302 -358h226l-19 -91h-357zM278 608l-58 144h91l35 -88l76 88h86l-122 -144h-108z" />
    <glyph glyph-name="florin" unicode="&#x192;" horiz-adv-x="480" 
d="M187 434h106l56 129q33 75 76 113t118 38q47 0 75 -8l-31 -76l-14 2q-14 2 -23 2q-35 0 -60.5 -21t-47.5 -72l-47 -107h112l-25 -68h-114l-155 -371q-38 -90 -84 -130.5t-126 -40.5q-45 0 -65 6l33 78q17 -4 42 -4q37 0 56.5 18.5t38.5 64.5l158 379h-104z" />
    <glyph glyph-name="circumflex" unicode="&#x2c6;" 
d="M96 608l122 144h108l58 -144h-91l-35 88l-76 -88h-86z" />
    <glyph glyph-name="caron" unicode="&#x2c7;" 
d="M185 608l-58 144h91l35 -88l76 88h86l-122 -144h-108z" />
    <glyph glyph-name="uni02C9" unicode="&#x2c9;" 
d="M122 714h282l-13 -62h-282z" />
    <glyph glyph-name="breve" unicode="&#x2d8;" 
d="M136 743h62q-5 -22 10 -44.5t47 -22.5t56 22.5t29 44.5h62q-12 -58 -56 -96.5t-106 -38.5t-89 38.5t-15 96.5z" />
    <glyph glyph-name="dotaccent" unicode="&#x2d9;" 
d="M196 628l23 108h96l-23 -108h-96z" />
    <glyph glyph-name="ring" unicode="&#x2da;" 
d="M204 699q-5 -23 8 -39.5t36 -16.5t43 16.5t25 39.5t-8.5 39.5t-36.5 16.5t-43 -16.5t-24 -39.5zM154 699q9 44 46.5 75t81.5 31t68.5 -31t15.5 -75q-10 -44 -47.5 -75t-81.5 -31t-68.5 31t-14.5 75z" />
    <glyph glyph-name="ogonek" unicode="&#x2db;" 
d="M121 0h50q-81 -62 -91 -115q-12 -57 44 -57q22 0 46 7l-3 -42q-36 -9 -80 -9q-49 0 -74 22t-16 67q7 36 41.5 70t82.5 57z" />
    <glyph glyph-name="tilde" unicode="&#x2dc;" 
d="M357 738h62q-8 -39 -40 -78.5t-71 -39.5q-24 0 -61.5 17.5t-51.5 17.5q-16 0 -27.5 -12t-14.5 -28h-62q9 41 42.5 80.5t83.5 39.5q12 0 50 -17q34 -18 52 -18q30 0 38 38z" />
    <glyph glyph-name="hungarumlaut" unicode="&#x2dd;" 
d="M65 608l91 144h120l-137 -144h-74zM265 608l91 144h120l-137 -144h-74z" />
    <glyph glyph-name="uni03A9" unicode="&#x3a9;" horiz-adv-x="608" 
d="M173 82l1 3q-36 52 -49 123.5t4 173.5q30 140 122.5 232.5t205.5 92.5q59 0 102 -27.5t63 -72.5t26.5 -102t-8.5 -116q-20 -94 -69 -174.5t-105 -129.5l-1 -3h121l-17 -82h-217l13 60q53 37 101.5 116.5t72.5 190.5q21 103 -3.5 178.5t-98.5 75.5q-73 0 -132.5 -72.5
t-83.5 -185.5q-20 -111 -6 -189.5t51 -113.5l-13 -60h-218l17 82h121z" />
    <glyph glyph-name="uni03BC" unicode="&#x3bc;" horiz-adv-x="481" 
d="M15 -176l151 714h108l-78 -369q-11 -53 1.5 -75t52.5 -22q36 0 67 27.5t42 77.5l76 361h108l-114 -538h-102l13 63h-3q-28 -36 -63 -56.5t-67 -20.5t-46 18l-38 -180h-108z" />
    <glyph glyph-name="pi" unicode="&#x3c0;" horiz-adv-x="515" 
d="M584 435h-64l-62 -295q-18 -83 -18 -140h-91q-8 28 14 136l63 299h-133q-25 -99 -69.5 -230t-82.5 -205h-92q41 84 84.5 212t65.5 223q-57 0 -90 -10l3 67q45 29 143 29h356z" />
    <glyph glyph-name="uni2010" unicode="&#x2010;" horiz-adv-x="352" 
d="M96 238l21 102h262l-21 -102h-262z" />
    <glyph glyph-name="endash" unicode="&#x2013;" horiz-adv-x="500" 
d="M51 241l21 96h500l-21 -96h-500z" />
    <glyph glyph-name="emdash" unicode="&#x2014;" horiz-adv-x="1000" 
d="M51 241l21 96h1000l-21 -96h-1000z" />
    <glyph glyph-name="quoteleft" unicode="&#x2018;" horiz-adv-x="240" 
d="M154 428l28 132q14 64 48 103t99 51l-13 -58q-52 -13 -67 -81l-3 -15h50l-28 -132h-114z" />
    <glyph glyph-name="quoteright" unicode="&#x2019;" horiz-adv-x="240" 
d="M187 582l28 132h114l-28 -132q-14 -64 -48 -103t-99 -51l12 58q52 13 68 81l3 15h-50z" />
    <glyph glyph-name="quotesinglbase" unicode="&#x201a;" horiz-adv-x="240" 
d="M63 0l28 132h114l-28 -132q-14 -64 -48 -103t-99 -51l13 58q52 13 67 81l3 15h-50z" />
    <glyph glyph-name="quotedblleft" unicode="&#x201c;" horiz-adv-x="426" 
d="M158 428l28 132q14 64 48 103t99 51l-13 -58q-52 -13 -67 -81l-3 -15h50l-28 -132h-114zM336 428l28 132q14 64 48 103t99 51l-13 -58q-52 -13 -67 -81l-3 -15h50l-28 -132h-114z" />
    <glyph glyph-name="quotedblright" unicode="&#x201d;" horiz-adv-x="426" 
d="M369 582l28 132h114l-28 -132q-14 -64 -48 -103t-99 -51l12 58q52 13 68 81l3 15h-50zM191 582l28 132h114l-28 -132q-14 -64 -48 -103t-99 -51l12 58q52 13 68 81l3 15h-50z" />
    <glyph glyph-name="quotedblbase" unicode="&#x201e;" horiz-adv-x="426" 
d="M245 0l28 132h114l-28 -132q-14 -64 -48 -103t-99 -51l13 58q52 13 67 81l3 15h-50zM67 0l28 132h114l-28 -132q-14 -64 -48 -103t-99 -51l13 58q52 13 67 81l3 15h-50z" />
    <glyph glyph-name="dagger" unicode="&#x2020;" horiz-adv-x="482" 
d="M296 512l43 202h108l-43 -202h171l-20 -91h-171l-119 -563h-108l119 563h-171l20 91h171z" />
    <glyph glyph-name="daggerdbl" unicode="&#x2021;" horiz-adv-x="482" 
d="M297 519l42 195h108l-42 -195h172l-18 -86h-172l-62 -290h172l-18 -86h-172l-42 -199h-108l42 199h-172l18 86h172l62 290h-172l18 86h172z" />
    <glyph glyph-name="bullet" unicode="&#x2022;" horiz-adv-x="500" 
d="M148 357q16 74 79.5 126t136.5 52q74 0 115 -52.5t25 -125.5q-16 -74 -79.5 -126t-136.5 -52q-74 0 -115 52.5t-25 125.5z" />
    <glyph glyph-name="ellipsis" unicode="&#x2026;" horiz-adv-x="1000" 
d="M110 0l28 132h114l-28 -132h-114zM443 0l28 132h114l-28 -132h-114zM776 0l28 132h114l-28 -132h-114z" />
    <glyph glyph-name="perthousand" unicode="&#x2030;" horiz-adv-x="1056" 
d="M959 308q-30 0 -46 -28.5t-32 -101.5q-16 -70 -11.5 -100t34.5 -30t46.5 29t32.5 101q16 70 11 100t-35 30zM636 708h77l-472 -722h-75zM299 646q-30 0 -46.5 -29t-31.5 -101q-16 -70 -11.5 -100t34.5 -30t46.5 29t32.5 101q15 70 10.5 100t-34.5 30zM973 370
q65 0 92 -43.5t4 -148.5t-68 -148.5t-110 -43.5t-92 43.5t-4 148.5t68 148.5t110 43.5zM312 708q65 0 92 -43.5t5 -148.5q-23 -105 -68 -148.5t-110 -43.5t-92 43.5t-4 148.5q22 105 67 148.5t110 43.5zM640 308q-30 0 -46 -28.5t-32 -101.5q-16 -70 -11.5 -100t34.5 -30
t46.5 29t32.5 101q16 70 11 100t-35 30zM654 370q65 0 92 -43.5t4 -148.5t-68 -148.5t-110 -43.5t-92 43.5t-4 148.5t68 148.5t110 43.5z" />
    <glyph glyph-name="guilsinglleft" unicode="&#x2039;" horiz-adv-x="240" 
d="M97 232l25 114l172 135l-23 -110l-106 -82l71 -82l-23 -110z" />
    <glyph glyph-name="guilsinglright" unicode="&#x203a;" horiz-adv-x="240" 
d="M266 346l-25 -114l-172 -135l23 110l105 82l-70 82l23 110z" />
    <glyph glyph-name="fraction" unicode="&#x2044;" horiz-adv-x="167" 
d="M-171 -31l582 756h74l-582 -756h-74z" />
    <glyph glyph-name="Euro" unicode="&#x20ac;" horiz-adv-x="480" 
d="M616 639l-54 -92q-10 37 -39 59t-76 22q-51 0 -88 -33q-45 -41 -74 -142h224l-38 -68h-204q-9 -31 -15 -70h185l-38 -68h-157q-20 -97 12 -146q24 -35 76 -35q44 0 89 21q44 20 76 57l-24 -110q-24 -18 -52 -28q-50 -20 -108 -20q-94 0 -141 43q-68 66 -42 218h-75l38 68
h47q6 39 15 70h-71l38 68h51q41 148 134 212q65 43 156 43q61 0 100 -19q33 -16 55 -50z" />
    <glyph glyph-name="afii61289" unicode="&#x2113;" horiz-adv-x="438" 
d="M415 154l31 -39q-85 -125 -197 -125q-78 0 -105 49t-14 128l3 13q-6 -4 -26 -19.5t-31 -22.5l-13 53q77 60 87 69l57 265q25 121 80 180t119 59q56 0 76 -45.5t4 -120.5q-34 -161 -247 -349l-9 -46q-14 -69 1.5 -102t53.5 -33q61 0 130 86zM296 519l-37 -175
q145 143 170 258q19 89 -34 89q-26 0 -53 -40.5t-46 -131.5z" />
    <glyph glyph-name="trademark" unicode="&#x2122;" horiz-adv-x="1000" 
d="M219 302l73 344h-123l15 68h332l-15 -68h-123l-73 -344h-86zM892 302l69 326h-2l-190 -326h-56l-52 326h-2l-69 -326h-80l88 412h119l50 -292l174 292h119l-88 -412h-80z" />
    <glyph glyph-name="Omega" unicode="&#x2126;" horiz-adv-x="608" 
d="M173 82l1 3q-36 52 -49 123.5t4 173.5q30 140 122.5 232.5t205.5 92.5q59 0 102 -27.5t63 -72.5t26.5 -102t-8.5 -116q-20 -94 -69 -174.5t-105 -129.5l-1 -3h121l-17 -82h-217l13 60q53 37 101.5 116.5t72.5 190.5q21 103 -3.5 178.5t-98.5 75.5q-73 0 -132.5 -72.5
t-83.5 -185.5q-20 -111 -6 -189.5t51 -113.5l-13 -60h-218l17 82h121z" />
    <glyph glyph-name="estimated" unicode="&#x212e;" horiz-adv-x="1021" 
d="M987 337h-650q-5 0 -5 -4v-197q0 -12 8 -22q104 -107 246 -107q154 0 258 119h58q-54 -64 -138 -101.5t-179 -37.5q-166 0 -283.5 105.5t-117.5 254.5t117.5 255t283.5 106t284 -106t118 -255v-10zM839 363v197q0 14 -9 24q-105 102 -244 102q-141 0 -245 -106
q-9 -9 -9 -24v-193q0 -7 5 -7h498q4 0 4 7z" />
    <glyph glyph-name="partialdiff" unicode="&#x2202;" horiz-adv-x="496" 
d="M231 653l-11 76q76 54 164 54q98 0 145.5 -95.5t8.5 -279.5q-42 -194 -128 -305.5t-200 -111.5q-82 0 -114 68.5t-12 162.5q25 117 96 188.5t149 71.5q47 0 76 -24t38 -51h1l8 36q23 107 -4.5 182t-92.5 75q-62 0 -124 -47zM237 75h1q51 0 100 71.5t78 168.5
q-3 32 -25.5 59t-61.5 27q-48 0 -92 -54.5t-60 -128.5q-13 -63 3 -103t57 -40z" />
    <glyph glyph-name="Delta" unicode="&#x2206;" horiz-adv-x="567" 
d="M26 0l13 61l343 651h111l60 -649l-13 -63h-514zM139 81h319l-34 326q-1 14 -8 84.5t-7 97.5h-3q-8 -23 -41 -85.5t-43 -83.5z" />
    <glyph glyph-name="product" unicode="&#x220f;" horiz-adv-x="773" 
d="M748 607h-89v-703h-93v703h-212v-703h-93v703h-88v89h575v-89z" />
    <glyph glyph-name="summation" unicode="&#x2211;" horiz-adv-x="633" 
d="M616 -96h-446v65l223 332l-215 326v69h423v-82h-299v-3l195 -293l-215 -318v-3h334v-93z" />
    <glyph glyph-name="minus" unicode="&#x2212;" horiz-adv-x="600" 
d="M92 210l18 86h506l-18 -86h-506z" />
    <glyph glyph-name="uni2215" unicode="&#x2215;" horiz-adv-x="167" 
d="M-171 -31l582 756h74l-582 -756h-74z" />
    <glyph glyph-name="uni2219" unicode="&#x2219;" horiz-adv-x="240" 
d="M113 308q7 30 32.5 51t55.5 21t46.5 -21t9.5 -51q-6 -30 -31.5 -51t-55.5 -21t-46.5 21t-10.5 51z" />
    <glyph glyph-name="radical" unicode="&#x221a;" horiz-adv-x="670" 
d="M670 834l-195 -976h-77l-135 449l-66 -26l-16 58l140 55l97 -330q2 -11 8.5 -42t8.5 -42l1 -1q1 6 3 23t4.5 33.5t5.5 31.5l155 767h66z" />
    <glyph glyph-name="infinity" unicode="&#x221e;" horiz-adv-x="808" 
d="M764 289v-1q0 -69 -43 -112t-102 -43q-43 0 -81.5 24.5t-84.5 82.5q-43 -52 -82.5 -79.5t-90.5 -27.5q-58 0 -100 43t-42 108q0 67 42.5 110.5t106.5 43.5q48 0 87.5 -27.5t80.5 -78.5q3 3 8 9q28 31 45 47.5t49.5 33t67.5 16.5q61 -1 100 -42t39 -107zM288 189h1
q24 0 49 14.5t38.5 28t37.5 41.5q6 6 8 9l-31.5 39t-27.5 29t-39 27t-41 7q-41 0 -64.5 -29t-22.5 -72q0 -40 26 -67t66 -27zM619 384h-1q-17 0 -33 -6t-32 -19.5t-25 -22t-25.5 -27.5t-18.5 -22q47 -56 75 -77t63 -21q38 0 61.5 29.5t23.5 65.5q0 45 -24.5 72.5t-63.5 27.5
z" />
    <glyph glyph-name="integral" unicode="&#x222b;" horiz-adv-x="500" 
d="M478 844l-12 -68q-16 8 -31 8q-28 0 -44 -24q-27 -36 -27 -173q0 -78 6 -241t6 -250q0 -135 -36 -202q-31 -60 -106 -60q-37 0 -63 15l14 71q27 -10 38 -10q25 0 40 22q25 38 25 163q0 87 -6 253.5t-6 247.5q0 85 11.5 135t39.5 82q38 43 99 43q32 0 52 -12z" />
    <glyph glyph-name="approxequal" unicode="&#x2248;" horiz-adv-x="583" 
d="M511 430l35 -30q-43 -95 -118 -95q-39 0 -101 37q-50 32 -79 32q-27 0 -45 -17.5t-38 -50.5l-37 30q20 43 53.5 68.5t72.5 25.5q11 0 21.5 -2t18 -4.5t17.5 -7t14.5 -7t14 -8.5t11.5 -7q3 -2 14 -8.5l14.5 -8.5t12 -6t13.5 -5.5t12 -3t14 -1.5q24 0 42 17t38 52zM511 265
l35 -31q-43 -94 -118 -94q-40 0 -101 37q-50 32 -79 32q-19 0 -35.5 -11.5t-25 -23t-22.5 -34.5l-37 30q20 43 53.5 69t72.5 26q16 0 32.5 -4.5t23.5 -7.5t24 -13l17 -10q4 -2 14 -8.5t14 -8.5t12 -6.5t13.5 -6t12.5 -3t14 -1.5q24 0 42 17t38 52z" />
    <glyph glyph-name="notequal" unicode="&#x2260;" horiz-adv-x="600" 
d="M465 490l-37 -85h128v-58h-148l-57 -129h205v-58h-226l-45 -104l-45 18l38 86h-125v58h146l55 129h-201v58h223l44 103z" />
    <glyph glyph-name="lessequal" unicode="&#x2264;" horiz-adv-x="616" 
d="M570 102l-396 211v62l395 211v-70l-337 -170v-3l338 -171v-70zM573 4h-403v61h403v-61z" />
    <glyph glyph-name="greaterequal" unicode="&#x2265;" horiz-adv-x="617" 
d="M176 586l395 -211v-62l-395 -211v70l338 171v2l-338 171v70zM573 4h-402v61h402v-61z" />
    <glyph glyph-name="lozenge" unicode="&#x25ca;" horiz-adv-x="670" 
d="M623 348l-177 -391h-77l-171 391l176 391h78zM538 345l-108 250q-12 33 -17 60h-3q-8 -34 -18 -60l-109 -245l109 -253q8 -21 16 -58h4q7 36 16 57z" />
    <glyph glyph-name="fi" unicode="&#xfb01;" horiz-adv-x="500" 
d="M335 0l114 538h108l-114 -538h-108zM466 614l22 108h108l-22 -108h-108zM85 0l97 458h-75l17 80h75l11 50q16 74 56 104t109 30q35 0 59 -3l-18 -83h-30q-58 0 -69 -51l-10 -47h88l-17 -80h-88l-97 -458h-108z" />
    <glyph glyph-name="fl" unicode="&#xfb02;" horiz-adv-x="500" 
d="M335 0l152 714h108l-152 -714h-108zM85 0l97 458h-75l17 80h75l11 50q16 74 56 104t109 30q35 0 59 -3l-18 -83h-30q-58 0 -69 -51l-10 -47h88l-17 -80h-88l-97 -458h-108z" />
    <glyph glyph-name="a.superior" horiz-adv-x="316" 
d="M105 457q11 51 36.5 71t77.5 33l55 13q25 6 37.5 14.5t16.5 27.5q3 17 -5 26.5t-33 9.5q-53 0 -64 -50h-74q11 54 46.5 80t111.5 26q54 0 82 -19t19 -60l-38 -177q-4 -23 12 -23q5 0 15 2l-13 -57q-31 -7 -42 -7q-26 0 -41 11.5t-11 35.5h-3q-41 -47 -106 -47
q-97 0 -79 90zM301 490l12 57q-11 -7 -43.5 -17t-40.5 -14q-28 -12 -36 -51q-3 -14 6 -25t28 -11q27 0 48 17t26 44z" />
    <glyph glyph-name="o.superior" horiz-adv-x="316" 
d="M236 367q-79 0 -102 43.5t-6 125.5q18 84 59.5 128t120.5 44t102.5 -44.5t5.5 -127.5q-17 -81 -59 -125t-121 -44zM249 429q34 0 52.5 28.5t28.5 78.5q24 110 -35 110q-34 0 -52 -29t-29 -81q-23 -107 35 -107z" />
    <glyph glyph-name="one.superior" horiz-adv-x="313" 
d="M190 280l64 305h-90l12 56h7q94 0 122 59l1 8h60l-90 -428h-86z" />
    <glyph glyph-name="two.superior" horiz-adv-x="313" 
d="M366 348l-14 -68h-276q12 55 40.5 96t62 64.5t66 43.5t58 45.5t32.5 58.5q12 58 -39 58q-55 0 -72 -76h-86q30 138 172 138q137 0 112 -114q-10 -46 -42 -81.5t-66.5 -54.5t-74 -48.5t-58.5 -61.5h185z" />
    <glyph glyph-name="three.superior" horiz-adv-x="313" 
d="M216 471l13 62h27q32 0 51.5 17.5t24.5 41.5q4 21 -5.5 37.5t-33.5 16.5q-27 0 -43.5 -19t-22.5 -42h-86q13 59 58.5 91t112.5 32q52 0 85.5 -27.5t22.5 -80.5q-8 -33 -37 -61t-63 -33l-1 -2q39 -2 59 -28.5t11 -70.5q-13 -62 -62 -97t-114 -35q-74 0 -103 30.5t-15 96.5
h86q-5 -24 4.5 -44.5t40.5 -20.5t50.5 20.5t26.5 50.5q14 65 -57 65h-30z" />
    </font>
</defs>
</svg>
