<svg xmlns="http://www.w3.org/2000/svg">
<defs>
<font id="PlatformFont" horiz-adv-x="799" >
  <font-face 
    font-family="PlatformFont"
    font-weight="400"
    font-stretch="normal"
    units-per-em="1000"
    panose-1="2 0 0 0 0 0 0 0 0 0"
    ascent="857"
    descent="-143"
    x-height="548"
    cap-height="857"
    bbox="-0.565217 -145 1001 857.5"
    underline-thickness="50"
    underline-position="-100"
    unicode-range="U+0022-043C"
  />
<missing-glyph horiz-adv-x="800" 
d="M475 506q3 0 4 -1q4 -2 54 -135l4 -13q1 -2 1 -4q0 -5 -7 -11l-115 -90q-3 -2 -7 -2t-8 2q-128 86 -128 94v1l40 140q3 13 11 13q147 6 151 6zM147 510h-1q-8 1 -9.5 20.5t-2.5 24.5q0 5 -5 6h-2q-3 0 -5 -3q-48 -76 -50 -166q0 -5 5 -7q1 -1 3 -1q3 0 5 4l11 16
q9 14 15 14q4 0 51 -50t48 -54l7 -124v-3q0 -12 -8 -14h-1q-4 0 -19 3q-6 1 -20 3q-14 3 -21 4q-5 1 -8 1q64 -84 165 -114q2 -1 3 -1q3 0 5 3q2 2 2 4t-2 4q-3 4 -11 15q-16 21 -16 22q-4 5 -4 9q0 6 7 9l73 31q46 19 45 19q2 1 5 1q4 0 10 -2q5 -1 26 -8l83 -25
q14 -4 16 -9v-1q0 -5 -8 -19l-17 -29q4 -5 5 -5q0 -1 4 -5q87 38 141 116q1 2 1 3q0 3 -2 5q-2 3 -6 3h-1q-15 -5 -19 -7q-16 -5 -18 -5q-9 1 -10 14q-1 12 -11 123v1q0 6 72 111q6 9 12 9q3 0 6 -2t7 -8l7 -7l1 -1q2 -3 5 -3q1 0 3 1q4 2 4 6v2q-12 67 -51 124q-1 3 -4 3
q-1 0 -3 -1q-5 -1 -5 -6v-20q0 -16 -7 -19q-3 0 -132 29q-4 1 -12 12q-3 3 -38 49t-36 46q-2 3 -2 6q0 7 11 12l37 16q6 3 9 5q-44 13 -89 13q-39 0 -79 -10q-5 -1 -5 -6t4 -7l18 -6q10 -3 10 -10q0 -3 -2 -6q0 -1 -34.5 -57.5t-38.5 -58.5q-123 -42 -127 -42zM387 768h14
q110 0 203 -59q105 -66 152 -181q28 -71 28 -144q0 -43 -10 -88q-27 -114 -114 -194q-93 -86 -218 -100q-21 -2 -42 -2q-95 0 -180 45q-108 58 -163 168q-41 81 -41 169q0 31 5 62q19 116 98 202q20 21 43 39q99 79 225 83z" />
    <glyph glyph-name=".notdef" horiz-adv-x="800" 
d="M475 506q3 0 4 -1q4 -2 54 -135l4 -13q1 -2 1 -4q0 -5 -7 -11l-115 -90q-3 -2 -7 -2t-8 2q-128 86 -128 94v1l40 140q3 13 11 13q147 6 151 6zM147 510h-1q-8 1 -9.5 20.5t-2.5 24.5q0 5 -5 6h-2q-3 0 -5 -3q-48 -76 -50 -166q0 -5 5 -7q1 -1 3 -1q3 0 5 4l11 16
q9 14 15 14q4 0 51 -50t48 -54l7 -124v-3q0 -12 -8 -14h-1q-4 0 -19 3q-6 1 -20 3q-14 3 -21 4q-5 1 -8 1q64 -84 165 -114q2 -1 3 -1q3 0 5 3q2 2 2 4t-2 4q-3 4 -11 15q-16 21 -16 22q-4 5 -4 9q0 6 7 9l73 31q46 19 45 19q2 1 5 1q4 0 10 -2q5 -1 26 -8l83 -25
q14 -4 16 -9v-1q0 -5 -8 -19l-17 -29q4 -5 5 -5q0 -1 4 -5q87 38 141 116q1 2 1 3q0 3 -2 5q-2 3 -6 3h-1q-15 -5 -19 -7q-16 -5 -18 -5q-9 1 -10 14q-1 12 -11 123v1q0 6 72 111q6 9 12 9q3 0 6 -2t7 -8l7 -7l1 -1q2 -3 5 -3q1 0 3 1q4 2 4 6v2q-12 67 -51 124q-1 3 -4 3
q-1 0 -3 -1q-5 -1 -5 -6v-20q0 -16 -7 -19q-3 0 -132 29q-4 1 -12 12q-3 3 -38 49t-36 46q-2 3 -2 6q0 7 11 12l37 16q6 3 9 5q-44 13 -89 13q-39 0 -79 -10q-5 -1 -5 -6t4 -7l18 -6q10 -3 10 -10q0 -3 -2 -6q0 -1 -34.5 -57.5t-38.5 -58.5q-123 -42 -127 -42zM387 768h14
q110 0 203 -59q105 -66 152 -181q28 -71 28 -144q0 -43 -10 -88q-27 -114 -114 -194q-93 -86 -218 -100q-21 -2 -42 -2q-95 0 -180 45q-108 58 -163 168q-41 81 -41 169q0 31 5 62q19 116 98 202q20 21 43 39q99 79 225 83z" />
    <glyph glyph-name=".null" horiz-adv-x="0" 
 />
    <glyph glyph-name="nonmarkingreturn" horiz-adv-x="333" 
 />
    <glyph glyph-name="quotedbl" unicode="&#x22;" 
d="M399 57v164h-383v326h383v163l384 -326z" />
    <glyph glyph-name="numbersign" unicode="#" 
d="M399 768q19 0 33 -13q13 -14 13 -33t-31 -107q-4 -10 -15 -10q-10 0 -14 10q-31 88 -31 107t13 33q14 13 32 13zM419 395q15 0 22 -12l20 -34q4 -6 4 -13q0 -6 -4 -12l-20 -34q-7 -13 -22 -13h-39q-15 0 -22 13l-20 34q-3 6 -3 12q0 7 3 13l20 34q7 12 22 12h39zM494 659
q11 -3 11 -12q0 -4 -2 -9l-72 -174q-4 -9 -14 -9h-2q-8 1 -16 1q-7 0 -15 -1h-2q-10 0 -14 9l-72 174q-2 5 -2 9q0 9 11 12q6 1 11 3q3 1 5 1q10 0 13 -11q13 -38 32 -89l19 -52q4 -9 14 -9q11 0 15 9l19 52q19 51 32 89q3 11 13 11q2 0 5 -1q5 -2 11 -3zM368 208q3 9 12 9
h4q8 -1 16 -1t15 1h4q9 0 12 -9l72 -174q2 -5 2 -9q0 -8 -11 -11q-47 -14 -94 -14t-95 14q-11 3 -11 11q0 4 2 9zM702 440q4 2 8 2q9 0 12 -12q14 -47 14 -94t-14 -94q-3 -11 -11 -11q-4 0 -9 2l-174 72q-9 3 -9 12v4q1 8 1 15q0 8 -1 15v4q0 9 9 13zM287 268q3 1 6 1
q6 0 11 -6q10 -12 22 -22q6 -5 6 -12q0 -3 -1 -6l-72 -174q-5 -10 -12 -10q-4 0 -9 3q-86 47 -133 133q-3 5 -3 9q0 7 10 12zM468 223q-1 3 -1 6q0 7 6 12q12 10 22 22q5 6 11 6q3 0 6 -1l175 -72q10 -5 10 -12q0 -4 -3 -9q-47 -86 -133 -133q-5 -3 -9 -3q-7 0 -12 10z
M512 404q-3 -1 -6 -1q-6 0 -11 6q-10 13 -22 22q-6 5 -6 12q0 3 1 6l72 174q5 11 12 11q4 0 9 -3q86 -48 133 -133q3 -5 3 -9q0 -8 -10 -12zM271 368q9 -4 9 -13v-4q-1 -7 -1 -15q0 -7 1 -15v-4q0 -9 -9 -12l-174 -72q-5 -2 -9 -2q-8 0 -11 11q-14 47 -14 94t14 94
q3 12 12 12q4 0 8 -2zM112 477q-10 4 -10 12q0 4 3 9q47 86 133 133q5 3 9 3q7 0 12 -11l72 -174q1 -3 1 -6q0 -7 -6 -12q-12 -9 -22 -22q-5 -6 -11 -6q-3 0 -6 1z" />
    <glyph glyph-name="dollar" unicode="$" 
d="M400 288q120 0 240 -48q144 -58 144 -144v-96h-768v96q0 86 144 144q120 48 240 48zM400 384q-80 0 -136 56q-56 57 -56 136q0 80 56 136t136 56t136 -56t56 -136q0 -79 -56 -136q-56 -56 -136 -56z" />
    <glyph glyph-name="percent" unicode="%" 
d="M542 323q25 0 42 17q18 18 18 43t-18 43q-17 18 -42 18q-26 0 -43 -18q-18 -18 -18 -43t18 -43q17 -17 43 -17zM380 545h404v-323h-404v323zM744 141v-41q0 -33 -24 -57q-24 -23 -57 -23h-566q-34 0 -57 23q-24 24 -24 57v566q0 33 24 57q23 24 57 24h566q33 0 57 -24
t24 -57v-41h-364q-34 0 -57 -23q-24 -24 -24 -57v-323q0 -34 24 -57q23 -24 57 -24h364z" />
    <glyph glyph-name="ampersand" unicode="&#x26;" 
d="M707 614l-307 -192l-307 192v-76l307 -192l307 192v76zM707 691q32 0 54 -23q23 -22 23 -54v-460q0 -32 -23 -54q-22 -23 -54 -23h-614q-32 0 -54 23q-23 22 -23 54v460q0 32 23 54q22 23 54 23h614z" />
    <glyph glyph-name="quotesingle" unicode="'" 
d="M201 0h-139l106 628h-150l24 140h451l-24 -140h-161zM765 431h-213q-79 0 -90 -23q-8 -16 -47 -235q-5 -26 -5 -42q0 -20 7 -26q9 -8 69 -8h117l20 120h-153l16 94h259l-53 -311q-321 0 -351 6q-50 10 -50 72q0 21 6 49l50 299q20 81 90 93q25 4 81 4h263z" />
    <glyph glyph-name="parenleft" unicode="(" 
d="M282 231h-58v222l-69 -21v47l121 43h6v-291zM707 154v460h-47q7 -16 7 -43q-3 -26 -27 -62l-90 -98l128 1v-47l-200 1l-1 38q117 124 123 135q9 20 9 42q-2 33 -36 33q-30 -1 -39 -25q-3 -10 -3 -20v-5h-59q0 25 14 50h-48v-460h99v33h37q35 6 36 40v2q0 37 -37 37
q-12 0 -23 -5q-18 -9 -18 -29h-59q1 20 13 40q26 39 87 39q62 0 84 -38q10 -17 10 -33v-10q0 -45 -42 -62l20 -14h62zM93 154h269v460h-269v-460zM707 691q32 0 55 -22q22 -23 22 -55v-460q0 -32 -22 -55q-23 -22 -55 -22h-614q-32 0 -55 22q-22 23 -22 55v460q0 32 22 55
q23 22 55 22h614z" />
    <glyph glyph-name="parenright" unicode=")" 
d="M522 286q0 8 -8 15q-6 6 -15 6h-4l-59 60q4 8 4 17t-4 17l59 60h4q9 0 15 6q8 8 8 15q0 8 -8 16t-16 8q-7 0 -15 -8q-6 -6 -6 -15v-4l-60 -59q-8 4 -17 4t-17 -4l-60 59v4q0 9 -6 15q-7 8 -15 8t-16 -8q-7 -8 -7 -16q0 -7 7 -15q6 -6 15 -6h4l59 -60q-4 -8 -4 -17t4 -17
l-59 -60h-4q-9 0 -15 -6q-7 -7 -7 -15t7 -16q8 -7 16 -7t15 7q6 6 6 15v4l60 59q8 -4 17 -4t17 4l60 -59v-4q0 -9 6 -15q8 -7 15 -7q8 0 16 7q8 8 8 16zM400 590q85 0 146 -60q60 -61 60 -146t-60 -146q-61 -60 -146 -60t-146 60q-60 61 -60 146t60 146q61 60 146 60z
M736 340q11 0 12 10q2 18 2 34q0 13 -1 25q-1 11 -10 11h-2l-46 -4q-11 -1 -11 -10v-2q1 -10 1 -20q0 -14 -1 -28v-3q0 -8 10 -9zM715 232q2 3 2 6q0 6 -7 9l-42 20q-3 2 -6 2q-6 0 -9 -7q-10 -22 -24 -41q-3 -4 -3 -8t6 -8l38 -26q4 -3 7 -3q5 0 8 5q17 24 30 51zM400 159
q93 0 159 66t66 159t-66 159t-159 66t-159 -66t-66 -159t66 -159t159 -66zM598 95q5 4 5 9q0 3 -2 7l-26 38q-4 6 -9 6q-3 0 -7 -3q-19 -13 -41 -23q-7 -3 -7 -9q0 -3 2 -6l20 -42q3 -7 9 -7q2 0 5 1q27 13 51 29zM429 35q11 1 11 12l-4 47q-1 10 -10 10h-2q-12 -1 -24 -1
q-11 0 -23 1h-2q-10 0 -10 -10l-4 -47v-2q0 -9 10 -10q15 -1 29 -1t29 1zM287 114q2 3 2 6q0 6 -7 9q-22 10 -41 23q-4 3 -7 3q-5 0 -9 -6l-26 -38q-2 -4 -2 -7q0 -5 5 -9q24 -16 51 -29q3 -1 5 -1q6 0 9 7zM168 205q6 4 6 9q0 3 -3 7q-14 19 -24 41q-3 7 -9 7q-3 0 -6 -2
l-42 -20q-7 -3 -7 -9q0 -3 2 -6q13 -27 30 -51q3 -5 8 -5q3 0 7 3zM52 350q1 -10 12 -10l46 4q10 1 10 9v3q-1 14 -1 28q0 10 1 20v2q0 9 -11 10l-46 4q-11 0 -12 -11q-1 -12 -1 -25q0 -16 2 -34zM82 530q-2 -3 -2 -6q0 -6 7 -9l42 -20q3 -2 6 -2q6 0 9 7q10 22 24 42
q2 4 2 7q0 5 -5 9l-39 26q-4 2 -7 2q-4 0 -8 -5q-17 -25 -29 -51zM198 670q-5 -3 -5 -8q0 -3 3 -7l26 -39q4 -5 9 -5q3 0 7 2q20 14 41 25q8 3 8 9q0 3 -2 6l-21 42q-3 7 -8 7q-3 0 -6 -2q-27 -13 -52 -30zM371 733q-11 -1 -11 -10v-2l4 -47q1 -10 10 -10h2q12 1 24 1t25 -1
h2q9 0 10 10l3 47v2q0 9 -10 10q-16 1 -30 1t-29 -1zM515 653q-2 -3 -2 -6q0 -6 7 -9q22 -11 42 -25q4 -2 7 -2q5 0 9 5l26 39q3 4 3 7q0 5 -5 8q-25 17 -52 30q-3 2 -6 2q-6 0 -9 -7zM635 558q-5 -4 -5 -9q0 -3 2 -7q14 -20 24 -42q3 -7 9 -7q3 0 6 2l42 20q7 3 7 9
q0 3 -2 6q-12 26 -29 51q-4 5 -8 5q-3 0 -7 -2zM400 768q159 0 272 -112q112 -113 112 -272t-112 -272q-113 -112 -272 -112t-272 112q-112 113 -112 272t112 272q113 112 272 112z" />
    <glyph glyph-name="asterisk" unicode="*" 
d="M667 530h-6l-121 -43v-47l69 22v-224h58v292zM764 655q8 0 14 -6q6 -7 6 -15v-500q0 -8 -6 -15q-6 -6 -14 -6h-321q-8 0 -14 6q-6 7 -6 15v92h37q8 0 8 5v116q0 5 -8 5h-37v64h37q8 0 8 5v116q0 5 -8 5h-37v92q0 8 6 15q6 6 14 6h321zM300 283h-126l67 70q27 30 38 52
q11 23 11 44q0 40 -25 62q-25 21 -70 21q-29 0 -53 -12q-23 -13 -36 -35q-12 -22 -12 -49h58q0 22 11 36q12 13 31 13q18 0 28 -11t10 -30q0 -15 -9 -30q-10 -16 -29 -38l-95 -100v-40h201v47zM377 226v-92q0 -8 -6 -15q-6 -6 -14 -6h-321q-8 0 -14 6q-6 7 -6 15v500
q0 8 6 15q6 6 14 6h321q8 0 14 -6q6 -7 6 -15v-92h-37q-8 0 -8 -5v-116q0 -5 8 -5h37v-64h-37q-8 0 -8 -5v-116q0 -5 8 -5h37z" />
    <glyph glyph-name="plus" unicode="+" 
d="M314 305q5 8 5 16q0 4 -1 8q-3 13 -15 19q-8 5 -16 5q-4 0 -8 -1q-12 -3 -19 -15q-4 -7 -4 -15q0 -5 1 -9q3 -12 14 -19q8 -4 15 -4q5 0 9 1q13 3 19 14zM358 137q4 7 4 15q0 4 -1 9q-3 13 -14 19q-8 5 -16 5q-4 0 -8 -1q-13 -4 -19 -15q-5 -8 -5 -16q0 -4 1 -8
q3 -12 15 -19q7 -4 15 -4q4 0 9 1q12 3 19 14zM254 194q4 8 4 16q0 4 -1 8q-3 13 -15 20q-7 4 -15 4q-5 0 -9 -1q-12 -3 -19 -15q-4 -7 -4 -15q0 -5 1 -9q3 -12 14 -19q8 -4 16 -4q4 0 8 1q13 3 20 14zM147 262q4 7 4 15q0 5 -1 9q-3 12 -15 19q-7 4 -14 4q-5 0 -9 -1
q-13 -3 -20 -14q-4 -8 -4 -16q0 -4 1 -8q3 -13 14 -19q8 -5 17 -5q3 0 7 1q13 3 20 15zM190 94q4 7 4 15q0 4 -1 9q-3 12 -14 19q-7 4 -15 4q-4 0 -9 -1q-13 -3 -19 -14q-5 -8 -5 -17q0 -3 1 -7q4 -13 15 -19q8 -5 16 -5q4 0 8 1q12 3 19 15zM303 423q7 2 14 2q14 0 27 -8
q19 -11 25 -32l64 -248q2 -7 2 -13q0 -14 -8 -27q-11 -20 -33 -25l-247 -64q-7 -2 -14 -2q-14 0 -27 8q-19 11 -24 32l-64 248q-2 7 -2 15q0 13 7 25q12 20 33 25zM704 500q1 4 1 7q0 9 -6 17q-7 11 -20 13q-4 1 -7 1q-8 0 -16 -5q-11 -7 -14 -20v-6q0 -9 5 -18
q7 -11 20 -13q4 -1 8 -1q8 0 16 5q11 8 13 20zM608 645v6q0 9 -5 17q-7 11 -20 14h-6q-9 0 -18 -5q-10 -7 -13 -20q-1 -4 -1 -7q0 -9 6 -17q7 -10 20 -13q4 -1 7 -1q9 0 16 6q11 7 14 20zM560 404v6q0 9 -5 18q-7 11 -20 13q-4 1 -8 1q-8 0 -16 -5q-11 -8 -13 -21
q-1 -3 -1 -6q0 -9 6 -17q7 -11 20 -14h6q9 0 17 5q11 7 14 20zM464 549v5q0 9 -5 18q-7 11 -20 14h-6q-9 0 -18 -5q-11 -7 -13 -20q-1 -4 -1 -8q0 -8 5 -16q8 -11 20 -13q4 -1 8 -1q8 0 16 5q11 8 14 21zM775 525q9 -13 9 -29q0 -5 -1 -11q-5 -22 -23 -34
q-223 -148 -229 -150q-8 -2 -15 -2q-27 0 -43 25l-142 212q-9 14 -9 30q0 6 1 11q5 21 23 34l213 141q7 6 16 8q8 2 16 2q26 0 42 -24z" />
    <glyph glyph-name="comma" unicode="," 
d="M367 403q-13 1 -25 1q-20 0 -39 -3l19 214q1 17 14 28q11 9 26 9h3l92 -8q-6 -8 -9 -16zM270 396q-49 -13 -75 -39l-39 221q-1 4 -1 8q0 12 8 22q9 14 25 17l109 19q-6 -12 -7 -26zM658 378q22 12 22 40v2q-2 29 -27 42q-8 5 -20 5q-4 0 -9 -1q-19 -2 -30 -12
q-8 36 -38 45q-8 3 -16 3q-18 0 -33 -16q-13 -15 -13 -31q0 -8 3 -17q8 -23 49 -113q90 41 112 53zM756 559q16 -6 23 -21q4 -9 4 -18q0 -6 -2 -13l-124 -339q-5 -16 -20 -23q-9 -4 -18 -4q-6 0 -13 2l-103 38v14q0 8 -3 15q3 7 3 14v38q0 8 -3 15q3 7 3 15v37q0 11 -6 19
q-27 38 -97 51l79 218q5 15 20 22q9 5 17 5q7 0 14 -3zM186 208q-4 -7 -4 -14v-38q0 -4 2 -9l-163 316q-5 9 -5 19q0 6 2 12q5 16 20 24l88 45l56 -317v-23q0 -8 4 -15zM342 220q99 0 129 42v-38q-30 -42 -129 -42q-96 0 -128 41v38q32 -41 128 -41zM342 372q99 0 129 -43
v-37q-30 -43 -129 -43q-96 0 -128 41v41q32 41 128 41zM342 153q99 0 129 42v-38q-30 -42 -129 -42q-96 0 -128 41v38q32 -41 128 -41z" />
    <glyph glyph-name="hyphen" unicode="-" 
d="M87 76q-6 8 -6 15q0 10 11 18l14 10l120 86l27 21l2 1l92 67l10 7l17 13l29 21l27 20q8 5 15 5q9 0 17 -8l6 -5l27 -27l10 -10l24 -23l23 17l37 28l27 21l49 42l26 20h-43q-4 0 -9 1q-15 6 -15 22q0 15 14 21h-1l2 1q5 2 9 2h112q10 0 17 -7t7 -16v-103q0 -24 -24 -24
t-24 24v53l-3 -2l-79 -65l-38 -29l-27 -21l-37 -27l-10 -8q-8 -6 -16 -6q-9 0 -17 8l-4 4l-10 10l-27 27l-26 25l-39 -29l-29 -21l-17 -12l-10 -8l-92 -67l-2 -1l-27 -20l-105 -76q-5 -3 -10 -4q-3 -1 -6 -1q-11 0 -18 10zM183 201q-22 90 -39 156q4 2 9 4q121 59 204 81
q80 22 217 35l9 1l26 -104l-3 -3l-22 -16q-13 53 -17 67l-8 -1h-6q-24 0 -29 20l-2 8q-71 -9 -137 -24q23 -3 42 -20q10 -10 17 -24q-13 0 -24 -8l-18 -13q-5 1 -9 1q-18 4 -21 6q-4 1 -5 8v4q0 4 4 5h3q2 0 3 -1q2 -2 3 -9l1 -4l35 8q0 4 -1 6q-4 20 -27 20q-5 0 -11 -1
l-1 9l-17 -4l2 -9q-17 -6 -25 -15q-7 -9 -7 -18q0 -11 14 -22q7 -5 25 -8l-20 -15l-7 -2l1 -3l-21 -15q-12 21 -12 44q0 14 5 29q8 24 27 39q-68 -21 -130 -49q0 -1 1 -8q1 -4 1 -9q0 -17 -21 -27q-4 -2 -8 -3l21 -86l8 4q7 3 13 3q3 0 6 -1zM648 292l55 42v-265q0 -9 -8 -9
h-76q-7 0 -7 9v196zM549 217l36 27v-175q0 -9 -8 -9h-76q-7 0 -7 9v156l9 -10l4 -4q8 -8 17 -8q7 0 15 6zM442 276l25 -25v-182q0 -9 -8 -9h-76q-8 0 -8 9v158l29 21zM259 142l89 65v-138q0 -9 -7 -9h-76q-8 0 -8 9v72zM147 60q-1 0 83 61v-52q0 -9 -8 -9h-75zM269 471
q10 -17 34 -28q-16 -5 -33 -12zM269 535q25 -42 109 -42q83 0 108 42v-37q-4 -8 -13 -15q-65 -10 -120 -24l-5 -2q-60 9 -79 41v37zM16 300v37q27 -41 108 -41q9 0 17 1l10 -37q-13 -1 -27 -1q-81 0 -108 41zM124 568q-89 0 -89 -37t89 -37t89 37t-89 37zM124 455
q-81 0 -108 41v40q27 41 108 41q83 0 109 -42v-38q-26 -42 -109 -42zM16 466q27 -41 108 -41q83 0 109 43v-38q-26 -42 -109 -42q-81 0 -108 41v37zM16 402q26 -41 105 -41h4l10 -38h-11q-81 0 -108 41v38zM269 600q25 -43 109 -43q83 0 108 43v-38q-25 -42 -108 -42
q-84 0 -109 42v38zM378 697q-90 0 -90 -37t90 -37q89 0 89 37t-89 37zM378 584q-84 0 -109 43v37q25 43 109 43q83 0 108 -43v-37q-25 -43 -108 -43z" />
    <glyph glyph-name="period" unicode="." 
d="M301 285q82 0 140 58t58 140q0 81 -58 139t-140 58t-140 -58q-57 -58 -57 -139q0 -82 57 -140q58 -58 140 -58zM784 66l-66 -66l-219 219v35l-12 12q-81 -69 -186 -69q-118 0 -202 84q-83 83 -83 202q0 118 83 201q84 84 202 84t202 -84q84 -83 84 -201q0 -106 -69 -186
l12 -12h35z" />
    <glyph glyph-name="slash" unicode="/" 
d="M668 499h-537v-422h537v422zM668 691q32 0 54 -22q23 -23 23 -55v-537q0 -32 -23 -54q-22 -23 -54 -23h-537q-32 0 -55 23q-22 22 -22 54v537q0 32 23 55q22 22 54 22h38v77h77v-77h307v77h77v-77h38zM591 154h-76v76h76v-76zM438 154h-77v76h77v-76zM284 154h-76v76h76
v-76zM591 346h-76v76h76v-76zM438 346h-77v76h77v-76zM284 346h-76v76h76v-76z" />
    <glyph glyph-name="zero" unicode="0" 
d="M94 635q-14 -21 -14 -46v-411q0 -25 14 -46h-32q-19 0 -33 13q-13 14 -13 33v411q0 19 13 33q14 13 33 13h32zM194 635q-13 -21 -13 -46v-411q0 -25 13 -46h-32q-19 0 -32 13q-13 14 -13 33v411q0 19 13 33q13 13 32 13h32zM295 635q-14 -21 -14 -46v-411q0 -25 14 -46
h-32q-19 0 -32 13q-14 14 -14 33v411q0 19 14 33q13 13 32 13h32zM396 635q-14 -21 -14 -46v-411q0 -25 14 -46h-33q-19 0 -32 13q-13 14 -13 33v411q0 19 13 33q13 13 32 13h33zM738 635q19 0 33 -13q13 -14 13 -33v-411q0 -19 -13 -33q-14 -13 -33 -13h-274q-19 0 -32 13
q-14 14 -14 33v411q0 19 14 33q13 13 32 13h274z" />
    <glyph glyph-name="one" unicode="1" 
d="M482 98h-453q-10 0 -12 54q-1 27 -1 41q0 13 1 13v15q0 62 45 74q61 16 110 50l39 -121l6 -22l7 -20l20 58q-20 27 -20 44q0 10 7 16q9 8 25 8h3q16 0 25 -8q7 -6 7 -16q0 -17 -20 -44l20 -58l7 20l7 22l38 121q50 -34 110 -50q46 -12 46 -76q0 -6 -1 -13
q0 -108 -16 -108zM135 465q-5 16 -5 27q0 16 13 16h2q-3 9 -4 16q-3 16 -3 30q0 12 3 22q7 29 30 52q12 13 28 23q13 9 26 14q12 4 25 4q5 1 10 1q28 0 51 -14q22 -11 30 -27q13 -1 23 -14q14 -18 14 -53q0 -17 -4 -38q-1 -7 -4 -16h2q13 0 13 -17q0 -10 -4 -26
q-11 -36 -22 -38q-4 -27 -23 -52q-21 -29 -52 -39q-13 -5 -28 -5q-13 0 -26 4q-30 11 -51 40q-19 25 -23 52q-11 2 -21 38zM694 500q9 0 16 7t7 17q0 9 -7 17q-7 7 -16 7q-11 0 -18 -7q-6 -8 -6 -17q0 -10 6 -17q7 -7 18 -7zM604 500q10 0 17 7t7 17t-7 17t-17 7t-17 -7
q-7 -8 -7 -17q0 -10 7 -17t17 -7zM515 500q10 0 17 7q6 7 6 17q0 9 -6 17q-7 7 -17 7t-17 -7t-7 -17t7 -17t17 -7zM739 635q17 0 31 -12q14 -14 14 -29v-160q0 -15 -14 -24q-13 -10 -31 -10h-194l-90 -53l14 54q-17 1 -31 10q-13 10 -13 23v160q0 15 16 29q16 12 33 12h265z
" />
    <glyph glyph-name="two" unicode="2" 
d="M784 593l-384 -418l-384 418h768z" />
    <glyph glyph-name="three" unicode="3" 
d="M707 768q32 0 55 -22q22 -23 22 -55v-614q0 -32 -22 -55q-23 -22 -55 -22h-614q-32 0 -55 22q-22 23 -22 55v614q0 32 22 55q23 22 55 22h614zM707 691h-614v-614h614v614z" />
    <glyph glyph-name="four" unicode="4" 
d="M658 525l-52 52l-277 -279l-130 132l-52 -52l182 -184zM784 85q0 -85 -85 -85h-598q-85 0 -85 85v598q0 85 85 85h598q85 0 85 -85v-598z" />
    <glyph glyph-name="five" unicode="5" 
d="M784 85q0 -85 -85 -85h-598q-85 0 -85 85v598q0 85 85 85h598q85 0 85 -85v-598zM524 193h67v67l-124 124l124 124v67h-67l-124 -124l-124 124h-67v-67l124 -124l-124 -124v-67h67l124 124z" />
    <glyph glyph-name="six" unicode="6" 
d="M22 768h756q6 -1 6 -6v-756q0 -6 -6 -6h-756q-6 0 -6 6v756q1 6 6 6zM75 709v-649h650v649h-650zM198 592h405q5 -1 5 -5v-405q0 -5 -5 -5h-405q-6 0 -6 5v405q1 5 6 5z" />
    <glyph glyph-name="seven" unicode="7" 
d="M338 768h18q250 0 250 -329h99q6 -1 6 -5v-60q0 -6 -6 -6h-99v-57h99q6 -1 6 -6v-59q0 -6 -6 -6h-99v-234q0 -6 -6 -6h-93q-6 0 -6 6v234h-107q-6 0 -6 6v59q1 6 6 6h107v57h-107q-6 0 -6 6v60q1 5 6 5h107v3q0 174 -74 219q-37 21 -83 21q-87 0 -123 -68
q-28 -45 -28 -169q0 -6 -6 -6h-93q-6 0 -6 6v18q0 237 160 293q52 12 90 12z" />
    <glyph glyph-name="eight" unicode="8" 
d="M273 367h-7q-15 0 -25 6q-13 8 -18 25q7 1 26 6q2 -8 8 -13q5 -3 10 -3h3q8 1 13 9q4 5 4 13q0 3 -1 7q-2 12 -9 18q-5 4 -12 4h-3q-11 -2 -18 -13h-22q1 15 2 36q1 22 1 36q32 6 65 16q1 -9 4 -25q-23 -7 -46 -12v-24q7 6 16 8q4 1 7 1q13 0 24 -9q12 -9 16 -26
q-23 -27 -38 -60zM247 248q0 -27 5 -54q-12 2 -23 5q-116 34 -173 140q-36 66 -36 135q0 42 13 85q34 116 139 173q66 36 136 36q42 0 85 -13q81 -24 137 -87q53 -63 67 -144q-33 8 -66 8q-106 0 -186 -69q-16 60 -63 93q-34 23 -69 23q-16 0 -31 -4q-53 -13 -79 -65
q-16 -33 -16 -69q0 -21 5 -43q15 -59 60 -92q36 -26 75 -26q11 0 22 2q-2 -17 -2 -34zM145 387q3 -9 10 -13q5 -3 10 -3h3q7 2 12 9q2 5 2 11q0 5 -1 11q-2 12 -9 18q-5 4 -13 4h-3q-11 -2 -18 -14h-21v13q0 28 7 61q2 0 66 9q1 -12 3 -24q-8 -1 -25 -4q-13 -2 -24 -3
q-2 -12 -3 -24q9 6 18 7h6q14 0 26 -8q14 -11 17 -31v-7q0 -12 -5 -24q-10 -20 -32 -25q-6 -1 -11 -1q-11 0 -19 5q-13 8 -20 26q8 2 24 7zM531 416q-39 -23 -47 -70q-2 -12 -2 -24q0 -35 19 -68q27 -44 73 -60q18 -6 35 -6q25 0 49 14q38 22 47 70q2 11 2 22q0 36 -20 70
q-26 44 -72 60q-18 5 -35 5q-27 0 -49 -13zM355 73q-72 72 -72 175t72 175q73 73 176 73q102 0 175 -73q73 -72 73 -175t-73 -175q-73 -73 -175 -73q-103 0 -176 73zM638 270q9 8 9 16q0 9 -9 18q-9 11 -19 11q-7 0 -15 -7q-8 -8 -8 -17q0 -8 8 -18q9 -10 19 -10q7 0 15 7z
M589 324q9 7 9 15q0 7 -7 14q-7 9 -15 9q-7 0 -14 -7q-9 -7 -9 -15q0 -7 7 -14q7 -9 15 -9q7 0 14 7zM574 297q-4 -1 -8 -1q-14 0 -27 14q-13 15 -13 29q0 18 19 35q17 15 33 15t31 -16q11 -13 11 -26q0 -5 -2 -11q6 2 12 2q15 0 29 -15q16 -18 16 -35q0 -19 -20 -37
q-18 -16 -35 -16q-19 0 -37 20q-12 14 -12 28q0 7 3 14z" />
    <glyph glyph-name="nine" unicode="9" 
d="M16 439h768v-110h-768v110zM16 219h768v-110h-768v110zM16 658h768v-109h-768v109z" />
    <glyph glyph-name="colon" unicode=":" 
d="M51 712h698q35 -7 35 -35v-482q0 -30 -41 -36h-222v-41q0 -35 68 -35h9q6 -1 6 -6v-15q0 -6 -6 -6h-402q-6 0 -6 6v15q1 6 6 6h9q68 0 68 41v35h-216q-41 6 -41 36v482q7 35 35 35zM51 679v-487h698v487h-698zM124 610h549q6 -1 6 -6v-337q0 -5 -6 -5h-549q-5 0 -5 5v337
q0 6 5 6z" />
    <glyph glyph-name="semicolon" unicode=";" 
d="M784 768v-336h-336l154 155q-84 85 -202 85q-119 0 -204 -84q-84 -85 -84 -204t84 -204q85 -84 204 -84q93 0 168 54q73 53 103 138h100q-32 -126 -134 -206q-104 -82 -237 -82q-159 0 -272 112q-112 113 -112 272t112 272q113 112 272 112q158 0 271 -113z" />
    <glyph glyph-name="less" unicode="&#x3c;" 
d="M781 426v-47h-47l-337 279l-337 -279h-47v47l384 310l160 -130v93h90v-166zM478 416h-166v-87h166v87zM395 620l315 -259v-328l-232 -1v261h-166v-261l-234 -1l1 326z" />
    <glyph glyph-name="equal" unicode="=" 
d="M770 703q13 0 13 -13v-613q0 -13 -13 -13h-741q-13 0 -13 13v358q0 12 13 12h102q13 0 13 -12v-316q0 -12 13 -12h59q13 0 13 12v188q0 13 13 13h102q13 0 13 -13v-188q0 -12 13 -12h59q13 0 13 12v401q0 13 13 13h102q13 0 13 -13v-401q0 -12 13 -12h59q13 0 13 12v571
q0 13 13 13h102z" />
    <glyph glyph-name="greater" unicode="&#x3e;" 
d="M469 190l2 -1v-32h-246v33h83v43h-267q-11 0 -18 7q-7 8 -7 18v341q0 11 7 18t18 7h614q10 0 18 -7q7 -7 7 -18v-104q-15 6 -31 9v89h-602v-329h380q5 -16 13 -31h-52v-43h81zM510 444l27 5l53 28q-45 -5 -80 -33zM663 389v57l-52 22l-67 -36l-3 -35l67 -33zM763 340
l-4 35q-15 40 -47 67h-30v-52l49 -56zM449 318q0 -45 24 -83l8 18l-12 88l-14 20q-6 -21 -6 -43zM607 275l-8 73l-66 32l-46 -40l12 -81l54 -28zM732 215q36 43 38 98l-3 9l-38 -7l-29 -59l1 -50zM683 193l-2 59l-59 11l-59 -48l11 -31l73 -17zM604 158l-37 8l-1 1h-10
q23 -8 48 -9zM486 195q-51 51 -51 123q0 73 51 123q51 51 124 51q72 0 123 -51q51 -50 51 -123q0 -62 -39 -109q-37 -46 -95 -60v-2l-3 1q-19 -4 -37 -4q-73 0 -124 51zM294 495q0 6 4 8q2 1 4 1t5 -2l115 -66q5 -3 5 -7q0 -5 -5 -8l-115 -66q-3 -2 -5 -2t-4 1q-4 2 -4 9
v132z" />
    <glyph glyph-name="question" unicode="?" 
d="M444 147q76 -24 113 -115h-310q37 91 113 115v224q-66 19 -108 88q-44 70 -44 160q0 24 4 48h381q3 -24 3 -48q0 -90 -43 -160q-43 -69 -109 -88v-224zM319 243q-190 37 -265 241q-38 105 -38 207v15l1 29h183v-60h-124q5 -93 34 -171q61 -165 209 -199v-62zM784 706v-10
q0 -105 -39 -212q-75 -204 -264 -241v62q148 34 209 199q29 78 34 171h-124v60h183z" />
    <glyph glyph-name="at" unicode="@" 
d="M438 576h-76v-77h76v77zM438 423h-76v-231h76v231zM400 768q159 0 271 -112q113 -113 113 -272t-113 -271q-112 -113 -271 -113t-271 113q-113 112 -113 271t113 272q112 112 271 112z" />
    <glyph glyph-name="A" unicode="A" 
d="M475 506q3 0 4 -1q4 -2 54 -135l4 -13q1 -2 1 -4q0 -5 -7 -11l-115 -90q-3 -2 -7 -2t-8 2q-128 86 -128 94v1l40 140q3 13 11 13q147 6 151 6zM147 510h-1q-8 1 -9.5 20.5t-2.5 24.5q0 5 -5 6h-2q-3 0 -5 -3q-48 -76 -50 -166q0 -5 5 -7q1 -1 3 -1q3 0 5 4l11 16
q9 14 15 14q4 0 51 -50t48 -54l7 -124v-3q0 -12 -8 -14h-1q-4 0 -19 3q-6 1 -20 3q-14 3 -21 4q-5 1 -8 1q64 -84 165 -114q2 -1 3 -1q3 0 5 3q2 2 2 4t-2 4q-3 4 -11 15q-16 21 -16 22q-4 5 -4 9q0 6 7 9l73 31q46 19 45 19q2 1 5 1q4 0 10 -2q5 -1 26 -8l83 -25
q14 -4 16 -9v-1q0 -5 -8 -19l-17 -29q4 -5 5 -5q0 -1 4 -5q87 38 141 116q1 2 1 3q0 3 -2 5q-2 3 -6 3h-1q-15 -5 -19 -7q-16 -5 -18 -5q-9 1 -10 14q-1 12 -11 123v1q0 6 72 111q6 9 12 9q3 0 6 -2t7 -8l7 -7l1 -1q2 -3 5 -3q1 0 3 1q4 2 4 6v2q-12 67 -51 124q-1 3 -4 3
q-1 0 -3 -1q-5 -1 -5 -6v-20q0 -16 -7 -19q-3 0 -132 29q-4 1 -12 12q-3 3 -38 49t-36 46q-2 3 -2 6q0 7 11 12l37 16q6 3 9 5q-44 13 -89 13q-39 0 -79 -10q-5 -1 -5 -6t4 -7l18 -6q10 -3 10 -10q0 -3 -2 -6q0 -1 -34.5 -57.5t-38.5 -58.5q-123 -42 -127 -42zM387 768h14
q110 0 203 -59q105 -66 152 -181q28 -71 28 -144q0 -43 -10 -88q-27 -114 -114 -194q-93 -86 -218 -100q-21 -2 -42 -2q-95 0 -180 45q-108 58 -163 168q-41 81 -41 169q0 31 5 62q19 116 98 202q20 21 43 39q99 79 225 83z" />
    <glyph glyph-name="B" unicode="B" 
d="M225 253l66 443h137v-624h-93v447l-68 -447h-92l-73 441v-441h-86v624h136zM784 304v-83q0 -156 -146 -156q-147 0 -147 156v325q0 157 147 157q146 0 146 -157v-61h-93v67q0 62 -51 62t-51 -62v-337q0 -60 51 -60t51 60v89h93z" />
    <glyph glyph-name="C" unicode="C" 
d="M232 147l-166 353q-5 9 -5 19q0 7 3 14q6 17 23 25l48 23zM495 74l-147 -70q-9 -4 -18 -4q-8 0 -16 3q-17 6 -24 22l-10 20q18 -10 36 -10q9 0 17 2zM256 243l-86 381q-1 5 -1 10q0 12 7 23q10 15 28 19l52 12v-445zM496 114l-159 -36q-5 -1 -10 -1q-12 0 -23 7
q-15 10 -19 28l-5 21q22 -19 50 -19h166zM682 600v2q0 3 -3 3h-2l-103 -44q-5 -1 -9 -5l-42 -58l21 -28l49 46l-47 -49l20 -26l65 49q4 3 5 8zM625 318q16 0 16 16t-16 16h-1l-28 28l16 15q2 2 2 4t-2 3l-6 6q-1 2 -3 2q-1 0 -3 -2l-47 -47q-1 -1 -1 -3q0 -1 1 -3l6 -7
q2 -1 3 -1q2 0 3 1l16 16l23 -22v1l3 3l6 4q1 1 4 2h1l-1 -1q-1 0 -1 -1q-7 -6 -7 -14q0 -11 9 -15q3 -1 7 -1zM510 398l-16 13l-22 -24l10 -10zM482 353q2 2 2 3q0 2 -2 3l-47 47q-1 2 -3 2q-1 0 -3 -2l-7 -6q-1 -1 -1 -3t1 -4l16 -15l-27 -28h-1q-17 0 -17 -16t17 -16
q3 0 6 1q10 4 10 15q0 8 -7 14l-1 1v1l4 -2l6 -4q1 -1 2 -3l1 -1l22 22l16 -16q2 -1 3 -1q2 0 4 1zM470 428l-17 -23l10 -10l23 21zM359 604h-3q-2 0 -2 -2v-3l44 -101q1 -5 5 -8l150 -113l10 10l-121 129l129 -121l11 10l-113 151q-3 4 -8 5zM683 768q23 0 39 -13t16 -31
v-525q0 -18 -16 -30q-16 -13 -39 -13h-330q-23 0 -39 13q-17 12 -17 30v525q0 18 17 31q16 13 39 13h330z" />
    <glyph glyph-name="D" unicode="D" 
d="M157 522l155 -55l-42 -47l-193 68zM557 413h-260l40 45l3 3h174zM541 467l160 55l83 -34l-201 -69zM330 489l-151 49l151 50h195l156 -50l-156 -49h-195zM557 384l-130 -281l-1 2l-130 279h261zM589 392l195 67l-315 -325zM265 393l120 -259l-308 325zM728 295
q12 -40 53 -52q-41 -11 -53 -51q-11 40 -53 51q42 12 53 52zM160 594q-56 -16 -72 -70q-16 54 -72 70q56 15 72 70q16 -55 72 -70z" />
    <glyph glyph-name="E" unicode="E" 
d="M395 385q-3 2 -4 2t-3 -1t-4 -1q-1 0 -3 1t-4 1q-1 0 -3 -2q-2 -1 -3 -1q6 -3 13 -3q8 0 14 3q-1 0 -3 1zM384 364q-24 0 -41 22q-1 0 -1 1l1 1q2 1 8 5q15 9 21 9q3 0 8 -2q3 -1 4 -1q2 0 5 1q5 2 8 2q5 0 21 -9q6 -4 7 -5q1 0 1 -1v-1q-18 -22 -42 -22zM390 261
q-49 0 -89 26q-5 3 -5 8q0 3 3 7q1 2 13 18l1 1q4 4 8 4q3 0 6 -2q1 0 1 -1q30 -17 61 -17q24 0 48 10q7 3 14 8q2 0 3 1q2 1 3 1q2 0 4 -1q4 -1 7 -4l5 -7q6 -8 8 -11q3 -4 3 -7q0 -4 -6 -8q-40 -26 -88 -26zM434 764q85 -21 136 -78q47 -54 52 -122q1 -7 1 -15
q0 -60 -37 -113q-44 -64 -130 -97q44 50 63 91q8 18 8 38q0 21 -9 43q-19 46 -65 57q-93 24 -103 82q-17 -24 -24 -38q-6 -13 -10 -27q-5 -15 -7 -28q-4 -20 -4 -38q0 -9 1 -18q3 -18 18 -57q-27 23 -37 53q-6 18 -6 37q0 13 3 27q3 15 8 29q-34 -52 -34 -104q0 -67 57 -134
q-113 53 -132 132q-5 24 -5 48q0 38 13 75q20 56 53 75q10 6 23 10q22 5 25 5h1q41 71 112 71q14 0 29 -4zM97 0q-17 0 -17 27q0 8 1 17q5 41 30 97q63 140 124 140h43q-15 -93 -15 -129q0 -10 1 -16q11 -73 105 -76q21 0 24 84q1 -84 20 -84q96 1 111 70q2 8 2 21
q0 41 -14 130h47q73 -2 134 -141q24 -56 26 -96v-9q0 -35 -21 -35h-601z" />
    <glyph glyph-name="F" unicode="F" 
d="M663 722l121 -152v-102h-767l-1 99l125 155h522zM567 430h52v-220h-52v220zM181 430h52v-220h-52v220zM692 429h92v-384h-92v384zM16 429h92v-384h-92v384z" />
    <glyph glyph-name="G" unicode="G" 
d="M713 592q1 -4 1 -8q0 -12 -16 -14l-78 -5q-65 -24 -93 -82q-22 -46 -22 -110q0 -21 2 -45q-13 -5 -24 -12q-16 4 -33 5q-3 25 -3 49q0 79 29 137q2 6 6 13q-87 -62 -153 -193q-3 -6 -6 -11q-3 -6 -5 -11q14 -3 26 -8q-11 -8 -19 -18q-31 -36 -31 -96q0 -21 4 -45
q6 -37 24 -70q-39 -25 -84 -25q-15 0 -29 3q-63 11 -98 63q-26 38 -26 81q0 16 4 33q22 104 99 104q33 0 69 -18q3 6 5 11t5 11q101 215 255 275q-35 9 -66 26q-55 28 -94 77q-29 35 -29 48q0 2 1 4q4 8 31 8q13 0 30 -2q64 -6 119 -35q75 -39 112 -100l47 21q6 3 11 3
q11 0 15 -15zM584 308q76 0 93 -109q3 -16 3 -31q0 -52 -33 -97q-42 -57 -112 -69q-14 -2 -28 -2q-89 0 -141 73q-2 4 -6 10q-3 5 -6 11q-13 24 -17 50q-4 22 -4 40q0 65 45 88q5 2 12 4l12 4q13 2 29 2q12 0 25 -1q20 -3 34 -7q9 6 23 13q39 21 71 21z" />
    <glyph glyph-name="H" unicode="H" 
d="M768 557l-41 -218q0 -24 -24 -24h-424l12 -58l385 -1q30 0 30 -30q0 -29 -30 -29l-409 1q-24 0 -29 23l-99 463l-86 25q-22 6 -22 25q0 6 2 12q6 22 25 22q5 0 11 -2l103 -30q17 -5 21 -22l21 -100h3zM613 154q32 0 54 -23q23 -22 23 -54t-23 -55q-22 -22 -54 -22t-54 22
q-23 23 -23 55t23 54q22 23 54 23zM325 154q32 0 54 -23q22 -22 22 -54t-22 -55q-22 -22 -54 -22t-54 22q-23 23 -23 55t23 54q22 23 54 23z" />
    <glyph glyph-name="I" unicode="I" 
d="M650 499l-211 211v-211h211zM554 384h-307v-77h307v77zM554 230h-307v-76h307v76zM707 538v-461q0 -32 -22 -54q-23 -23 -55 -23h-460q-32 0 -54 23q-23 22 -23 54l1 614q0 32 22 54q22 23 54 23h307z" />
    <glyph glyph-name="J" unicode="J" 
d="M444 147q77 -25 114 -115h-311q38 90 114 115v223q-66 20 -109 88q-43 70 -43 161q0 24 3 48h381q4 -24 4 -48q0 -91 -44 -161q-43 -68 -109 -88v-223zM319 243q-189 37 -264 241q-38 103 -38 203v48h184v-60h-125q5 -93 34 -171q62 -165 209 -200v-61zM784 706v-15
q0 -103 -38 -207q-75 -204 -265 -241v61q148 35 209 200q29 78 35 171h-125v60h183z" />
    <glyph glyph-name="K" unicode="K" 
d="M624 441q13 10 18 24q4 10 4 21t-5 23q-9 22 -32 31q-10 4 -21 4t-23 -5q-22 -9 -31 -32q-4 -10 -4 -20q0 -5 1 -9h-1q0 1 -1 1q-10 4 -21 4t-23 -5q-22 -10 -31 -32q-4 -10 -4 -21t5 -23q10 -22 32 -31q11 -4 22 -4q15 0 30 9l-18 -44l15 -6l18 44q7 -28 34 -39
q11 -4 21 -4q12 0 24 5q22 10 30 32q5 11 5 22t-5 22q-10 22 -32 31q-1 0 -7 2zM671 196q-5 -17 -21 -26q-10 -5 -20 -5q-6 0 -13 2l-252 74q-18 5 -27 21q-5 10 -5 21q0 6 2 13l112 377q5 18 21 27q10 5 20 5q6 0 13 -2l252 -74q17 -5 26 -21q6 -10 6 -21q0 -7 -2 -13z
M563 146q-13 -10 -28 -10q-3 0 -7 1l-259 43q-18 3 -28 18q-9 12 -9 25q0 4 1 8l65 388q3 18 17 29q12 8 25 8q4 0 8 -1l54 -9l-101 -341q-3 -11 -3 -22q0 -19 10 -37q15 -29 47 -38zM468 112q-12 -6 -24 -6l-262 17q-19 1 -31 15q-10 11 -10 26v5l24 394q1 18 15 30
q13 11 29 11h3l47 -3l-61 -365q-1 -7 -1 -13q0 -24 15 -45q19 -27 51 -32zM289 81l-188 -18h-3q-16 0 -29 10q-14 12 -15 30l-37 392v5q0 15 10 27q11 14 29 16l73 7l-23 -379v-5q0 -29 19 -52q22 -24 54 -26z" />
    <glyph glyph-name="L" unicode="L" 
d="M400 77q127 0 217 90t90 217t-90 217t-217 90t-217 -90t-90 -217t90 -217t217 -90zM400 768q159 0 272 -112q112 -113 112 -272t-112 -272q-113 -112 -272 -112t-272 112q-112 113 -112 272t112 272q113 112 272 112zM400 576q80 0 136 -56t56 -136t-56 -136t-136 -56
t-136 56t-56 136t56 136t136 56z" />
    <glyph glyph-name="M" unicode="M" 
d="M400 77q127 0 217 90t90 217t-90 217t-217 90t-217 -90t-90 -217t90 -217t217 -90zM400 768q159 0 272 -112q112 -113 112 -272t-112 -272q-113 -112 -272 -112t-272 112q-112 113 -112 272t112 272q113 112 272 112z" />
    <glyph glyph-name="N" unicode="N" 
d="M557 663h-314v-488h314v488zM400 35q22 0 37 15q15 16 15 37q0 22 -15 37q-15 16 -37 16t-37 -16q-15 -15 -15 -37q0 -21 15 -37q15 -15 37 -15zM540 768q36 0 61 -26q26 -25 26 -61v-594q0 -36 -26 -61q-25 -26 -61 -26h-280q-36 0 -61 26q-26 25 -26 61v594q0 36 26 61
q25 26 61 26h280z" />
    <glyph glyph-name="O" unicode="O" 
d="M785 523l-384 -363l-385 363l91 85l294 -277l293 277z" />
    <glyph glyph-name="P" unicode="P" 
d="M400 768q159 0 271 -112q113 -113 113 -272t-113 -271q-112 -113 -271 -113t-271 113q-113 112 -113 271t113 272q112 112 271 112zM510 495q0 55 -28 85q-29 30 -84 30t-84 -30q-28 -30 -28 -85v-238q0 -55 28 -85q29 -30 84 -30t84 30q28 30 28 85v61h-71v-66
q0 -44 -39 -44t-39 44v248q0 45 39 45t39 -45v-49h71v44z" />
    <glyph glyph-name="Q" unicode="Q" 
d="M400 768q159 0 271 -112q113 -113 113 -272t-113 -271q-112 -113 -271 -113t-271 113q-113 112 -113 271t113 272q112 112 271 112zM457 642h-82v-399q0 -50 -47 -50h-28v-75q14 -1 40 -1q117 0 117 132v393z" />
    <glyph glyph-name="R" unicode="R" 
d="M649 499l-211 211v-211h211zM554 384h-307v-77h307v77zM554 230h-307v-76h307v76zM707 538v-461q0 -32 -23 -54q-22 -23 -54 -23h-461q-31 0 -54 23q-22 22 -22 54v614q0 32 23 54q22 23 54 23h307z" />
    <glyph glyph-name="S" unicode="S" 
d="M768 557l-41 -217q0 -25 -24 -25h-424l12 -58l385 -1q30 0 30 -29q0 -30 -30 -30l-409 1q-23 1 -28 24l-100 463l-86 24q-22 6 -22 25q0 6 2 12q6 22 25 22q5 0 11 -2l103 -29q17 -5 21 -23l21 -100l3 1zM613 154q32 0 54 -23q23 -22 23 -54t-23 -54q-22 -23 -54 -23
t-54 23q-23 22 -23 54t23 54q22 23 54 23zM325 154q32 0 54 -23q22 -22 22 -54t-22 -54q-22 -23 -54 -23t-54 23q-23 22 -23 54t23 54q22 23 54 23z" />
    <glyph glyph-name="T" unicode="T" 
d="M643 428q18 37 18 67q0 46 -48 69q-16 9 -33 9q-13 0 -26 -6q-30 -11 -46 -44q-11 -22 -11 -41q0 -12 4 -22q10 -29 42 -44q15 -8 28 -9q-39 -32 -98 -36l10 -32q9 -2 19 -2q32 0 71 21q51 28 70 70zM781 574q3 -4 3 -7t-1 -5l-198 -384q-3 -6 -8 -6q-2 0 -5 1l-143 75
l-14 7l-9 4l32 39q1 2 3 3q5 6 8 12q3 5 5 10q4 12 4 25q0 24 -19 41q-7 9 -17 13q-14 7 -30 7h-3q-4 0 -7 -1l10 20l137 266q3 6 8 6q3 0 6 -2l39 -21l11 -5l10 -6l176 -91q1 -1 2 -1zM621 498q0 -12 -8 -28q-13 -27 -33 -27q-9 0 -19 6q-14 6 -18 21v8q0 13 6 27
q9 18 22 25q7 4 14 4t14 -4q22 -11 22 -32zM397 232q12 -11 13 -28v-4q0 -16 -10 -26q-12 -12 -29 -13h-4q-16 0 -29 12l53 66zM406 304l-20 -25q-12 -15 -125 -156l-134 -115l-111 47q4 6 8 68q3 61 28 102q45 76 78 124q38 56 51 64q21 10 45 10q19 0 42 -7l32 324
q1 20 19 20h2l266 -19q8 0 13 -6q6 -6 6 -14v-2l-1 -29l-21 11l1 18l-264 18l-23 -345l-1 -19l-1 -20l-1 -15l-41 -41l-23 -2h-1q-24 -3 -33 -20q-6 -11 -6 -24t5 -26q1 -3 4 -5q3 -4 7 -4h3q6 0 11 4q22 23 67 66q44 45 66 67l14 14q11 11 25 11t25 -11t11 -24q0 -8 -5 -18
q-3 -4 -6 -7l-1 -1z" />
    <glyph glyph-name="U" unicode="U" 
d="M477 570q23 -29 23 -72q0 -7 -1 -14q5 -2 5 -18q0 -5 -1 -12q-3 -29 -17 -51q-7 -32 -33 -58q-27 -27 -53 -27t-53 27q-26 26 -33 58q-14 22 -17 51v12q0 16 4 18q-1 7 -1 14q0 43 23 72q27 35 77 35t77 -35zM170 262q29 39 77 53q56 16 72 29q36 -49 81 -49q46 1 81 50
q17 -14 50 -23q39 -11 54 -20q43 -23 71 -85q-123 -54 -256 -54t-256 54q10 24 26 45zM660 539q16 -20 16 -52v-7q3 -1 3 -10q0 -5 -1 -11q-2 -20 -11 -35q-6 -22 -24 -40q-18 -19 -36 -19t-37 19q-18 18 -23 40q-9 15 -11 35q-1 6 -1 11q0 9 3 10v8q0 31 15 51q19 25 54 25
t53 -25zM489 359q61 23 62 24q23 -33 54 -33h2q32 0 56 34q12 -10 34 -16q27 -8 37 -14q30 -16 50 -59q-64 -28 -133 -35l-15 23l-19 20l-25 14l-12 7l-14 4l-14 5l-11 3l-12 3l-11 4l-10 3l-8 5l-9 6zM247 539q15 -20 15 -51v-8q3 -1 3 -10q0 -5 -1 -11q-2 -20 -11 -35
q-5 -22 -23 -40q-19 -19 -37 -19t-36 19q-18 18 -24 40q-9 15 -11 35q-1 6 -1 11q0 9 3 10v7q0 32 16 52q18 25 53 25t54 -25zM34 327q20 26 53 36q39 11 50 20q24 -33 55 -33h2q31 0 55 34l63 -25l-3 -2l-12 -10l-12 -5l-15 -4l-18 -5l-18 -4l-18 -8l-24 -11l-19 -17
l-16 -21q-4 -5 -8 -12q-69 7 -133 35q7 17 18 32z" />
    <glyph glyph-name="V" unicode="V" 
d="M518 413q36 36 36 86q0 64 -45 109t-109 45t-109 -45t-45 -109h77q0 32 23 54q22 23 54 23t54 -23q23 -22 23 -54t-23 -54l-47 -48q-45 -46 -45 -109v-19h76q0 63 45 108zM438 192h-76v-77h76v77zM400 768q159 0 271 -113q113 -112 113 -271t-113 -271
q-112 -113 -271 -113t-271 113q-113 112 -113 271t113 271q112 113 271 113z" />
    <glyph glyph-name="W" unicode="W" 
d="M268 768q48 0 48 -48v-205q0 -48 -48 -48h-204q-48 0 -48 48v205q0 48 48 48h204zM268 301q48 0 48 -48v-205q0 -48 -48 -48h-204q-48 0 -48 48v205q0 48 48 48h204zM736 768q48 0 48 -48v-205q0 -48 -48 -48h-204q-48 0 -48 48v205q0 48 48 48h204zM736 301q48 0 48 -48
v-205q0 -48 -48 -48h-204q-48 0 -48 48v205q0 48 48 48h204z" />
    <glyph glyph-name="X" unicode="X" 
d="M272 256h256v256h-256v-256zM187 597h426v-426h-426v426zM528 768h85v-85h-85v85zM528 85h85v-85h-85v85zM699 256h85v-85h-85v85zM699 597h85v-85h-85v85zM699 85h85q0 -36 -25 -60q-24 -25 -60 -25v85zM699 427h85v-86h-85v86zM357 85h86v-85h-86v85zM272 683h-85v85
h85v-85zM16 256h85v-85h-85v85zM101 0q-36 0 -60 25q-25 24 -25 60h85v-85zM699 768q36 0 60 -25q25 -24 25 -60h-85v85zM443 683h-86v85h86v-85zM16 597h85v-85h-85v85zM187 85h85v-85h-85v85zM16 427h85v-86h-85v86zM16 683q0 36 25 60q24 25 60 25v-85h-85z" />
    <glyph glyph-name="Y" unicode="Y" 
d="M401 505q43 0 74 -31q30 -30 30 -74v-5l-110 110h6zM244 477q-18 -37 -18 -76q0 -73 51 -124t123 -51q39 0 77 19l-54 54q-12 -3 -23 -3q-43 0 -74 31q-31 30 -31 74q0 11 3 22zM95 715l619 -619l-44 -44l-102 102l-15 14q-73 -29 -153 -29q-129 0 -235 73
q-103 72 -149 189q41 104 131 174l-16 16l-80 79zM400 575q-33 0 -64 -12l-75 75q67 24 139 24q129 0 235 -73q103 -72 149 -188q-38 -98 -120 -166l-102 102q13 31 13 64q0 72 -51 123q-52 51 -124 51z" />
    <glyph glyph-name="Z" unicode="Z" 
d="M244 612q-3 -9 -3 -17v-394q0 -8 3 -17h-77q-17 0 -17 17v394q0 17 17 17h77zM110 612q-3 -9 -3 -17v-394q0 -8 3 -17h-77q-17 0 -17 17v394q0 17 17 17h77zM720 286l-302 303v6q0 17 17 17h268q17 0 17 -17v-309zM784 149l-36 -36l-71 71h-242q-17 0 -17 17v243l-43 42
v-285q0 -8 3 -17h-77q-17 0 -17 17v377l-40 40l36 36l42 -42l23 -23l30 -30l43 -43l302 -303z" />
    <glyph glyph-name="bracketleft" unicode="[" 
d="M531 407l-301 301h274q27 0 27 -27v-274zM471 207l-35 89l-99 100l14 -37h-126l41 108l-43 42l-118 -302h63l34 91h171l35 -91h63zM784 51l-51 -51l-202 202v-74q0 -27 -27 -27h-432q-27 0 -27 27v553l1 6l-30 30l51 51l60 -60h1l32 -32l92 -93l118 -117h-1l162 -161v-1z
" />
    <glyph glyph-name="backslash" unicode="\" 
d="M360 201q-1 4 -1 11q0 32 80 122q81 90 81 178q0 127 -120 127q-121 0 -121 -127v-49h77v54q0 50 41 50q42 0 42 -58q0 -72 -80 -158q-80 -85 -80 -160v-62h233v72h-152zM645 768q13 0 22 -9t9 -21v-708q0 -12 -9 -21t-22 -9h-491q-13 0 -22 9t-9 21v708q0 12 9 21t22 9
h491z" />
    <glyph glyph-name="bracketright" unicode="]" 
d="M414 407l87 -87l-87 -88v73h-87v29h87v73zM387 363l-87 88l87 87v-73h87v-29h-87v-73zM250 571q6 0 10 -4q5 -4 5 -10v-346q0 -6 -5 -10q-4 -4 -10 -4h-220q-6 0 -10 4t-4 10v346q0 6 4 10t10 4h220zM771 571q6 0 10 -4t4 -10v-346q0 -6 -4 -10t-10 -4h-220q-6 0 -11 4
q-4 4 -4 10v346q0 6 4 10q5 4 11 4h220z" />
    <glyph glyph-name="asciicircum" unicode="^" 
d="M625 215q0 -8 1 -11h151v-71h-231v61q0 73 79 158q40 42 54 67q25 41 25 88q0 57 -41 57q-42 0 -42 -49v-53h-75v48q0 60 30 92q30 33 89 33q58 0 89 -33q30 -32 30 -92q0 -87 -80 -176q-52 -58 -54 -61q-25 -32 -25 -58zM524 433l-71 -71l71 -71l-47 -47l-70 71l-71 -71
l-46 47l70 71l-70 71l46 47l71 -71l70 71zM211 239q-67 0 -121 18q-53 18 -74 45v58q21 -28 74 -45q54 -18 121 -18q7 0 23 1l-7 -7l47 -47q-31 -5 -63 -5zM336 181l71 71v-52q-21 -28 -74 -46q-55 -19 -122 -19t-121 18q-53 17 -74 45v58q21 -28 74 -45q54 -18 121 -18
q53 0 101 12zM211 342q-67 0 -121 17q-53 18 -74 46v57q21 -28 74 -45q54 -18 121 -18q21 0 47 3l39 -40l-14 -14q-36 -6 -72 -6zM211 445q-67 0 -121 17q-53 18 -74 46v61q21 28 74 46q54 17 121 17t122 -18q53 -18 74 -47v-57q-7 -9 -19 -19l-52 52l-96 -97q-17 -1 -29 -1
z" />
    <glyph glyph-name="underscore" unicode="_" 
d="M452 348q34 3 53 9h2q4 0 4 -5v-4q0 -35 -33 -46q-11 -3 -29 -4q-30 2 -42 24q-7 14 -23 14h-2q-15 0 -22 -13q-14 -25 -43 -25h-8q-16 2 -27 8q-25 12 -25 39v8q0 4 3 4h1q33 -9 112 -9h79zM379 127q5 -3 5 -9q0 -2 -1 -5q-1 -6 -11 -43q-89 45 -94 48q-61 31 -97 41
q28 26 61 55q-126 36 -167 38q0 1 3 3q12 11 45 40q28 26 45 40q3 3 7 3h2q18 -3 45 -7q6 -1 8 -7q50 -118 149 -197zM725 254q-134 -24 -185 -49q14 -6 37 -18q25 -12 36 -17q-162 -36 -233 -170q-1 11 -1 22q0 34 13 71q26 72 97 139q19 18 40 35q5 4 6 9q8 30 8 47v4
q0 4 3 4q8 1 57 8q4 0 7 -2q40 -29 115 -83zM266 575q-8 2 -8 7v1q15 89 28 136q6 23 14 37q6 11 14 11q6 0 12 -4q5 -3 15 -14q12 -15 18 -19q8 -5 16 -5t15 4t26 22q12 11 17 14t9 3q8 0 13 -9q7 -12 14 -39q12 -44 30 -139v-1q0 -3 -4 -5q-27 -8 -59 -11q-19 -2 -33 -2
h-9q-58 0 -128 13zM97 443q-15 8 -15 15q0 8 14 16q26 15 80 29q-2 0 71 18q3 1 6 1t5 -1q29 -12 80 -17q23 -2 46 -2t45 2q52 5 81 17q3 1 5 1h3q93 -22 136 -39q16 -6 25 -13q7 -5 7 -11q0 -5 -7 -10q-13 -10 -42 -19q-43 -14 -106 -23q-74 -11 -153 -11q-124 2 -226 27
q-36 9 -55 20z" />
    <glyph glyph-name="grave" unicode="`" 
d="M427 589l44 12l-233 100l-29 -9q6 -6 6 -10v-2q-2 -7 -25 -14l26 -11l34 10zM303 707q0 -11 29 -23l119 -51q33 -14 69 -14q27 0 56 8q35 10 35 21q0 10 -28 22l-42 19q-33 14 -65 14q-19 0 -37 -5q-22 -6 -22 -15q0 -2 2 -5l-42 18q-16 7 -16 12q0 4 11 7q9 2 17 2
q15 0 29 -6l8 -3l41 11l-6 3q-34 15 -70 15q-26 0 -53 -8q-35 -10 -35 -22zM383 536q-6 -3 -15 -4h-16q-8 0 -16 1q-7 2 -12 4l-276 125q-4 2 -5 4v5q2 2 6 4t11 4l345 87q5 1 11 1q7 1 13 1q7 0 13 -1t10 -2l293 -100q6 -2 8 -4q3 -2 3 -5v-1q0 -1 -2 -3q-3 -3 -9 -5z
M455 663q-11 5 -11 9t11 7q8 2 17 2q14 0 28 -6l42 -18q12 -4 12 -8t-12 -8q-9 -2 -17 -2q-14 0 -28 6zM158 220v8q1 22 44 57q43 36 45 98v8q0 82 -58 122q-20 13 -33 13q-29 0 -31 -60l-2 -34l39 -27l1 38q1 24 12 24q5 0 11 -4q20 -13 20 -50v-4q-2 -51 -45 -84
q-43 -32 -44 -84l-2 -43l119 -81l1 50zM332 477q2 -9 2 -16l12 -437q0 -7 -2 -12q-1 -5 -4 -7t-6 -2h-2q-4 0 -9 3l-256 173q-4 3 -7 8q-4 4 -7 10t-5 13q-2 6 -2 13l-30 391q0 7 1 13t3 9q3 4 6 5h2q3 0 6 -1l273 -128q6 -2 11 -8q4 -5 8 -12t6 -15zM474 259q1 32 24 41
q4 2 8 2q15 0 15 -27l-1 -59q0 -33 -23 -41q-5 -2 -9 -2q-14 0 -14 23v63zM734 325l-21 -8l2 225l-48 -18l-84 -254l-1 -48l86 31v-60l44 16v60l21 8zM566 410q0 63 -39 63q-12 0 -27 -6q-68 -25 -69 -111l-2 -170v-2q0 -63 40 -63q11 0 27 6q68 25 69 108l1 61q0 61 -32 61
q-8 0 -17 -3q-30 -11 -42 -45l1 61q0 41 25 50q5 2 9 2q14 0 14 -26v-12l42 15v11zM782 610q2 -6 2 -13l-18 -401q0 -7 -3 -13q-2 -7 -5 -13q-4 -5 -9 -10q-4 -4 -10 -7l-334 -150q-6 -3 -11 -3q-6 0 -10 3q-5 2 -7 8q-3 5 -3 12l-9 437v4q0 6 2 12q2 8 7 15q4 7 10 12t13 7
l362 114q3 1 7 1h3q5 -1 8 -5q4 -4 5 -10zM624 285l46 141l-1 -125z" />
    <glyph glyph-name="a" unicode="a" 
d="M571 768q35 0 60 -25t25 -60v-598q0 -35 -25 -60t-60 -25h-342q-35 0 -60 25t-25 60v598q0 35 25 60t60 25h342z" />
    <glyph glyph-name="b" unicode="b" 
d="M646 539l-33 9q-13 -18 -23 -24q-9 -4 -21 -4q-10 0 -22 3l-9 -35l38 -11l-64 -241l49 -14zM752 577q17 -4 26 -20q6 -10 6 -20q0 -6 -2 -12l-99 -370q-4 -17 -20 -26q-10 -6 -20 -6q-6 0 -12 2l-178 47q11 9 18 22q11 18 11 38q0 10 -3 20l-61 228l35 133q5 17 20 26
q10 6 20 6q6 0 12 -2zM344 242l-12 46l-94 -26q-1 3 -2 7q-1 3 -1 7q0 23 30 83q24 49 24 90q0 18 -5 35q-17 64 -68 64q-12 0 -27 -4q-58 -16 -58 -67q0 -15 5 -32l8 -31l47 13l-9 33q-2 8 -2 14q0 20 20 25q4 1 8 1q19 0 27 -31q3 -11 3 -24q0 -38 -26 -88
q-26 -49 -26 -87q0 -14 4 -27l10 -39zM446 243q2 -6 2 -12q0 -10 -6 -20q-9 -16 -26 -20l-247 -66q-6 -2 -12 -2q-10 0 -20 6q-16 9 -20 26l-99 370q-2 6 -2 12q0 10 6 20q9 16 26 20l247 66q6 2 12 2q10 0 20 -6q15 -9 20 -26z" />
    <glyph glyph-name="c" unicode="c" 
d="M545 143l-39 167l128 112l-168 15l-66 157l-65 -157l-168 -15l127 -112l-38 -167l144 89zM575 287l62 -273l-237 145l-237 -145l63 273l-210 185l276 23l108 259l108 -258l276 -24z" />
    <glyph glyph-name="d" unicode="d" 
d="M575 287l62 -273l-237 145l-237 -145l63 273l-210 185l276 23l108 259l108 -258l276 -24z" />
    <glyph glyph-name="e" unicode="e" 
d="M585 276q0 41 -25 64q-25 24 -66 24q-40 0 -65 -24q-25 -23 -25 -62v-21q0 -39 25 -63q25 -23 66 -23t65 23q25 24 25 62v20zM515 532l-40 21l-203 -324l40 -21zM206 491q0 -40 25 -63q25 -24 65 -24t65 24q25 23 25 62v20q0 40 -25 64q-25 23 -65 23q-41 0 -65 -24
q-25 -23 -25 -62v-20zM400 768q159 0 271 -113q113 -112 113 -271t-113 -271q-112 -113 -271 -113t-271 113q-113 112 -113 271t113 271q112 113 271 113zM322 462q-10 -11 -26 -11t-26 11q-9 10 -9 27v21q0 19 9 29q10 11 26 11t26 -11q9 -11 9 -28v-21q0 -18 -9 -28z
M494 316q16 0 26 -10q10 -11 10 -28v-22q0 -39 -35 -39q-16 0 -26 12q-10 11 -10 27v21q0 18 10 29q9 10 25 10z" />
    <glyph glyph-name="f" unicode="f" 
d="M592 272l-173 102v202h-57v-230l201 -121zM400 768q159 0 271 -113q113 -112 113 -271t-113 -271q-112 -113 -271 -113t-272 113q-112 112 -112 271t112 271q113 113 272 113z" />
    <glyph glyph-name="g" unicode="g" 
d="M400 73q106 0 181 75t75 181t-75 181t-181 75t-181 -75t-75 -181t75 -181t181 -75zM657 534q72 -90 72 -205q0 -136 -96 -233q-97 -96 -233 -96t-233 96q-96 97 -96 233t96 233q97 96 233 96q115 0 205 -72l52 52q27 -22 52 -52zM363 512h74v-219h-74v219zM510 695h-220
v73h220v-73z" />
    <glyph glyph-name="h" unicode="h" 
d="M707 614h-614l307 -192zM707 537l-307 -192l-307 192v-384h614v384zM707 691q32 0 54 -23q23 -22 23 -54v-461q0 -32 -23 -55q-22 -22 -54 -22h-614q-32 0 -54 22q-23 23 -23 55v461q0 32 23 54q22 23 54 23h614z" />
    <glyph glyph-name="i" unicode="i" 
d="M708 614l-308 -192l-307 192v-77l307 -192l308 192v77zM708 691q32 0 54 -23q23 -22 23 -54v-461q0 -31 -23 -54q-22 -22 -54 -22h-615q-32 0 -54 22q-23 23 -23 54v461q0 32 23 54q22 23 54 23h615z" />
    <glyph glyph-name="j" unicode="j" 
d="M784 668l-284 -284l284 -285l-87 -87l-372 372l372 371zM16 755h124v-743h-124v743z" />
    <glyph glyph-name="k" unicode="k" 
d="M629 668l-285 -284l285 -285l-88 -87l-371 372l371 371z" />
    <glyph glyph-name="l" unicode="l" 
d="M736 564q20 0 34 -14q14 -15 14 -35v-270q0 -20 -14 -34q-14 -15 -34 -15h-36v-78q0 -8 -8 -11q-2 -1 -4 -1q-5 0 -9 4l-75 86h-252q-20 0 -34 15q-14 14 -14 34h144q40 0 68 29t28 69v221h192zM496 343q0 -20 -14 -34q-14 -15 -34 -15h-252l-75 -86q-4 -4 -9 -4
q-2 0 -4 1q-8 3 -8 11v78h-36q-20 0 -34 15q-14 14 -14 34v270q0 20 14 35q14 14 34 14h384q20 0 34 -14q14 -15 14 -35v-270z" />
    <glyph glyph-name="m" unicode="m" 
d="M784 768v-274h-110v164h-164v110h274zM290 768v-110h-164v-164h-110v274h274zM784 274v-274h-274v110h164v164h110zM126 274v-164h164v-110h-274v274h110z" />
    <glyph glyph-name="n" unicode="n" 
d="M619 768v-165h165v-109h-274v274h109zM290 768v-274h-274v109h165v165h109zM784 274v-109h-165v-165h-109v274h274zM290 274v-274h-109v165h-165v109h274z" />
    <glyph glyph-name="o" unicode="o" 
d="M246 531q-2 0 -5 1l-6 2q-10 6 -10 14q0 5 3 11q6 10 15 10q2 0 5 -1q3 0 6 -2q10 -5 10 -14q0 -5 -3 -11q-6 -10 -15 -10zM234 497q0 -2 -1 -5q0 -3 -2 -6q-4 -6 -11 -8q-3 -1 -6 -1q-4 0 -8 2q-3 2 -5 4q-6 6 -6 12q0 5 3 10q4 7 11 9q3 1 5 1q5 0 10 -3q10 -5 10 -15z
M173 513q-6 -6 -12 -6q-5 0 -10 3q-10 6 -10 14q0 5 3 11q1 3 3 4q6 6 13 6q5 0 9 -2q11 -6 11 -15q0 -5 -3 -11zM193 456q10 -6 10 -14q0 -5 -3 -11q-6 -10 -15 -10q-2 0 -5 1q-3 0 -6 2q-10 6 -10 14q0 5 3 11q5 10 15 10q2 0 5 -1q3 0 6 -2zM257 478q6 6 12 6q5 0 10 -3
q11 -6 11 -15q0 -4 -3 -10l-4 -4q-6 -6 -12 -6q-5 0 -10 3q-10 6 -10 14q0 5 3 11q1 2 3 4zM681 525q2 6 2 12q0 11 -6 21q-8 16 -26 21l-252 74q-7 2 -13 2q-10 0 -20 -5q-16 -9 -21 -26l-36 -121l16 -54v-2q0 -8 -5 -14q-4 -5 -10 -7l-25 -7l-52 -173q-2 -6 -2 -13
q0 -11 6 -21q9 -15 26 -21l252 -74q6 -2 12 -2q11 0 21 6q16 8 21 26zM160 392q2 -1 4 -1q3 0 5 1l70 19l47 14l22 6q5 2 8 5q3 4 3 9v3l-13 45l-28 99q-4 9 -13 9h-4l-1 -1l-70 -20l-69 -20h-2q-10 -4 -10 -14v-2l42 -144q3 -6 9 -8zM400 768q159 0 272 -112
q112 -113 112 -272t-112 -272q-113 -112 -272 -112t-272 112q-112 113 -112 272t112 272q113 112 272 112zM523 394q22 -8 33 -29q6 -13 6 -26q0 -10 -3 -19q-8 -22 -29 -33q-12 -6 -25 -6q-10 0 -20 4q-27 9 -36 37l-15 -45l-16 5l16 45q-15 -10 -32 -10q-10 0 -20 3
q-22 8 -33 30q-6 12 -6 24q0 10 4 20q7 22 29 33q12 6 24 6q10 0 20 -4h1v11q0 9 3 18q8 23 29 33q13 6 26 6q9 0 19 -3q22 -8 33 -29q6 -12 6 -25q0 -10 -4 -20q-5 -14 -17 -24q6 -2 7 -2z" />
    <glyph glyph-name="p" unicode="p" 
d="M400 150q46 0 46 47q-1 47 -46 47q-46 0 -46 -47t46 -47zM359 503l12 -234h59l11 234h-82zM778 109q6 -11 6 -22q0 -10 -5 -20q-12 -22 -38 -22h-681q-25 0 -38 20q-6 11 -6 21q0 12 7 24q85 149 340 590q13 22 37 22t37 -22q228 -387 341 -591z" />
    <glyph glyph-name="q" unicode="q" 
d="M657 361q-5 6 -10 18q-10 28 -10 67t10 67q5 12 10 18q4 5 8 5q3 0 7 -5q5 -6 10 -18q10 -28 10 -67t-10 -67q-5 -12 -10 -18q-4 -5 -7 -5q-4 0 -8 5zM385 115q2 -5 2 -10q0 -4 -1 -8q-3 -8 -12 -12l-89 -35q-4 -2 -9 -2q-4 0 -8 2q-8 4 -11 14l-61 241l96 -19zM205 446
q0 -58 8 -112q-56 8 -105 8h-50l-42 71v66l42 71h50q49 0 105 8q-8 -53 -8 -112zM665 214q8 0 18 11q15 16 27 48q27 71 27 173t-27 173q-12 32 -27 48q-10 12 -18 12t-19 -12q-14 -16 -26 -48q-27 -71 -27 -173t27 -173q12 -32 26 -48q11 -11 19 -11zM784 446
q0 -113 -29 -193t-70 -81h-61q-146 110 -357 153q-10 56 -10 121q0 66 10 121q211 43 357 153h61q41 -1 70 -81t29 -193z" />
    <glyph glyph-name="r" unicode="r" 
d="M784 729v-614q0 -32 -22 -55q-23 -22 -55 -22h-614q-32 0 -55 22q-22 23 -22 55v614l64 -64l64 64l64 -64l64 64l64 -64l64 64l64 -64l64 64l64 -64l64 64l64 -64zM362 345h-269v-230h269v230zM707 192h-269v-77h269v77zM707 345h-269v-77h269v77zM707 537h-614v-115h614
v115z" />
    <glyph glyph-name="s" unicode="s" 
d="M649 132q32 0 50 -1q42 -4 61 -20q22 -19 24 -61h-368q1 42 24 61q19 16 61 20q18 1 50 1h98zM501 182h198v-38q-20 2 -50 2q-8 0 -24 -1h-50q-16 1 -24 1q-30 0 -50 -2v38zM301 568q-13 0 -24 12q-9 9 -11 19v5q0 8 4 12l33 33l64 65q5 4 12 4q13 0 25 -11
q11 -12 11 -23q0 -4 -1 -8t-3 -6l-98 -97q-2 -3 -6 -4q-2 -1 -6 -1zM556 525q3 2 7 3q2 1 5 1q13 0 25 -11q9 -10 11 -21v-3q0 -8 -4 -13l-68 -67l-30 -30q-4 -4 -12 -4q-13 0 -24 11q-12 12 -12 24q0 3 1 6q1 4 4 7zM128 148q-19 -19 -46 -19t-47 19q-19 19 -19 47
q0 27 19 46l188 188q20 20 44 20q11 0 22 -4l58 58q-22 26 -34 54q6 3 10 7l97 97q4 4 6 10q42 -19 78 -55q35 -35 54 -76q-7 -2 -11 -6l-97 -97q-5 -4 -7 -11q-27 13 -53 34l-58 -58q4 -12 4 -22q0 -25 -20 -44z" />
    <glyph glyph-name="t" unicode="t" 
d="M780 108q4 -20 4 -35q0 -36 -27 -36h-720q-21 0 -21 28q0 19 9 50q11 31 43 76q39 55 71 72q22 11 77 26q47 13 71 32q35 -46 71 -60q17 -6 44 -6t43 6q37 14 71 60q23 -17 72 -30q53 -12 76 -28q53 -35 89 -96q26 -44 27 -59zM230 499q-1 11 -1 21q0 33 13 51v15
q0 37 12 67q23 52 74 54q6 0 12 4q24 20 67 20q10 0 21 -1q59 -7 95 -41q21 -19 30 -54q-10 15 -25 28q-49 44 -119 44q-47 0 -86 -21v-1q32 15 69 15q68 0 117 -44q16 -14 27 -32q16 -24 20 -52q-3 1 -5 1q-13 0 -24 -15q-2 -3 -6 -10q-3 -6 -5 -9q-3 -3 -4 -3q-2 0 -3 2
t-2 25q0 10 -8 10q-3 0 -6 -1q-6 -2 -17 -2q-24 0 -71 8q-66 11 -89 22q-4 2 -8 2t-6 -3q-3 -4 -5 -11q-2 -8 -4 -37q-1 -5 -1 -6q-1 -8 -4 -8q-1 0 -2 1q-2 2 -6 9q-6 12 -13 12q-8 0 -11 -17q-3 -11 -3 -26q0 -7 1 -15q6 -57 25 -57q4 0 5 -4q14 -69 74 -103
q20 -11 41 -11q20 0 40 10q29 14 50 43q21 7 39 19q-24 -54 -80 -85q-24 -14 -48 -14q-25 0 -51 16q-70 42 -86 108q-27 16 -33 76zM545 560q3 2 7 2q7 0 14 -9q10 -12 10 -30q0 -5 -1 -10l-6 -53q-2 -16 -12 -25q-8 -6 -16 -6q-3 0 -7 1q-4 2 -10 4q-4 1 -4 8q-2 15 -2 29
q0 33 11 65q6 18 16 24zM538 419q-3 -3 -7 -6q-38 -28 -90 -37q-5 -13 -17 -13h-48q-17 0 -17 22t17 22h48q10 0 15 -11q42 7 73 28q1 3 2 7q2 -4 12 -7q5 -1 10 -1h5q-1 -2 -3 -4z" />
    <glyph glyph-name="u" unicode="u" 
d="M689 459q0 -4 9 -4h7q3 1 4 4v1q0 2 -2 3q-7 4 -11 4q-5 0 -7 -6v-2zM782 389q2 -1 2 -3v-1q0 -5 -3 -9q-1 -1 -1 -2v-2q1 -6 1 -10q0 -10 -6 -13q-3 -2 -6 -2q-4 0 -9 5q-1 2 -3 2q-1 0 -3 -2l-1 -2q-1 -1 -1 -3q0 -1 1 -2v-1q1 -1 1 -3v-1q-1 -3 -4 -3q-7 0 -11 3
q1 0 -51 35l-22 5q-21 5 -39 18q-17 13 -17 31q0 14 9 31q1 1 1 2q0 3 -4 4h-2q-1 0 -2 -1q-16 -23 -16 -40q0 -8 4 -15q1 -1 1 -3t-3 -3q-55 -19 -97 -66q-1 -1 -3 -1q-1 0 -3 2l-120 147q-2 2 -2 4t4 3q5 1 9 3q3 1 3 3q0 3 -2 4q-19 13 -28 24v5q2 2 4 2h1q21 -6 76 -12
q3 0 4 2q1 1 1 2q0 2 -1 3q-4 6 -6 12v1q0 3 2 4t3 1t2 -1q9 -9 26 -16q1 -1 2 -1q2 0 3 1q1 2 1 3t-1 2q-5 10 -5 18v1q0 2 2 3q1 1 2 1t2 -1q13 -8 38 -12h1q2 0 3 2q1 1 1 2t-1 2q-3 5 -5 11v1q0 3 2 4q1 1 2 1q2 0 3 -2q7 -8 19 -14h1q2 0 3 1q2 1 2 4q-1 5 -1 10
q0 7 2 13q1 3 4 3t4 -2q9 -21 39 -25q26 -4 40 -22q1 -2 3 -2h1q2 1 3 3q4 18 8 28q2 2 4 2h1q3 0 3 -4q3 -23 10 -33q2 -2 3 -2q2 0 3 1q4 4 9 6h1q3 0 4 -2q1 -1 1 -2q0 -2 -2 -3q-6 -6 -8 -14v-4q20 -22 50 -44q2 -1 2 -4q-1 -2 -2 -5q-1 -1 -1 -2t1 -2q36 -54 54 -62z
M132 270q2 -3 5 -3q2 0 4 2l37 30q2 2 4 2q3 0 5 -3l32 -40q2 -3 5 -3q2 0 4 2l47 38q3 2 3 5q0 2 -2 4l-32 39q-2 3 -2 5q0 3 3 5l47 37q2 2 4 2q3 0 5 -3l32 -39q2 -3 5 -3q2 0 4 2l35 28q3 2 3 5q0 2 -2 5l-32 39q-2 3 -5 3q-2 0 -4 -2l-35 -28q-2 -2 -4 -2q-3 0 -5 3
l-40 49q-2 2 -2 5q0 2 3 5l34 28q3 2 3 5q0 2 -2 4l-31 39q-2 3 -5 3q-2 0 -5 -2l-35 -28q-3 -2 -3 -5q0 -2 2 -4l32 -39q2 -3 2 -5q0 -3 -3 -5l-46 -37q-3 -3 -3 -6q0 -2 2 -4l40 -49q2 -2 2 -4q0 -3 -3 -6l-47 -37q-2 -2 -4 -2q-3 0 -5 3l-40 49q-2 3 -2 5q0 3 3 5l46 37
q3 2 3 5q0 2 -2 5l-31 39q-3 3 -6 3q-2 0 -4 -2l-46 -38q-3 -2 -3 -5q0 -2 2 -4l31 -39q2 -2 2 -5q0 -2 -3 -5l-36 -29q-3 -2 -3 -5q0 -2 2 -4zM254 574q2 2 3 2q2 0 3 -2l162 -201l128 -157q4 -4 4 -9t-6 -9q-3 -3 -7 -3h-2q-6 0 -9 5l-126 154l-1 2q-3 3 -6 3q-2 0 -4 -2
l-210 -170q-5 -3 -10 -3q-5 1 -9 5l-145 179q-2 3 -2 7v3q0 5 4 9z" />
    <glyph glyph-name="v" unicode="v" 
d="M392 360q27 0 38 -13t11 -46v-42q0 -47 -39 -47h-43v148h33zM434 480q0 -51 -46 -51h-29v127h36q39 0 39 -49v-27zM517 296q0 82 -56 104q49 23 49 97v17q0 111 -113 111h-114v-482h119q115 0 115 114v39zM400 768q159 0 272 -112q112 -113 112 -272t-112 -272
q-113 -112 -272 -112t-272 112q-112 113 -112 272t112 272q113 112 272 112z" />
    <glyph glyph-name="w" unicode="w" 
d="M343 661q-3 26 -21 43q-19 17 -44 17q-27 0 -46 -19q-19 -20 -19 -48q0 -26 17 -45q16 -19 41 -21v-1h72v74zM388 666v-125h-121q-42 5 -71 37t-29 76q0 48 33 81q32 33 78 33q43 0 74 -30q32 -29 36 -72zM520 582q22 3 37 19q14 17 14 40q0 25 -16 42q-17 17 -41 17
q-22 0 -39 -15q-16 -15 -18 -38h-1v-65h64zM524 541h-107v110q4 38 31 64q28 26 66 26q41 0 69 -29q29 -29 29 -71q0 -39 -26 -67q-25 -29 -62 -33zM99 239h279v-239h-279v239zM427 239h273v-239h-273v239zM427 516h273v-228h-273v228zM99 516h279v-228h-279v228z" />
    <glyph glyph-name="x" unicode="x" 
d="M231 372l2 -5v-1q0 -3 -3 -5q-4 -3 -13 -10q-8 -6 -12 -10l-17 -13l-6 -4q-1 -1 -3 -1q-1 0 -3 1q1 -1 -26 17q-2 1 -18 12q-9 6 -9 9v1l8 30q4 15 5 19q1 1 2 4t1 5q2 5 5 5h5l32 2h11q7 0 10 1q6 0 6 -1q2 0 4 -5q6 -16 11 -30zM328 332q-12 -42 -44 -71
q-39 -35 -91 -41q-9 -1 -17 -1q-40 0 -75 19q-45 24 -68 69q-17 34 -17 70q0 13 2 26q8 48 41 84q8 9 18 16q41 33 93 34h7q45 0 83 -24q22 -13 38 -33l-45 -38l-11 3l-16 4q-2 0 -5 5q-3 2 -7 8q-3 5 -10 14q-7 8 -10 13l-4 4q-1 1 -1 3q0 3 5 5q2 1 7 3t8 3l4 2
q-19 6 -39 6q-15 0 -31 -4q-2 -1 -2 -3t2 -3q8 -2 7 -2q5 -1 5 -5q0 -1 -1 -2l-3 -5l-17 -27q-1 -2 -3 -5l-3 -6q-3 -4 -5 -5q-4 -2 -14 -5q-9 -3 -13 -4l-20 -7q-5 -2 -6 -2q-3 1 -4 8q0 4 -1 11q0 2 -2 3q-2 0 -3 -2q-20 -31 -21 -69q0 -2 2 -2h1q1 0 2 1l3 3q1 3 2 4
q4 6 6 6t6 -4q11 -13 23 -25q1 -2 4 -5l4 -4q4 -4 4 -6l1 -17q1 -6 1 -17q1 -12 2 -17q0 -7 -4 -7q-1 0 -8 1q-3 0 -9 1q-5 1 -8 2h-4q27 -34 69 -47h1q1 0 2 1t1 2t-1 1q-3 4 -4 7l-7 8q-2 2 -2 4t3 4l31 13l18 8h2q2 0 5 -1q1 0 5 -1t5 -2q6 -2 18 -5q11 -3 17 -5t7 -4
q0 -2 -4 -9l-7 -12q2 -1 2 -2l2 -2q36 16 58 49l1 1q0 1 -1 2t-2 1h-1q-1 -1 -4 -1q-3 -1 -4 -2q-6 -2 -7 -2q-4 1 -4 6q-1 5 -2 15q-1 11 -1 16l-2 20q0 2 6 11q1 2 3 5t3 4zM458 261v34h-82v68h82v34l82 -68zM436 385h-81v-34l-82 68l82 68v-34h81v-68zM764 371h2q3 0 3 4
q1 7 1 14q0 5 -1 10q0 5 -5 5l-19 -2q-4 0 -4 -3v-23q0 -3 4 -4zM755 326q1 1 1 3t-3 3l-17 8q-1 1 -3 1t-3 -3q-5 -9 -11 -17q-1 -1 -1 -3t3 -3l16 -11q1 -1 3 -1q1 0 3 2q7 10 12 21zM722 461q-2 -2 -2 -4q0 -1 1 -3q6 -8 10 -17q1 -3 3 -3t3 1l17 8q4 1 4 4q0 1 -1 2
q-5 11 -12 22q-2 2 -4 2q-1 0 -3 -1zM707 269q2 2 2 4q0 1 -1 3l-11 16q-2 2 -4 2q-1 0 -2 -1q-9 -6 -18 -10q-3 -1 -3 -3t1 -3l8 -18q2 -3 4 -3t3 1q11 5 21 12zM637 244q4 1 4 5l-2 19q0 5 -5 5q-5 -1 -10 -1q-4 0 -9 1q-5 0 -5 -5l-2 -19q0 -4 5 -5h24zM578 277q1 1 1 2
q0 3 -4 4q-9 4 -17 10q-2 1 -3 1q-2 0 -3 -2l-11 -16q-1 -2 -1 -3q0 -2 2 -4q10 -7 21 -12q1 -1 3 -1t3 3zM709 501q1 2 1 3q0 2 -2 3q-10 8 -21 13q-1 1 -3 1t-3 -3l-9 -18q-1 -1 -1 -3t3 -3q10 -4 18 -10q2 -1 3 -1q2 0 3 2zM641 528q0 5 -4 5q-7 1 -13 1t-12 -1
q-4 0 -4 -5l1 -19q1 -4 4 -4h23q3 0 4 4zM574 494q4 1 4 4q0 1 -1 2l-9 18q-1 3 -3 3t-3 -1q-11 -5 -21 -13q-2 -1 -2 -3q0 -1 1 -3l10 -16q2 -2 4 -2q1 0 3 1q8 6 17 10zM528 454q1 2 1 3q0 2 -2 4l-16 11q-2 1 -3 1q-2 0 -4 -2q-7 -11 -12 -22q-1 -1 -1 -3t3 -3l18 -8
q1 -1 3 -1t3 3q4 9 10 17zM624 548q66 0 113 -47q47 -46 47 -112t-47 -113q-47 -46 -113 -46q-61 0 -106 40l52 43q24 -18 54 -18q39 0 67 28q27 27 27 66q0 38 -27 66q-28 27 -67 27q-38 0 -66 -27q-27 -28 -27 -66q0 -7 1 -13l-24 20v1q0 5 -4 5h-4l-30 25q13 53 56 87
t98 34zM677 348q0 4 -4 7q-2 2 -5 2h-2l-25 25q1 3 1 7t-1 7l25 25h2q3 0 5 2q4 4 4 7t-4 6q-3 3 -6 3t-7 -3q-2 -2 -2 -6v-2l-25 -24q-3 1 -7 1t-7 -1l-25 24v2q0 4 -2 6q-3 3 -7 3q-3 0 -6 -3t-3 -6t3 -7q2 -2 5 -2h2l25 -25q-1 -3 -1 -7t1 -7l-25 -25h-2q-3 0 -5 -2
q-3 -3 -3 -7q0 -3 3 -6t6 -3q4 0 7 3q2 2 2 5v2l25 25q3 -2 7 -2t7 2l25 -25v-2q0 -3 2 -5q4 -3 7 -3t6 3q4 3 4 6zM626 474q35 0 60 -25q26 -25 26 -60q0 -36 -26 -61q-25 -25 -60 -25q-27 0 -49 16l11 10l-44 37q-4 11 -4 23q0 35 25 60q26 25 61 25z" />
    <glyph glyph-name="y" unicode="y" 
d="M577 393q5 14 11 30q2 5 4 5q0 1 6 1q3 -1 10 -1h11l32 -2h5q3 0 5 -5q0 -2 1 -5t2 -4q1 -4 5 -19l8 -30v-1q0 -3 -9 -9q-16 -11 -18 -12q-27 -18 -26 -17q-2 -1 -3 -1q-2 0 -3 1l-6 4l-17 13q-4 4 -12 10q-9 7 -13 10q-3 2 -3 5v1l2 5zM527 378q1 -1 3 -4t3 -5
q6 -9 6 -11l-2 -20q0 -5 -1 -16q-1 -10 -2 -15q0 -5 -4 -6q-1 0 -7 2q-1 1 -4 2q-3 0 -4 1h-1q-1 0 -2 -1t-1 -2l1 -1q22 -33 58 -49l2 2q0 1 2 2l-7 12q-4 7 -4 9q1 2 7 4t17 5q12 3 18 5q1 1 5 2t5 1q3 1 5 1h2l18 -8l31 -13q3 -2 3 -4t-2 -4l-7 -8q-1 -3 -4 -7
q-1 0 -1 -1t1 -2t2 -1h1q42 13 69 47h-4q-3 -1 -8 -2q-6 -1 -9 -1q-7 -1 -8 -1q-4 0 -4 7q1 5 2 17q0 11 1 17l1 17q0 2 4 6l4 4t4 5q12 12 23 25q4 4 6 4t6 -6q1 -1 2 -4l3 -3t2 -1h1q2 0 2 2q-1 38 -21 69q-1 2 -3 2q-2 -1 -2 -3q-1 -7 -1 -11q-1 -7 -4 -8q-1 0 -6 2
l-20 7q-4 1 -13 4q-10 3 -14 5q-2 1 -5 5l-3 6q-2 3 -3 5l-17 27l-3 5q-1 1 -1 2q0 4 5 5q-1 0 7 2q2 1 2 3t-2 3q-16 4 -31 4q-20 0 -39 -6l4 -2q3 -1 8 -3t7 -3q5 -2 5 -5q0 -2 -1 -3l-4 -4q-3 -5 -10 -13q-7 -9 -10 -14q-4 -6 -7 -8q-3 -5 -5 -5l-16 -4l-11 -3l-45 38
q16 20 38 33q38 24 83 24h7q52 -1 93 -34q10 -7 18 -16q33 -36 41 -84q2 -13 2 -26q0 -36 -17 -70q-23 -45 -68 -69q-35 -19 -75 -19q-8 0 -17 1q-52 6 -91 41q-32 29 -44 71zM260 329l82 68v-34h82v-68h-82v-34zM364 453h81v34l82 -68l-82 -68v34h-81v68zM55 372q4 1 4 4
v23q0 3 -4 3l-19 2q-5 0 -5 -5q-1 -5 -1 -10q0 -7 1 -14q0 -4 3 -4h2zM57 305q2 -2 3 -2q2 0 3 1l16 11q3 1 3 3t-1 3q-6 8 -11 17q-1 3 -3 3t-3 -1l-17 -8q-3 -1 -3 -3t1 -3q5 -11 12 -21zM62 472q-2 1 -3 1q-2 0 -4 -2q-7 -11 -12 -22q-1 -1 -1 -2q0 -3 4 -4l17 -8
q1 -1 3 -1t3 3q4 9 10 17q1 2 1 3q0 2 -2 4zM114 257q1 -1 3 -1t4 3l8 18q1 1 1 3t-3 3q-9 4 -18 10q-1 1 -2 1q-2 0 -4 -2l-11 -16q-1 -2 -1 -3q0 -2 2 -4q10 -7 21 -12zM187 244q5 1 5 5l-2 19q0 5 -5 5q-5 -1 -9 -1q-5 0 -10 1q-5 0 -5 -5l-2 -19q0 -4 4 -5h24zM231 259
q1 -3 3 -3t3 1q11 5 21 12q2 2 2 4q0 1 -1 3l-11 16q-1 2 -3 2q-1 0 -3 -1q-8 -6 -17 -10q-4 -1 -4 -4q0 -1 1 -2zM102 485q1 -2 3 -2q1 0 3 1q8 6 18 10q3 1 3 3t-1 3l-9 18q-1 3 -3 3t-3 -1q-11 -5 -21 -13q-2 -1 -2 -3q0 -1 1 -3zM160 509q1 -4 4 -4h23q3 0 4 4l1 19
q0 5 -4 5q-6 1 -12 1t-13 -1q-4 0 -4 -5zM243 484q2 -1 3 -1q2 0 4 2l10 16q1 2 1 3q0 2 -2 3q-10 8 -21 13q-1 1 -3 1t-3 -3l-9 -18q-1 -1 -1 -2q0 -3 4 -4q9 -4 17 -10zM282 437q1 -3 3 -3t3 1l18 8q3 1 3 3t-1 3q-5 11 -12 22q-2 2 -4 2q-1 0 -3 -1l-16 -11q-2 -2 -2 -4
q0 -1 1 -3q6 -8 10 -17zM274 514q43 -34 56 -87l-30 -25h-4q-4 0 -4 -5v-1l-24 -20q1 6 1 13q0 38 -27 66q-28 27 -66 27q-39 0 -67 -27q-27 -28 -27 -66q0 -39 27 -66q28 -28 67 -28q30 0 54 18l52 -43q-45 -40 -106 -40q-66 0 -113 46q-47 47 -47 113t47 112q47 47 113 47
q55 0 98 -34zM127 342q3 -3 6 -3t7 3q2 2 2 5v2l25 25q3 -2 7 -2t7 2l25 -25v-2q0 -3 2 -5q3 -3 7 -3q3 0 6 3t3 6q0 4 -3 7q-2 2 -5 2h-2l-25 25q1 3 1 7t-1 7l25 25h2q3 0 5 2q3 4 3 7t-3 6t-6 3q-4 0 -7 -3q-2 -2 -2 -6v-2l-25 -24q-3 1 -7 1t-7 -1l-25 24v2q0 4 -2 6
q-4 3 -7 3t-6 -3q-4 -3 -4 -6t4 -7q2 -2 5 -2h2l25 -25q-1 -3 -1 -7t1 -7l-25 -25h-2q-3 0 -5 -2q-4 -3 -4 -7q0 -3 4 -6zM235 449q25 -25 25 -60q0 -12 -4 -23l-44 -37l11 -10q-22 -16 -49 -16q-35 0 -60 25q-26 25 -26 61q0 35 26 60q25 25 60 25t61 -25z" />
    <glyph glyph-name="z" unicode="z" 
d="M595 302q5 -1 10 -1q20 0 34 17q9 12 9 24q0 8 -4 17q-10 20 -58 94q-79 -42 -98 -54q-17 -11 -17 -30q0 -4 1 -8q4 -25 29 -34q8 -3 17 -3q14 0 29 9l-9 -34l13 -3l9 34q14 -24 35 -28zM472 515q2 0 6 -1t7 -1q12 0 16 16l16 58l-13 3l-16 -59q-2 -6 -6 -6h-3q-3 1 -4 1
zM752 574q17 -5 26 -20q6 -10 6 -20q0 -6 -2 -12l-99 -363q-4 -17 -20 -25q-10 -6 -20 -6q-6 0 -12 2l-178 46q11 9 18 21q11 18 11 37q0 10 -3 20l-61 224l36 131q4 17 19 25q10 6 21 6q6 0 12 -2zM87 520l17 -38l-13 -3zM313 389q4 8 4 17q0 13 -10 26q-14 18 -36 18
q-4 0 -8 -1q-11 -2 -24 -12q-14 -12 -16 -25q-19 17 -38 17q-8 0 -16 -3q-26 -9 -30 -36v-7q0 -22 18 -34q20 -13 100 -58q46 77 56 98zM129 462l-36 74l-19 -5l8 -81l12 3l-2 15l17 4l6 -13zM445 245q1 -5 1 -10q0 -12 -6 -22q-8 -15 -25 -19l-247 -64q-6 -2 -12 -2
q-11 0 -21 6q-15 9 -19 25l-98 364q-2 6 -2 12q0 10 6 20q9 15 26 19l247 64q6 2 12 2q10 0 20 -6q15 -9 20 -25z" />
    <glyph glyph-name="braceleft" unicode="{" 
d="M680 552h-125l-34 -192h126l5 32h-86l9 52h73l6 31h-74l8 45h86zM440 360l95 192h-44l-65 -144l-19 144h-42l35 -192h40zM346 552h-39l-33 -192h38zM254 392h-82l28 160h-39l-33 -192h120zM751 604q16 0 26 -12q8 -9 8 -20q0 -4 -1 -7l-47 -230q-6 -26 -33 -26h-655
q-15 0 -25 12q-8 8 -8 19q0 4 1 7l47 231q5 26 32 26h655zM166 243q-7 0 -11 -3t-4 -8q0 -4 5 -7q4 -3 13 -6q16 -5 23 -12t7 -18q0 -12 -8 -18q-9 -7 -25 -7q-10 0 -19 4q-8 4 -13 10q-4 7 -4 16h19q0 -15 17 -15q7 0 11 3q4 2 4 7t-4 8t-14 6q-9 3 -15 6q-15 9 -15 23
q0 7 4 13t12 9q7 3 17 3t17 -3q8 -4 12 -10t4 -15h-18q0 7 -4 10q-4 4 -11 4zM292 216q4 4 4 10q0 7 -4 11t-11 4h-17v-29h17q7 0 11 4zM299 252q7 -3 12 -10q4 -7 4 -16q0 -13 -9 -21q-10 -8 -26 -8h-16v-32h-19v91h36q10 0 18 -4zM416 213q0 14 -5 22q-5 7 -15 7
q-9 0 -14 -7q-5 -8 -5 -22v-4q0 -14 5 -22t15 -8q9 0 14 8q5 7 5 21v5zM417 252q9 -5 13 -16q5 -10 5 -23v-4q0 -14 -5 -24q-4 -10 -13 -16q-9 -5 -20 -5q-12 0 -21 5q-8 6 -13 16t-5 23v5q0 13 5 23q4 11 13 16t20 5q12 0 21 -5zM527 217q3 4 3 10q0 7 -3 10q-4 4 -11 4
h-15v-27h15q7 0 11 3zM545 213q-4 -6 -12 -10l20 -37v-1h-21l-17 34h-14v-34h-19v91h34q16 0 24 -7q9 -7 9 -20q0 -10 -4 -16zM588 256h74v-15h-28v-76h-19v76h-27v15z" />
    <glyph glyph-name="bar" unicode="|" 
d="M519 343q-2 0 -2 -2v-199q0 -1 2 -1h11q2 0 2 1v199q0 2 -2 2h-11zM679 242q0 10 -8 16q-7 7 -17 7q-11 0 -18 -7t-7 -16q0 -10 7 -17t18 -7q10 0 17 7q8 7 8 17zM461 204q-10 0 -18 -7q-7 -7 -7 -17t7 -17q8 -7 18 -7t18 7q7 7 7 17t-7 17q-8 7 -18 7zM302 179
q0 -10 8 -16q7 -7 17 -7q11 0 18 7q8 6 8 16t-8 17q-7 7 -18 7q-10 0 -17 -7q-8 -7 -8 -17zM461 331q-10 0 -17 -7q-8 -7 -8 -17t8 -17q7 -7 17 -7q11 0 18 7q8 7 8 17t-8 17q-7 7 -18 7zM303 306q0 -10 7 -17t18 -7q10 0 18 7q7 7 7 17q0 9 -7 16q-8 7 -18 7q-11 0 -18 -7
t-7 -16zM265 328q0 18 13 31q12 12 30 12h433q18 0 30 -12q13 -13 13 -31v-173q0 -18 -13 -30q-12 -13 -30 -13h-433q-18 0 -30 13q-13 12 -13 30v173zM281 425q2 0 2 2v199q0 2 -2 2h-11q-2 0 -2 -2v-199q0 -2 2 -2h11zM121 526q0 -9 8 -16q7 -7 17 -7q11 0 18 7t7 16
q0 10 -7 17t-18 7q-10 0 -17 -7q-8 -7 -8 -17zM76 565q10 0 18 6q7 7 7 17t-7 17q-8 7 -18 7q-11 0 -18 -7t-7 -17t7 -17q7 -6 18 -6zM235 589q0 10 -8 16q-7 7 -18 7q-10 0 -17 -7q-8 -6 -8 -16t8 -17q7 -7 17 -7q11 0 18 7q8 7 8 17zM75 437q11 0 18 7t7 17t-7 17t-18 7
q-10 0 -17 -7q-8 -7 -8 -17t8 -17q7 -7 17 -7zM234 462q0 10 -7 17q-8 7 -18 7t-18 -7q-7 -7 -7 -17q0 -9 7 -16q8 -7 18 -7t18 7q7 7 7 16zM339 565q11 0 18 6q7 7 7 17t-7 17t-18 7q-10 0 -18 -7q-7 -7 -7 -17t7 -17q8 -6 18 -6zM498 589q0 10 -8 16q-7 7 -17 7
q-11 0 -18 -7q-7 -6 -7 -16t7 -17t18 -7q10 0 17 7q8 7 8 17zM339 437q10 0 17 7q8 7 8 17t-8 17q-7 7 -17 7q-11 0 -18 -7q-8 -7 -8 -17t8 -17q7 -7 18 -7zM497 462q0 10 -7 17t-18 7q-10 0 -18 -7q-7 -7 -7 -17q0 -9 7 -16q8 -7 18 -7q11 0 18 7t7 16zM535 440
q0 -18 -12 -31q-13 -12 -31 -12h-433q-18 0 -30 12q-13 13 -13 31v173q0 18 13 30q12 13 30 13h433q18 0 31 -13q12 -12 12 -30v-173z" />
    <glyph glyph-name="braceright" unicode="}" 
d="M260 159q1 0 6 1v-37l-14 -3q-6 -2 -13 -2q-42 0 -52 41l-116 465q-2 7 -2 13q0 15 8 28q12 19 33 24l311 77q6 2 12 2q42 0 52 -40l26 -104h-33l-15 62q-10 41 -50 41q-6 0 -12 -1l-253 -63q-21 -5 -31 -23q-8 -13 -8 -27q0 -6 2 -13l98 -400q10 -41 51 -41zM356 624
q-37 0 -63 -27q-27 -26 -27 -63v-349l-1 -1h-5q-21 0 -27 22l-98 400q-1 6 -1 11q0 17 20 23l253 62h8q19 0 24 -22l14 -56h-97zM661 415h-50l-33 -173l-40 174h-43l-40 -174l-33 174h-50l54 -245h51l40 164l39 -164h51zM676 587q22 0 38 -16t16 -38l-1 -480q0 -22 -15 -37
q-16 -16 -38 -16h-320q-22 0 -38 16q-15 15 -15 38v480q0 22 16 37q15 16 37 16h320z" />
    <glyph glyph-name="asciitilde" unicode="~" 
d="M471 157q-30 -42 -129 -42q-96 0 -128 41v38q32 -41 128 -41q99 0 129 42v-38zM471 292q-30 -43 -129 -43q-96 0 -128 41v41q32 41 128 41q99 0 129 -43v-37zM342 220q99 0 129 42v-38q-30 -42 -129 -42q-96 0 -128 41v38q32 -41 128 -41zM182 156q0 -4 2 -9l-163 316
q-5 9 -5 19q0 6 2 12q5 16 20 24l88 45l56 -317v-23q0 -8 4 -15q-4 -6 -4 -14v-38zM653 462q-8 5 -20 5q-4 0 -9 -1q-19 -2 -30 -12q-8 36 -38 45q-8 3 -16 3q-18 0 -33 -16q-13 -15 -13 -31q0 -8 3 -17q8 -23 49 -113q90 41 112 53t22 40v2q-2 29 -27 42zM657 168
q-5 -16 -20 -23q-9 -4 -18 -4q-6 0 -13 2l-103 38v14q0 8 -3 15q3 7 3 14v38q0 8 -3 15q3 7 3 15v37q0 11 -6 19q-27 38 -97 51l79 218q5 15 20 22q9 5 17 5q7 0 14 -3l226 -82q16 -6 23 -21q4 -9 4 -18q0 -6 -2 -13zM156 578q-1 4 -1 8q0 12 8 22q9 14 25 17l109 19
q-6 -12 -7 -26l-20 -222q-49 -13 -75 -39zM322 615q1 17 14 28q11 9 26 9h3l92 -8q-6 -8 -9 -16l-81 -225q-13 1 -25 1q-20 0 -39 -3z" />
    <glyph glyph-name="cent" unicode="&#xa2;" 
d="M634 347q47 0 94 -19q56 -23 56 -56v-38h-300v38q0 33 56 56q47 19 94 19zM634 384q-31 0 -53 22t-22 53t22 53t53 22t53 -22t22 -53t-22 -53t-53 -22zM459 332v37h-89v74h89v37l89 -74zM109 358q71 0 93 30v-27q-22 -30 -93 -30q-70 0 -93 29v27q23 -29 93 -29zM109 467
q71 0 93 -30v-27q-22 -31 -93 -31q-70 0 -93 30v29q23 29 93 29zM109 310q71 0 93 30v-27q-22 -30 -93 -30q-70 0 -93 29v27q23 -29 93 -29zM109 261q71 0 93 31v-28q-22 -30 -93 -30q-70 0 -93 29v28q23 -30 93 -30zM242 392q72 0 94 30v-27q-22 -31 -94 -31q-11 0 -24 2
v27q13 -1 24 -1zM242 501q72 0 94 -31v-27q-22 -30 -94 -30q-11 0 -24 1v28l-3 4q-16 22 -59 31q28 24 86 24zM242 344q72 0 94 30v-27q-22 -30 -94 -30q-11 0 -24 1v27q13 -1 24 -1z" />
    <glyph glyph-name="sterling" unicode="&#xa3;" 
d="M508 550q0 46 -32 78q-32 33 -77 33q-46 0 -78 -33q-32 -32 -32 -78v-86h219v86zM425 224q36 17 36 57q0 25 -18 43q-18 19 -43 19t-43 -19q-18 -18 -18 -43q0 -39 34 -56l-24 -118v-2q0 -2 1 -3q2 -2 4 -2l90 -1q6 0 6 6q0 1 -1 2zM622 464q30 0 52 -21q21 -22 21 -53
v-316q0 -31 -21 -52q-22 -22 -52 -22h-444q-30 0 -52 22q-21 21 -21 52v316q0 31 21 53q22 21 52 21h5v86q0 90 63 154q64 64 153 64t152 -64t63 -154v-86h8z" />
    <glyph glyph-name="currency" unicode="&#xa4;" 
d="M698 725v-85h-597v85h149l43 43h213l43 -43h149zM339 299l-90 -91l60 -60l91 91l90 -91l60 60l-90 91l90 90l-60 60l-90 -90l-91 90l-60 -60zM144 597h511v-512q0 -35 -25 -60t-60 -25h-341q-35 0 -60 25t-25 60v512z" />
    <glyph glyph-name="yen" unicode="&#xa5;" horiz-adv-x="800" 
d="M78 533q62 62 149 62h403q64 0 109 -45t45 -108q0 -64 -45 -109t-109 -45h-326q-40 0 -68 28t-28 68t28 68t68 28h288v-77h-291q-16 0 -16 -19t16 -19h329q32 0 55 22q22 23 22 55q0 31 -22 54q-23 22 -55 22h-403q-55 0 -95 -39q-39 -39 -39 -95t39 -95q40 -39 95 -39
h365v-77h-365q-87 0 -149 62t-62 149t62 149z" />
    <glyph glyph-name="brokenbar" unicode="&#xa6;" 
d="M535 768v-271h181l-316 -316l-317 316h181v271h271zM83 90h633v-90h-633v90z" />
    <glyph glyph-name="section" unicode="&#xa7;" horiz-adv-x="400" 
d="M664 595q17 0 17 21q0 22 -17 22h-189q-18 0 -18 -22q0 -21 18 -21h189zM664 530q17 0 17 21q0 22 -17 22h-189q-18 0 -18 -22q0 -21 18 -21h189zM457 486q0 -21 11 -21h116q11 0 11 21q0 22 -11 22h-116q-11 0 -11 -22zM664 248q17 0 17 22q0 21 -17 21h-189
q-18 0 -18 -21q0 -22 18 -22h189zM584 183q11 0 11 22q0 21 -11 21h-116q-11 0 -11 -21q0 -22 11 -22h116zM378 641q0 16 -13 28t-32 12h-171q-18 0 -31 -12t-13 -28v-157q0 -17 13 -29t31 -12h171q19 0 32 12t13 29v61l-60 -56q-8 -6 -19 -6t-18 6l-120 110q-8 8 -8 15
q0 8 8 16l5 4q9 8 17 8t16 -8l100 -91l79 72v26zM378 320q0 24 -17 41t-41 17h-144q-24 0 -41 -17t-17 -41v-122q0 -24 17 -41t41 -17h144q24 0 41 17t17 41v122zM729 768q16 0 28 -11q11 -11 11 -27v-639q0 -13 -8 -23v-1l-2 -1q-1 -2 -3 -3l-59 -57q-6 -6 -12 -6
q-5 0 -11 6l-48 46l-47 -46q-6 -6 -12 -6t-12 6l-43 42l-44 -42q-6 -6 -12 -6t-12 6l-43 42l-44 -42q-6 -6 -12 -6t-12 6l-43 42l-44 -42q-6 -6 -12 -6t-12 6l-47 46l-47 -46q-6 -6 -12 -6t-12 6l-59 57q-2 1 -3 3l-2 2q-8 10 -8 23v639q0 16 11 27q12 11 28 11h659z" />
    <glyph glyph-name="dieresis" unicode="&#xa8;" 
d="M400 495l288 273l89 -84l-377 -357l-378 357l89 84zM400 168l288 272l89 -84l-377 -356l-378 356l89 84z" />
    <glyph glyph-name="copyright" unicode="&#xa9;" horiz-adv-x="800" 
d="M563 225l-201 121v230h57v-202l173 -102zM400 768q159 0 271 -113q113 -112 113 -271t-113 -271q-112 -113 -271 -113t-272 113q-112 112 -112 271t112 271q113 113 272 113zM170 613q-95 -94 -95 -229t95 -229q95 -96 230 -96t229 96q96 94 96 229t-96 229
q-94 96 -229 96t-230 -96z" />
    <glyph glyph-name="ordfeminine" unicode="&#xaa;" horiz-adv-x="800" 
d="M631 0h-462q-2 0 -4 1q-5 0 -10 1q-47 6 -78 43q-15 18 -21 41q-9 41 -12 83q-1 16 -1 32q0 43 8 86q16 81 60 151q31 51 76 92q4 3 8 3h404q12 0 21 -9q132 -131 137 -316v-10q0 -41 -7 -82q-1 -4 -1 -7q-2 -15 -7 -28q-24 -65 -92 -78q-6 -2 -13 -2q-3 -1 -6 -1z
M440 330l54 6v2q-11 42 -52 55q-9 3 -19 5q-4 0 -9 2v16h-31v-17h-2q-19 -2 -35 -9q-45 -22 -45 -64q0 -10 3 -22q9 -29 36 -43q19 -11 40 -16q1 0 2 -1t1 -2v-73q-27 12 -34 40q-29 -3 -56 -5q3 -24 17 -43q21 -26 54 -33q6 -1 13 -2q3 -1 6 -1v-33h31v33q6 1 11 3
q12 2 22 6q49 17 56 68v8q0 38 -34 58q-15 8 -30 13q-9 3 -17 5l-8 2v70q21 -7 26 -28zM541 768q3 0 5 -1q6 0 12 -1q49 -9 87 -41q21 -16 38 -38l-1 -1q-1 0 -2 -1q-48 -44 -96 -89q-2 -3 -6 -3q-78 1 -156 1h-200q-2 0 -3.5 0.5t-2.5 0.5q-36 34 -73 69l-24 22l-1 1h-1
q1 2 2 3q2 3 4 5q37 43 90 63q21 8 43 9q1 1 2 1h25l8 -2q29 -5 55 -19q15 -9 30 -16q12 -6 24 -6t24 6q13 7 27 14q24 14 51 20q6 1 13 2q3 1 6 1h20zM414 166v71q9 -2 17.5 -6t13.5 -12t5 -17q0 -5 -2 -11q-4 -10 -14 -17t-20 -8zM382 297q-12 4 -19.5 12t-7.5 19t8 19.5
t19 11.5v-62z" />
    <glyph glyph-name="guillemotleft" unicode="&#xab;" horiz-adv-x="800" 
d="M421 275h69l-55 -41l21 -65l-56 40l-56 -40l21 65l-55 41h69l21 66zM523 244q0 52 -36 88t-87 36t-87 -36t-36 -88q0 -51 36 -87t87 -36t87 36t36 86v1zM585 244q-1 -76 -55 -130q-54 -53 -128 -53h-3q-77 1 -131 55q-53 55 -53 131q1 77 55 130q54 54 130 54
q77 0 131 -54q54 -55 54 -131v-2zM400 460q-14 0 -27 -2l165 248h246l-223 -319q-64 73 -161 73zM16 706h246l120 -183l-48 -74q-56 -18 -95 -62z" />
    <glyph glyph-name="logicalnot" unicode="&#xac;" horiz-adv-x="800" 
d="M592 768h192v-192h-192v192zM304 768h192v-192h-192v192zM16 768h192v-192h-192v192zM592 480h192v-192h-192v192zM304 480h192v-192h-192v192zM16 480h192v-192h-192v192zM592 192h192v-192h-192v192zM304 192h192v-192h-192v192zM16 192h192v-192h-192v192z" />
    <glyph glyph-name="uni00AD" unicode="&#xad;" horiz-adv-x="800" 
d="M170 436q95 -186 282 -282l93 94q13 13 30 13q7 0 14 -2q74 -25 152 -25q18 0 30 -12q13 -13 13 -30v-149q0 -18 -13 -30q-12 -13 -30 -13q-147 0 -282 57q-130 55 -231 155q-100 101 -155 231q-57 135 -57 282q0 18 13 30q12 13 30 13h149q18 0 30 -13q13 -12 13 -30
q0 -78 24 -152q2 -7 2 -14q0 -17 -13 -30z" />
    <glyph glyph-name="registered" unicode="&#xae;" horiz-adv-x="800" 
d="M281 423q1 3 1 5v3l-1 3v3l-11 10h-13q-6 -2 -8 -4q-3 -3 -3 -6q-2 -3 -2 -7q0 -3 2 -7l8 -10h16zM249 466l2 2l2 1q2 2 4 5q1 3 1 5v3q-1 3 -4 5l-1 3l-2 2q-2 3 -5 3q-3 3 -7 3q-3 0 -6 -3q-8 -4 -8 -8q-2 -3 -2 -6t2 -7l2 -2l2 -3q3 -3 6 -3h14zM308 447v-3l1 -3
q2 -4 2 -7q-17 -20 -30 -43h-3q-10 -4 -20 -4q-8 0 -15 2q-16 3 -21 18q-3 11 -3 22q0 3 3 8l3 4l2 4l-16 5q-9 9 -11 13q-3 8 -3 17q0 5 1 10q8 15 24 21q12 4 25 4q6 0 13 -1q14 -5 21 -19q3 -7 3 -16l-8 -16h18l4 -3l4 -4q4 -4 6 -9zM165 402q-5 22 -16 43v-6
q-5 -23 -5 -48zM198 394l13 -27l-24 -10q-9 12 -14 26l-45 -18l-8 16l3 24l4 24q4 28 9 48l24 10l32 -74l14 5l8 -19zM243 248q1 -27 6 -54l-24 6q-80 24 -135 85q-55 62 -69 143q-5 27 -5 53q0 88 54 163q70 99 189 119q28 5 55 5q88 0 164 -53q100 -69 120 -188l-67 5h-6
q-104 0 -182 -69q-16 61 -63 94q-34 25 -71 25q-15 0 -30 -4q-54 -14 -80 -66q-17 -34 -17 -71q0 -21 5 -42q14 -59 61 -93q35 -26 74 -26q12 0 24 2q-3 -17 -3 -34zM582 431q-27 0 -51 -13q-40 -25 -48 -72q-1 -10 -1 -20q0 -37 20 -70q24 -44 72 -62q18 -7 36 -7
q26 0 50 15q39 25 49 70q1 10 1 21q0 37 -20 72q-25 44 -73 61zM531 0q-105 0 -179 73q-74 74 -74 177q0 104 74 177q74 74 179 74t179 -74q74 -73 74 -177v-2q0 -103 -73 -175q-74 -73 -177 -73h-3zM647 286q1 2 1 4q0 6 -5 11l-2 3q-5 8 -15 10h-3q-8 0 -15 -4l-2 -1
q-7 -7 -7 -17t7 -17v-1q8 -10 18 -10h2q8 0 13 8q7 5 8 14zM598 339q0 8 -5 15q-9 9 -17 9q-7 0 -13 -6q-6 -4 -8 -12v-3q0 -5 3 -11q1 -2 3 -4q9 -8 16 -8t13 6q7 5 8 14zM577 298h-6q-18 0 -32 14q-12 12 -12 30q0 17 13 30l5 3q13 14 32 14t32 -13l3 -3q10 -11 10 -25
q0 -6 -2 -13q6 3 13 3q5 0 10 -2q11 -3 17 -14q15 -12 17 -30v-5q0 -16 -11 -29q-3 -4 -8 -8q-14 -13 -32 -13h-3q-20 0 -34 14l-4 5q-9 8 -12 20v6q0 8 4 16z" />
    <glyph glyph-name="macron" unicode="&#xaf;" horiz-adv-x="798" 
d="M472 160q2 0 3 2v2l-1 2h-2l-4 -2v-2l2 -2h2zM481 106q1 -2 4 -2v1q3 0 5 2h1q1 3 1 5q0 4 -3 6h-4q-3 0 -5 -2t-2 -4q0 -4 3 -6zM487 87q-2 -5 -5 -8q-4 -3 -9 -3q3 -1 5 -4h1l2 -3h1q1 -3 1 -5v-1h1v1l1 1q1 3 3 5l5 3h4q-4 1 -7 5t-3 9zM480 135l3 1q2 1 2 3q0 3 -2 4
h-4l-3 -2l-2 -2q0 -3 2 -4h4zM296 567q-2 1 -2 3q0 1 1 2q1 2 3 2q1 0 2 -1t1 -3v-1q-1 -2 -4 -2h-1zM293 604q0 3 -2 6h1q3 -3 7 -3q2 0 5 1q-2 -2 -3 -6q0 -3 1 -6q-3 4 -7 4q-2 0 -5 -2q2 3 3 6zM279 562q-3 4 -8 4h-3q-3 0 -6 -1v1q3 3 4 8v2q0 4 -2 7h1q3 -4 8 -5h3
q3 0 6 1h1q-4 -3 -4 -8v-3q0 -3 1 -6h-1zM269 617q3 0 6 -3q2 -2 2 -6v-2q-1 -3 -4 -4h-7q-3 2 -4 5v7q3 2 7 3zM306 636q-13 20 -30 20t-29 -21q-12 -20 -12 -49q1 -28 14 -48q11 -20 28 -20h2q17 0 29 21q11 18 11 44v4q0 29 -13 49zM435 700q3 -1 5 -4q1 -2 1 -4v-2
q0 -4 -3 -6q-2 -1 -4 -1h-3q-3 1 -5 4q-1 2 -1 4v2q1 3 4 5q2 2 6 2zM453 719q2 -6 9 -7q-4 -1 -6 -4q-2 -2 -2 -6q-1 4 -4 6q-2 2 -5 2l-1 1q7 1 8 8h1zM466 687q1 -5 5 -8q3 -3 8 -3q-5 -1 -8 -4q-3 -4 -3 -9h-1v-1q-1 4 -5 7t-8 4q4 1 7 5q4 4 4 9h1zM480 698h1q2 0 3 -1
t1 -2q0 -2 -2 -3q-3 0 -4 2v1q0 2 1 3zM436 650q23 -14 46 -14h3q23 1 32 16q3 6 3 14q0 10 -6 22q-12 20 -37 34q-23 13 -45 13h-3q-24 0 -33 -15q-3 -6 -3 -14q0 -10 6 -22q12 -20 37 -34zM324 704q3 0 5 -2l2 -2l1 -1h1q-1 3 -1 6q0 5 4 9h-7q-5 0 -8 5h-1q1 -3 1 -6v-3
q-1 -4 -4 -6h7zM333 459h-1q-5 -5 -12 -5h-2q-2 0 -4 1q1 0 2 -2l1 -1l1 -1q2 -4 2 -7t-1 -6h1q4 5 11 5h6q-5 4 -5 11q0 2 1 5zM388 237l5 2h2q-9 2 -13 11q-1 4 -1 8h-2q-3 -9 -12 -13q-3 -2 -7 -2h-1q4 -1 8 -4q7 -6 8 -15h1q2 9 11 13h1zM549 593q-1 -4 -3 -7
q-3 -3 -7 -4h2q7 -3 8 -9l2 2v2l1 1v1q1 1 2 1l5 3h1q-4 1 -7 3q-3 3 -4 7zM312 428q-3 0 -3 -3q0 -1 1 -2t2 -1h1q3 0 3 3v3h-4zM423 75q1 1 1 2v4h-4q-1 0 -2 -1q-2 -1 -2 -3t2 -3q1 -1 2 -1q2 0 3 2zM552 550q-9 15 -23 23q-11 6 -23 9q29 6 44 31q8 15 8 31v4
q13 -30 13 -63v-5q0 -30 -11 -59q-1 15 -8 29zM466 381q-4 -4 -8 -4h-3q-2 1 -3 3v4q1 3 1 8q0 6 -1 11q-4 11 -14 11h-3q-8 -1 -11 -10q-1 -4 -1 -9q0 -7 4 -17q1 -1 1 -2t-1 -2q0 -1 -1 -1q-2 0 -5 2q-33 14 -47 44q-9 18 -9 38q0 14 5 30q5 19 21 38q16 20 40 33
q27 15 56 15h9q15 -1 26 -7q12 -7 17 -17q5 -9 5 -22v-7q-2 -20 -14 -44q-27 -51 -64 -95zM494 173q18 -56 18 -89q0 -29 -13 -41q-25 -20 -56 -23q-11 -2 -23 -2h-16q27 9 40 27q15 21 16 56v8q0 110 -88 218l-10 12q-4 -16 -23 -27q-16 -9 -30 -9h-1q14 18 17 40v13
q0 13 -5 25q0 -14 -15 -25q-13 -9 -28 -9q9 11 11 27q1 5 1 12q0 8 -1 18q0 3 -1 8l-1 5l-1 4l-1 4h-1l-2 6q-3 10 -8 20q-5 12 -12 22h1q14 -8 31 -9h4q15 0 27 6q15 7 24 20q-5 -15 -5 -30q1 -16 4 -31l5 -13q4 -14 10 -27q15 -27 34 -50q2 -3 5 -6l3 -3l3 -4q7 -8 11 -13
q14 -18 25 -34q31 -45 51 -106zM337 27q-23 7 -43 22q10 -2 20 -2q22 0 45 10q21 10 39 27q18 18 28 41q11 24 11 49q0 1 -1 4v5q8 -32 9 -64q0 -46 -22 -71q-21 -24 -58 -24q-14 0 -28 3zM370 201q-7 0 -12 -7q-4 -6 -5 -15q-1 -7 -2 -8h-1l-1 1h-1q-2 0 -3 1t-2 5
q-1 3 -2 8q-2 6 -3 13q-3 19 -3 32v20q2 23 6 45l7 4q6 4 12 9l1 1h1l1 -1l14 -18l8 -11l2 -3q20 -28 35 -60q-10 -37 -33 -53q-5 -5 -12 -5q-2 0 -4 1q-1 1 -1 2t1 2q11 9 12 23q0 9 -8 12zM297 91q15 0 34 7q19 8 37 21q43 30 59 70v-2q0 -53 -41 -90q-17 -15 -36 -24
q-19 -8 -34 -8q-23 0 -23 17q0 5 2 9h2zM319 206v-7q1 -7 1 -12q1 -12 1 -20q0 -20 -5 -33t-19 -27q1 8 5 22l1 6l2 7q2 7 3 13q8 34 10 57zM244 653q9 14 20 21t23 7q13 0 24 -7t19 -21q17 -28 17 -68q0 -39 -17 -68q-9 -13 -20 -21q-11 -7 -23 -7q-13 0 -24 7
q-11 8 -19 21q-17 28 -17 68q0 41 17 68zM352 728q-7 -12 -9 -26v-6q0 -11 3 -21q-8 8 -19 15q-14 8 -32 8q-15 0 -29 -6q22 25 51 40q28 16 61 21q-17 -8 -26 -25zM367 518v-1l-1 -1q-1 -2 -2 -2q-4 0 -4 4q0 3 4 3q3 0 3 -3zM360 644q-3 1 -3 4v1h1q1 2 2 2h2q2 -1 2 -3
v-1q0 -3 -3 -3h-1zM348 663q1 3 5 4h2q2 -1 3 -3q1 -1 1 -2t-1 -3q-2 -3 -5 -3h-2q-2 1 -3 3v4zM356 508q4 -1 4 -5q0 -2 -1 -4q-1 -1 -3 -1h-1q-2 0 -3 1q-2 1 -2 3t1 4q1 1 3 2h2zM411 602q33 -20 51 -20h2q-23 -2 -51 -17q-30 -16 -43 -36q8 14 8 46v8q-1 39 -11 55
q11 -16 44 -36zM478 579q-2 0 -3 1t-1 2q0 2 2 3h2q2 0 3 -1t1 -2q0 -2 -2 -3h-2zM494 577q-3 0 -4 2t-1 4t2 4h3q2 0 4 -2q1 -2 1 -4t-2 -4h-3zM536 682q8 -14 9 -28v-3q0 -11 -6 -21q-6 -11 -18 -17q-12 -5 -28 -6h-3q-33 0 -66 19q-35 20 -50 50q-8 14 -9 27v4q0 11 5 20
q7 11 19 17t28 7h3q32 0 65 -20q35 -20 51 -49zM399 768q-54 0 -99 -29q-46 -29 -68 -78q-14 -31 -16 -65q-1 -8 -1 -16q0 -25 7 -50q5 -18 13 -36q2 -5 6 -13l6 -14l13 -26q12 -26 13 -54q0 -29 -19 -52q9 -1 18 -1h4q15 0 29 7q0 -13 -7 -26q-7 -15 -22 -27q10 -2 21 -2
l16 1v-4q-1 -12 -6 -41q-4 -28 -8 -47q-5 -22 -10 -45q-1 -4 -2 -9l-1 -5l-1 -4q-3 -9 -4 -15q-7 -29 -7 -54v-1q0 -28 39 -46q36 -16 86 -16h4q53 1 85 15q36 16 41 47q1 9 1 20q0 29 -10 67q-17 63 -62 140q14 -8 29 -8h3q-9 11 -12 27q-1 6 -1 11q-1 2 -1 4v3q4 16 24 51
q2 4 5 8l2 5l3 4q6 12 11 20q14 24 26 47l13 27l4 8q19 42 20 84v5q0 36 -13 69q-14 33 -39 59q-24 24 -54 38q-38 17 -79 17zM376 52q-2 -2 -2 -5t2 -6q2 -2 5 -2t6 2q2 3 2 6t-2 5q-3 2 -6 2t-5 -2zM429 93q1 1 1 2v1q0 1 -1 1h-1q-1 0 -2 -1v-2q0 -1 1 -1h2zM405 66
q-3 0 -4 -2q-2 -1 -2 -4q0 -2 2 -4q1 -2 4 -2q2 0 4 2t2 4v1q0 3 -2 4q0 1 -1 1h-3zM485 480q-2 0 -4 -1q-5 -2 -7 -6h-1q1 3 1 5t-1 4q-1 5 -5 7h9q5 2 8 6v-9q1 -4 5 -7q-2 1 -5 1zM470 512q2 0 2 -3v-2q-1 -1 -2 -1q-4 0 -4 3t4 3zM447 458q-3 0 -5 2q-3 2 -3 6q0 3 2 6
q2 2 6 3q4 0 6 -3q3 -2 3 -6q0 -3 -2 -5q-3 -3 -6 -3h-1zM437 485q1 2 1 4t-1 3q-1 3 -4 5h7q3 1 5 4v-3q0 -5 4 -8q-2 1 -3 1q-5 0 -9 -5v-1zM407 485q-7 -11 -7 -21q0 -8 4 -14q8 -16 31 -17h3q23 0 47 13q25 14 37 35q6 12 6 22q0 7 -3 14q-8 15 -32 16h-3q-23 0 -46 -13
q-25 -14 -37 -35z" />
    <glyph glyph-name="degree" unicode="&#xb0;" horiz-adv-x="790" 
d="M266 368q-5 -1 -10 -1q-12 0 -23 7q-14 9 -18 25l26 6q2 -8 8 -13q5 -3 10 -3h3q9 1 13 8t4 15q0 3 -1 6q-1 10 -9 18q-5 4 -12 4h-3q-12 -2 -18 -13h-21q3 29 3 72q33 6 64 17l1 -6l1 -6q2 -7 2 -13q-23 -8 -46 -12v-25q7 6 16 8q4 1 8 1q13 0 23 -9q12 -10 16 -25
q-22 -28 -37 -61zM240 249q1 -28 7 -55q-13 2 -24 5q-79 24 -134 86t-69 144q-4 26 -4 52q0 88 54 164q70 98 188 119q26 4 52 4q88 0 164 -54q98 -70 118 -188q-33 9 -67 9q-33 0 -67 -9q-67 -16 -119 -62q-11 57 -59 90q-37 25 -79 25q-13 0 -26 -2q-55 -18 -81 -71
q-16 -31 -16 -63q0 -22 7 -44q11 -55 56 -89q38 -28 84 -28q8 0 17 1q-2 -11 -2 -34zM139 388q2 -8 9 -13q5 -3 10 -3h3q8 2 12 10q2 5 2 10q0 6 -2 11q-1 10 -9 18q-6 4 -13 4h-3q-13 -2 -19 -13h-19q-1 9 -1 17q0 28 8 55l66 10q0 -15 3 -24l-49 -7q0 -14 -2 -24q8 5 18 7
h6q13 0 25 -8q15 -12 17 -31q1 -5 1 -9q0 -12 -6 -22q-10 -20 -32 -25q-6 -2 -12 -2q-9 0 -18 5q-14 10 -20 27zM574 431q-26 0 -49 -14q-39 -23 -47 -68q-2 -12 -2 -23q0 -37 20 -70q25 -42 72 -59q18 -7 35 -7q25 0 49 14q40 24 47 70q2 12 2 23q0 37 -20 69
q-25 44 -72 61q-18 4 -35 4zM349 73q-72 73 -72 176t72 176q73 73 176 73t176 -73t73 -176t-73 -176t-176 -73t-176 73zM642 286q0 10 -6 17l-2 2q-5 8 -15 10q-2 1 -5 1q-7 0 -13 -5l-3 -2q-8 -7 -8 -17v-3q0 -9 6 -15l2 -2q5 -7 15 -9h4q7 0 13 4l4 4q7 6 8 15zM584 325
q8 7 8 14q0 6 -5 12l-3 3q-7 9 -15 9q-6 0 -12 -5l-2 -2q-6 -5 -7 -13q0 -9 5 -15l2 -1q6 -9 14 -9q6 0 13 5zM568 298q-4 -1 -8 -1q-16 0 -28 14q-11 12 -11 28v3q1 18 14 30l3 3q12 13 30 14h3q16 0 28 -11l4 -3q11 -11 11 -25q0 -6 -2 -12q7 3 14 3q16 0 27 -16
q12 -14 12 -32v-5q-1 -21 -16 -35q-15 -13 -34 -13h-3q-21 1 -35 17q-12 12 -12 26q0 7 3 15z" />
    <glyph glyph-name="plusminus" unicode="&#xb1;" horiz-adv-x="800" 
d="M233 248l-16 -38l-201 85l85 201l80 -34q-33 -44 -43 -61q-14 -21 -14 -48v-4q0 -25 13 -47q13 -25 38 -39q25 -15 53 -15h5zM280 418q-5 -17 -5 -35q1 -18 7 -34q6 -17 17 -30q11 -14 27 -23l6 -45l-23 -3l-9 65q-12 -18 -34 -30q-20 -11 -36 -12h-2q-23 0 -42 12
q-17 11 -28 29q-11 19 -11 39v3q0 19 10 35q8 12 29 41q16 22 40 54q28 37 53 69l84 -64q-29 -5 -51 -24q-23 -19 -32 -47zM530 489q-15 -12 -24 -28q-10 -17 -12 -35q-3 -19 -6 -70q-1 -19 -3 -45q-1 -18 -2 -43q-12 8 -21 19q-8 11 -13 25l-21 -64l-22 7l21 64
q-21 -15 -47 -16q-13 0 -25 4q-16 6 -29 17q-12 10 -19 24q-7 15 -8 30q-1 5 -1 10q0 12 4 23q6 15 16 28q11 12 25 19q15 7 30 9h6q14 0 27 -4l1 -1h1l1 -1q-2 9 -2 18q0 5 1 11q2 15 9 27q7 13 17 22q11 10 25 15q15 6 32 6q16 -1 30 -7q15 -6 26 -18t17 -27
q-19 -6 -34 -19zM768 337q14 -19 16 -42v-4q0 -19 -8 -37q-9 -20 -26 -32q-17 -13 -38 -14h-16q-19 0 -54 1q-28 1 -64 2q-41 2 -74 4q2 41 4 88q5 93 9 119q2 15 9 28q7 12 19 21q11 9 24 14q14 5 28 5q16 0 30 -6q15 -6 26 -17q14 -14 21 -40q4 -16 4 -31q0 -13 -3 -26
q9 3 18 3q22 0 45 -12q21 -10 30 -24z" />
    <glyph glyph-name="uni00B2" unicode="&#xb2;" horiz-adv-x="800" 
d="M325 778q43 -40 128 -416l-21 -10h-107q-28 53 -42 53q-11 20 -11 32h-11q-36 -71 -106 -96l-32 -32h-11q-32 138 -96 352q0 53 309 117zM496 778q288 -73 288 -107l-85 -341h-11q-39 32 -75 32h-10l-54 -10v10l22 32q-16 43 -32 43l-43 -22l11 -53v-10h-11
q-24 0 -75 255q24 171 75 171zM560 607v-10q0 -22 43 -22v-32q0 -21 -22 -21q-21 0 -21 32h-21v-32q3 -21 21 -21h32q36 0 64 170q0 16 -43 32q-53 0 -53 -96zM208 693l-11 -96h-21l-11 74h-32q54 -199 54 -224h10l22 11q-22 54 -22 75h22q21 0 42 -64h11q21 0 21 21
q-74 67 -74 107l10 96h-21zM592 671h21q22 -3 22 -21q-14 -53 -32 -53q-22 0 -22 21zM208 341h405q64 -38 64 -128q0 -192 -256 -192q-176 0 -245 96l-21 75v32q16 117 53 117zM411 106q-109 0 -160 75v85l-54 11l22 -32v-85h-22v-11q59 0 118 -75q-11 0 -11 -10h21v21h160
l32 -21q0 48 75 85q0 11 11 11l21 -11h11v11q-32 0 -32 21v64l21 32v11q-39 0 -64 -139q-30 -32 -149 -43z" />
    <glyph glyph-name="uni00B3" unicode="&#xb3;" horiz-adv-x="800" 
d="M559 426l55 113l-20 -125zM659 568l-57 18l-109 -223l33 -10l20 41l45 -13l-8 -45l35 -12zM565 240h3q8 0 15 4q9 6 11 17q1 3 1 6q0 7 -4 14q-8 12 -40 57q-45 -32 -54 -42q-5 -4 -7 -11q-1 -4 -1 -8q0 -6 4 -13q5 -9 16 -12q3 -1 6 -1q11 0 21 7l-4 -22l8 -2l4 22
q6 -13 21 -16zM751 578v-1q18 -4 27 -20q6 -11 6 -21q0 -6 -2 -13l-100 -369q-4 -17 -20 -25q-10 -6 -21 -6q-6 0 -12 2l-177 47q11 9 17 21q11 18 11 38q0 10 -3 21l-60 228l35 133q5 17 20 25q10 6 22 6q5 0 10 -2zM366 240q-3 7 -4 14q-1 -1 -3 -2l-4 -2q-4 -2 -5 -4
q-7 -7 -16 -7q-4 0 -7 1t-6 1q-11 0 -20 -9q-2 0 -5 -4q-3 -2 -7 -2q-2 0 -3 1q-5 1 -10 1h-4q-9 0 -18 -5l-5 -5l-2 -2l-3 -1q-3 -2 -8 -2h-1q-5 2 -10 2h-2q-11 0 -19 -6q-2 -1 -6 -4l-2 -2l-2 -2q-2 -2 -8 -2q-5 2 -9 2h-13l1 -3l1 -4q1 -4 2 -6l6 -1h5l5 -1l6 -1
q2 0 5 2h2l2 1l20 5q13 4 20 6q1 1 4 2l2 1l4 1l19 6q12 4 19 6h3l3 1q3 1 4 1l10 3l10 3q12 3 19 5l3 1h2l3 1h2q9 7 20 10zM165 334q7 10 15 12q4 -4 10 -6q2 -1 2 -2q25 -34 35 -75v-1q-2 -2 -2 -5v-11q-7 7 -17 7q-2 0 -5 -1q7 -5 10 -13q-8 -1 -16 -4l3 -3q1 -2 1 -3
l-3 -6l-3 -5q-4 -7 -5 -11q1 3 3 5l2 2l2 1q9 9 20 9q4 0 8 -1h7q6 0 10 4q5 5 12 10q6 3 13 3q4 0 8 -1t7 -1q6 0 11 4q11 11 25 11q4 0 8 -1h10v2q-14 8 -30 14q3 2 3 5v1q-10 -2 -18 -8q4 6 6 13q-1 0 -2 -1t-2 -1l-6 -3l-3 -3l-3 -1q2 3 2 8v1q0 3 -2 4q-3 4 -3 9v7
q1 16 1 32q0 67 -19 132q-2 3 -2 5q0 4 2 7q30 -14 51 -40q-6 39 -38 61q39 -4 69 -28l-2 10q-4 19 -20 30q-11 5 -23 7q-2 0 -5 1t-5 1q0 3 2 3q15 4 30 4q13 0 25 -3q-22 24 -55 24q-13 -2 -25 -8q0 -2 -2 -2h-2q13 15 25 31h-3q-18 0 -33 -10q-16 -12 -22 -31q-3 1 -8 4
l-4 2l-4 2q-8 5 -17 8q-5 2 -10 2h-4q-15 -7 -25 -20h4q21 0 40 -10q-2 -2 -4 -2q-19 -3 -36 -13q-19 -14 -22 -37q29 21 65 25q-28 -20 -28 -53v-7l2 1l1 1q1 0 1 1q18 24 43 39q6 5 9 5t8 -7q3 -3 4 -7q16 -57 16 -114q0 -30 -4 -60q0 -6 -4 -6q-2 0 -2 -2l-1 -1v-2l-3 -3
v4q-9 46 -39 82l-6 14q18 2 35 2h6q-5 8 -15 11q-10 4 -20 6l18 12q3 2 10 5l5 2l4 3q-10 5 -21 5q-13 0 -26 -9v1q0 3 8 17h-2q-12 0 -21 -8q-9 -9 -12 -22l-11 3q-7 2 -12 2h-2q-12 0 -22 -7q14 -2 26 -11q-1 0 -2 -1l-1 -1h-1q-24 -13 -24 -39v-10q14 22 38 33
q-4 -13 -4 -27t4 -28q1 14 8 24zM446 244q2 -6 2 -12q0 -10 -6 -20q-8 -16 -25 -21l-246 -66h-2q-6 -2 -11 -2q-11 0 -21 6q-15 8 -19 25l-100 369v2q-2 5 -2 11q0 10 6 20q8 15 25 20l247 66h1q6 2 11 2q11 0 21 -6q15 -8 19 -25z" />
    <glyph glyph-name="acute" unicode="&#xb4;" horiz-adv-x="800" 
d="M559 426l55 113l-20 -125zM307 232q8 3 13 10q6 9 6 18v3q-2 12 -11 18q-12 8 -59 36q-27 -47 -33 -59q-2 -6 -2 -13q2 -11 11 -18q8 -6 17 -6h3q15 2 22 15l6 -21l7 2l-6 21q9 -6 18 -6q4 0 8 1v-1zM205 321q9 1 18 3q42 12 42 51q0 11 -3 24l-45 180l-37 -10l45 -182
l1 -4v-3q0 -6 -4 -12q-5 -7 -13 -8q-6 -3 -14 -4zM445 244l1 -1q1 -6 1 -11q0 -11 -5 -21q-9 -15 -26 -20l-246 -66l-2 -1q-5 -1 -10 -1q-11 0 -21 6q-15 8 -20 25l-100 370v1q-1 6 -1 11q0 11 5 21q9 15 26 20l246 66h1q6 2 12 2q10 0 20 -6q15 -9 20 -25zM659 568l-57 18
l-110 -223l34 -10l19 42l45 -14l-8 -45l36 -12zM565 240q9 0 16 4q10 6 12 17q1 4 1 7q0 7 -4 13q-8 12 -39 57q-45 -31 -54 -41q-5 -5 -7 -12q-1 -4 -1 -7q0 -7 3 -13q5 -10 16 -13q4 -1 7 -1q11 0 21 7l-4 -22l7 -2l4 22q7 -13 22 -16zM750 578h1q18 -5 27 -21
q6 -10 6 -21q0 -6 -2 -12l-100 -370q-5 -17 -20 -25q-10 -6 -21 -6q-6 0 -12 2l-177 47q10 9 17 21q11 19 11 39q0 10 -3 20l-61 229l35 133q5 16 21 25q10 5 21 5q5 0 11 -1z" />
    <glyph glyph-name="mu" unicode="&#xb5;" horiz-adv-x="800" 
d="M605 513l20 125l-56 -114zM255 420q48 -28 59 -36q8 -8 10 -19v-3q0 -9 -6 -17q-5 -6 -13 -9q-4 -1 -7 -1q-10 0 -19 5l6 -21h-9l-6 21q-7 -12 -21 -17q-3 -1 -5 -1q-11 0 -19 11q-6 9 -6 17q0 5 2 10q6 13 34 60zM184 418l-37 248l57 18l108 -225l-35 -11l-20 41
l-45 -13l6 -45zM409 334q18 -1 37 -5q2 6 2 10q0 5 -2 10l-100 372q-4 17 -19 26q-10 5 -21 5q-5 0 -11 -1h-1l-246 -67q-17 -4 -26 -19q-6 -11 -6 -21q0 -6 1 -11l1 -1l99 -372q4 -16 19 -25q10 -6 21 -6q5 0 11 1h1l99 26q22 45 70 63q33 15 71 15zM188 632l17 -125l38 10
zM627 422l-35 11l7 46l-45 15l-20 -41l-35 10l111 225l56 -17zM536 345l-8 -22l-7 2l9 22q-9 -4 -18 -4q-5 0 -10 2q-10 5 -14 15q-1 5 -1 9q0 7 3 13t9 10q13 7 63 30q24 -49 28 -62q2 -4 2 -7q0 -8 -5 -15q-6 -10 -18 -13q-3 -1 -6 -1q-4 0 -7 1q-15 5 -20 20zM506 751
q-7 2 -12 2q-10 0 -19 -5q-15 -9 -20 -25l-1 -2l-37 -134l61 -229q3 -10 3 -20q0 -9 -3 -19q50 -21 73 -69l80 -22q7 -2 13 -2q10 0 18 5q16 8 20 24l1 3l100 372q1 5 1 10q0 12 -6 23q-8 16 -26 21zM433 301q-14 4 -27 4t-27 -4v-30q14 3 27 3t27 -3v30zM381 27
q13 -3 27 -3t27 3v30q-13 -3 -27 -3t-27 3v-30zM511 258l-13 -7l-13 -8q19 -19 27 -45l13 7l13 8q-10 25 -28 45h1zM485 87l13 -7l13 -8q19 20 27 46l-13 8l-13 7q-8 -26 -28 -46h1zM329 243l-13 8l-13 7q-20 -20 -28 -45l13 -8l13 -7q9 26 28 45zM301 133l-13 -8l-13 -7
q8 -26 28 -46q13 7 26 15q-19 20 -28 46zM465 224q-25 23 -58 23q-34 0 -59 -23q-23 -25 -23 -59t23 -58q25 -24 59 -24q33 0 58 24q24 24 24 58t-24 59zM558 165v-2q0 -60 -43 -104q-44 -44 -106 -45h-2q-63 0 -108 44q-44 45 -44 107q0 63 44 108q45 44 108 44
q62 0 107 -44q44 -45 44 -108zM452 211q19 -19 19 -46q0 -26 -19 -45t-45 -20q-27 0 -46 20q-19 19 -19 45q0 27 19 46t46 19q26 -1 45 -19z" />
    <glyph glyph-name="paragraph" unicode="&#xb6;" horiz-adv-x="801" 
d="M86 184v-2q-1 -8 -1 -16q0 -29 18 -55q22 -31 61 -37l243 -41q-13 -7 -28 -7l-313 20h-2q-21 2 -36 18q-12 15 -12 34v3l30 470v4q2 21 18 35q14 12 32 12h5l58 -3zM610 384l-80 138l-138 -80l80 -138zM747 652h2q20 -7 30 -26q6 -11 6 -24q0 -7 -2 -15l-133 -451
q-7 -20 -26 -30q-11 -7 -24 -7q-7 0 -15 2l-301 88q-20 6 -31 25q-6 12 -6 25q0 7 2 15l133 450q6 21 25 31q13 7 25 7q7 0 15 -2zM209 266q-4 -14 -4 -27q0 -23 11 -45q18 -34 56 -45l248 -73q-14 -10 -32 -10h-8l-311 53q-21 4 -33 21q-10 14 -10 31q0 3 1 8l77 463
q4 21 22 33q13 10 30 10h8l65 -10z" />
    <glyph glyph-name="periodcentered" unicode="&#xb7;" 
d="M270 399q-43 -9 -74 -39l-39 222v6q0 13 7 23q10 14 26 17l108 19q-7 -12 -8 -27zM367 405q-7 1 -15 1q-7 0 -14 -1h-6q-16 0 -33 -3l20 215q2 16 15 26q11 10 26 10h3l92 -8q-4 -7 -8 -15zM186 210q-4 -5 -4 -12v-42l1 -2q1 -3 1 -4l-164 316q-4 9 -4 18q0 6 2 13
q5 15 20 23l88 46l56 -318v-23q0 -8 4 -15zM357 154q64 0 114 43v-39q-13 -19 -49 -31q-36 -11 -80 -11q-8 -1 -16 -1q-63 0 -113 41v39q50 -41 113 -41h31zM694 437l-65 29l-6 71l-48 -53l-70 17l37 -62l-39 -61l70 15l46 -54l8 71zM757 563q15 -7 22 -21q4 -8 4 -16
q0 -7 -2 -14l-123 -341q-6 -15 -21 -23q-9 -4 -18 -4q-6 0 -13 2l-103 33v16q0 8 -3 15q3 8 3 15v39q0 8 -3 15q3 8 3 16v40q0 9 -5 18q-40 43 -99 49l80 218q5 16 20 24q9 4 18 4q6 0 14 -3zM422 234q36 11 49 30v-39q-13 -19 -49 -30q-36 -12 -80 -12h-17q-63 0 -112 40
v39q49 -41 112 -41q8 0 17 1q44 0 80 12zM360 375q61 0 111 -42v-38q-13 -19 -49 -31q-36 -11 -80 -11q-9 -1 -17 -1q-63 0 -112 41v40q49 41 112 41h17q9 1 18 1z" />
    <glyph glyph-name="cedilla" unicode="&#xb8;" horiz-adv-x="1291" 
d="M297 462l-83 114l23 115l-35 -9l-19 -114l-26 100l-35 -10l61 -229l36 9l-19 71l4 24l59 -83zM448 358q0 -7 -1 -12h-149q13 8 13 20q0 4 -1 8l-1 4q-3 9 -11 14q-6 2 -11 2q-4 0 -7 -1h-3l1 4v4q0 4 -1 6q-5 19 -22 19q-4 0 -7 -1q-10 -2 -16 -10q-5 -7 -5 -14
q0 -3 1 -5q3 -7 7 -12l-4 -1q-9 -3 -14 -12q-2 -5 -2 -11q0 -3 1 -7l3 -2h-24q-20 0 -38 -10q-4 -1 -8 -5l-3 -3l-3 -4q-21 -23 -26 -54l-100 366q-1 6 -1 11q0 11 6 22q9 15 26 19l249 67q5 1 10 1q12 0 21 -6q16 -9 20 -26zM658 625q5 17 5 35v7q-11 20 -33 24q-9 4 -18 4
q-12 0 -23 -7q-20 -10 -23 -33l-12 -37q-4 -13 -4 -23q0 -26 25 -34q6 -2 13 -2q12 0 23 12l-12 -38q-4 -17 -10 -19q-1 -4 -6 -4q-3 0 -8 2q-13 3 -13 14q0 4 1 9l3 7l-31 10l-2 -5q-5 -10 -5 -20t5 -20q9 -20 30 -24q7 -3 15 -4h5q16 0 28 11q14 12 16 31zM755 691l6 -2
q14 -6 20 -19q3 -7 3 -15q0 -6 -3 -14l-90 -340l-7 14q-3 6 -7 12q-7 11 -19 16q-1 0 -3 1v2h-8l-3 1q-5 1 -7 1q-10 1 -20 1t-20 -1q-7 0 -23 -1l-13 -1h-21l42 23l-35 65l-64 -36l28 -52h-28q0 9 -2 19l-62 229l36 133l1 4q5 16 20 24q8 4 18 4q6 0 12 -2zM617 660
q12 -5 12 -15q0 -4 -2 -8l-9 -36l-1 -4q-4 -11 -13 -11q-3 0 -7 1q-14 3 -14 15q0 4 2 9l9 35l1 5q4 11 13 11q3 0 8 -2h1zM632 124l2 4l2 4q2 5 5 6q-12 8 -25 12q-5 2 -5 9l1 11q1 7 1 10v8q0 27 -7 54l8 3l8 3q11 3 17 6l-3 9l-2 5l-2 5h-2q-20 -4 -38 -12q-6 -2 -11 -6
q-6 -5 -6 -8q2 -13 2 -26q0 -33 -9 -64q-20 -41 -60 -52q-16 -4 -38 -6l-20 -1l-19 -1q-12 -1 -25 -1q-54 0 -105 20q-40 15 -49 51q-3 12 -3 32q0 18 2 43v2q0 7 -7 10q-1 0 -5 2l-4 2h-2l-43 15q-3 -10 -7 -19l9 -3l8 -3q11 -4 16 -6q-7 -24 -7 -48q0 -18 5 -37
q0 -5 -5 -7q-4 -1 -11 -5l-11 -5q-4 0 -4 -5l7 -14l16 8l17 6q29 -49 85 -63l-3 -8l-3 -8l-2 -7l-3 -8l10 -3q7 0 10 -2q6 12 10 24q3 8 8 8q2 0 4 -1q36 -7 73 -7q21 0 43 2q19 1 37 5q1 -8 5 -14q6 -13 9 -14q5 0 17 4l2 3l-3 8l-2 8q-4 9 -6 15q55 13 85 61l17 -7z
M672 196q0 -31 -9 -63q-25 -64 -88 -92q-61 -31 -130 -33q-19 -2 -39 -2q-53 0 -105 13q-50 9 -87 41q-39 33 -55 80q-8 29 -8 59q0 38 15 76q3 13 10 24q7 16 24 16h419q17 0 25 -16q28 -50 28 -103z" />
    <glyph glyph-name="uni00B9" unicode="&#xb9;" horiz-adv-x="832" 
d="M768 369v62h-63v-62h63zM683 639l-44 44l-44 -44l44 -44zM683 161l-44 44l-44 -44l44 -44zM430 93h-62v-62h62v62zM205 161l-44 44l-44 -44l44 -44zM92 431h-62v-62h62v62zM117 639l44 -44l44 44l-44 44zM679 400q0 116 -82 197q-81 82 -197 82t-198 -81
q-81 -82 -81 -198t81 -198q82 -81 198 -81t198 81q81 82 81 198zM368 707h62v62h-62v-62zM416 800q166 0 283 -117t117 -283t-117 -283t-283 -117t-283 117t-117 283t117 283t283 117zM446 503q-19 19 -46 19t-46 -19q-19 -18 -19 -45q0 -11 3 -21q-23 -1 -40 -16
q-20 -18 -22 -45v-3q0 -25 17 -44q18 -20 45 -21h5q23 0 41 16l-14 -48h60l-15 49q18 -17 41 -17h3q26 0 45 18t20 44v3q0 25 -17 44q-19 19 -45 20q3 10 3 21q0 26 -19 45zM172 400q0 94 67 161t161 67t161 -67t67 -161t-67 -161t-161 -67t-161 67t-67 161z" />
    <glyph glyph-name="ordmasculine" unicode="&#xba;" horiz-adv-x="800" 
d="M167 376l1 -8l-41 -6l-1 11v11q0 9 1 22l41 -4l-1 -9v-17zM171 341q3 -16 9 -32l-38 -17q-7 21 -11 43zM208 516q-10 -14 -17 -29l-38 14q9 20 22 38zM180 461q-5 -15 -9 -32l-41 4q5 22 12 43zM269 192q14 -10 29 -17l-15 -38q-20 9 -38 22zM190 284q8 -16 16 -30
l-31 -26q-13 18 -22 38zM223 233q11 -14 24 -24l-24 -34q-17 14 -32 31zM577 536q-11 13 -24 24l24 33q18 -14 32 -31zM478 604q-18 6 -35 9l7 41q21 -4 42 -12zM323 164q16 -5 32 -9l-4 -40q-22 4 -43 11zM532 576q-14 10 -29 17l14 39q20 -10 38 -22zM249 561
q-13 -11 -24 -24l-34 24q14 17 31 32zM610 485q-7 15 -16 29l31 27q13 -19 22 -39zM300 594q-16 -7 -30 -16l-26 31q18 13 38 22zM357 613q-16 -3 -33 -8l-16 37q21 8 43 12zM400 618l-8 -1l-7 -1l-7 41q14 2 22 2t23 -2l-7 -41l-8 1zM629 427q-3 17 -8 33l37 16
q7 -21 12 -42zM552 207q13 12 24 24l33 -24q-14 -17 -31 -32zM501 174q15 7 29 16l27 -31q-19 -13 -39 -22zM592 252q10 15 17 30l39 -15q-9 -20 -22 -38zM673 407q1 -14 1 -23t-1 -22l-41 4l1 10v16l-1 8zM620 307q5 16 9 32l41 -4q-4 -22 -12 -43zM743 370q14 0 14 14
q0 148 -105 252q-104 105 -252 105q-14 0 -14 -14t14 -14q136 0 233 -96q96 -97 97 -233q0 -14 13 -14zM585 146q55 43 86 105q31 63 31 133q0 21 -2 41q-12 80 -62 144q-75 97 -197 114q-20 3 -41 3t-41 -3q-80 -11 -144 -61q-55 -43 -86 -105q-31 -63 -31 -133
q0 -20 3 -40v-1q11 -80 61 -143q49 -65 124 -95q55 -23 113 -23q20 0 41 3h1q80 11 144 60v1zM414 40v1q0 14 -14 14q-136 0 -233 97q-96 96 -96 232q0 14 -14 14t-14 -14q1 -147 105 -252q105 -104 252 -105q14 1 14 13zM400 768q159 0 272 -112q112 -113 112 -272
t-112 -272q-113 -112 -272 -112t-272 112q-112 113 -112 272t112 272q113 112 272 112zM443 155q17 4 33 9l16 -38q-21 -7 -43 -11zM400 151l16 1l7 -41l-12 -1h-11q-9 0 -22 1l4 41l9 -1h9zM414 451q-7 2 -14 2t-14 -2v70q0 14 14 14t14 -14v-70zM386 317q7 -1 14 -1t14 1
v-70q0 -14 -14 -14t-14 14v70zM333 398q-1 -7 -1 -14t1 -14h-70q-14 0 -14 14t14 14h70zM537 398q13 -1 13 -13v-1q0 -13 -13 -14h-70q2 7 2 14t-2 14h70zM429 413q12 -12 12 -29t-12 -29t-29 -12t-29 12t-12 29t12 29t29 12t29 -12zM537 343q17 0 29 12q12 13 12 29
q0 17 -12 29t-29 12h-83q-6 8 -13 14v82q0 17 -12 29q-12 13 -29 13t-29 -13q-12 -12 -12 -29v-82q-8 -6 -14 -14h-82q-17 0 -29 -12q-13 -12 -13 -29t13 -29q12 -12 29 -12h82q6 -8 14 -13v-83q0 -17 12 -29t29 -12t29 12t12 29v83q7 5 13 13h83zM589 304
q-33 -78 -112 -110q-39 -16 -78 -16t-79 16q-79 34 -111 113q-15 39 -15 77q0 40 16 80q34 78 112 111q39 15 78 15q40 0 80 -16q78 -34 110 -113q16 -39 16 -77q0 -40 -16 -80h-1z" />
    <glyph glyph-name="guillemotright" unicode="&#xbb;" horiz-adv-x="800" 
d="M217 741l400 -20l183 -357l-217 -336l-400 20l-183 356zM731 392l-144 282l-316 16l144 -282zM200 120l172 266l-144 282l-172 -266zM557 78l172 266l-316 15l-172 -265zM528 567q8 -8 8 -20q0 -11 -8 -20q-9 -8 -20 -8q-12 0 -20 8q-9 9 -9 20q0 12 9 20q8 9 20 9
q11 0 20 -9zM362 178q7 7 17 7h3q12 -1 19 -10q7 -8 7 -18v-2q-1 -12 -9 -20q-9 -7 -21 -7q-12 1 -19 10q-7 8 -7 18v3q1 11 10 19zM606 291q9 -8 9 -20t-9 -20q-8 -8 -20 -8q-11 0 -20 8q-8 8 -8 20t8 20q9 8 20 8q12 0 20 -8zM235 534q8 -9 8 -20q0 -12 -8 -20
q-8 -9 -20 -9t-20 9q-8 8 -8 20q0 11 8 20q8 8 20 8t20 -8zM157 414q8 -8 8 -20t-8 -20t-20 -8t-20 8t-8 20t8 20t20 8t20 -8zM300 404q8 -8 8 -20q0 -11 -8 -20q-8 -8 -20 -8t-20 8q-8 9 -8 20q0 12 8 20q8 9 20 9t20 -9zM225 291q8 -8 8 -20t-8 -20q-9 -8 -20 -8
q-12 0 -20 8q-9 8 -9 20t9 20q8 8 20 8q11 0 20 -8z" />
    <glyph glyph-name="onequarter" unicode="&#xbc;" 
d="M734 376q0 10 -7 17q-7 8 -18 8h-618q-11 0 -17 -8q-8 -7 -8 -17v-301q0 -11 8 -18q6 -7 17 -7h618q11 0 18 7t7 18v301zM127 578q-42 -59 -56 -130q10 3 20 3h102q5 45 15 89q-42 15 -81 38zM274 694q-65 -27 -114 -77q29 -18 61 -29q19 57 53 106zM375 509
q-60 3 -119 17q-9 -37 -12 -75h131v58zM375 714q-35 -13 -66 -57q-23 -35 -40 -83q53 -12 106 -14v154zM425 451h130q-4 38 -13 75q-57 -14 -117 -17v-58zM425 560q52 2 104 14q-16 47 -39 82q-30 44 -65 57v-153zM639 617q-50 50 -115 77q35 -49 53 -106q31 12 62 29z
M671 578q-38 -23 -81 -38q11 -44 15 -89h104q9 0 18 -2q-14 70 -56 129zM399 768h5q160 -2 272 -118q108 -112 108 -266v-309q0 -31 -22 -53t-53 -22h-618q-31 0 -53 22t-22 53v302q-1 4 -1 7q0 159 112 272q113 112 272 112zM200 150q10 0 17 -7q8 -7 8 -18q0 -10 -8 -18
q-7 -7 -17 -7h-51q-10 0 -18 7q-6 8 -6 18v201q0 10 6 17q8 8 18 8q11 0 18 -8q7 -7 7 -17v-176h26zM300 351q10 0 18 -8q7 -7 7 -17v-201q0 -10 -7 -18q-7 -7 -18 -7q-10 0 -18 7q-7 8 -7 18v200q0 11 7 18q8 8 18 8zM522 338q4 -6 4 -13q0 -3 -1 -6l-50 -200
q-4 -15 -18 -18q-3 -1 -7 -1q-6 0 -12 4q-9 5 -12 15l-50 200q-1 3 -1 6q0 7 4 13q5 9 16 12q3 1 6 1q6 0 12 -4q9 -6 12 -15l25 -104l26 104q3 9 11 15q7 4 13 4q3 0 6 -1q11 -3 16 -12zM626 200v-50h25q10 0 17 -7q8 -7 8 -18q0 -10 -8 -18q-7 -7 -17 -7h-51q-10 0 -17 7
q-8 8 -8 18v201q0 10 8 17q7 8 17 8h51q10 0 17 -8q8 -7 8 -17q0 -11 -8 -18q-7 -7 -17 -7h-25v-51h25q10 0 17 -7q8 -7 8 -18q0 -10 -8 -17q-7 -8 -17 -8h-25z" />
    <glyph glyph-name="questiondown" unicode="&#xbf;" horiz-adv-x="800" 
d="M689 213q38 64 46 138l-81 89l-74 -37l-57 -158l47 -55zM532 160l-47 56h-169l-49 -58l31 -94q49 -16 102 -16q44 0 86 11zM230 188l47 57l-56 158l-74 36l-81 -88q8 -86 57 -157zM278 697q-83 -33 -139 -102l23 -109l76 -37l138 101v93zM424 549l139 -101l75 37l24 109
q-56 69 -139 102l-99 -53v-94zM400 768q159 0 271 -113q113 -112 113 -271t-112 -272q-113 -112 -272 -112t-272 112q-112 113 -112 272t112 272q113 112 272 112z" />
    <glyph glyph-name="Agrave" unicode="&#xc0;" horiz-adv-x="811" 
d="M678 342q22 0 38 16q16 15 16 38q0 22 -16 38q-16 15 -38 15t-38 -15q-15 -16 -15 -38q0 -23 15 -38q16 -16 38 -16zM678 135q22 0 38 16t16 38t-16 38t-38 16t-38 -16q-15 -16 -15 -38t15 -38q16 -16 38 -16zM564 459q0 13 -9 22t-22 9h-397q-12 0 -22 -9q-9 -9 -9 -22
v-334q1 -13 10 -22t21 -9h397q13 0 22 10q9 9 9 21v334zM741 585q24 0 41 -17q16 -17 16 -40v-471q0 -23 -17 -40q-16 -16 -40 -17h-671q-24 1 -40 17q-17 17 -17 40v471q0 23 17 40q16 17 40 17h242l-86 141q-3 7 -3 12q0 12 11 20q7 5 15 5h4q11 -1 18 -10l103 -168h63
l103 168l3 5q7 9 17 10h5q8 0 15 -5q8 -7 10 -17v-3q0 -9 -5 -17l-86 -141h242z" />
    <glyph glyph-name="Aacute" unicode="&#xc1;" 
d="M48 245q-11 0 -20 8q-10 9 -11 22v6q0 10 6 20q9 11 23 13q268 52 479 225q52 41 98 87q2 2 3 5v3q0 2 -1 3l-42 31q-6 2 -7 9q-1 3 -1 5q0 9 11 12l163 72q4 2 8 2t8 -3q5 -3 5 -12v-3l-10 -187q-1 -11 -7 -14q-3 -1 -5 -1q-5 0 -11 4l-46 34q-3 3 -5 3t-3 -1
q-2 -1 -4 -3l-2 -2q-54 -54 -113 -100q-218 -178 -495 -236q-14 -2 -16 -2h-5zM783 492h1v-457q0 -14 -10 -24t-24 -11h-701q-13 1 -23 10q-9 10 -10 24v152q16 -6 33 -6l12 1h2l2 1h2q7 1 13 2q44 8 87 20l55 18q77 26 151 63l55 30q78 44 151 98l54 43q32 26 58 50l5 -4
q18 -15 42 -18q5 -1 10 -1q18 0 34 8z" />
    <glyph glyph-name="Acircumflex" unicode="&#xc2;" horiz-adv-x="816" 
d="M231 170h-195q-15 0 -25 11q-11 10 -11 25v230q0 15 11 25q10 11 25 11h185l-1 -265q1 -20 11 -37zM42 213h135v33h-90q4 2 10 8q5 4 14 12q8 9 15 17l4 4l4 5q5 6 8 10q7 11 13 22q6 12 10 24q3 13 3 25q0 11 -4 21q-3 10 -11 18t-19 13q-11 4 -22 4h-4q-16 0 -31 -6
q-13 -6 -22 -18t-12 -27l30 -13q2 12 11 21q7 8 18 8h5q6 0 12 -3t9 -10t3 -15q0 -11 -4 -21q-4 -12 -11 -22q-8 -12 -16 -22q-10 -12 -19 -21t-20 -21l-19 -18v-28zM711 211q10 3 18 10q7 7 12 16q4 10 4 21q0 9 -4 18q-3 8 -10 14q-8 6 -18 8q12 5 19 16t7 24q0 12 -6 23
q-7 10 -17 14q-12 6 -25 6q-16 0 -30 -7q-13 -7 -20 -19l15 -20q6 9 14 14q9 4 18 4q6 0 12 -2q5 -3 7 -8q3 -5 3 -10q0 -7 -4 -13q-4 -5 -10 -8q-6 -2 -13 -2h-10v-28h12q8 0 16 -3q7 -2 11 -7q4 -6 4 -14q0 -6 -3 -11q-3 -6 -9 -8q-7 -4 -15 -4t-14 3q-7 2 -12 7
q-6 5 -10 11l-16 -20q5 -9 12 -15q8 -7 18 -10q11 -3 23 -3q11 0 21 3zM323 481l29 -44l39 30v-248h54v324h-39zM512 598q15 0 26 -11q10 -10 11 -25l1 -355q-1 -15 -11 -26q-11 -10 -26 -11h-226q-15 1 -26 11q-10 11 -10 26l1 355q0 15 10 25q11 11 26 11h224zM764 418
q15 0 25 -11q11 -10 11 -25v-175q0 -15 -11 -26q-10 -10 -25 -11h-195q11 17 11 37l-1 211h185z" />
    <glyph glyph-name="Atilde" unicode="&#xc3;" horiz-adv-x="832" 
d="M207 726q0 -2 -2 -7l-2 -3l-1 -4l-181 -307l-1 -3l-1 -4l-2 -3l-1 -4h386zM607 735h-381l190 -334zM188 150q-23 0 -39 16t-16 39v3q0 21 14 36q15 16 37 17h4q23 0 40 -16q16 -17 16 -40t-16 -39t-40 -16zM16 373q1 -6 5 -10l181 -311l191 325h-377v-4zM816 391
q0 3 -2 7l-2 4v3l-182 312q0 8 -9 9l-191 -335h386zM591 147q-17 17 -17 40t17 39q16 17 39 17t40 -17q16 -16 16 -39q-3 -22 -18 -38q-16 -15 -38 -18q-23 0 -39 16zM439 373l186 -326q0 5 5 5l182 311v4l2 3l1 4l1 3h-377v-4zM512 78q-17 -17 -40 -17t-39 17
q-17 16 -17 39v3q0 20 14 36q16 16 38 17h4q23 0 39 -17q17 -16 17 -39t-16 -39zM379 284l-9 -14q14 14 34 14h3q23 0 39 -16q17 -16 17 -39q0 -24 -17 -40q-16 -16 -39 -16t-40 16q-16 16 -16 40v2q0 7 5 12l-14 -19l-112 -191h368l-182 316z" />
    <glyph glyph-name="Adieresis" unicode="&#xc4;" horiz-adv-x="832" 
d="M309 300h-93v93h-47v-93h-96v-50h93v-93h50v93h93v50zM366 277q0 -73 -52 -125t-125 -52q-72 1 -123 52q-50 51 -50 122v3q1 72 52 123q52 50 125 50q71 0 122 -50t51 -121v-2zM373 600q63 0 114 -16q49 -15 72 -41v-53q-20 -28 -69 -44t-114 -16h-33q-64 59 -150 60v53
q20 25 68 41q50 16 112 16zM748 377q50 17 68 43v-54q-20 -27 -69 -43q-50 -16 -114 -16h-10q-19 0 -37 3v53q18 -3 37 -3h10q63 0 115 17zM748 471q50 16 68 42v-53q-20 -28 -69 -44q-50 -16 -114 -16h-10q-19 0 -37 3v53q18 -3 37 -3h10q63 0 115 18zM748 650
q50 -16 65 -44v-53q-20 -28 -69 -44q-50 -16 -115 -16h-9q-19 0 -37 3v54l-7 6q-45 53 -113 64q67 47 148 47q11 0 22 -1q65 0 115 -16zM393 200q57 2 101 19q44 16 59 41v-53q-20 -28 -69 -44q-50 -16 -115 -16h-6q20 24 30 53zM406 297q116 11 147 56v-53q-15 -22 -57 -37
q-39 -15 -93 -20q3 14 3 27v27zM556 393q-18 -22 -60 -39q-42 -16 -97 -21q-8 28 -23 53q63 3 111 19q49 16 69 41v-53z" />
    <glyph glyph-name="Aring" unicode="&#xc5;" horiz-adv-x="800" 
d="M753 768q13 -1 22 -10t9 -22l-20 -560q-1 -12 -10 -20q-8 -8 -20 -8q-12 1 -20 9l-541 541q-8 8 -9 20q0 12 8 21q8 8 20 9l560 20h1zM46 0q-13 0 -21 10q-9 9 -9 22l20 558q0 12 9 20t20 8q12 0 21 -8l540 -540q9 -8 9 -20v-3q0 -10 -7 -18q-8 -8 -20 -9l-560 -20h-2z
" />
    <glyph glyph-name="AE" unicode="&#xc6;" horiz-adv-x="837" 
d="M402 332q66 61 76 160h297l-263 -273zM815 462q3 -5 3 -9t-3 -7v-357q0 -21 -11 -34q-12 -13 -32 -13h-510q-18 0 -31 13q-13 14 -13 34v173h10q74 0 134 40l126 -133q10 -10 23 -10t21 10zM75 522v-8q0 -60 43 -104q45 -48 110 -48q63 0 109 44q45 44 48 106v6
q0 59 -41 104q-44 48 -109 51h-6q-61 0 -105 -42q-47 -43 -49 -109zM438 522v-8q0 -83 -58 -144q-62 -65 -152 -68q-85 0 -146 59q-61 60 -64 145v6q0 83 56 146q59 65 144 68h6q84 0 147 -57q65 -59 67 -147zM325 562l-117 -120l-70 74l27 30l43 -47l90 93z" />
    <glyph glyph-name="Ccedilla" unicode="&#xc7;" horiz-adv-x="800" 
d="M480 584h-480v80h120l40 40h160l40 -40h120v-80zM40 544h400v-400q0 -33 -23 -56q-24 -24 -57 -24h-240q-33 0 -56 24q-24 23 -24 56v400zM520 384h240v-80h-240v80zM520 544h280v-80h-280v80zM520 224h160v-80h-160v80z" />
    <glyph glyph-name="Egrave" unicode="&#xc8;" horiz-adv-x="800" 
d="M259 384q27 51 77 83q49 31 108 34q-44 27 -52 67q-2 10 -2 22q0 28 11 63q-51 -28 -90 -33q-11 -2 -22 -2q-36 0 -71 18q1 -11 1 -21q0 -40 -22 -73q-19 -27 -69 -64q45 -2 78 -28q29 -22 53 -66zM400 768q78 0 149 -30q69 -29 123 -82q53 -54 82 -123q30 -71 30 -149
t-30 -149q-29 -69 -82 -123q-54 -53 -123 -82q-71 -30 -149 -30t-149 30q-69 29 -123 82q-53 54 -82 123q-30 71 -30 149t30 149q29 69 82 123q54 53 123 82q71 30 149 30z" />
    <glyph glyph-name="Eacute" unicode="&#xc9;" horiz-adv-x="800" 
d="M733 689q13 -21 15 -46l-2 -144l-2 -145q-2 -178 -2 -288q0 -28 -24 -42q-19 -16 -43 -22l24 742q20 -30 34 -55zM561 96q20 45 55 134l-11 8l-12 -14q-7 -8 -11 -14v-2q-27 -38 -49 -54q-27 -20 -59 -20h-9l-30 2h-11q-22 2 -56 6l-28 3l-29 4q-11 1 -22 6q-3 2 -5 4
q-7 6 -9 15q-1 5 -1 9q0 5 1 9q8 75 19 174l50 4q34 4 68 4h32q31 -3 43 -14q16 -15 16 -52q1 -5 4 -8l2 -2l2 -2q3 -3 3 -4l7 3l7 120l1 19l2 19q1 23 1 38h-13v-6q-3 -7 -5 -15q-3 -22 -16 -39q-22 -26 -56 -26h-14l-52 -3l-78 -6v16q7 83 13 137q1 6 2 16v6q0 4 1 5
q0 4 8 10q5 3 11 5l63 14l64 12q29 9 59 11q18 -1 27 -15q7 -10 23 -52q1 -3 3 -5l9 -7l7 7l2 4v118l-273 -63l-159 -36v-6h37q24 0 29 -18q1 -8 1 -16t-1 -16v-18l-4 -36l-4 -37l-5 -50l-6 -51l-18 -131q0 -16 -11 -27q-11 -12 -28 -12l-47 -2q9 -6 20 -10q12 -3 23 -4
q197 -28 399 -56h5q5 1 9 3t4 4zM470 709q42 12 100 29l50 15l50 15h3l-24 -768q-34 0 -68 7q-107 20 -258 47l-129 23l-130 22q-3 1 -6 1t-6 -1v13l1 2l2 2q2 2 2 4l22 118l23 118q25 133 44 236q1 15 12 26q10 11 25 13q62 16 144 38l71 20z" />
    <glyph glyph-name="Ecircumflex" unicode="&#xca;" horiz-adv-x="800" 
d="M396 187q36 0 61 25q26 25 26 61v3q0 34 -24 58q-25 26 -61 26h-3q-34 0 -58 -24q-26 -24 -27 -60v-3q0 -33 22 -58q24 -26 59 -28h5zM528 140q-54 -54 -130 -54h-3q-78 0 -132 55t-54 130v3q0 78 55 132q56 55 133 55h3q76 0 130 -54q53 -53 53 -129v-6q0 -78 -55 -132z
M99 493q2 -36 27 -61q24 -25 60 -26q36 0 62 26q25 26 26 62q0 36 -26 62q-25 25 -61 25q-37 0 -62 -25q-26 -26 -26 -62v-1zM254 425q-50 -47 -64 -114h-11q-67 0 -119 45q-56 50 -60 124v15q0 68 45 122q51 59 128 64q7 1 13 1q7 0 14 -1q76 -4 126 -61q46 -52 46 -120
v-19q-68 -9 -118 -56zM597 341q45 2 71 22t29 56q1 7 1 13q0 27 -16 49q-20 27 -53 34q-10 2 -20 2q-23 0 -43 -13q-28 -19 -43 -62l-11 6l-11 6q-12 7 -22 11q-8 3 -22 8l-12 4l-11 4q18 71 81 109q45 28 94 28q19 0 39 -4q75 -15 119 -78q33 -48 33 -104q0 -17 -3 -35
q-11 -69 -66 -112q-48 -40 -110 -40q-7 0 -14 1zM189 528l-8 -4l-7 -4h-4q-3 0 -4 2v5q0 2 2 4t4 3l7 5l7 4l6 2h9q1 0 1 -1l-1 -1v-94h-6q-2 0 -4 2l-2 6v71zM625 474q2 1 3 1q2 0 4 -1q3 0 6 -2q2 -1 2 -3q0 -3 -2 -4q-3 -2 -6 -2h-31v-14q5 1 9 1q5 0 9 -1q7 -1 14 -5
q5 -2 9 -8q3 -6 3 -14t-2 -15q-3 -5 -6 -9q-5 -4 -10 -5h-20q-6 1 -10 3q-5 3 -8 7q-3 5 -3 11q0 3 2 6q2 2 5 2q1 1 2 1t2 -1q2 -2 2 -5v-6q1 -3 4 -4q3 -2 6 -2h8q6 0 10 4q4 7 4 14q0 6 -3 10t-7 6q-5 2 -10 2h-21v27q1 5 4 8q4 2 9 3q7 -2 13 -5h9zM402 289q3 1 4 4
q2 1 3 4v4q-1 5 -4 8q-4 3 -10 3q-5 0 -10 -3q-3 -3 -3 -8v-4q1 -3 3 -4q2 -3 4 -4h13zM404 246q4 1 6 4q2 2 3 5q1 2 1 3q0 2 -1 3q1 2 1 3q0 2 -1 3q-1 3 -3 5q-2 3 -6 4q-4 2 -8 2q-8 0 -14 -5q-4 -4 -4 -11v-2q0 -7 5 -11q5 -3 10 -3h11zM407 324q5 -2 8 -6q4 -3 5 -7
q2 -4 2 -9t-2 -9q-2 -5 -6 -8q6 -3 10 -8q3 -7 3 -14q0 -6 -2 -12q-2 -5 -6 -9t-9 -6q-7 -2 -14 -2t-13 2t-10 6t-6 9q-1 5 -1 11q0 8 3 14t9 9q-3 3 -5 8q-1 3 -1 5t1 4v9q1 4 5 7q3 4 7 6q6 2 11 2q6 0 11 -2z" />
    <glyph glyph-name="Edieresis" unicode="&#xcb;" horiz-adv-x="800" 
d="M579 480q-1 5 -3 10q1 3 1 5q0 3 -1 5q0 4 -2 7q-1 2 -3 3h-153q-2 -2 -3 -4v-16q0 -9 2 -17q2 -5 6 -5h100l-86 -189v-6q1 -2 3 -3q4 -2 8 -2h38l6 2l2 4l80 185l3 7l2 6v8zM377 305q7 15 7 32v4q0 8 -3 16q-4 10 -11 17q-8 8 -17 13q-11 5 -23 6q10 2 19 8q8 5 13 12
q6 8 9 17q2 8 2 16v9q0 11 -4 22q-5 11 -14 19q-11 8 -23 12q-16 4 -32 4q-6 1 -13 1q-6 0 -12 -1q-10 -2 -20 -7l-15 -7q-5 -2 -9 -6l-3 -3v-34q1 -1 2 -3h3q4 1 7 3q6 4 12 7q7 4 15 6q9 3 18 3q8 0 15 -2q6 -2 11 -7q4 -4 6 -9q2 -6 2 -12q0 -7 -3 -14t-9 -12t-14 -7
q-10 -3 -19 -3h-22q0 1 -1 1t-2 -1q-2 0 -3 -2l-2 -6v-18l2 -6q1 -2 3 -2h25q12 0 23 -3q9 -2 17 -7q12 -9 12 -25v-2q0 -7 -2 -14q-3 -5 -7 -9q-6 -5 -14 -7q-9 -3 -18 -3q-11 0 -22 3q-8 2 -16 5l-12 6q-3 2 -7 2q-3 0 -4 -3v-33q1 -2 3 -3l7 -4q6 -4 13 -6q10 -3 20 -4
q11 -2 23 -2q19 0 38 5q16 4 29 14t20 24zM400 768q78 0 149 -30q69 -29 123 -82q53 -54 82 -123q30 -71 30 -149t-30 -149q-29 -69 -82 -123q-54 -53 -123 -82q-71 -30 -149 -30t-149 30q-69 29 -123 82q-53 54 -82 123q-30 71 -30 149t30 149q29 69 82 123q54 53 123 82
q71 30 149 30z" />
    <glyph glyph-name="Igrave" unicode="&#xcc;" horiz-adv-x="800" 
d="M1 300h2q3 10 10 16q8 6 17 10q10 4 19 10q-15 -16 -26 -35q-5 -11 -6 -23v-4q0 -8 3 -15h2v4q0 11 4 20q8 11 18 19q9 8 20 16q8 7 18 12q-9 -9 -14 -20q-2 -8 -2 -16q0 -7 2 -15h2q2 10 6 21q6 10 16 16l9 7q6 4 10 6l8 6l3 2q-2 -4 -5 -7q-4 -4 -7 -8h2q13 9 22 22
q8 12 9 26q1 -2 4 -3h2v5q0 17 11 31q5 7 14 14l7 7l8 6l5 5q0 -2 -3 -7l-1 -4l-1 -2v-27q0 -10 7 -20q3 -4 8 -9l7 -8q8 -9 17 -16q12 -7 24 -13q5 -4 9 -8q3 0 7 -3t4 -6v-3q0 -4 -2 -8l-4 -6l-4 -5q-8 -10 -18 -18q-6 -5 -7 -12q1 -7 7 -9q11 -6 24 -7l12 -2l11 -2l12 -3
q4 0 4 -5v-4l-1 -3v-4l1 -3q1 -4 4 -6q10 -6 20 -7q7 -3 14 -7t15 -8q-2 0 -2 -4v-7q0 -4 6 -10q5 -4 10 -9q2 -3 4 -3t3 2l2 2l1 2q0 1 2 6l2 4l2 3q3 -2 10 -5l5 -2l5 -3l5 -3l4 -4q5 -4 9 -5h7q4 -2 6 -5q0 -2 -1 -4l-1 -1v-4q0 -7 8 -10q11 -3 23 -3h2l3 1q2 0 2 1v1
q-1 5 -4 10q-4 6 -7 13q-1 4 -6 7l-5 3l-4 3q8 1 16 1t15 -1q2 0 5 -2l3 -1l3 -1q3 -2 5 -2q3 0 5 2q5 2 9 6l2 2l3 1q3 2 5 3q1 2 2 5q0 6 2 12q1 2 1 4q0 3 -1 5v28q0 2 1 6l1 3l1 3l1 1v3q1 3 1 6q2 9 3 14q1 6 2 7t5 1q5 -1 10 -4q13 -5 26 -7q12 -5 23 -11l6 -2
q1 0 2 -3v-4l1 -1v-1l1 -3q0 -5 -2 -7q-3 -6 -7 -10l-8 -12q-10 -9 -21 -14q-9 -4 -10 -9q-1 -4 -4 -4q-2 0 -3 1q-2 3 -2 4h-5q-7 0 -13 -5q-2 -3 -4 -7l-1 -1l-1 -2l-2 -4q-3 -5 -5 -5q-3 -1 -3 -3t1 -3q0 -2 2 -2q1 -1 5 -1h3l2 1h14q4 1 6 3q15 9 32 10h6q1 0 4 2
q1 2 2 3q0 1 1 2l2 4q1 4 3 7q5 6 12 11q5 4 8 8q5 5 9 10l3 4l3 4q3 5 3 9v15q1 3 1 6t-1 5q-2 2 -4 3q-4 2 -8 5l-17 19q-6 6 -12 13l-1 1q0 2 4 6q2 3 4 7q3 6 4 13q2 5 5 9l4 3l3 3q3 3 5 7v4l1 3l4 8l3 5l2 5l9 18l9 18q9 16 15 34q0 3 2 9l1 4l2 5l1 5v5q1 6 3 8h9
l5 -2h8q11 -6 22 -10l10 -4l6 -2q6 0 7 -2q2 -3 2 -7v-2q0 -5 4 -6h2q2 0 5 1l4 1h4q4 0 5 3q1 2 1 6q0 1 1 1h1q2 -1 3 -3q0 -1 2 -1h1l1 1h2q1 1 3 2q4 2 5 4q2 7 8 11v3q-2 7 -5 13q-4 5 -9 8q-14 10 -22 25l-5 6l-4 7q-5 7 -6 15q-2 6 -7 10l-8 5l-8 5l-14 10q-4 3 -6 9
q-1 5 -4 10q-2 6 -2 13v5q0 4 -4 4q-4 -1 -6 -4q-6 -10 -6 -23v-3q-6 6 -9 14h-1q-1 0 -3 -2q-1 -3 -1 -5v-14q-3 1 -6 1q-7 0 -13 -5h4q0 -2 -2 -3h-3q-6 0 -11 2q0 -4 4 -5h3q-2 1 -4 1t-4 -1h-8q-5 -1 -8 -3h11q2 0 2 -2l-1 -1l-1 -1q-1 1 -2 1t-3 -1q-8 -2 -15 -9h2
q2 1 4 1t3 -1l-4 -2l-7 -2h-2l-2 -1q-2 0 -3 -3v-2h1l1 -1q0 -1 -2 -2q-7 -2 -11 -6h6l1 -1h1v-1q-1 -1 -2 -1h-3q-5 0 -11 -3l-5 -3q-3 -2 -6 -2l-4 -6q-1 2 -3 4h-2q0 -2 2 -4v-2h2l4 -2h-4q-1 0 -3 2q0 1 -1 1q-2 1 -3 1q-4 0 -5 4l-1 3v2q-3 3 -7 6h-4q-3 -1 -5 -1
q-6 -1 -6 -4q1 -2 3 -3h-3q-3 0 -7 2l-3 1h-3q-1 1 -2 1t-2 -1q-1 2 -3 4l4 4q0 3 5 4h3q2 1 4 5l2 3l1 3q7 7 15 12q4 2 5 7h6v3q2 -3 5 -4h7q1 0 1 5q1 3 2 4q0 2 2 2q3 1 3 4v7q0 5 3 9v3h6q6 1 6 8h-7v5q-1 9 -8 15q-11 11 -27 11h-3q-7 -1 -12 -5q-7 -3 -11 -8
q-4 -6 -4 -13v-12q-6 4 -12 4q-4 1 -9 1q-4 0 -9 -1q-11 -2 -23 -2h-21q-7 0 -13 -4t-12 -6h-9q-4 -1 -9 -1q-4 0 -8 1l-2 -1l-3 -1l-2 -1l-3 -1v-5q0 -1 1 -2l2 -1q1 -1 1 -3v-1q-8 -9 -14 -20q-3 -6 -3 -12q0 -4 1 -7q0 -4 6 -9l5 -5q3 -2 4 -3q18 -14 40 -18q14 -3 27 -9
q10 -3 20 -9h-24q-9 0 -17 2l-5 3l-5 2q-3 2 -6 2t-5 -2v-3q-8 -4 -15 -7h-6q-2 0 -5 1l-3 1h-2q0 1 -1 1l-1 -1h-6l-9 3h-25q-5 0 -13 1l-7 1h-6q-5 0 -13 1l-7 1l-6 1q-5 1 -10 1q-4 0 -9 -1q-11 -5 -21 -10t-20 -11l-10 -7q-6 -4 -10 -7q-8 -6 -18 -9q-11 -3 -21 -8
l-12 -4q-7 -2 -11 -4l-12 -6l-5 -3l-6 -3q-10 -4 -19 -10q-8 -6 -14 -15l-4 -4l-3 -5q-4 -4 -10 -8l-4 -2l-5 -1q-5 -2 -8 -4l-16 -5q-10 0 -18 -4q8 -4 18 -5q-18 -6 -30 -18q-6 -8 -9 -17q-3 -10 -3 -21zM535 525q1 4 3 4q3 0 6 -2l5 -5l3 -3l2 -2h-3q-4 0 -7 -2zM545 516
l-5 4l-6 5zM530 488q-3 -1 -4 -1q-5 0 -5 5h14l3 1l3 1q4 2 6 2q-7 -3 -13 -7q-2 0 -4 -1zM495 186q-5 -2 -10 -3q-11 1 -21 4l-9 2q-3 2 -7 4l-9 3q-5 2 -9 4q-3 1 -7 1q-3 0 -6 -1h-2q-4 0 -6 5l-1 3l-1 3q-1 3 -1 5q-2 3 -5 4h-5q-6 0 -12 -2l-1 6q0 3 -1 6q-1 2 -5 4
l-3 1l-2 1q-3 1 -8 3t-9 3q-2 0 -2 5v3l1 4v3q1 3 1 4q0 2 1 9l1 5l1 6q1 6 1 11q0 6 -1 11v30q0 2 1 4l3 3l5 -4l5 -3q7 -5 11 -8q10 -9 23 -13q6 -3 12 -4q7 -3 15 -6l30 -13q6 -3 14 -4h6q2 0 5 -5q1 -4 1 -8t-1 -8v-17q0 -14 4 -28q1 -8 2 -15v-10l1 -2q1 -1 1 -3v-1z
M304 263q-4 0 -5 4v9l3 3q8 -6 8 -17v-2z" />
    <glyph glyph-name="Iacute" unicode="&#xcd;" horiz-adv-x="800" 
d="M704 328q-19 0 -30 15v-32h-11v32q-10 -16 -29 -16q-16 0 -27 11t-11 26q0 16 11 27t27 11q-6 8 -6 18v3q0 13 10 24t26 12h3q13 0 24 -10t12 -26v-3q0 -9 -5 -18h4q15 0 26 -11q11 -10 11 -26q0 -15 -11 -26t-26 -11h2zM535 280h-39v150q-22 -21 -52 -30v36q10 3 19 8
q9 6 18 13q7 7 14 16q5 7 8 16h32v-209zM444 61q-23 1 -38 18v-35h-12v34q-16 -17 -39 -17q-18 2 -29 16q-9 11 -9 26v5q1 11 8 20q14 17 75 77q60 -60 75 -77q8 -12 8 -25v-6q-2 -17 -16 -28q-10 -8 -23 -9v1zM269 301q4 10 10 19q8 12 18 22q9 10 27 27q14 12 23 22
q7 7 12 14q4 5 5 11q1 3 1 6t-1 5q1 3 1 5q0 7 -5 13q-6 8 -16 10q-2 1 -4 1q-1 0 -3 -1q-26 0 -28 -32l-40 4q0 26 20 45q18 17 42 17h8q14 0 26 -4t22 -12q9 -7 13 -18q5 -10 5 -21v-3q0 -10 -2 -20q-3 -10 -8 -19q-6 -10 -14 -19l-21 -21q-12 -10 -15 -13l-9 -10l-6 -7
l-4 -6h79v-37h-140q1 11 4 21v1zM136 308l-76 76l76 76l76 -76zM400 699q14 25 43 25h2q17 -2 28 -15q10 -13 10 -28v-3q-1 -11 -8 -21q-14 -17 -75 -77q-60 60 -74 77q-9 12 -9 26v5q2 17 16 28q10 8 23 8q28 -1 44 -25zM251 738q-69 -29 -123 -82q-53 -54 -82 -123
q-30 -71 -30 -149t30 -149q29 -69 82 -123q54 -53 123 -82q71 -30 149 -30t149 30q69 29 123 82q53 54 82 123q30 71 30 149t-30 149q-29 69 -82 123q-54 53 -123 82q-71 30 -149 30t-149 -30z" />
    <glyph glyph-name="Icircumflex" unicode="&#xce;" horiz-adv-x="806" 
d="M799 489q1 -3 1 -6q0 -14 -30 -32q-2 -6 -12 -6q-9 0 -22 4q-7 2 -13 2q-12 0 -22 -8q-11 -8 -36 -43q-30 -42 -121 -85q4 -27 5 -50v-2q0 -12 -13 -19l-6 -3l-6 -3q-7 -3 -11 -6q-24 -18 -54 -21q-5 0 -5 3q0 5 11 18v2q0 5 9 13q10 9 17 10l3 1h4q3 1 5 2q6 2 7 11v2
q0 13 -21 35q-4 -17 -12 -33q-1 -2 -3 -9l-1 -5l-2 -5q-6 -12 -24 -12q-34 -3 -62 -25q-2 -2 -4 -2q-5 0 -7 11q-8 0 -8 9q5 14 18 23q9 8 24 14q5 2 11 4l5 2l5 1q10 4 10 6q3 7 8 51q-4 9 -16 17q-10 6 -24 12q-17 7 -32 10q0 -27 -8 -40q-6 -12 -32 -34q-12 -11 -12 -27
q0 -12 7 -28q6 -13 16 -25q9 -11 17 -16q12 -7 15 -14q1 -2 1 -5q0 -6 -2 -14q-2 -11 -11 -11q-4 0 -11 3q-5 -2 -8 -2q-6 0 -8 5q-6 -7 -11 -9h-2q-2 0 -3 1q-2 3 -2 8q-3 14 -9 28q-4 9 -12 21q-13 21 -13 27v1q1 5 1 19v16l-1 11v24q2 7 2 14q0 16 -8 31q-10 22 -32 33
q-42 22 -50 69q-53 -35 -95 -35q-22 0 -41 9t-34 28q-5 6 -11 14l-3 6l-2 2l-1 2q-5 8 -9 25q-2 13 -2 23v7q0 14 6 14q7 -1 19 -23q24 -43 77 -43q20 0 38 6q17 6 23 14q33 24 74 33q30 26 80 27h8q43 0 89 -19q47 -22 97 -22q30 0 61 8q29 14 48 22q-5 10 -5 19q0 10 5 19
q21 -3 39 -13q0 23 5 23q1 0 2 -1t3 -4l4 -6q4 -6 7 -7q10 -5 14 -15q13 -6 29 -18q17 -14 19 -25q3 -16 56 -44z" />
    <glyph glyph-name="Idieresis" unicode="&#xcf;" 
d="M513 507q0 -8 6 -13q5 -6 13 -6t13 6q6 5 6 13t-6 13q-5 6 -13 6t-13 -6q-6 -5 -6 -13zM373 18q-14 30 -15 63q-2 10 -5 19q-9 -5 -16 -11q-7 -7 -18 -20l-17 -21q-8 -9 -18 -16q-1 24 -1 47q0 32 2 63l-3 2q-8 -5 -16 -12l-29 -29l-28 -30q-3 -3 -8 -7l-5 -4l-5 -5
q-3 9 -4 18l1 52l1 52l1 11v6l1 7l-57 -45l-3 2v14q8 96 47 183q47 108 136 185q51 44 117 53q13 2 26 2q39 0 74 -18q46 -21 58 -71q4 -14 15 -23q10 -8 26 -21l13 -11l13 -11q6 -6 12 -13q-9 -2 -18 -3h-71q-46 0 -84 -28q-10 -9 -25 -24l-13 -13l-12 -12q-17 -15 -37 -27
q-10 -6 -20 -6q-5 0 -10 1q-17 4 -26 18l-9 10l-2 -1q0 -6 1 -12q6 -18 23 -28q12 -7 26 -7q4 0 9 1q17 3 33 9q8 3 15 7l4 -13l3 -13q5 -15 6 -25q18 -90 75 -162q11 -14 13 -32v-4q0 -16 -8 -30t-18 -27q-5 -8 -8 -8t-10 6q-25 23 -40 53l-4 9l-5 9q-4 6 -7 6h-1
q-3 0 -7 -4q-10 -10 -19 -22l-15 -22l-15 -22q-1 -2 -4 -5l-3 -3l-3 -4q-5 8 -9 17zM597 404l-12 -8q-12 -5 -12 -15q0 -5 3 -10q12 -23 22 -48q9 -25 11 -51v-5q0 -14 -9 -21q-6 -5 -15 -5q-5 0 -12 2q-29 6 -51 25t-31 47q-4 11 -4 23q0 16 8 32q14 26 42 35l10 2
q18 3 38 3q6 0 11 -3zM390 605l-7 -1q-8 0 -13 -1q-30 -7 -55 -26q-12 -8 -25 -14q-12 -4 -24 -4q-7 0 -14 1q-19 5 -33 20q-10 14 -10 30v6q3 21 18 34q23 20 52 23q7 1 13 1q23 0 44 -11q35 -21 59 -55l1 -3h-6zM500 604l-22 5q-46 5 -84 33q-27 21 -39 53q-5 10 -5 20
q0 4 1 8q2 15 13 25q17 20 40 20q8 0 16 -2q20 -5 33 -20q13 -16 13 -37l3 -41q3 -33 26 -56l6 -6zM579 565q-15 14 -33 25q-19 12 -36 27q-11 14 -11 31v3q1 19 14 33q13 13 32 14h3q17 0 30 -12v-1q21 -16 29 -41q5 -15 5 -30q0 -11 -2 -21q-5 -23 -13 -45q-2 -4 -4 -7
q-5 13 -14 24zM519 520q5 6 13 6q7 0 13 -6q5 -5 6 -13q0 -8 -6 -13q-5 -6 -13 -6t-13 6q-6 5 -6 13q0 7 6 13z" />
    <glyph glyph-name="Eth" unicode="&#xd0;" horiz-adv-x="800" 
d="M414 624v1q-1 1 -3 1h-22q-2 0 -2 -1q-1 0 -1 -1t-1 -1q-1 -1 -4 -1h-4q-1 -1 -1 -2l-1 -1h-1q-1 0 -2 -1v-3h-1q-1 0 -2 -1l-2 -2l-2 -2t-1 -2v-1h-2l-1 -1q-1 -1 -1 -3q-1 -1 -1 -3l-1 -1q-1 0 -1 -1v-2q0 -1 -1 -2l-1 -2q-2 0 -2 -3v-23q0 -1 1 -2q0 -1 1 -1q2 0 2 -3
v-3q1 -1 1 -2q1 0 2 -1v-3q0 -1 1 -2q0 -1 1 -1h2v-2q0 -1 1 -1q0 -1 1 -1h1q1 -1 1 -2l1 -1q0 -1 1 -1h1l1 -1q0 -1 1 -2h2q1 0 3 -1l1 -1q0 -1 2 -2h3q3 0 3 -2q0 -1 1 -1l2 -1h22q1 1 2 1v1q0 2 4 2t4 2t4 2t4 2v1h1q1 0 2 1v1q0 1 1 2h1q1 0 2 1v1q0 1 1 2h1q2 0 2 4
t2 4t2 4q0 3 2 3l1 1v2q1 3 1 12q0 8 -1 11v2l-1 1q-2 0 -2 3q0 4 -2 4t-2 4t-2 4q-1 0 -1 1q-1 0 -1 1v1q-1 1 -2 1h-1q-1 1 -1 2v1q-1 1 -2 1h-1v2l-1 1l-1 1h-2v1q0 1 -2 2h-4q-3 0 -5 1q-1 0 -1 1zM357 767q12 1 52 1t53 -1q10 0 14 -1q3 0 3 -1t2 -1q2 -1 7 -1h7
q2 -1 3 -2q1 -2 6 -2h5q1 -1 1 -2t2 -1q1 -1 5 -1h6q1 0 1 -1q0 -2 5 -2q4 0 4 -2q0 -1 1 -2h4q6 0 6 -2l2 -2h3q3 0 3 -2q0 -1 2 -1q1 -1 4 -1q5 0 5 -2q1 -1 2 -1q1 -1 2 -1h3q1 -1 1 -2q1 0 2 -1t2 -1h2q1 -1 2 -1q0 -1 1 -2h3q1 0 2 -1q1 0 1 -1v-2h2q1 0 2 -1q1 0 1 -1
l2 -2h2q2 0 3 -1q1 0 1 -1v-1q1 -1 3 -1q1 0 2 -1q1 0 2 -1q0 -1 1 -1q1 -1 2 -1h3q1 -1 1 -2l1 -1q1 -1 2 -1h1q1 -1 1 -2v-1h2l1 -1l1 -1v-2h3q1 0 2 -1q1 0 2 -1q0 -1 1 -2h1q1 0 2 -1v-1q0 -1 1 -1q1 -1 2 -1h3v-2q0 -1 1 -1l1 -1h2q1 -1 1 -2t1 -1q1 -1 2 -1h1v-2l1 -1
h1q1 0 2 -1v-1q0 -1 1 -2h1q1 0 2 -1v-1q0 -1 1 -2h1q1 0 1 -1q1 0 1 -1t1 -1q1 -1 2 -1t2 -1t1 -3t1 -3t3 -1q4 0 4 -2l1 -1q0 -1 1 -1h1l1 -1v-2h2q1 0 1 -1q1 0 1 -1v-2l2 -2l2 -2t1 -2v-1q1 -1 2 -1h1q1 -1 1 -2v-1q1 -1 2 -1h1q1 -1 1 -2v-1l1 -1h2v-1q0 -1 4 -5
q2 -2 3 -4q1 -1 1 -2t1 -2q0 -1 1 -1t1 -1q1 0 1 -1v-1q1 -1 2 -1h1l1 -1v-2q1 -1 2 -1q0 -1 1 -3q1 -1 1 -2v-2h1q1 0 2 -1v-1q0 -1 1 -2q1 0 1 -1q1 0 2 -1v-3q0 -1 1 -2q0 -1 1 -1h2v-1q0 -1 1 -2q0 -1 1 -1q1 -1 1 -3q1 -1 1 -2t1 -2h1q2 0 2 -4t2 -4t2 -4t2 -4h1v-2
q0 -1 1 -2t1 -2l2 -2v-1q0 -1 1 -2h1q0 -1 1 -2q0 -2 1 -4q0 -3 1 -4q0 -2 1 -2t2 -1v-2q0 -2 1 -3q0 -2 1 -2q2 0 2 -6v-4q1 -1 2 -1q2 0 2 -4v-2q0 -2 1 -2t1 -2q1 -1 1 -3t1 -4l1 -2q1 -1 1 -3q1 -2 1 -5q1 -7 2 -7t2 -2v-4q0 -2 1 -4q0 -3 1 -4t1 -4q1 -2 1 -6v-5
q1 -2 2 -2q1 -1 2 -25q1 -25 1 -67q0 -37 -1 -47q0 -9 -2 -11q-1 -2 -1 -5q-1 -2 -1 -5v-5q-1 -2 -2 -2q-2 -1 -2 -7v-5q-1 -2 -2 -3t-1 -3q-1 -2 -1 -5v-4q-1 -1 -2 -1t-1 -1q-1 -1 -1 -4q0 -5 -1 -6q-2 -1 -2 -6t-2 -5l-2 -2v-3q0 -3 -2 -3q-1 0 -1 -1q-1 -1 -1 -3
q0 -1 -1 -3q-1 -3 -2 -5q-2 -5 -2 -6v-1l-1 -1q-1 0 -2 -3q-2 -2 -4 -6q-1 -4 -3 -7t-3 -3l-1 -1v-2q0 -1 -1 -3q0 -1 -1 -1t-2 -2q0 -1 -1 -3q0 -1 -1 -2q0 -1 -1 -1l-1 -1v-2q-1 -1 -2 -1t-1 -1q-1 -1 -1 -2v-2l-2 -2q0 -1 -1 -2l-1 -1v-1l-1 -1h-2q-1 -1 -1 -3
q0 -1 -1 -3l-3 -3q-3 -3 -3 -5l-1 -1h-1q-1 0 -1 -1q-1 -1 -1 -2q-1 -1 -2 -3t-2 -3l-3 -3t-1 -2v-1h-2l-1 -1v-1q0 -1 -1 -2h-1q-1 0 -2 -1v-1q0 -1 -1 -1q0 -1 -1 -1t-2 -1v-1q0 -1 -1 -1q0 -1 -1 -1h-1l-1 -1q0 -1 -1 -2q0 -2 -2 -3q-1 -1 -1 -2l-1 -1q0 -1 -3 -4
q-2 -2 -4 -2v-1q-1 0 -1 -1t-1 -2h-2q-2 0 -2 -1q-1 0 -1 -1t-1 -1q0 -1 -1 -1h-1q-1 -1 -1 -2t-1 -1q0 -1 -1 -1h-1q-1 -1 -1 -2v-1q-1 -1 -2 -1h-1l-1 -1v-2h-2l-1 -1l-1 -1q0 -1 -1 -2h-2q-1 0 -1 -1q-1 0 -1 -1t-1 -2h-2q-1 0 -2 -1q-1 0 -1 -1t-1 -1q0 -1 -1 -1h-1
q-1 -1 -1 -2t-1 -1q0 -1 -1 -1h-2q-1 -1 -1 -2t-1 -1q-1 -1 -2 -1h-3v-2l-1 -1h-2q-1 0 -2 -1l-1 -1v-2h-3q-1 0 -2 -1q-1 0 -1 -1t-1 -2h-2q-1 0 -1 -1q-1 0 -1 -1t-1 -1q-1 -1 -2 -1t-3 -1q-1 0 -1 -1t-1 -1q-2 -1 -3 -1h-2q-1 -1 -1 -2l-1 -1q-1 -1 -2 -1h-2v-2
q0 -1 -4 -1q-2 0 -3 -1l-1 -1l-2 -2h-2q-2 0 -3 -1q-1 0 -2 -1t-3 -2h-9q0 1 -1 1v2q0 2 1 2q0 1 1 1t2 1v1q0 1 1 2h1q2 0 2 4t2 4h1q1 1 1 2v1q1 1 2 1h1q1 1 1 2v1h2q1 0 1 4t2 4q1 0 2 1v1q0 1 1 1q0 1 1 1q2 0 2 4t2 4t2 3q0 4 2 4t2 4t2 4t2 4t2 4t2 4q0 3 1 3t2 2v4
q0 3 1 5q0 1 1 1t2 1v5q0 2 1 4q0 2 1 3q2 1 2 9v7q1 2 2 2t1 1t1 4v52q-1 3 -1 4t-1 1t-2 2v16q-1 2 -2 2t-1 1q-1 2 -1 6v6q-1 2 -2 2t-1 1q-1 1 -1 5v4q-1 1 -2 1t-1 4t-2 4t-2 4t-2 4t-2 3q0 2 -1 3q0 2 -1 2t-1 1q-1 2 -1 3t-1 2q0 1 -1 1q-2 0 -2 4t-2 4h-1q-1 1 -1 2
v1q-1 1 -2 1l-1 2q-1 1 -1 2v2l-1 1q-1 0 -2 1v1q0 1 -1 2h-1q-1 0 -2 1v1q0 1 -1 1q0 1 -1 1h-1l-1 1q0 1 -1 3t-3 4q-4 5 -4 6v1h-2l-1 1l-1 1v2h-2l-1 1v1q0 1 -1 1l-1 1q-1 0 -2 1v1q0 1 -1 1l-1 1q-4 2 -7 4q-3 1 -3 2v1q-1 1 -2 1h-1l-1 1v2h-2l-1 1v1q0 2 -4 2t-4 2
q0 1 -1 2h-1q-1 0 -1 1q-1 0 -1 1q0 2 -4 2t-4 2v1q-1 1 -2 1h-1q-1 1 -1 2q0 2 -3 2h-3q-2 1 -2 2q-1 0 -3 1h-3q-1 0 -3 1l-1 1l-2 2h-3q-3 0 -3 2q0 1 -2 2h-4q-3 0 -5 1q-1 0 -1 1t-1 2h-9q-1 1 -1 2t-2 1q-2 1 -8 1h-8q-2 1 -2 2l-1 1h-4q-5 1 -23 1h-24q-3 0 -4 1
q-1 0 -1 1t-2 1h-9q-7 0 -9 1q-2 0 -3 1q-1 2 -6 2q-3 0 -5 1q-1 0 -1 1t-1 2h-5q-3 0 -4 1q-1 0 -1 1q0 2 -4 2t-4 2t-4 2h-4q-2 1 -2 2q-1 1 -2 1q-1 1 -2 1h-1v2q0 2 -4 2t-4 1t-1 2h-1q-1 0 -1 1l-1 1q0 2 -4 2t-4 2v1q-1 1 -2 1l-1 1v1q0 1 -1 1l-1 1h-2v2q0 1 -1 1
q0 1 -1 1h-2v2l-1 1q-1 1 -2 1q-2 0 -3 2q-1 1 -1 2q-1 1 -1 2q-1 1 -2 1t-1 1q-1 0 -1 1v2h-2l-1 1v1q0 1 -1 1l-1 1h-2v2q0 1 -1 1q0 1 -1 1h-2v2l-1 1q0 1 -1 1q-2 0 -2 3q0 4 -2 4q-1 0 -1 1q-1 0 -1 1v2h-2q-2 0 -2 4t-2 4t-2 4q0 3 -1 3t-2 1v1q0 1 -1 2t-1 2
q-1 0 -2 2v3q0 5 -2 5t-2 4q0 1 -1 2q0 2 -1 2t-1 2q-1 2 -1 6v5q-1 2 -2 2t-1 2q-1 2 -1 7v8q0 2 -2 2l-1 1v5q-1 5 -1 25q0 21 1 26v5q1 1 1 2q1 0 2 2v6q0 4 1 6q0 1 1 1t2 2v4q0 3 1 5q0 1 1 1t2 1v9q1 1 2 1q2 0 2 4t2 4t2 4t2 4q1 0 1 4t2 4h2v1q0 1 1 2h1q2 0 2 4
t2 4q1 0 1 1q1 0 1 1t1 1q0 1 1 1q2 0 2 4t2 4h1l1 1v2h2l1 1l1 1v2h1q1 0 2 1v1q0 1 1 1l1 1q1 0 2 1v1q0 1 1 1q0 1 1 1h1q1 1 1 2t1 1q0 1 1 1h1q1 1 1 2v1q1 1 2 1h1q1 1 1 2t4 1q3 0 3 2q0 1 1 2h1q1 0 2 1v1q0 2 4 2t4 2q0 1 1 1q0 1 1 1t1 1q1 0 1 1q0 2 4 2q3 0 3 2
l1 1q1 1 2 1h2l2 2q1 0 2 1h3q4 0 4 2q0 1 1 2h5q3 0 4 1q1 0 1 1t2 2h4q3 0 5 1q1 0 1 1t2 2h6zM414 240v1q-1 1 -3 1h-22q-2 0 -2 -1q-1 0 -1 -1t-1 -1q-1 -1 -4 -1h-4q-1 -1 -1 -2l-1 -1h-1q-1 0 -2 -1v-3h-1q-1 0 -2 -1l-2 -2l-2 -2t-1 -2v-1h-2l-1 -1q-1 -1 -1 -3
q-1 -1 -1 -3l-1 -1q-1 0 -1 -1v-2q0 -1 -1 -2l-1 -2q-2 0 -2 -3v-20q1 -3 2 -4q0 -1 1 -2q1 -2 1 -3q0 -4 1 -4t2 -1v-1q0 -1 1 -1q0 -1 1 -1l1 -1q0 -1 1 -3q0 -1 1 -3l1 -1h2v-2q0 -1 1 -1q1 -1 2 -1h3v-1q0 -1 1 -2h2q1 0 2 -1l1 -1q0 -1 1 -2h4q4 0 5 -1q1 0 1 -1t2 -2
h15q2 1 2 2t2 1q1 1 4 1h5q1 1 1 2v1q1 1 2 1h1q1 1 1 2t4 1q3 0 3 2q0 1 1 2h1q2 0 2 4t2 4q1 0 1 1q1 0 1 1t1 1q0 1 1 1t1 1q1 1 1 4q0 5 2 6q1 0 1 3q1 2 1 10q0 7 -1 9v2l-1 1q-2 0 -2 3q0 4 -2 4t-2 4t-2 4q-1 0 -1 1q-1 0 -1 1v1q-1 1 -2 1h-1q-1 1 -1 2v1q-1 1 -2 1
h-1v2l-1 1l-1 1h-2v1q0 1 -2 2h-4q-3 0 -5 1q-1 0 -1 1zM238 738q0 1 1 2h2q1 0 2 -1t2 -3v-3q-1 -2 -2 -2q-1 -1 -1 -2q-1 -1 -1 -2v-1h-2l-1 -1q-1 0 -1 -1v-1l-1 -1h-2q-1 -1 -1 -2q-1 -3 -3 -6t-3 -3l-1 -1v-1q0 -1 -1 -2h-1q-1 0 -1 -1q-1 -1 -1 -2v-2l-2 -2t-1 -2
l-1 -1v-1q-1 -1 -2 -1q-2 0 -2 -4q0 -3 -1 -3t-2 -1v-3q0 -1 -1 -2t-1 -2q-1 0 -2 -1v-2q0 -2 -1 -3q0 -1 -1 -1l-2 -2v-3q0 -1 -1 -3q0 -1 -1 -2q-1 0 -1 -2q-1 -2 -1 -4q0 -4 -2 -4q-1 0 -1 -1q-1 -2 -1 -5v-5q-1 -3 -2 -4q-1 0 -1 -3q-1 -2 -1 -5v-5q-1 -2 -2 -3
q-1 -2 -1 -13q-1 -10 -1 -23q0 -14 1 -24q0 -10 1 -11q2 0 2 -2v-5q0 -3 1 -6q1 -2 1 -3q1 -1 2 -4v-4q0 -6 2 -6q2 -1 2 -6q0 -3 1 -4q0 -1 1 -1t1 -1q1 -1 1 -3v-2q1 -2 2 -3t1 -2q1 -1 1 -2v-2q0 -1 1 -1l1 -1q1 -1 1 -2q0 -2 1 -3q0 -1 1 -1l1 -1q0 -1 1 -3q0 -2 1 -3
t1 -2q1 0 2 -1v-2q0 -2 1 -3q0 -1 1 -1h2v-3l1 -1q1 0 1 -1q1 -1 1 -2q1 -2 1 -3q1 -1 2 -1t1 -1q1 0 1 -1v-1q1 -1 2 -1h1l1 -1q0 -1 1 -2q0 -2 2 -3q3 -3 3 -4l5 -5q1 -2 3 -4l1 -2q0 -1 1 -2h2l1 -1q0 -1 1 -2q1 0 2 -1q1 0 2 -1l1 -1q0 -1 1 -1q0 -1 1 -1h2v-2l1 -1
q0 -1 1 -1h2q0 -1 1 -2l1 -1h1q1 0 2 -1v-1q0 -1 1 -2h2q1 0 2 -1q1 0 1 -1t1 -2h1q1 0 2 -1q1 0 1 -1t1 -1q1 -1 2 -1l1 -1v-1q0 -1 1 -1q1 -1 3 -1h2l2 -2q0 -1 1 -1q1 -1 2 -1h3v-2q0 -1 4 -1q2 0 3 -1l2 -1q0 -1 1 -2h3q1 0 2 -1q1 0 2 -1q0 -2 5 -2q3 0 4 -1q1 0 1 -1
q0 -2 5 -2q4 0 4 -2q0 -1 2 -1q1 -1 6 -1q7 0 9 -2q1 -1 3 -1q3 -1 8 -1h8q1 0 1 -2l1 -1h4q4 -1 20 -1h25l1 -1q1 -2 3 -2h7q6 0 8 -1q2 0 2 -1t1 -2h6q4 0 6 -1q1 0 2 -1q0 -2 5 -2q6 0 6 -2q1 -1 2 -1q1 -1 3 -1q3 0 3 -2t4 -2t4 -2t4 -2t4 -1t1 -2h2q2 0 2 -1q1 0 1 -1
t1 -2h1q1 0 1 -1q1 0 1 -1t1 -2h2q2 0 3 -1q1 0 1 -1l1 -1q1 -1 2 -1h1q1 -1 1 -2l1 -1q1 -1 2 -1h1q1 -1 1 -2v-1q1 -1 2 -1h1q1 -1 1 -2v-1h1q1 0 2 -1v-1q0 -1 1 -2h1q1 0 2 -1v-1q0 -1 1 -2h1q1 0 1 -1q1 0 1 -1t1 -1q0 -1 1 -1t1 -1q1 0 1 -1v-1q1 -1 2 -1h1q1 -1 1 -2
v-1q1 -1 2 -1h1q1 0 1 -1v-2q1 0 1 -1l2 -2v-3q0 -1 1 -1l1 -1q1 0 2 -1v-1l1 -1q0 -1 1 -2l2 -2v-2q0 -1 1 -2q0 -1 1 -1q2 0 2 -4q0 -3 2 -3t2 -4t2 -4q1 0 1 -1q1 -1 1 -2v-3q1 -2 2 -2q0 -1 1 -3v-4q0 -4 2 -4q1 0 2 -2v-4q0 -2 1 -4q0 -2 1 -2t1 -3q1 -3 1 -6
q0 -4 1 -7q1 -4 1 -5q1 -1 2 -10v-35q-1 -8 -2 -9q-1 0 -1 -2q-1 -2 -1 -7v-7q-1 -3 -2 -3q0 -1 -1 -3t-1 -5t-1 -5t-1 -3q-1 0 -1 -1q-1 -1 -1 -3q0 -4 -1 -4q-2 0 -2 -3q0 -2 -1 -3q0 -1 -1 -1t-2 -2q0 -1 -1 -4q0 -2 -1 -4q0 -1 -1 -1q0 -1 -1 -1v-2q0 -1 -1 -1
q0 -1 -1 -1q-2 0 -2 -3v-3q-1 -1 -2 -1l-1 -1q-1 -1 -1 -3q-1 -1 -2 -3t-2 -3q-2 -1 -3 -2v-2q0 -1 -1 -1l-1 -1h-2v-2l-1 -1h-1q-1 0 -2 -1v-1q0 -1 -1 -2l-2 -2t-1 -2l-1 -2q0 -1 -1 -1q0 -1 -1 -1t-1 -1q-1 0 -1 -1t-1 -1q0 -1 -1 -1h-1q-1 -1 -1 -2q-1 0 -2 -1t-2 -1h-2
v-2l-1 -1h-1q-1 0 -2 -1v-1q0 -1 -1 -2h-1q-1 0 -1 -1q-1 0 -2 -1q0 -1 -1 -2h-3q-2 0 -3 -1h-1q0 -2 -2 -4q-3 -3 -5 -3h-1l-2 -2q0 -1 -1 -1l-1 -1h-2q-1 -1 -1 -2l-1 -1q-1 -1 -3 -1h-2l-1 -1l-2 -2h-3q-1 0 -3 -1q-1 0 -1 -1q-1 -2 -6 -2q-3 0 -4 -1q-1 0 -1 -1t-2 -2
h-11q-1 -1 -1 -2t-2 -1q-1 -1 -6 -1h-6q-2 -1 -2 -2q-1 -1 -15 -1q-12 -1 -30 -1q-17 0 -29 1q-14 0 -14 1t-2 2h-10q-6 0 -9 1q-2 0 -2 1t-2 2h-12q-1 1 -1 2t-2 1q-2 1 -6 1h-6q-2 1 -2 2t-1 1q-1 1 -5 1h-4q-1 1 -1 2t-2 1h-6q-4 0 -6 1q-2 0 -2 1q0 2 -3 2q-4 0 -4 2
t-4 2t-4 2q0 1 -1 2h-9q-2 1 -2 2q0 2 -3 2q-4 0 -4 2t-4 2t-4 2t-4 2t-4 1q0 2 -3 2q-4 0 -4 2q0 1 -1 2h-1q-1 0 -2 1v1q0 2 -4 2t-4 2t-4 2q-3 0 -3 2q0 1 -1 1l-1 1h-2v2q0 2 -4 2t-4 1t-1 2h-1q-1 0 -1 1l-1 1v2h-2l-1 1q-1 0 -1 1q0 2 -3 2q-4 0 -4 2q0 1 -1 1
q0 1 -1 1t-2 1v1q0 1 -1 1q0 1 -1 1h-1q-1 1 -1 2l-1 1q0 1 -1 1h-1q-1 1 -1 2v1h-2q-1 0 -1 1l-1 1q0 1 -1 2h-2q-1 0 -2 1q-2 0 -2 1t-1 2h-1q-1 0 -2 1v1q0 1 -1 1q0 1 -1 1t-1 1q-1 0 -1 1t-1 1q0 1 -1 1h-1q-1 1 -1 2v1q-1 1 -2 1h-1q-1 1 -1 2v1h-2l-1 1l-1 1v2h-2
l-1 1v1q0 1 -1 2h-1q-2 0 -2 4t-2 4h-2v2q0 1 -1 1q0 1 -1 1h-1q-1 1 -1 2l-1 1q0 1 -1 1h-1l-1 1v2h-2l-1 1l-1 1v2h-2l-1 1v2q0 1 -1 2t-1 2q-1 0 -2 1v2q0 1 -1 1q0 1 -1 1h-2v2l-1 1q0 1 -1 1t-1 2q-1 1 -1 2q0 2 -1 2q0 1 -1 1q-2 0 -2 4t-2 4q-1 0 -1 1q-1 0 -1 1v1
q-1 1 -2 1q-2 0 -2 4q0 3 -1 3t-2 1v1q0 1 -1 2l-1 1q-1 0 -2 1v3q0 1 -1 2q0 1 -1 1q-2 0 -2 4t-2 4t-2 3q0 4 -2 4t-2 4t-2 4t-2 4v3l-1 1q-2 1 -2 6q0 3 -1 4q0 1 -1 1q-2 0 -2 4q0 1 -1 3q0 1 -1 2t-2 3v3q0 2 -1 3q0 2 -1 2t-1 2q-1 2 -1 6v5q-1 2 -2 2t-1 1q-1 2 -1 6
v7q-1 1 -2 1t-1 2q-1 1 -1 6v6q0 1 -2 1q-1 0 -1 3v9q0 5 -1 8q0 4 -1 4t-1 56t1 57q1 0 1 3q1 3 1 7v8q0 2 1 2q2 0 2 1v8q0 5 1 7q0 2 1 2q2 1 2 7q0 3 1 4q0 1 1 1t2 2v5q0 4 1 6q0 2 1 2q1 1 1 2q1 1 1 2v4l2 2t1 3q1 2 1 3q0 4 2 4q1 0 1 1q1 1 1 4q0 5 2 6l1 2v2
q0 4 2 4t2 4t2 4t2 4q0 3 2 3t2 4t2 4t2 4t2 4h1q1 1 1 2v1q1 1 2 1t1 4q0 3 2 3t2 4t2 4q1 0 2 1v1q0 1 1 1q0 1 1 1t1 1q1 1 1 2t1 3q0 1 1 1t1 1q1 1 1 2v1h2q1 0 1 1l1 1v2h2q2 0 2 4t1 4h2v2q0 1 1 1l1 1h2v2l1 1q0 1 1 1h1q1 1 1 2l1 1h1q2 0 2 4t2 4q1 0 1 1q1 0 1 1
v1q1 1 2 1l1 1q1 0 1 1v1l1 1h2v2l1 1l1 1h2v2l1 1h1q1 0 2 1v1q0 1 1 2h1q1 0 1 1q1 0 1 1t1 2h1q1 0 1 1q1 0 1 1v1q1 1 2 1l1 1q1 0 1 1t2 1q1 1 2 1h2q1 1 1 2t1 1q0 1 1 1h2v2l1 1q0 1 1 1h1l1 1q0 1 1 2h1q1 0 1 1l1 1v2h2q1 0 1 1q1 0 1 1q0 2 4 2q3 0 3 2q0 1 1 1
l1 1h2v2q0 1 1 1q0 1 1 1h1l2 2l1 1q1 1 3 1h2l1 1v2h2l1 1l1 1q0 2 3 2q4 0 4 2t4 2t4 2t4 2t4 2v1q1 1 2 1h1v2q0 2 4 2t4 2q0 1 4 1t4 2t4 2q1 0 2 1q2 0 2 1z" />
    <glyph glyph-name="Ntilde" unicode="&#xd1;" horiz-adv-x="802" 
d="M194 578l107 -13l-60 -51q-12 -10 -12 -26q0 -3 1 -7q2 -19 16 -36q16 -18 37 -21q5 -1 9 -1q19 0 38 14l77 58l234 -157q10 -8 14 -18q2 -5 2 -10t-3 -11q-5 -10 -15 -13q-3 -1 -6 -1q-11 0 -23 8l-107 66q-4 3 -8 3q-1 0 -3 -1q-5 -1 -7 -5q-3 -4 -3 -9q1 -5 5 -7
l111 -70q5 -3 8 -12q1 -4 1 -7q0 -5 -2 -9q-5 -9 -14 -14q-5 -2 -9 -2q-5 0 -9 2l-108 62q-3 2 -6 2q-2 0 -4 -1q-5 -1 -8 -5q-1 -3 -1 -5v-3q0 -5 5 -8l98 -57q3 -2 4 -5q1 -4 1 -8q-2 -10 -11 -16q-6 -3 -14 -3h-5q-11 0 -24 5l-68 35q-5 3 -9 3q-1 0 -3 -1q-5 -1 -7 -6
q-2 -3 -2 -7v-2q1 -5 6 -7l68 -34q7 -4 7 -9v-1q-1 -6 -8 -11t-17 -8q-11 -3 -20 -3q-41 1 -70 17q9 18 10 34v6q0 12 -5 21q-6 12 -18 20t-28 10q2 4 2 10q0 3 -1 7q-2 10 -8 18q-7 10 -16 16q-11 6 -23 7q1 4 1 8q0 8 -5 18q-7 14 -22 24q-14 9 -28 9h-3q-19 -2 -33 -18
q-4 11 -12 19t-19 10q-4 1 -9 1q-8 0 -16 -3q-15 -4 -28 -17l-28 40zM706 401l-55 -45l-247 165l-85 -62q-14 -11 -29 -11h-2q-15 1 -24 12q-9 9 -9 21v3q0 14 12 25l67 59q25 22 71 29q16 2 32 2q22 0 44 -4l126 -24zM137 336q6 9 16 9h3q7 0 14 -4q7 -6 9 -14q1 -3 1 -5
q0 -7 -5 -13l-21 -29q-7 -10 -16 -11h-2q-8 0 -14 5q-8 6 -10 15v5q0 9 4 16zM218 323q7 9 17 9h3q7 0 14 -5q8 -6 11 -14q1 -2 1 -5q0 -7 -5 -14l-52 -73q-7 -9 -17 -10h-4q-7 0 -13 4q-8 6 -11 15q-1 3 -1 7q0 7 4 14zM270 265q6 9 16 9h3q7 0 14 -5q8 -6 11 -15
q1 -2 1 -4q0 -7 -5 -14l-36 -51q-7 -10 -18 -12q-3 -1 -6 -1q-6 0 -12 3q-10 5 -13 13q-2 4 -2 7q0 6 4 13zM320 208q6 8 16 9q9 0 17 -6q9 -5 11 -14q1 -3 1 -6q0 -7 -5 -13l-24 -33q-6 -10 -17 -12q-3 -1 -7 -1q-6 0 -12 3q-9 4 -13 13q-1 3 -1 6q0 6 4 13zM798 453
q2 -4 2 -7t-1 -6q-1 -7 -7 -10l-45 -26q-4 -2 -7 -2t-6 1q-6 1 -10 7l-101 174q-2 5 -2 10v3q2 7 8 10l45 26q4 2 7 2t6 -1q6 -1 10 -7zM100 627q4 6 10 8q3 1 6 1t7 -2l45 -25q6 -4 8 -10q1 -3 1 -6t-2 -7l-99 -175q-3 -6 -10 -8q-2 -1 -5 -1q-4 0 -8 2l-44 25q-6 4 -8 10
q-1 3 -1 6t2 7z" />
    <glyph glyph-name="Ograve" unicode="&#xd2;" horiz-adv-x="800" 
d="M105 277q16 0 27 -11q11 -12 11 -28v-162q0 -16 -11 -28q-11 -11 -27 -11h-66q-16 0 -28 11q-11 12 -11 28v162q0 16 11 28q12 11 28 11h66zM323 393q16 0 28 -11q11 -11 11 -27v-279q0 -16 -11 -28q-12 -11 -28 -11h-65q-16 0 -28 11q-11 12 -11 28v279q0 16 11 27
q12 11 28 11h65zM542 347q16 0 28 -7q11 -7 11 -17v-262q0 -10 -11 -17q-12 -7 -28 -7h-65q-16 0 -28 7q-11 7 -11 17v262q0 10 11 17q12 7 28 7h65zM761 503q16 0 28 -8q11 -8 11 -19v-412q0 -11 -11 -19q-12 -8 -28 -8h-66q-16 0 -27 8t-11 19v412q0 11 11 19t27 8h66z
M36 334q-6 0 -11 3t-9 7q-4 7 -4 16v3q2 9 10 15l221 158q4 4 10 4h4q4 0 8 -1l211 -74l268 259q7 7 17 7t17 -7q7 -8 7 -18t-7 -17l-279 -269q-5 -5 -12 -6q-3 -1 -6 -1t-7 2l-213 75l-211 -151q-6 -5 -14 -5z" />
    <glyph glyph-name="Oacute" unicode="&#xd3;" horiz-adv-x="800" 
d="M763 631q0 7 -5 12t-12 5h-692q-7 0 -12 -5t-5 -12v-456q0 -7 5 -12t12 -5h692q7 0 12 5t5 12v456zM746 685q11 0 21 -4t17 -12q8 -7 12 -17t4 -21v-456q0 -11 -4 -21t-12 -18q-7 -7 -17 -11t-21 -4h-52v-101h-56v101h-476v-101h-56v101h-52q-11 0 -21 4t-17 11
q-8 8 -12 18t-4 21v456q0 11 4 21t12 17q7 8 17 12t21 4h692zM158 420h35v-35h-35v35zM158 459h35v-35h-35v35zM158 498h35v-35h-35v35zM197 304h35v-35h-35v35zM158 537h35v-35h-35v35zM158 381h35v-34h-35v34zM119 304h35v-35h-35v35zM119 498h35v-35h-35v35zM158 304h35
v-35h-35v35zM158 343h35v-35h-35v35zM352 498h35v-35h-35v35zM352 459h35v-35h-35v35zM352 381h35v-34h-35v34zM352 343h35v-35h-35v35zM491 343h35v-35h-35v35zM491 381h35v-34h-35v34zM568 537h36v-35h-36v35zM607 537h35v-35h-35v35zM607 304h35v-35h-35v35zM607 459h35
v-35h-35v35zM646 381h35v-34h-35v34zM646 343h35v-35h-35v35zM646 498h35v-35h-35v35zM646 459h35v-35h-35v35zM491 420h35v-35h-35v35zM646 420h35v-35h-35v35zM491 498h35v-35h-35v35zM491 459h35v-35h-35v35zM530 304h35v-35h-35v35zM568 304h36v-35h-36v35zM530 381h35
v-34h-35v34zM568 420h36v-35h-36v35zM530 537h35v-35h-35v35z" />
    <glyph glyph-name="Ocircumflex" unicode="&#xd4;" horiz-adv-x="800" 
d="M775 110q10 0 18 -9q7 -9 7 -23q0 -13 -7 -22q-8 -9 -18 -9h-416q-10 0 -18 9q-7 9 -7 23q0 13 7 22q8 9 18 9h4q9 0 16 6q6 7 6 16q0 5 4 9t9 4h338q5 0 9 -4t4 -9q0 -9 6 -16q6 -6 15 -6h5zM449 195q-4 7 -4 15q0 4 1 8q3 12 12 16l163 76q4 2 9 2t11 -3q10 -5 16 -17
q4 -8 4 -15q0 -4 -1 -8q-3 -12 -13 -16l-162 -76q-4 -2 -9 -2t-11 3q-11 5 -16 17zM337 495q-5 -2 -9 -2q-6 0 -11 3q-11 5 -17 17q-3 8 -3 15q0 4 1 8q3 11 12 16l162 76q4 2 9 2t11 -3q11 -5 17 -17q3 -7 3 -15q0 -4 -1 -8q-2 -12 -12 -16zM429 293q-8 19 -28 26
q-8 3 -16 3q-11 0 -21 -5l-320 -149q-6 -3 -13 -3q-5 0 -10 2t-10 6q-11 9 -11 24q0 6 2 12q4 12 16 17l318 149q19 9 26 28q3 8 3 17q0 10 -5 21l-14 30l164 77l100 -215l-164 -77z" />
    <glyph glyph-name="Otilde" unicode="&#xd5;" horiz-adv-x="797" 
d="M87 249q-30 2 -53 24q-24 23 -31 59q-3 14 -3 26q0 18 6 34q11 27 35 42zM80 472q4 1 11 3l59 15l60 15l13 -52l10 -40l26 -107l10 -40q-23 -6 -60 -15l-30 -7q-18 -5 -31 -8q-6 -1 -10 -2l-10 40l-49 197zM577 282q-50 198 -88 354l-3 -3l-1 -1l-1 -2q-2 -2 -3 -4
q-32 -41 -63 -71q-36 -35 -75 -59q-14 -9 -31 -16l11 -44l2 -8l2 -8l4 -15q3 -14 8 -34l4 -17l5 -17h13q50 0 104 -14q49 -13 112 -41zM571 553q22 -10 38 -29q14 -18 20 -41q4 -13 4 -27q0 -9 -2 -18q-5 -24 -20 -45q-3 -4 -4 -8q0 -4 1 -9q15 -60 34 -137q1 -4 1 -8
q0 -8 -4 -15q-6 -10 -18 -12h-3q-8 0 -17 5q-84 46 -158 65q-39 10 -75 10q-28 0 -54 -6l-29 115l-8 31l-10 40l-13 52l12 3q36 9 77 41q72 57 132 151q10 15 24 15h2q10 0 16 -6q7 -6 10 -17l17 -69q10 -38 17 -69q1 -4 3 -7t7 -5zM686 478q-2 -1 -5 -1q-4 0 -9 3
q-6 4 -8 11q-1 3 -1 5q0 5 3 9q4 7 11 9l100 25h3q6 0 11 -3q7 -3 8 -11q1 -2 1 -5q0 -4 -3 -9q-4 -6 -11 -8zM667 383q-7 3 -10 11q-1 3 -1 6q0 4 2 8q3 7 10 9q4 2 7 2q4 0 7 -2l94 -40q7 -3 10 -10q2 -3 2 -7q0 -3 -2 -7q-3 -7 -10 -10q-3 -1 -7 -1q-3 0 -7 1zM650 561
q-5 -7 -12 -8h-3q-6 0 -11 3q-6 4 -8 12v3q0 5 3 11l59 84q4 6 12 8h3q5 0 11 -3q6 -5 7 -12q1 -2 1 -4q0 -6 -4 -10zM166 192l16 4l32 8q36 9 63 15q1 1 2 1q2 0 3 -1q3 -1 5 -3q10 -7 14 -19q4 -9 4 -23q1 -11 6 -19t15 -12q17 -8 31 -19q15 -11 19 -31q1 -4 1 -8
q0 -5 -2 -8q-4 -7 -14 -9q-53 -14 -95 -24q-5 -2 -9 -2q-3 0 -5 1q-6 2 -11 9q-20 29 -44 66l-45 65q0 1 -1 2l-1 1v2z" />
    <glyph glyph-name="Odieresis" unicode="&#xd6;" horiz-adv-x="900" 
d="M359 420h-281q-6 0 -11 4.5t-5 11t5 11t11 4.5h281q7 0 11.5 -4.5t4.5 -11t-4.5 -11t-11.5 -4.5zM328 498q-13 0 -22 9t-9 22t9 22t22 9t22 -9t9 -22t-9 -22t-22 -9zM109 716q-13 0 -22 9.5t-9 22.5t9 22t22 9t22.5 -9t9.5 -22t-9.5 -22.5t-22.5 -9.5zM219 607
q-13 0 -22 9t-9 22t9 22.5t22 9.5t22 -9.5t9 -22.5t-9 -22t-22 -9zM328 373q13 0 22 -9.5t9 -22.5t-9 -22t-22 -9t-22 9t-9 22t9 22.5t22 9.5zM328 154q13 0 22 -9t9 -22t-9 -22.5t-22 -9.5t-22 9.5t-9 22.5t9 22t22 9zM109 373q13 0 22.5 -9.5t9.5 -22.5t-9.5 -22t-22.5 -9
t-22 9t-9 22t9 22.5t22 9.5zM109 154q13 0 22.5 -9t9.5 -22t-9.5 -22.5t-22.5 -9.5t-22 9.5t-9 22.5t9 22t22 9zM953 294q20 0 33.5 -13.5t13.5 -32.5v-344q0 -20 -13.5 -33.5t-33.5 -13.5h-750q-19 0 -33 13.5t-14 33.5v109h-109q-20 0 -33.5 14t-13.5 33v750
q0 20 13.5 33.5t33.5 13.5h344q19 0 33 -13.5t14 -33.5v-516h515zM31 60q0 -6 4.5 -11t11.5 -5h344q6 0 10.5 5t4.5 11v750q0 7 -4.5 11.5t-10.5 4.5h-344q-7 0 -11.5 -4.5t-4.5 -11.5v-750zM969 -96v344q0 6 -4.5 10.5t-11.5 4.5h-515v-203q0 -19 -14 -33t-33 -14h-203
v-109q0 -7 4.5 -11.5t10.5 -4.5h750q7 0 11.5 4.5t4.5 11.5zM578.5 232q6.5 0 11 -4.5t4.5 -11.5v-281q0 -6 -4.5 -10.5t-11 -4.5t-11.5 4.5t-5 10.5v281q0 7 5 11.5t11.5 4.5zM484 216q13 0 22.5 -9t9.5 -22t-9.5 -22t-22.5 -9t-22 9t-9 22t9 22t22 9zM266 -2q13 0 22 -9.5
t9 -22.5t-9 -22t-22 -9t-22.5 9t-9.5 22t9.5 22.5t22.5 9.5zM672 216q13 0 22 -9t9 -22t-9 -22t-22 -9t-22 9t-9 22t9 22t22 9zM891 216q13 0 22 -9t9 -22t-9 -22t-22 -9t-22.5 9t-9.5 22t9.5 22t22.5 9zM781 107q13 0 22 -9t9 -22t-9 -22.5t-22 -9.5t-22 9.5t-9 22.5t9 22
t22 9zM672 -2q13 0 22 -9.5t9 -22.5t-9 -22t-22 -9t-22 9t-9 22t9 22.5t22 9.5zM891 -2q13 0 22 -9.5t9 -22.5t-9 -22t-22 -9t-22.5 9t-9.5 22t9.5 22.5t22.5 9.5z" />
    <glyph glyph-name="multiply" unicode="&#xd7;" 
d="M654 509q-41 -15 -77 -39q-40 -24 -74 -55q10 -9 21 -16q40 -30 86 -51q6 -3 17 -7l5 -2l5 -2q7 -3 12 -5q33 -14 63 -27q25 -8 41 -30q10 -18 10 -37q0 -9 -2 -19q-6 -35 -34 -58q-22 -18 -50 -20q-9 -2 -18 -2q-24 0 -46 13q-16 11 -25 34l-2 6l-2 6q-3 8 -5 13
q-6 17 -14 32q-20 35 -47 65q-29 34 -64 61q-13 -12 -25 -25l-5 -5l-5 -5q-6 -6 -12 -11q-13 -14 -24 -26q-30 -31 -54 -58q-64 -75 -82 -123q-8 -20 -18 -40q-16 -40 -51 -64q-22 -12 -47 -12h-11q-28 0 -53 14q-33 20 -45 56q-6 19 -6 39q0 10 2 21q5 30 18 56
q12 25 31 46q33 31 77 43q80 28 153 69q45 29 86 63l11 8l-12 9l-5 4l-6 4q-6 4 -11 8q-15 10 -27 19q-33 22 -61 39q-76 47 -121 56q-21 4 -39 10q-38 8 -66 37q-16 21 -18 48q-2 11 -2 22q0 17 5 33q12 33 42 51q25 13 53 13h6q24 0 47 -7q24 -7 45 -21q34 -26 51 -65
q37 -68 86 -129q32 -38 69 -69l18 -16q17 16 34 33q40 39 71 85q4 5 11 16l3 5l3 6q4 7 8 12q20 33 40 64q14 25 39 39q14 5 28 5q16 0 32 -7q37 -13 55 -48q11 -24 11 -51v-8q-1 -38 -25 -68q-14 -14 -40 -20l-7 -1l-6 -1q-9 -2 -15 -3q-19 -4 -36 -10z" />
    <glyph glyph-name="Oslash" unicode="&#xd8;" horiz-adv-x="800" 
d="M697 360q1 3 1 5q0 7 -8 10h-3q-4 0 -8 -2q-8 16 -25 23q-9 4 -18 4q-8 0 -16 -3q-2 8 -2 17v6q0 25 15 37q3 -3 6 -4t5 -1q7 0 11 8q1 3 1 5q0 7 -8 10q-3 1 -6 1q-7 0 -10 -8q-1 -2 -1 -4h-4q-42 0 -64 -38q-6 19 -23 30q-12 7 -25 7q-6 0 -11 -1q-2 7 -8 9q-3 1 -5 1
q-7 0 -10 -8q-1 -3 -1 -6q0 -7 8 -10q3 -1 5 -1q7 0 10 8l1 1q5 -2 10 -7q5 -7 8 -16q2 -8 2 -19q0 -21 -7 -49l-2 -6v-1q0 -9 45 -26q20 -7 35 -9q6 -1 10 -1q5 0 6 2q9 19 26 31q17 11 37 12v-3q0 -9 8 -12q3 -1 5 -1q7 0 10 8v1zM767 585h1q17 -5 26 -21q6 -10 6 -21
q0 -6 -2 -12l-103 -386q-4 -17 -20 -27q-10 -6 -21 -6q-7 0 -13 2l-184 49q12 10 19 23q11 18 11 38q0 11 -3 22l-63 238l37 139q5 18 20 27q10 6 21 6q7 0 13 -2zM338 419q0 3 -1 6q-2 6 -8 7q-3 1 -5 1q-7 0 -10 -9q-9 4 -19 4q-8 0 -15 -2q-17 -6 -26 -22q-9 6 -16 16
q-13 15 -13 31q0 4 1 8h7q8 3 8 10q0 3 -1 6q-3 8 -10 8q-2 0 -5 -1q-8 -4 -8 -11q0 -2 1 -5q0 -2 2 -4q-30 -22 -30 -57q0 -7 1 -15q-12 8 -27 8q-4 0 -9 -1q-20 -3 -32 -19q-3 3 -8 3q-2 0 -4 -1q-8 -3 -8 -10q0 -3 1 -6q4 -8 11 -8q2 0 5 1q8 4 8 11q0 2 -1 5l-1 1
q4 1 8 1q10 0 21 -8q21 -14 40 -55l3 -5q1 -4 8 -4q12 0 43 12q44 17 44 26v1q-3 10 -3 20t3 20q6 19 21 33q4 -8 10 -8q2 0 5 1q9 4 9 11zM444 237q2 -6 2 -12q0 -11 -6 -21q-9 -16 -27 -21l-255 -69q-6 -2 -12 -2q-11 0 -22 7q-15 9 -20 27l-103 385q-1 6 -1 11q0 12 6 23
q9 16 27 21l255 69q6 1 11 1q12 0 22 -6q16 -9 21 -27z" />
    <glyph glyph-name="Ugrave" unicode="&#xd9;" horiz-adv-x="800" 
d="M698 44q-84 -44 -178 -44h-9q-77 0 -146 32q-74 35 -124 99q-52 65 -64 148h-75v81h63v20l1 17v17h-64v81h77q19 88 79 155q49 58 119 89q65 29 136 29h9q89 0 172 -34l-32 -130q-62 26 -128 27h-7q-80 0 -133 -62q-27 -32 -37 -74h285v-81h-302q-1 -12 -1 -35v-19h303
v-81h-287q9 -45 38 -80q56 -58 134 -58h13q69 1 131 30z" />
    <glyph glyph-name="Ucircumflex" unicode="&#xdb;" horiz-adv-x="800" 
d="M734 718q50 -50 50 -120q0 -71 -50 -121t-120 -50q-71 0 -121 50t-50 121q0 70 50 120t121 50q70 0 120 -50zM315 768q18 0 30 -12q13 -13 13 -30v-256q0 -18 -13 -31q-12 -12 -30 -12h-256q-18 0 -30 12q-13 13 -13 31v256q0 17 13 30q12 12 30 12h256zM315 342
q18 0 30 -13q13 -12 13 -30v-256q0 -18 -13 -30q-12 -13 -30 -13h-256q-18 0 -30 13q-13 12 -13 30v256q0 18 13 30q12 13 30 13h256zM742 342q17 0 30 -13q12 -12 12 -30v-256q0 -18 -12 -30q-13 -13 -30 -13h-256q-18 0 -31 13q-12 12 -12 30v256q0 18 12 30q13 13 31 13
h256z" />
    <glyph glyph-name="Yacute" unicode="&#xdd;" horiz-adv-x="800" 
d="M456 395q66 0 105 7q29 5 42 14q11 9 18 29q8 27 8 72q0 57 -6 90q-3 13 -7 22q-2 6 -6 10q-3 4 -8 7q-7 4 -17 7q-25 7 -71 7l-32 1h-202v-266h176zM160 120h-106v107h106v60h-106v108h106v373h353q132 0 183 -54q50 -53 50 -191q0 -133 -53 -184q-52 -51 -189 -51h-224
v-60h106v-107h-106v-121h-120v120z" />
    <glyph glyph-name="Thorn" unicode="&#xde;" horiz-adv-x="800" 
d="M416 431q91 -24 137 -58q64 -48 64 -130q0 -62 -44 -102q-39 -36 -106 -49v-92h-128v93q-66 14 -107 53q-46 44 -49 110h93q9 -89 127 -89q63 0 93 27q23 20 23 49q0 34 -24 57q-31 28 -104 46q-97 23 -145 62q-56 44 -56 114q0 59 44 101q40 39 105 53v92h128v-93
q59 -12 97 -57q39 -46 40 -106h-94q-4 90 -107 90q-53 0 -84 -22t-31 -57q0 -31 28 -52q29 -21 100 -40z" />
    <glyph glyph-name="germandbls" unicode="&#xdf;" horiz-adv-x="800" 
d="M545 311l-254 -146v291zM727 529h-654v-436h654v436zM727 602q15 0 29 -6q13 -6 23 -16t15 -23q6 -13 6 -28v-436q0 -15 -6 -29q-5 -13 -15 -23t-23 -15q-14 -6 -29 -6h-654q-15 0 -29 6q-13 5 -23 15t-15 23q-6 14 -6 29v436q0 15 6 28q5 13 15 23t23 16q14 6 29 6h276
l-120 119l26 26l145 -145l145 145l26 -26l-120 -119h276z" />
    <glyph glyph-name="agrave" unicode="&#xe0;" horiz-adv-x="400" 
d="M460 337l89 60l-122 82l-106 72v-308zM800 221q0 -49 -34 -85q-35 -36 -85 -38h-563q-49 2 -84 38q-34 35 -34 82v332q0 47 34 82q35 36 84 37h563q50 -1 85 -37q34 -36 34 -85v-326z" />
    <glyph glyph-name="aacute" unicode="&#xe1;" horiz-adv-x="1000" 
d="M950 438q12 -39 21 -94.5t9 -95.5q0 -63 -13 -126q-2 -25 -17 -46q-9 -14 -27 -24t-35 -10q-19 0 -35 9q-13 6 -25 15t-28 23.5t-22 20.5q-50 49 -72 75q-9 11 -26 18.5t-31 7.5h-2h-290h-2q-13 0 -28.5 -7.5t-23.5 -18.5q-19 -25 -50 -57t-55 -52l-38 -25
q-18 -12 -40 -12q-19 0 -38 12t-27 29q-18 41 -21 84q-5 32 -5 64v12v11q0 68 25 157t60 147q10 21 25 38q22 32 66 54.5t83 22.5q36 0 69 -14q36 -11 67 -33q25 -17 55 -17h4h42h5q30 0 54 17q22 15 56.5 28.5t61.5 17.5q11 1 22 1q35 0 75 -19t63 -45q24 -32 50 -81
t38 -87zM399 387v46v2q0 5 -3 8t-8 3h-1h-51v50q-4 12 -17 13h-42h-1q-5 0 -8 -3t-3 -8v-2v-50h-51q-12 -4 -12 -17v-42v-1q0 -5 3 -8.5t8 -3.5q1 0 1 1h55v-51v-1q0 -5 3 -8.5t8 -3.5q1 0 2 1h42q5 0 8.5 3.5t3.5 8.5v51h51q0 -1 1 -1q5 0 8 3.5t3 8.5v1zM710 513h-1
q-14 0 -24.5 -9.5t-12.5 -23.5q1 -14 11 -26.5t23 -15.5q16 0 27 11t11 26v6q0 14 -9 23t-23 9h-2zM643 370q14 2 25 13t13 25q0 16 -11 27t-27 11t-27 -11t-11 -26.5t11 -27t27 -11.5zM710 307h4q14 0 24 10t10 24q0 16 -11 27t-27 11h-5q-14 0 -23.5 -9.5t-9.5 -22.5
q0 -1 1 -2q0 -16 11 -27t26 -11zM782 370q13 1 24 11t14 23q0 16 -11 27t-27 11h-6q-13 0 -22.5 -9.5t-9.5 -22.5v-2q0 -16 11 -27t27 -11z" />
    <glyph glyph-name="acircumflex" unicode="&#xe2;" horiz-adv-x="1000" 
d="M358 109v179h103v-179h-103zM410 247q-13 -27 -34 -50q23 -19 34 -47q12 27 33 47q-21 22 -33 50zM539 109v179h104v-179h-104zM591 247q-13 -27 -33 -50q22 -19 33 -47q12 27 33 47q-21 22 -33 50zM884 458q14 0 23.5 -10t9.5 -23v0q0 -14 -9.5 -23.5t-23.5 -9.5
q-9 0 -17.5 5.5t-12.5 14.5h-12v-208q0 -6 -3.5 -10t-9.5 -4h-40v-40q0 -6 -4 -9.5t-10 -3.5h-33v-101q0 -6 -4 -9.5t-9 -3.5h-633q-5 0 -9 3.5t-4 9.5v325q0 5 4 9t9 4h633q5 0 9 -4t4 -9v-90h33q6 0 10 -4t4 -9v-41h27v208q0 5 4 9t9 4h25q3 8 12 13.5t18 6.5zM307 108
v181q0 10 -7.5 17.5t-18.5 7.5h-105q-11 0 -18 -7.5t-7 -17.5v-181q0 -11 7.5 -18.5t17.5 -7.5h105q10 1 17.5 8.5t8.5 17.5zM488 108v181q0 10 -7.5 17.5t-18.5 7.5h-105q-10 0 -17.5 -7.5t-7.5 -17.5v-181q0 -10 7.5 -17.5t17.5 -8.5h105q11 0 18.5 7.5t7.5 18.5zM669 108
v181q0 10 -7.5 17.5t-17.5 7.5h-105q-11 0 -18.5 -7.5t-7.5 -17.5v-181q0 -10 7.5 -17.5t18.5 -8.5h105q10 1 17.5 8t7.5 18zM762 163v81h-20v-81h20zM147 510l-28 27q-2 2 -2 5v1q0 7 7 7l38 6l18 35q1 3 3 4h3q5 0 7 -4l17 -35l39 -6q5 0 6 -5v-2q0 -3 -2 -6l-28 -27
l7 -38v-2q0 -2 -1 -4q-2 -3 -6 -3q-2 0 -4 1l-35 18l-34 -18q-2 -1 -4 -1h-2q-5 1 -5 7v2zM362 544l-48 47q-3 3 -4 8v1q0 12 12 13l66 10l29 60q2 4 6 6q3 1 6 1q9 0 12 -7l29 -60l67 -10q8 -1 10 -9q1 -2 1 -4q0 -5 -4 -9l-48 -47l12 -66v-2q0 -3 -2 -6q-4 -7 -12 -7
q-3 0 -6 1l-59 31l-59 -31q-3 -1 -6 -1h-2q-11 2 -11 13v2zM635 510l-28 27q-2 2 -3 5v1q0 6 7 7l39 6l17 35q1 3 4 4h3q5 0 6 -4l18 -35l38 -6q5 0 6 -5q1 -1 1 -3q0 -3 -3 -5l-27 -27l6 -38v-2q0 -2 -1 -4q-2 -3 -6 -3q-2 0 -4 1l-34 18l-35 -18q-2 -1 -3 -1h-2q-6 1 -6 7
v2zM177 109v179h103v-179h-103zM228 247q-12 -28 -33 -50q23 -19 33 -47q12 27 34 47q-22 22 -34 50zM0 -143z" />
    <glyph glyph-name="uni0410" unicode="&#x410;" horiz-adv-x="1000" 
d="M792 815q34 0 58.5 -24.5t24.5 -58.5v-750q0 -34 -24.5 -58.5t-58.5 -24.5h-417q-34 0 -58.5 24.5t-24.5 58.5v83q0 18 12 30t29.5 12t29.5 -12t12 -30v-41h417v666h-417v-41q0 -18 -12 -30t-29.5 -12t-29.5 12t-12 30v83q0 34 24.5 58.5t58.5 24.5h417zM292 296l220 221
q11 12 28 12q15 0 26 -11t11 -26q0 -17 -12 -28l-244 -244q-12 -12 -29.5 -12t-29.5 12l-103 103q-9 10 -9 24q0 16 11 27t27 11q14 0 24 -9z" />
    <glyph glyph-name="uni0411" unicode="&#x411;" horiz-adv-x="1000" 
d="M375 849q18 8 37.5 8t37.5 -8l321 -142q22 -11 38 -35.5t16 -48.5v-216q0 -125 -53.5 -241t-148 -198.5t-210.5 -110.5q-117 28 -211.5 110.5t-148 198.5t-53.5 241v216q0 24 16 48.5t39 35.5zM413 362v403l-321 -142v-262h321v-409q126 39 214 153t107 257h-321z" />
    <glyph glyph-name="uni0412" unicode="&#x412;" horiz-adv-x="1000" 
d="M294 59l292 -82q-15 -15 -36 -15q-7 0 -14 2l-370 59q-21 5 -36 23.5t-15 40.5q0 4 1 9l91 554q5 21 24 36t40 15q5 0 9 -1l78 -13l-142 -487q-3 -14 -3 -28q0 -36 23.5 -69t57.5 -44zM902 578l-160 -537q-6 -18 -23.5 -30.5t-36.5 -12.5q-9 0 -18 2l-361 105
q-18 6 -30.5 23.5t-12.5 36.5q0 9 2 17l160 536q6 18 23.5 31t36.5 13q9 0 18 -3l361 -104q18 -4 31.5 -21t13.5 -36q0 -10 -4 -20zM687 387q-5 0 -9 4q17 16 27 37q6 14 6 29q0 34 -24 57.5t-57 23.5q-23 0 -45 -15t-30 -36q-5 -17 -5 -35v-6h-5q-14 6 -30 6
q-34 0 -57.5 -23.5t-23.5 -57.5q0 -23 15 -45t37 -30q13 -5 28 -5q25 0 45 14l-23 -64l23 -9l23 64q4 -17 18.5 -33t31.5 -22q15 -6 31 -6q23 0 44.5 15t29.5 37q4 11 4 23q0 24 -16 46.5t-38 30.5z" />
    <glyph glyph-name="uni0413" unicode="&#x413;" horiz-adv-x="1000" 
d="M137 153q50 -87 156.5 -149t206.5 -62q112 0 208 55.5t151.5 151.5t55.5 208v3q0 33 -9 77.5t-22 75.5q-43 107 -155.5 183t-228.5 76q-10 0 -32.5 -1.5t-33.5 -1.5h-3q-93 -17 -172.5 -78.5t-126 -150t-47.5 -183.5v-28q2 -39 17 -90.5t35 -85.5zM171 136q-2 3 -20 31
q13 -10 27 -18l31 -10q26 -5 52 -7q10 61 35 118q-14 28 -41 97.5t-28 71.5l-73 25q-48 -89 -48 -111v52q17 39 38 76h3v5q0 26 10 60t25 56q18 22 50.5 43.5t59.5 29.5q4 6 12 14t20 17.5t22 17.5l25 20t22 17q28 7 45 11q-29 -23 -69 -52q-55 -48 -63 -56q5 -18 31 -83
q23 1 53.5 -2.5t48.5 -7t48 -10.5l30 -7q20 20 52.5 41t58.5 31q-15 60 -45 114q-6 1 -57.5 12.5t-77.5 15.5q21 4 43 4h9h8q27 0 64.5 -7.5t62.5 -17.5l-35 -7q34 -53 49 -114q26 -14 59.5 -38t54.5 -45h104q1 -3 3 -8.5t4 -8.5h-104v-2q0 -29 -8 -68t-20 -65
q1 -3 14 -31.5t28.5 -66t23.5 -61.5q8 0 32.5 1.5t33.5 1.5q-61 -138 -170 -197l-14 52h-16q-82 0 -164 10q-19 -16 -49 -32.5t-55 -22.5q4 -30 11 -59q-8 4 -18 4q-1 0 -3 -1q0 12 -1.5 31t-1.5 25q-30 13 -66.5 39.5t-58.5 50.5q-50 3 -97 21zM517 97q88 -10 176 -10h4
q48 55 90 114q-27 82 -66 159l-138 7q-4 -4 -49 -65.5t-62 -79.5q6 -14 23 -62.5t22 -62.5zM313 257q59 -15 145 -25q12 13 111 146q-21 71 -52 138q-123 31 -183 28l-90 -118q29 -87 69 -169zM884 513z" />
    <glyph glyph-name="uni0414" unicode="&#x414;" horiz-adv-x="1000" 
d="M542 732q101 0 187.5 -50t137 -136.5t50.5 -188.5t-50.5 -188.5t-137 -136.5t-187.5 -50h-3q-64 0 -140 33t-120 79l59 59q34 -36 93.5 -62t109.5 -26h1q120 0 205.5 85.5t85.5 206.5t-85.5 206.5t-206 85.5t-206 -85.5t-85.5 -206.5h125l-167 -167l-4 4l-162 163h125v2
q0 101 50 187t136 136t187 50h2zM500 524h62v-175l146 -88l-29 -50l-179 104v209z" />
    <glyph glyph-name="uni0415" unicode="&#x415;" horiz-adv-x="1000" 
d="M814 609h-1q77 0 131 -54t54 -130.5t-54 -130t-131 -53.5h-262v181h65q8 0 13.5 6t5.5 14q0 6 -3 11l-116 155q-6 8 -16 8t-16 -8l-116 -155q-3 -5 -3 -11q0 -8 5.5 -14t13.5 -6h65v-179h-263h-2q-76 0 -130 53.5t-54 129.5q0 59 41 111t98 67q-2 14 -2 28q2 93 69 159
t160 66q50 0 105 -29t84 -71q27 10 56 10h1h1q67 0 115.5 -47.5t50.5 -113.5q17 3 35 3z" />
    <glyph glyph-name="uni0416" unicode="&#x416;" horiz-adv-x="1000" 
d="M500 670h1q91 0 184.5 -42t166.5 -114t106 -157q-33 -85 -106 -157t-167 -113.5t-185 -41.5t-185 41.5t-167 113.5t-106 157q33 85 106 157t166.5 114t184.5 42h1zM500 149h2q85 0 145.5 60.5t60.5 145.5v2q0 86 -61 147t-147 61t-147 -61t-61 -147t61 -147t147 -61z
M500 482h2q51 0 87 -36t36 -87v-2q0 -52 -36.5 -88.5t-88.5 -36.5t-88.5 36.5t-36.5 88.5t36.5 88.5t88.5 36.5z" />
    <glyph glyph-name="uni0417" unicode="&#x417;" horiz-adv-x="1000" 
d="M500 667q-128 0 -219 -91t-91 -219t91 -219t219 -91t219 91t91 219t-91 219t-219 91zM500 732q155 0 265 -110t110 -265t-110 -265t-265 -110t-265 110t-110 265t110 265t265 110zM551 593q-18 0 -31 -13t-14 -32q0 -18 13 -31t32 -13q18 0 30.5 13t12.5 31t-12.5 31
t-30.5 14zM540 452q9 0 14.5 -2t8 -8t3.5 -10t0 -14t-1 -12t-2 -12q-6 -24 -21.5 -81.5t-23 -90t-5.5 -40.5q4 -14 52 19q5 3 7 4q1 2 3 2q3 0 4 -3l3 -3q6 -9 1 -12q-2 -2 -15 -10.5t-31 -21t-24 -16.5q-7 -4 -13 -7t-17.5 -8t-19.5 -5t-16 2.5t-11 14t0 29.5q7 40 38 166
q13 51 1 52q-7 1 -23 -9q-28 -17 -31 -20q-5 -3 -6 -2.5t-4 6.5q-5 7 -5 8t4 4q95 76 130 80z" />
    <glyph glyph-name="uni0418" unicode="&#x418;" horiz-adv-x="1000" 
d="M500 219h2q16 0 27 -11.5t11 -27.5t-11 -27t-27 -11h-2q-15 0 -26 11.5t-11 27t11 26.5t26 12zM143 82q-18 31 -18 67t18 67l242 418q16 28 49.5 47.5t65.5 19.5t66 -19.5t50 -47.5l242 -419q17 -31 17 -67q0 -55 -39 -94t-94 -39h-483q-32 0 -66 19.5t-50 47.5zM196 113
q8 -16 26.5 -26.5t36.5 -10.5h483q17 0 35.5 10.5t26.5 25.5q10 17 10 36.5t-10 36.5l-241 419q-9 15 -27.5 25.5t-36 10.5t-36 -10.5t-26.5 -25.5l-242 -419q-9 -16 -9 -36q0 -19 10 -36zM510 490q12 -4 20.5 -16t8.5 -25v-2q0 -6 -1 -18t-1 -18q-2 -23 -4.5 -69t-3.5 -70
q-1 -11 -9 -19t-19 -8h-1q-12 0 -20.5 8.5t-8.5 19.5q0 19 -1 28q-1 15 -2.5 45t-2.5 45q0 9 -1.5 28.5t-2.5 28.5v2q0 9 4 18t14.5 16t20.5 7q5 0 10 -1z" />
    <glyph glyph-name="uni0419" unicode="&#x419;" horiz-adv-x="1000" 
d="M702 360q0 -122 -86 -207.5t-207.5 -85.5t-207.5 86t-86 207v0q0 121 86 207t207 86v-293h294zM479 732q121 0 207 -86t86 -207h-293v293z" />
    <glyph glyph-name="uni041A" unicode="&#x41a;" horiz-adv-x="1000" 
d="M592 356l390 -390q19 -19 19 -45.5t-19 -45.5t-46 -19t-46 19l-390 389l-389 -389q-19 -19 -46 -19t-46 19t-19 45.5t19 45.5l390 390l-390 390q-19 19 -19 46t19 46t46 19t46 -19l389 -390l390 390q19 19 46 19t46 -19t19 -46t-19 -46zM592 356z" />
    <glyph glyph-name="uni041B" unicode="&#x41b;" horiz-adv-x="1000" 
d="M498 302l56 -56q-141 -146 -166 -377q-50 12 -112.5 43.5t-101.5 65.5zM397 403l56 -56l-324 -324q-35 38 -68.5 100.5t-46.5 112.5q235 24 383 167zM998 396q2 -22 2 -42v-1q0 -78 -37 -174.5t-90 -154.5l-225 225q54 42 138.5 82t151.5 54q29 6 60 11zM505 399l-57 58
q47 58 91.5 151.5t60.5 167.5q7 35 12 69q53 -12 118 -46t104 -71zM123 685l233 -234q-135 -130 -352 -151q-4 30 -4 60v1q0 77 36 171.5t87 152.5zM451 -140q23 212 151 346l226 -226q-58 -51 -152.5 -87t-171.5 -36h-1q-26 0 -52 3zM608 297l-58 57l329 329
q35 -40 67.5 -105.5t43.5 -117.5q-32 -5 -63 -12q-74 -15 -167.5 -59.5t-151.5 -91.5zM548 854q-31 -217 -148 -356l-233 232q58 53 154 90t175 37v0q26 0 52 -3z" />
    <glyph glyph-name="uni041C" unicode="&#x41c;" horiz-adv-x="1000" 
d="M63 111q-16 27 -29.5 65t-22.5 77.5t-11 70.5v33q1 114 57 221t152 180.5t208 94.5h4q12 0 39.5 2t39.5 2q91 0 185.5 -42t168.5 -114t109 -156q15 -37 26 -91t11 -94v-3q0 -101 -40 -193.5t-107 -159.5t-159.5 -107t-193.5 -40q-121 1 -249 75.5t-188 178.5zM104 90
q57 -21 117 -25q27 -28 70.5 -60t79.5 -48q0 -7 2 -30t2 -37q2 1 4 1q11 0 21 -5q-8 35 -12 71q29 8 65.5 27.5t59.5 39.5q98 -13 197 -13h19l17 -62q59 34 119 104t85 133q-10 0 -39.5 -2t-39.5 -2q-9 29 -28 74t-34.5 79.5t-16.5 38.5q13 31 23 78t10 81v3h125
q-2 4 -4 10.5t-4 10.5h-125q-26 25 -66 54t-72 46q-7 30 -24.5 70.5t-33.5 67.5l42 8q-31 12 -76 20.5t-78 8.5h-9h-10q-27 0 -52 -4q31 -5 93 -18.5t69 -14.5q37 -65 54 -138q-31 -12 -70.5 -37.5t-62.5 -49.5q-44 12 -107.5 22t-109.5 11q-31 78 -37 100q8 8 75 67
q48 34 83 62q-21 -4 -54 -12q-66 -47 -121 -105q-33 -9 -72 -35t-61 -52q-18 -26 -30 -67t-12 -73v-6h-4q-26 -44 -46 -92v-62q21 70 58 133l88 -29q1 -3 33.5 -86.5t49.5 -117.5q-30 -68 -42 -142q-31 3 -62 9l-38 12q-17 9 -33 21q12 -17 25 -38zM521 45q-6 16 -27 74.5
t-27 75.5q20 22 75 96.5t58 78.5l167 -9q46 -93 79 -191q-53 -75 -108 -138h-6q-106 0 -211 13zM275 236q-48 100 -83 204l108 142q47 -1 111.5 -10.5t109.5 -22.5q37 -81 62 -167q-118 -158 -133 -175q-30 3 -90.5 13t-84.5 16z" />
    <glyph glyph-name="uni041D" unicode="&#x41d;" horiz-adv-x="1000" 
d="M826 732q2 -1 2 -4q0 -2 -1 -4q-45 -52 -155 -88t-254 -36h-14q-64 0 -150.5 16.5t-145.5 40.5q-3 1 -3 5q0 2 1 4q62 79 176.5 135t214.5 56q78 0 174.5 -36.5t154.5 -88.5zM956 158q6 0 6 -6v-2q-36 -80 -109.5 -147.5t-165.5 -106.5t-179 -39q-47 0 -93 9q-5 1 -5 6
q0 1 1 2q18 45 60.5 95t84.5 76q73 47 187 80t201 33h12zM894 653q42 -55 71 -142.5t29 -156.5q0 -53 -11 -104q-1 -5 -6 -5h-32h-12q-98 0 -226 -37.5t-211 -90.5q-53 -33 -105.5 -97t-74.5 -122q-1 -4 -6 -4h-2q-83 35 -154.5 108.5t-112.5 167.5t-41 184q0 48 15 113
t37 108q1 3 5 3h3q68 -29 168.5 -50t173.5 -21h16q152 0 278 40t189 107q2 1 5 1t4 -2z" />
    <glyph glyph-name="uni041E" unicode="&#x41e;" horiz-adv-x="1000" 
d="M569 249q-29 -12 -72 -22t-75 -12q-39 1 -77 9q-23 -16 -58.5 -32.5t-62.5 -23.5q-18 -8 -38 -9q-5 0 -9 4t-4 9v13v4v5q0 4 8 12q4 2 6 4.5l4 5t3 3.5q0 5 9 13q2 2 6.5 8.5t6.5 9.5l8 17q-21 12 -46.5 34.5t-39.5 42.5q-12 19 -21 47.5t-9 51.5q0 26 11.5 59t27.5 53
q19 22 52 46t60 36q31 12 76.5 21t78.5 9t78.5 -9t76.5 -21q27 -11 60 -35t52 -47q16 -20 27.5 -53t11.5 -59t-11.5 -58.5t-27.5 -53.5q-20 -22 -52.5 -46t-59.5 -36zM569 249zM857 232q-13 -19 -37 -39t-44 -30q2 -2 4 -8.5t4 -8.5t6.5 -8.5t6.5 -8.5t4 -6.5t5 -6.5l13 -13
q3 -7 8 -13v-26q0 -4 -4 -8q0 -5 -9 -5q-19 3 -38 9q-27 7 -62.5 23.5t-58.5 32.5q-38 -7 -77 -9h-13q-43 0 -98.5 16.5t-91.5 39.5h39q68 1 133 22q26 7 60.5 23.5t56.5 32.5q21 15 45 41.5t36 48.5q13 21 21.5 53.5t8.5 57.5v1q1 5 1 11q0 27 -9 54q21 -13 46 -35.5
t40 -42.5q14 -18 24 -47t10 -52v-3q0 -22 -8.5 -50t-21.5 -46zM857 232z" />
    <glyph glyph-name="uni041F" unicode="&#x41f;" horiz-adv-x="1000" 
d="M851 635q1 -4 1 -8q0 -62 -12.5 -148t-30.5 -145q-16 -57 -51.5 -131.5t-69.5 -122.5q-40 -57 -112.5 -120t-135.5 -95l-14 -8l-15 8q-62 32 -134.5 95t-112.5 120q-34 48 -69.5 122.5t-51.5 131.5q-18 60 -30.5 146t-12.5 148v7l1 31l29 3q59 8 137.5 35t129.5 58
q57 33 107 75l22 20l22 -20q49 -42 106 -75q52 -31 130 -58t137 -35l29 -3zM426 -62v-1q52 29 113 83.5t96 103.5q30 44 62.5 112t47.5 120q14 50 25.5 122t13.5 123q-69 12 -134 36q-67 26 -129 62q-50 29 -95 65q-45 -36 -95 -65q-62 -36 -129 -62q-66 -24 -134 -35
q1 -53 13 -125.5t27 -122.5q15 -52 47 -119.5t63 -111.5q34 -48 95 -102.5t113 -82.5z" />
    <glyph glyph-name="uni0420" unicode="&#x420;" horiz-adv-x="1000" 
d="M542 399q69 0 117.5 -49t48.5 -118t-48.5 -118t-117.5 -49v-83q0 -17 -12.5 -29.5t-29.5 -12.5t-29.5 12.5t-12.5 29.5v83h-125q-17 0 -29 12.5t-12 29.5t12 29.5t29 12.5h125v166q-69 0 -117.5 49t-48.5 118t48.5 118t117.5 49v83q0 17 12.5 29.5t29.5 12.5t29.5 -12.5
t12.5 -29.5v-83h125q17 0 29 -12.5t12 -29.5t-12 -29.5t-29 -12.5h-125v-166zM375 482q0 -34 24.5 -58.5t58.5 -24.5v166q-34 0 -58.5 -24.5t-24.5 -58.5zM542 149q34 0 58.5 24.5t24.5 58.5t-24.5 58.5t-58.5 24.5v-166z" />
    <glyph glyph-name="uni0421" unicode="&#x421;" horiz-adv-x="1000" 
d="M833 65q18 0 30 -12t12 -29.5t-12 -29.5t-30 -12h-125q-109 0 -212.5 73.5t-140.5 176.5h-147q-17 0 -29 12t-12 29.5t12 29.5t29 12h128q-3 21 -3 42t3 42h-86q-17 0 -29.5 12t-12.5 29.5t12.5 29.5t29.5 12h105q37 103 140.5 176.5t212.5 73.5h125q18 0 30 -12
t12 -29.5t-12 -29.5t-30 -12h-125q-76 0 -153 -49t-110 -118h305q17 0 29.5 -12t12.5 -29.5t-12.5 -29.5t-29.5 -12h-330q-3 -21 -3 -42t3 -42h288q18 0 30 -12t12 -29.5t-12 -29.5t-30 -12h-263q33 -69 110 -118t153 -49h125z" />
    <glyph glyph-name="uni0422" unicode="&#x422;" horiz-adv-x="1000" 
d="M346 620q-4 -8 -13 -13.5t-18 -5.5q-15 0 -25 10.5t-10 24.5q0 8 4 16q12 23 36.5 49t47 39.5t56.5 23.5t60 10q94 0 160 -66.5t66 -159.5q0 -33 -14.5 -74.5t-35.5 -66.5l33 -9q11 -3 18.5 -12.5t7.5 -21.5q0 -14 -10 -24t-24 -10q-5 0 -10 1l-79 21q-38 -22 -83 -28
l149 -40q11 -3 18 -12.5t7 -20.5q0 -15 -10 -25t-24 -10q-4 0 -9 1l-259 70q-6 -5 -11 -11q-19 -19 -32.5 -51t-13.5 -59q0 -65 46 -110.5t110 -45.5q38 0 77.5 22.5t58.5 55.5q4 7 12.5 12.5t17.5 5.5q14 0 24.5 -10.5t10.5 -24.5q0 -10 -5 -18q-28 -47 -85 -79.5
t-111 -32.5q-93 0 -159 66t-66 159q0 33 14.5 74.5t34.5 66.5l-32 9q-11 3 -18 13t-7 20q0 15 10 25t24 10q5 0 9 -1l78 -21q39 22 84 28l-150 40q-10 3 -17.5 12.5t-7.5 20.5q0 15 10 25t24 10q5 0 9 -1l260 -70q5 5 11 10q19 19 32.5 51.5t13.5 59.5q0 65 -46 110.5
t-110 45.5q-40 0 -80.5 -24.5t-58.5 -59.5z" />
    <glyph glyph-name="uni0423" unicode="&#x423;" horiz-adv-x="1000" 
d="M742.5 379q18.5 0 31.5 -13t13 -31q0 -96 -47.5 -177t-128.5 -128.5t-177 -47.5q-19 0 -31.5 13t-12.5 31v238l-113 -56q-9 -5 -19 -5h-1q-18 0 -31 13t-13 31q0 11 7 22.5t17 16.5l153 76v78l-113 -56q-9 -5 -19 -5h-1q-18 0 -31 13t-13 31q0 11 7 22.5t17 16.5l153 77
v149q0 18 12.5 31t31 13t31.5 -13t13 -31v-105l112 56q11 6 23 6q18 0 31 -13t13 -31q0 -12 -8 -24t-19 -17l-152 -76v-78l112 56q9 4 17 4q19 0 31.5 -13t12.5 -31q0 -11 -6 -22t-15 -16l-152 -76v-234q91 15 155.5 91.5t64.5 169.5q0 18 13 31t31.5 13z" />
    <glyph glyph-name="uni0424" unicode="&#x424;" horiz-adv-x="1000" 
d="M1000 347q0 -96 -37 -182.5t-100 -149.5t-150 -100t-182 -37q-106 0 -222 63t-173 153h118q46 -51 127.5 -86.5t149.5 -35.5q102 0 188.5 50t136.5 136.5t50 188t-50 188t-136.5 137t-188.5 50.5q-68 0 -149.5 -36t-127.5 -87h-118q57 90 172 153t221 63h1q95 0 182 -37
t150 -99.5t100.5 -149.5t37.5 -182zM219 525v-138h137v-81h-137v-137h-82v137h-137v81h137v138h82zM726 359q15 -13 26 -37t11 -44q0 -5 -1 -10v-34q0 -56 -30 -86.5t-84 -30.5t-84 30.5t-30 86.5v34q-1 5 -1 10q0 20 11 44t27 37q-16 12 -26.5 35.5t-10.5 43.5v9v14
q0 56 30 86.5t84 30.5t84 -30.5t30 -86.5v-14q1 -5 1 -9q0 -20 -11 -43.5t-26 -35.5zM616 276v-41q0 -26 8.5 -34t23.5 -8q31 0 33 44v40q0 26 -9 34t-24 8q-32 0 -32 -43zM679 435v24q0 26 -8.5 35t-23.5 9t-24 -9t-9 -35v-24q0 -24 9 -31.5t24 -7.5q14 -2 23 6t9 33z
M438 569l1 4h58v-451h-83v335h-53v62h7q5 -1 10 -1q21 0 38.5 15t21.5 36z" />
    <glyph glyph-name="uni0425" unicode="&#x425;" horiz-adv-x="1000" 
d="M1000 357v-5q0 -100 -39 -191t-105 -157.5t-157 -106t-191 -40.5q-115 0 -238 70.5t-181 169.5h88q51 -69 148.5 -117.5t182.5 -49.5q113 2 209 58.5t152 153.5t56 210v5v8q0 113 -55.5 208.5t-151.5 151t-208 55.5q-87 0 -184 -48.5t-149 -117.5h-88q57 100 179.5 171.5
t238.5 71.5h1q100 -1 191 -41t157 -106.5t105 -158t39 -191.5v-3zM203 390h138v-66h-138v-140h-69v140h-134v66h134v140h69v-140zM390 160v57q0 30 15.5 55.5t37 44t43 38t37 47.5t15.5 62q0 25 -11 35.5t-25 10.5q-15 0 -26 -11.5t-11 -34.5v-17h-72v30q0 26 10.5 45t27 29
t34.5 14.5t37 4.5q3 1 6 1q41 0 70 -29t29 -69q0 -2 -1 -3q0 -36 -10.5 -65.5t-26.5 -48.5t-34.5 -37t-34.5 -31t-27 -30.5t-11 -37.5h148v-60h-220zM695 160v344h-59v60h131v-404h-72z" />
    <glyph glyph-name="uni0426" unicode="&#x426;" horiz-adv-x="1000" 
d="M774 330v-1q0 -9 0.5 -19.5t7.5 -37.5t20 -50t41.5 -50.5t68.5 -46.5q-12 -35 -33 -76.5t-50.5 -85.5t-68.5 -73.5t-77 -30.5q-30 0 -82 20t-88 20q-39 0 -91.5 -19.5t-77.5 -20.5q-38 -1 -78 30t-71.5 78.5t-54 91.5t-35.5 79q-13 37 -22 90t-10 91q0 71 22.5 129
t59.5 93.5t82 54.5t93 20q33 0 94.5 -22t75.5 -22q11 0 44.5 13t75.5 24.5t77 8.5q49 -1 104.5 -30t83.5 -69q-46 -24 -78.5 -78t-32.5 -106v-5zM648 696q-71 -83 -155 -77v15q0 34 16.5 77t40.5 68q25 28 69.5 51t81.5 27q1 -10 1 -20q0 -34 -15.5 -75.5t-38.5 -65.5z" />
    <glyph glyph-name="uni0427" unicode="&#x427;" horiz-adv-x="1000" 
d="M1000 337v-480l-554 80v400h554zM411 337v-395l-411 60v335h411zM1000 857v-484h-554v405zM411 773v-400h-411v341z" />
    <glyph glyph-name="uni0428" unicode="&#x428;" horiz-adv-x="1000" 
d="M138 401v231h691v-503v-3q0 -15 -10.5 -26.5t-24.5 -12.5h-85v-158q-1 -30 -22 -51t-52 -21h-2q-26 0 -45 16q-12 9 -20 25.5t-8 30.5v158h-151v-158q0 -30 -21.5 -52t-52.5 -22t-52.5 22t-21.5 52v158h-88q-15 2 -25.5 13.5t-10.5 25.5q0 2 1 3v272zM899.5 660
q17.5 0 30 -12.5t12.5 -29.5v-169q-1 -17 -13.5 -29t-29.5 -12t-29 12t-13 29v169q0 17 12.5 29.5t30 12.5zM67.5 660q17.5 0 29.5 -12.5t12 -29.5v-169q0 -17 -12.5 -29t-29.5 -12t-29.5 12t-12.5 29v169q0 17 12.5 29.5t30 12.5zM654 813q42 -11 75 -28t50.5 -34t29 -36.5
t15 -31.5t4.5 -23h-690q1 11 4.5 23t15 31.5t29 36.5t50.5 34.5t75 27.5l-57 38q-2 2 4 5q3 1 5 1t4 -1l58 -39q73 15 147 15h10h9q75 0 148 -16l59 40q2 3 8 0t4 -5zM331.5 725q17.5 0 29.5 7t12 16.5t-12 16.5t-29.5 7t-29.5 -7t-12 -16.5t12 -16.5t29.5 -7zM635.5 725
q17.5 0 29.5 7t12 16.5t-12 16.5t-29.5 7t-29.5 -7t-12 -16.5t12 -16.5t29.5 -7z" />
    <glyph glyph-name="uni0429" unicode="&#x429;" horiz-adv-x="1000" 
d="M500 257q-2 0 -8 1t-9 1h-44l56 -111q3 -7 3 -15q0 -14 -9 -23l-40 -40q-10 -10 -23 -10q-4 0 -7 1q-7 1 -14.5 7.5t-9.5 13.5l-67 177h-10q-7 0 -12 5t-5 11v17h-49q-7 0 -12 5t-5 11v100q0 7 5 11.5t12 4.5h50v17q0 7 4.5 11.5t11.5 4.5h165q3 0 9.5 1t7.5 1v-202z
M762 582q3 -4 3 -9v-430q0 -5 -3 -8q-1 -1 -1 -2q-3 -4 -7 -5q-3 -1 -6 -1t-7 1l-1 1q-2 1 -4 3l-1 1q-33 39 -92 74.5t-110 44.5v212q51 10 110 45t92 75h1q3 3 7 5h2q2 1 3 1q3 0 5 -1h1q4 -2 7 -6q1 0 1 -1z" />
    <glyph glyph-name="uni042A" unicode="&#x42a;" horiz-adv-x="1000" 
d="M703 335q13 -16 22 -43t9 -48v-1v-1q0 -21 -7.5 -48t-18.5 -45q-11 -19 -33 -37.5t-42 -25.5q-56 -21 -116 -21h-14h-3v-66q-1 -8 -7.5 -13.5t-14.5 -5.5t-14.5 5.5t-7.5 13.5v66h-143q-18 0 -31.5 13.5t-13.5 32.5v523v1q0 18 13 31.5t32 13.5h142v34q2 9 8.5 14.5
t14.5 5.5t14.5 -5.5t7.5 -14.5v-34q11 1 22 1q31 0 70 -14.5t63 -34.5q19 -18 32.5 -50t14.5 -58v-2q0 -40 -21 -73q-10 -16 -28.5 -32.5t-35.5 -24.5q22 -5 47.5 -22t38.5 -35zM350 562v-139h106v184h-61q-19 0 -32 -13t-13 -32zM395 139l61 1v210h-106v-166q0 -19 13 -32
t32 -13zM500 607v-184q6 -1 12 -1q18 0 42 7t39 17q12 10 20.5 27.5t8.5 32.5v7v7q0 16 -8.5 34.5t-19.5 28.5q-16 10 -40.5 17t-43.5 7h-10zM615 167h1q14 12 23.5 33.5t9.5 39.5v4v6q0 18 -10 39.5t-24 33.5q-19 11 -47.5 19t-50.5 8h-15v-211q8 -1 17 -1q22 0 50 8.5
t46 20.5z" />
    <glyph glyph-name="uni042B" unicode="&#x42b;" horiz-adv-x="1000" 
d="M351 661q6 1 13 1q30 0 67 -13.5t60 -32.5q20 -20 34.5 -53t14.5 -61v-5v-4q0 -18 -7 -41t-17 -38q-14 -22 -35 -37l-5 -5l6 -4q26 -19 44 -46q11 -17 18.5 -42.5t7.5 -45.5v-2v-1q0 -20 -7 -46t-16 -43q-10 -18 -29.5 -37t-37.5 -28q-19 -10 -48 -17t-50 -7h-7h-237
q-12 0 -20 9q-7 8 -7 18v1v552q0 12 7 20q8 8 20 8h231zM189 578v-168h157h1q16 0 36 7t33 17q11 9 18.5 25.5t7.5 31.5v5v6q0 14 -7.5 30t-17.5 25q-32 21 -70 21h-9h-149zM426 164h-1q12 12 20 32t8 36.5t-8 36.5t-20 32q-13 11 -33.5 19t-37.5 8q-4 0 -8 -1h-157v-190
h164q17 0 38.5 8t34.5 19zM691 528q19 0 32.5 -13.5t14.5 -32.5v-16l8 6q17 14 44 23.5t49 9.5h7h19q18 0 30 -12t12 -29.5t-12 -29.5t-30 -12h-32h-9q-14 0 -31.5 -6.5t-28.5 -16.5q-10 -11 -17.5 -29t-7.5 -33q0 -4 1 -7v-229q0 -20 -14 -33.5t-33.5 -13.5t-33.5 13.5
t-14 33.5v381q0 19 13.5 32.5t32.5 13.5z" />
    <glyph glyph-name="uni042C" unicode="&#x42c;" horiz-adv-x="1000" 
d="M754 53q-25 -34 -42 -46q-37 -25 -87 -25q-71 7 -121 29q-62 28 -121 33q-44 0 -71 -33q-6 -12 -19.5 -15.5t-25.5 3.5q-13 6 -18 19.5t1 25.5l4 5q8 16 34 41q26 21 74 30h13l4 12q13 38 13 75q0 31 -13 63h-112q-18 -4 -32.5 9t-17.5 32q-3 18 9.5 32.5t31.5 17.5h9h66
v-4q-44 76 -50 158q0 45 18.5 86t52.5 69q73 66 171 66q96 7 163 -66q49 -50 62 -121v-9q0 -25 -25 -41q-16 -7 -32 1.5t-22 27.5v4q0 7 -2 15.5t-5.5 18.5t-5.5 16q-18 38 -53 58t-76 17q-67 0 -108.5 -41.5t-41.5 -112.5q6 -81 50 -150h133q16 0 29.5 -11t16.5 -27v-16
q-3 -17 -15 -27.5t-31 -10.5h-91q8 -42 12 -67q0 -11 -2 -23.5t-5.5 -27.5t-4.5 -23l-4 -17l75 -25q59 -25 89.5 -25.5t51.5 21.5q2 1 4.5 4.5t5.5 6.5t7 5q17 17 33 17q13 0 21 -4q4 -4 5 -19t-5 -31z" />
    <glyph glyph-name="uni042D" unicode="&#x42d;" horiz-adv-x="1000" 
d="M538 424v141q-1 4 -6 5q-16 2 -32.5 2t-32.5 -2h-6v-144q0 -9 -6 -15.5t-15 -6.5h-1q-9 0 -15 6.5t-6 15.5v131q-5 0 -9 -3q-61 -21 -109 -82.5t-55 -125.5q-2 -17 -2 -35q0 -89 61.5 -163t148.5 -90l27 -4h4h4h289q12 -3 20.5 -15t8.5 -24.5t-8.5 -24t-20.5 -15.5h-3h-3
h-0.5h-1.5h-541q-18 0 -30 12t-12 30q1 16 13 27.5t28 11.5h1h54q0 2 -4 5q-48 41 -82 114.5t-34 135.5q0 65 35 139t84 115q25 22 64.5 43t71.5 29v79q0 9 6 15t15 6h1q9 0 15 -6t6 -15v-67h3.5h2.5q17 2 34 2t34 -2h4v67q0 9 6 15t15 6h1q8 0 14.5 -6t6.5 -15v-76h4
q87 -23 160 -102t88 -168q4 -26 5 -52v-3q0 -16 -11.5 -27t-27.5 -11h-1q-16 0 -27 11t-11 27v19q-4 51 -37 107t-76 84q-27 19 -58 29q-9 4 -8 3q2 -3 5 -3v-132q0 -9 -6.5 -15.5t-15.5 -6.5h-1q-12 0 -18 11v2q-5 5 -7 11z" />
    <glyph glyph-name="uni042E" unicode="&#x42e;" horiz-adv-x="1000" 
d="M714 647h-166q22 -36 29 -78h135h2q18 0 31.5 -13t13.5 -32v0v-1q0 -19 -13 -32t-32 -13h-131v-21q0 -83 -58.5 -141.5t-140.5 -58.5h-1v0l200 -203q13 -13 13 -31.5t-13 -31.5t-32 -14q-18 1 -31 14l-262 256q-17 17 -17 41v1v0q0 24 17 41t41 17h68q51 0 88 36.5
t37 88.5v5h-206q-19 1 -32 14t-13 31v2q0 18 13.5 31t31.5 13h196q-13 33 -46.5 56t-68.5 23h-81q-18 0 -31 12.5t-14 30.5v2q0 18 13 31t32 14h428q19 -1 32 -14t13 -31v-2q-1 -18 -14 -30.5t-31 -12.5z" />
    <glyph glyph-name="uni042F" unicode="&#x42f;" horiz-adv-x="1000" 
d="M928 104q-14 -19 -37.5 -43t-42.5 -37q-16 -11 -41 -18t-44 -7q-25 0 -48 8q-16 4 -100 33q-8 1 -8 9q0 1 1 2q1 9 10 9h1q15 -2 29 -6q26 -7 53 -7q42 0 89.5 23.5t73.5 56.5q8 10 32 42q9 10 15 26.5t6 29.5q0 15 -7.5 33t-17.5 28l-68 84q-9 9 -9 23q0 16 13 27
q10 8 23 8q16 0 27 -12q12 -13 33 -40t31 -38q11 -14 21 -36t13 -39q1 -7 1 -14q0 -34 -14.5 -76t-34.5 -69zM190 117q-7 -1 -14 -1q-35 0 -70 8q-36 8 -61 40t-25 69q0 14 3 27q5 26 18.5 60t27.5 57q7 11 20 11h4q13 -1 17 -14q1 -4 1 -7q0 -9 -5 -15q-21 -34 -31 -72
q-4 -9 -4 -19q0 -12 7.5 -25.5t18.5 -20.5q30 -20 67 -21q14 -1 29 -1q43 0 85 12q26 6 44.5 29t18.5 50q0 2 -1 4q0 53 -6 105q-5 45 -10 87q-9 68 -26 135q-5 18 -5 36q0 28 12 53q9 16 21 4q20 -19 42 -34q10 -6 17 -17.5t7 -22.5q0 -15 -10 -27q-3 -5 -7 -9
q-14 -14 -14 -33q0 -7 2 -14l12 -90q4 -30 10 -89q8 -52 9 -104v-4q0 -25 -12.5 -55.5t-29.5 -48.5q-15 -14 -40.5 -25.5t-46.5 -13.5q-34 -4 -68 -4h-7zM708 291l-8 41q-5 19 -16 35q-17 20 -17 46q0 24 14 42q10 15 22 3q14 -13 25.5 -37t13.5 -43q6 -44 6 -88
q0 -35 -3 -69q-1 -5 -4 -8t-8 -3h-1h-203h-1q-24 0 -43 17t-20 42q-5 26 -14 110q-4 44 -16 101q-8 42 -15 99q-1 5 -1 11q0 16 7 30q2 6 13 31q1 8 9.5 8t10.5 -8q23 -65 30 -133q2 -30 15 -184v-16q1 -11 9 -18t19 -7h176v-2zM598 145l42 39q9 8 18 0l34 -42q10 -11 0 -21
l-34 -32q-10 -9 -18 0l-31 35q-4 4 -8 0l-38 -34q-3 -5 -8 -5t-8 5l-39 44q-4 3 -4 8t4 8q13 12 39 35q3 4 7 4q7 0 10 -6q13 -13 34 -38z" />
    <glyph glyph-name="uni0430" unicode="&#x430;" horiz-adv-x="1000" 
d="M470 402l-50 -50l194 -294q8 -12 8 -27q0 -20 -14.5 -34.5t-34.5 -14.5h-1h-2h-1q-11 0 -23 6.5t-18 15.5l-180 276l-60 -60v-188q0 -21 -14.5 -35.5t-35.5 -14.5v0q-21 0 -35.5 14.5t-14.5 35.5v650q0 21 14.5 35.5t35.5 14.5v0q21 0 35.5 -14.5t14.5 -35.5v-325
l354 360q15 15 36 15v0q21 0 35.5 -14.5t14.5 -35.5t-15 -35l-178 -180l269 -409q8 -12 8 -27q0 -20 -14.5 -34.5t-34.5 -14.5h-1v0q-11 0 -23 6.5t-18 16.5z" />
    <glyph glyph-name="uni0431" unicode="&#x431;" horiz-adv-x="1000" 
d="M167 687q0 34 5.5 39.5t39.5 5.5h609q34 0 39.5 -5.5t5.5 -39.5t-5.5 -40t-39.5 -6h-609q-34 0 -39.5 6t-5.5 40zM562 512v-484q0 -19 -13.5 -32.5t-32.5 -13.5t-32 13.5t-13 32.5v484h91zM167 551q0 34 5.5 39.5t39.5 5.5h609q34 0 39.5 -5.5t5.5 -39.5t-5.5 -39.5
t-39.5 -5.5h-609q-34 0 -39.5 5.5t-5.5 39.5z" />
    <glyph glyph-name="uni0432" unicode="&#x432;" horiz-adv-x="1000" 
d="M284 662q0 20 14 34t34 14h1q20 0 33.5 -14t13.5 -34v-550q0 -15 11 -25.5t26 -10.5h263q15 0 25.5 -10.5t10.5 -25.5v0q0 -15 -10.5 -25.5t-25.5 -10.5h-360q-15 0 -25.5 10.5t-10.5 25.5v622z" />
    <glyph glyph-name="uni0433" unicode="&#x433;" horiz-adv-x="1000" 
d="M780 669q27 -26 46 -71t19 -83v-7v-8q0 -38 -19 -83t-46 -72q-28 -26 -74.5 -44.5t-85.5 -18.5h-9h-211v-107h268q14 0 23.5 -9.5t9.5 -23.5t-9.5 -24t-23.5 -10h-268v-81q-1 -18 -14 -30.5t-31 -12.5t-31 12.5t-13 30.5v81h-111q-13 0 -23 10t-10 24t10 23.5t23 9.5h111
v107h-111q-13 0 -23 10t-10 24v12q0 13 10 23t23 10h111v338q0 13 9.5 23t23.5 10h267h9q38 0 85 -18.5t75 -44.5zM710 401q17 19 29.5 50t12.5 56.5t-12.5 56t-29.5 49.5q-19 17 -49.5 28.5t-54.5 11.5h-6h-200v-292h200h6q24 0 54.5 11.5t49.5 28.5z" />
    <glyph glyph-name="uni0434" unicode="&#x434;" horiz-adv-x="1000" 
d="M452 570h-143v-458q0 -21 -15 -36t-36 -15q-21 1 -35.5 16t-14.5 35v458h-143q-18 0 -30 12.5t-12 29.5t12 29.5t30 12.5h387q17 0 29.5 -12.5t12.5 -29.5t-12.5 -29.5t-29.5 -12.5zM534 127v459v1q0 27 19.5 46.5t46.5 20.5h108h7q30 0 68.5 -10.5t64.5 -24.5
q26 -15 53.5 -44t40.5 -56q14 -28 24 -71t10 -74v-2v-30v-5q0 -32 -10 -74t-24 -70q-14 -26 -42 -55t-54 -44q-26 -14 -66.5 -24t-71.5 -10h-4h-103q-27 0 -47 19.5t-20 47.5zM637 502v-291q0 -28 20 -47.5t47 -19.5q5 -1 10 -1q29 0 62.5 15t52.5 36q19 26 32.5 66t13.5 72
v8v32v9q0 31 -12 71.5t-30 67.5q-18 21 -51 36t-61 15q-6 0 -13 -1h-4q-27 0 -47 -19.5t-20 -47.5v-1z" />
    <glyph glyph-name="uni0435" unicode="&#x435;" horiz-adv-x="1000" 
d="M972 123q11 -12 18.5 -31.5t7.5 -35.5t-8 -36t-18 -32l-95 -94q-37 -37 -103 -36.5t-145.5 33t-171.5 97t-178 150.5q-69 69 -124.5 142.5t-90.5 141t-52 128t-11 109t34 77.5l94 95q12 11 32 18.5t36 7.5t35.5 -7.5t31.5 -18.5l140 -140q11 -11 19.5 -30.5t8.5 -35.5
q0 -28 -18.5 -53.5t-44.5 -34.5q-26 -8 -44.5 -33.5t-18.5 -52.5q0 -12 3 -24q28 -79 104 -155t155 -104q10 -2 21 -2q27 0 53 18t36 44q9 26 34.5 44.5t53.5 18.5q16 0 35.5 -8.5t30.5 -19.5z" />
    <glyph glyph-name="uni0436" unicode="&#x436;" horiz-adv-x="1000" 
d="M125 701v125q0 13 9 22t22 9t22.5 -9t9.5 -22v-125q0 -13 -9.5 -22t-22.5 -9t-22 9t-9 22zM656 670q-13 0 -22 9t-9 22v125q0 13 9 22t22 9t22.5 -9t9.5 -22v-125q0 -13 -9.5 -22t-22.5 -9zM1000 107q0 -104 -73 -177t-177 -73t-177 73t-73 177t73 177t177 73t177 -73
t73 -177zM938 107q0 78 -55 132.5t-133 54.5t-133 -54.5t-55 -132.5t55 -132.5t133 -54.5t133 54.5t55 132.5zM250 482v-125h-125v125h125zM125 170v124h125v-124h-125zM312 357v125h126v-125h-126zM312 170v124h126v-124h-126zM62 113q0 -6 6 -6h370v-63h-370
q-28 0 -48 20.5t-20 48.5v550q0 29 20 49t48 20h26v-31q0 -26 18 -44.5t44 -18.5t44.5 18.5t18.5 44.5v31h375v-31q0 -26 18 -44.5t44 -18.5t44.5 18.5t18.5 44.5v31h26q28 0 47.5 -20t19.5 -49v-243h-62v124h-688v-431zM625 357h-125v125h125v-125zM844 107q13 0 22 -9
t9 -22t-9 -22.5t-22 -9.5h-125q-13 0 -22 9.5t-9 22.5v125q0 13 9 22t22 9t22 -9t9 -22v-94h94z" />
    <glyph glyph-name="uni0437" unicode="&#x437;" horiz-adv-x="1000" 
d="M944 88q0 -5 -3 -8t-8 -3h-418v271h109q5 -7 13 -7h177q9 0 13 7h117v-260zM621 196v119q0 6 -4.5 10.5t-11 4.5t-10.5 -4.5t-4 -10.5v-119q0 -6 4 -10.5t10.5 -4.5t11 4.5t4.5 10.5zM814 142q6 0 10.5 4.5t4.5 11t-4.5 11t-10.5 4.5h-177q-6 0 -10.5 -4.5t-4.5 -11
t4.5 -11t10.5 -4.5h177zM67 77q-5 0 -8 3t-3 8v260h83v-147q0 -6 4.5 -10.5t10.5 -4.5t10.5 4.5t4.5 10.5v147h209v-147q0 -6 4.5 -10.5t11 -4.5t10.5 4.5t4 10.5v147h77v-271h-418zM185 175q-6 0 -10.5 -4.5t-4.5 -11t4.5 -11t10.5 -4.5h177q6 0 10.5 4.5t4.5 11t-4.5 11
t-10.5 4.5h-177zM637 371q-8 0 -13 -8h-109v274h418q5 0 8 -3t3 -8v-263h-117q-4 8 -13 8h-177zM832 516v-119q0 -6 4.5 -10.5t11 -4.5t11 4.5t4.5 10.5v119q0 7 -4.5 11t-11 4t-11 -4t-4.5 -11zM637 570q-6 0 -10.5 -4.5t-4.5 -11t4.5 -11t10.5 -4.5h177q6 0 10.5 4.5
t4.5 11t-4.5 11t-10.5 4.5h-177zM139 513v-150h-83v263q0 5 3 8t8 3h418v-274h-77v150q0 6 -4 10.5t-10.5 4.5t-11 -4.5t-4.5 -10.5v-150h-209v150q0 6 -4.5 10.5t-10.5 4.5t-10.5 -4.5t-4.5 -10.5zM185 570q-6 0 -10.5 -4.5t-4.5 -11t4.5 -11t10.5 -4.5h177q6 0 10.5 4.5
t4.5 11t-4.5 11t-10.5 4.5h-177zM973 693q11 0 19 -8t8 -20v-616q0 -12 -8 -20t-19 -8h-946q-11 0 -19 8t-8 20v616q0 12 8 20t19 8h946zM970 51v612h-940v-612h940z" />
    <glyph glyph-name="uni0438" unicode="&#x438;" horiz-adv-x="1000" 
d="M5 457q0 2 1.5 7t7.5 18.5t15 26t27.5 29.5t42.5 30q34 20 97 35t146 22.5t184.5 -6.5t192.5 -51q235 -96 215 -97q-12 4 -33.5 10.5t-89 23t-134 28t-159.5 18.5t-176.5 2t-174.5 -29t-162 -67zM5 397q71 -44 161 -68t176.5 -28t174.5 1t162 19t132 27.5t90 24.5l33 10
l2 -1q-10 -12 -217 -96q-91 -37 -192.5 -51t-184.5 -7t-146 22.5t-97 35.5q-38 21 -61.5 49t-27.5 45zM932 441h-923q6 4 17.5 11t54 24.5t91 30t129.5 21t169 4.5t210 -26.5t252 -64.5zM929 412q-130 -43 -251.5 -66t-211 -25.5t-168 4t-130.5 21.5t-90 29t-55 25l-17 11z
M994 620q1 -16 1 -31q0 -60 -12 -119q-32 24 -66 44q8 26 28.5 56t42.5 47zM994 233l-6 2q-22 17 -42.5 47t-28.5 56q66 41 66 44q12 -58 12 -118q0 -16 -1 -31zM176 235q47 -12 113.5 -20.5t113.5 -8.5q79 0 157 14v-98q-1 -14 -11 -24t-24 -10h-313q-14 0 -24.5 10
t-11.5 24v113zM266 137h-1q5 0 8.5 3.5t3.5 8.5v1q0 5 -3.5 8t-8.5 3h-38h-1q-5 0 -8.5 -3.5t-3.5 -8.5t4 -8.5t9 -3.5h39zM389 137h-1q6 0 9.5 3.5t3.5 8.5t-3.5 8.5t-8.5 3.5h-39q-5 0 -8.5 -3.5t-3.5 -8.5t3.5 -8.5t8.5 -3.5h39zM512 137h-2q6 0 9.5 3.5t3.5 8.5
t-3.5 8.5t-8.5 3.5h-1h-38q-5 0 -8.5 -3.5t-3.5 -8.5q0 -4 3.5 -8t8.5 -4h40z" />
    <glyph glyph-name="uni0439" unicode="&#x439;" horiz-adv-x="1000" 
d="M737 561h1q11 -23 11 -49q0 -13 -3 -26q-19 -64 -71 -75q-24 -53 -62 -96q-20 -14 -42 -25q-32 -12 -67 -12h-2q-33 0 -64 12q-22 11 -42 25q-38 44 -63 96q-52 11 -70 75q-5 15 -5 30q0 26 13 49q5 12 17 17v25q-32 43 -9 104q8 28 33.5 47.5t54.5 19.5q17 30 46 50
q20 11 50.5 19.5t53.5 9.5q32 -1 72 -15.5t65 -34.5q12 -9 21 -20t15.5 -23.5t11.5 -24.5t7.5 -26t4.5 -24.5t2.5 -23.5t0.5 -19.5v-16v-10.5q4 -17 4 -36v-5q1 -1 4.5 -4l7 -6t4.5 -7zM696 494q13 32 -4 38q-2 4 -4 6t-4 2h-1q-6 0 -11 8t-5 17v34q-129 12 -188 37
q-36 17 -66 42q-11 -20 -25 -38q-28 -26 -63 -41v-30q1 -3 1 -6q0 -8 -5 -13t-13 -6q0 -1 -1 -2.5t-3 -2.5t-4 -3q-3 -10 -3 -20.5t3 -21.5q14 -41 38 -41h4q14 0 21 -13q1 -2 14 -26.5t25 -42t23 -26.5q9 -14 25 -17q23 -10 48 -10t48 10q4 2 12.5 8t12.5 9q16 17 34.5 45
t27.5 50q5 14 19 14q3 0 6 -1q29 0 38 41zM846 190q41 -17 70 -61t30 -89v-162v-1q0 -8 -6 -14t-14 -6h-1h-846h-1q-8 0 -14 6t-6 14v1v162v3q0 45 29.5 88t70.5 59l200 80q4 3 9 3t8 -3q2 0 4 -2.5t4.5 -5.5t4.5 -5l50 -137l8 29l-17 37v4q0 9 4 17q9 8 21 8h96q17 0 21 -8
q6 -5 6 -13q0 -4 -2 -8l-17 -37l9 -29l50 137l12 13q4 3 8.5 3t8.5 -3zM837 -26v71v1q0 8 -5.5 13.5t-13.5 5.5h-1h-155h-1q-8 0 -13.5 -5.5t-5.5 -13.5v-1v-71v-2q0 -8 5.5 -13.5t13.5 -5.5h1h155h1q8 0 13.5 5.5t5.5 13.5v2zM837 -26z" />
    <glyph glyph-name="uni043A" unicode="&#x43a;" horiz-adv-x="1079" 
d="M715 362q10 -42 16 -63q-44 -8 -89 -17q-17 -5 -52 -12q-41 -11 -41 -18v-1q0 -2 1 -3h-9q-2 9 -2 19v4q1 16 5 31q3 7 9 10q37 20 63 52q24 30 44.5 79.5t24.5 88.5q2 16 0 20t-16 9q-30 10 -56 38t-33 58l-0.5 0.5l-1.5 1.5q-6 -5 -16.5 -13t-19 -14.5t-16.5 -12.5
q-34 -28 -88.5 -48t-98.5 -21q-7 -1 -22 -2q3 -64 30 -121q12 -28 38 -59t51 -47q18 -9 24 -27q3 -12 3 -25q0 -9 -2 -19v-3h-10l1 1v4v2q-2 2 -5 4q-26 12 -55 17q-24 5 -58 12l-63 12q4 8 6 17q14 46 19 95q1 17 1 34q0 31 -4 62t-4 62q0 37 6 74q12 52 58.5 95t99.5 52
q25 5 51 5q24 0 56 -8t54 -19q39 -20 67.5 -65t30.5 -89q1 -20 1 -40q0 -40 -4 -81q-3 -22 -3 -45q0 -44 9 -86zM519 394l34 -20q-8 -9 -22.5 -16t-26.5 -7h-2.5h-3.5q-12 0 -26.5 7t-22.5 16l34 20l18 -9zM482 373q9 -6 19.5 -6t18.5 6q-9 4 -19 4t-19 -4zM853 -110h-696
q-35 0 -10 91q30 104 92 181q44 54 79 54h47q-1 -13 -6 -41.5t-7.5 -44t-4 -41.5t1.5 -40.5t10.5 -33t21.5 -28.5t37 -17.5t54 -8.5q10 -2 17 22.5t8 50.5l2 25q4 -98 24 -98q25 0 45.5 4.5t34.5 10.5t24 18.5t16 22.5t8 29t2.5 31.5t-2 35.5t-4 36t-6.5 39q-3 19 -4 28h55
q65 -2 129 -111q54 -94 57 -168q2 -47 -25 -47z" />
    <glyph glyph-name="uni043B" unicode="&#x43b;" horiz-adv-x="1000" 
d="M416 693q6 0 10.5 -4t4.5 -10v-21q0 -6 -4.5 -10.5t-10.5 -4.5t-10.5 4.5t-4.5 10.5v21q0 6 4.5 10t10.5 4zM587 581q-10 -10 -20.5 0t0.5 21l14 14q11 11 21 0.5t0 -20.5zM664 416h-20q-6 0 -10.5 4t-4.5 10.5t4.5 10.5t10.5 4h20q6 0 10.5 -4t4.5 -10.5t-4.5 -10.5
t-10.5 -4zM407 197q0 6 4.5 10.5t10.5 4.5t10.5 -4.5t4.5 -10.5v-21q0 -6 -4.5 -10t-10.5 -4t-10.5 4t-4.5 10v21zM230.5 244.5q-10.5 10.5 -0.5 20.5l15 15q10 10 20.5 0t0.5 -21l-15 -14q-10 -11 -20.5 -0.5zM189 416h-21q-6 0 -10.5 4t-4.5 10.5t4.5 10.5t10.5 4h21
q6 0 10 -4t4 -10.5t-4 -10.5t-10 -4zM245 581l-15 15q-10 10 0.5 20.5t20.5 -0.5l15 -14q10 -11 -0.5 -21t-20.5 0zM401 459v104q0 6 4.5 10.5t10.5 4.5t10.5 -4.5t4.5 -10.5v-138q0 -10 -9 -14t-16 3l-52 50q-10 10 0 20.5t21 0.5zM830 384q75 -30 122.5 -98t47.5 -151
q0 -102 -67 -178q-10 -11 -21 -1t-1 21q60 67 60 158q0 98 -70 167.5t-168.5 69.5t-168 -69.5t-69.5 -167.5q0 -100 70 -169t168 -69q75 0 137 43q12 8 20 -4t-4 -20q-69 -49 -153 -49q-79 0 -144.5 42.5t-97.5 111.5q-37 -7 -75 -7q-113 0 -208.5 56t-151.5 152t-56 208.5
t56 208.5t151.5 152t208.5 56q144 0 257 -89q12 -9 3 -20.5t-21 -2.5q-105 82 -239 82q-105 0 -194 -51.5t-141 -141t-52 -194t52 -194t141 -141t194 -51.5q32 0 64 5q-11 30 -13 63q-26 -4 -51 -4q-88 0 -162.5 43.5t-117.5 117.5q-7 13 5.5 20.5t20.5 -5.5
q39 -68 107.5 -107.5t146.5 -39.5q25 0 50 4q2 102 72 176t170 84q2 15 2 30q0 121 -86.5 207t-207.5 86t-207 -86t-86 -207q0 -50 15 -96q2 -6 -0.5 -11t-8.5 -7q-2 -1 -4 -1q-11 0 -14 10q-18 50 -18 105q0 87 43.5 161.5t118 117.5t162 43t161.5 -43t117.5 -117.5
t43.5 -161.5q0 -14 -1 -29q32 -1 63 -9q2 19 2 38q0 74 -27.5 143t-78.5 123q-10 10 0.5 20t20.5 0q55 -58 84.5 -132t29.5 -154q0 -24 -2 -47zM777 279v-175q0 -18 -13 -31t-31 -13t-31 13t-13 31v175q0 18 13 31t31 13t31 -13t13 -31zM747 104v175q0 6 -4 10t-10 4
t-10.5 -4t-4.5 -10v-175q0 -6 4.5 -10.5t10.5 -4.5t10 4.5t4 10.5zM733 53q18 0 31 -13t13 -31v-19q0 -18 -13 -30.5t-31 -12.5t-31 12.5t-13 30.5v19q0 18 13 31t31 13zM747 -10v19q0 6 -4 10.5t-10 4.5t-10.5 -4.5t-4.5 -10.5v-19q0 -6 4.5 -10t10.5 -4t10 4t4 10z" />
    <glyph glyph-name="uni043C" unicode="&#x43c;" horiz-adv-x="1000" 
d="M688.949 287.711q4.85474 0 8.2887 -3.43396t3.43396 -8.28479v-317.363q-0.032959 -29.2866 -20.7677 -50.0214t-50.0214 -20.7677h-436.688q-29.2881 0.0314942 -50.0241 20.7663q-20.7359 20.7348 -20.7689 50.0228v296.656l-41.1719 -26.1719
q-2.89759 -1.8418 -6.28027 -1.8418q-6.43625 0 -9.89746 5.44531l-44.2324 69.5684q-11.0957 17.4947 -11.0957 37.9121q0 38.8668 32.8535 59.8066l67.3008 42.793q-18.1943 7.80955 -29.4111 24.4863q-11.2168 16.6767 -11.2168 37.0987q0 27.7425 19.6397 47.382
t47.3818 19.6395q7.43004 0 14.6221 -1.60254l109.279 -24.3242l32.6367 146.59q4.96286 22.8247 23.3033 37.8225t42.183 14.9978q27.7419 0 47.3807 -19.6388t19.6388 -47.3807q0 -7.58986 -1.67188 -14.9297l-4.97656 -23.8105l62.8223 39.9434
q17.4962 11.0967 37.9131 11.0967q38.8682 0 59.8076 -32.8545l44.2324 -69.5664q1.84277 -2.89824 1.84277 -6.28223q0 -6.43584 -5.44434 -9.89746l-446.445 -283.855h515.553zM494.066 659.289l-144.611 -91.9492l63.3516 -99.6367l184.57 117.355l-37.9453 59.6777
q-10.4906 16.5989 -29.668 20.8164q-5.12536 1.14361 -10.3828 1.14648q-13.7391 -0.00865907 -25.3145 -7.41016zM315.688 686.971l-29.3906 -132.008l104.818 66.8926l9.62109 46.0234q1.05957 4.72167 1.05957 9.51855q0 18.0409 -12.7708 30.812
q-12.7708 12.771 -30.8112 12.771q-15.4331 0 -27.3264 -9.63934t-15.2 -24.3704zM329.672 554.764l-106.951 -68l63.3496 -99.6367l106.953 68zM99.5527 480.998q9.65512 -15.2751 27.3047 -19.1543l8.51953 -1.89844l105.121 65.8965l-94.6973 21.082
q-4.47599 0.996094 -9.44434 0.996094q-18.0403 0 -30.8112 -12.7709t-12.7709 -30.8112q0 -12.6811 6.77832 -23.3398zM78.5469 255.18l187.744 119.371l-63.3496 99.6367l-147.787 -93.9629q-21.8936 -13.9573 -21.8936 -40.0244q0 -13.7614 7.34277 -25.3408z
M305.799 -88.7227l0.00585938 352.996h-159.961v-305.645q0.0227051 -19.5901 13.8921 -33.4595t33.4595 -13.8921h112.604zM454.752 -88.7227v352.996h-125.516v-352.996h125.516zM677.23 -41.3711v305.645h-199.041v-352.996h151.693q19.5888 0.0241701 33.4569 13.8933
q13.8681 13.8691 13.8908 33.4583zM819.986 394.166l23.7402 -23.1445q3.52832 -3.43688 3.52832 -8.39355q0 -10.1419 -10.0225 -11.5967l-32.8125 -4.76953l-14.6738 -29.7363q-3.22843 -6.5459 -10.5029 -6.5459q-7.28817 0 -10.5166 6.5459l-14.6758 29.7363
l-32.8125 4.76953q-10.0371 1.45686 -10.0371 11.5977q0 4.94143 3.54297 8.39258l23.7461 23.1445l-5.60547 32.6855q-0.15625 0.908717 -0.15625 1.97363q0 4.85083 3.43396 8.28479t8.28479 3.43396q2.89511 0 5.44141 -1.33887l29.3535 -15.4297l29.3516 15.4297
q2.57695 1.35352 5.44727 1.35352q4.85083 0 8.28479 -3.43396t3.43396 -8.28479q0 -1.00425 -0.167969 -1.98828zM794.953 368.58l15.416 2.24023l-11.1562 10.873q-3.53809 3.44948 -3.53809 8.37988q0 1.01061 0.168945 1.99316l2.63281 15.3555l-13.7871 -7.24805
q-2.54848 -1.34082 -5.46484 -1.34082q-2.89293 0 -5.44141 1.34082l-13.7891 7.24805l2.63477 -15.3555q0.170898 -0.993909 0.170898 -1.98145q0 -4.93986 -3.54199 -8.3916l-11.1562 -10.873l15.418 -2.24023q6.09489 -0.885385 8.82227 -6.41016l6.89453 -13.9688
l6.89258 13.9688q2.72723 5.52447 8.82422 6.41016zM954.768 555.633q8.95605 -2.17933 8.95605 -11.3818q0 -5.60169 -4.37012 -9.12598l-25.8066 -20.8145l2.50977 -33.0664q0.0214844 -0.283033 0.0214844 -0.878906q0 -4.85083 -3.43396 -8.28479t-8.28479 -3.43396
q-3.48258 0 -6.39062 1.89648l-27.7871 18.1191l-30.6641 -12.6055q-2.14966 -0.882812 -4.45312 -0.882812q-4.85083 0 -8.28479 3.43396t-3.43396 8.28479q0 1.56465 0.404297 3.06055l8.64648 32.0117l-21.4668 25.2754q-2.77734 3.27123 -2.77734 7.58496
q0 11.1445 11.1211 11.7041l33.1191 1.66602l17.4043 28.2285q3.43754 5.57422 9.9707 5.57422q8.07779 0 10.9551 -7.55078l11.8184 -30.9824zM914.033 528.68l12.1211 9.77539l-15.1387 3.67969q-5.98538 1.45364 -8.18164 7.20898l-5.55078 14.5547l-8.17383 -13.2598
q-3.23435 -5.24337 -9.38867 -5.55078l-15.5586 -0.78125l10.084 -11.873q2.78516 -3.27859 2.78516 -7.58203q0 -1.56465 -0.404297 -3.06055l-4.0625 -15.0391l14.4062 5.92188q2.12588 0.873047 4.46777 0.873047q3.4816 0 6.38965 -1.89648l13.0488 -8.51367
l-1.17188 15.5332q-0.0419922 0.555027 -0.0419922 0.883789q0 5.60169 4.37012 9.12598zM782.422 746.135l-21.4766 25.2754q-2.77734 3.27123 -2.77734 7.58496q0 11.1462 11.123 11.7041l33.1211 1.66406l17.4023 28.2266q3.43612 5.57617 9.97168 5.57617
q8.07462 0 10.9541 -7.54883l11.8164 -30.9844l32.2266 -7.83008q8.95605 -2.17933 8.95605 -11.3818q0 -5.60169 -4.37012 -9.12598l-25.8125 -20.8164l2.50977 -33.0664q0.0214844 -5.73169 -3.41248 -9.16565t-8.28479 -3.43396q-3.48258 0 -6.39062 1.89648
l-27.7754 18.123l-30.6641 -12.6074q-2.15203 -0.883789 -4.4541 -0.883789q-4.85083 0 -8.28479 3.43396t-3.43396 8.28479q0 1.56246 0.405273 3.06348zM809.748 769.268l-15.5664 -0.779297l10.084 -11.875q2.78516 -3.27859 2.78516 -7.58301
q0 -1.56413 -0.404297 -3.06152l-4.0625 -15.0391l14.4062 5.92188q2.12588 0.873047 4.46777 0.873047q3.4816 0 6.38965 -1.89648l13.0488 -8.51367l-1.17188 15.5352q-0.0419922 0.553201 -0.0419922 0.882812q0 5.60238 4.37207 9.12695l12.125 9.77734
l-15.1367 3.67773q-5.98587 1.45531 -8.18164 7.21094l-5.55078 14.5547l-8.17578 -13.2598q-3.23303 -5.24384 -9.38672 -5.55273zM569.816 392.479q53.2439 33.5167 121.949 16.5176q8.80371 -2.266 8.80371 -11.3486q0 -4.85027 -3.43404 -8.28451t-8.28471 -3.43424
q-1.37892 0 -2.71582 0.317383q-18.8541 4.66375 -36.517 4.78673q-17.6629 0.122975 -30.5919 -2.94049t-24.7777 -8.82589q-11.8487 -5.76243 -19.1833 -11.2581q-7.33461 -5.49571 -13.6925 -11.956q-6.35789 -6.46028 -8.42149 -9.20069
q-2.0636 -2.74041 -3.26136 -4.60358q-3.44352 -5.43066 -9.88965 -5.43066q-4.85074 0 -8.28474 3.4344t-3.43401 8.28532q0 3.40094 1.81543 6.26367q13.1309 20.8184 39.9199 37.6777zM792.188 516.584q-88.4004 36.6876 -156.953 -16.0781
q-32.0683 -25.0339 -51.6406 -60.6934q-3.22669 -6.49609 -10.4893 -6.49609q-4.85074 0 -8.28474 3.4344t-3.43401 8.28532q0 2.75177 1.21582 5.2002q21.9459 40.5405 58.3359 68.8398q79.2913 61.0493 180.234 19.1562q7.21973 -2.99549 7.21973 -10.8193
q0 -4.85074 -3.4344 -8.28474t-8.28532 -3.43401q-2.33982 0 -4.48438 0.889648zM660.504 603.398q2.62489 8.10352 11.1494 8.10352q1.85007 0 3.59473 -0.5625q6.06317 -1.93237 16.4468 -4.13822q10.3836 -2.20584 34.8955 -1.03021q24.5118 1.17564 41.8218 11.4751
q30.8265 18.3375 39.4746 63.8477q1.78566 9.58203 11.5205 9.58203q4.85083 0 8.28479 -3.43396t3.43396 -8.28479q0 -1.13627 -0.213867 -2.23828q-10.6408 -55.9807 -50.6523 -79.6875q-26.264 -15.5684 -62.5293 -15.5684q-25.3594 0.012915 -49.6836 7.17969
q-8.1084 2.62316 -8.1084 11.1514q0 1.85557 0.56543 3.60449zM505.6 300.607q-8.73062 0.0109865 -14.9119 6.1927q-6.18132 6.18172 -6.19157 14.9128q0 8.73651 6.18369 14.921q6.18369 6.18448 14.9198 6.18448q8.73633 0 14.9209 -6.18457t6.18457 -14.9209
t-6.18457 -14.9209t-14.9209 -6.18457zM505.6 324.045q-2.31968 -0.0123481 -2.33203 -2.33203q0 -2.33594 2.33398 -2.33594t2.33398 2.33398t-2.33594 2.33398zM671.654 683.42q-8.73193 0.00952148 -14.9139 6.19153t-6.19153 14.9139q0 8.73633 6.18457 14.9209
t14.9209 6.18457t14.9209 -6.18457t6.18457 -14.9209t-6.18457 -14.9209t-14.9209 -6.18457zM671.654 706.857q-2.32163 -0.00882077 -2.33398 -2.33203q0 -2.33594 2.33398 -2.33594t2.33398 2.33398t-2.33398 2.33398zM969.129 699.514
q8.73178 -0.00878891 14.9139 -6.19048q6.18208 -6.18169 6.1916 -14.913q0 -8.73651 -6.18466 -14.922q-6.18466 -6.18545 -14.9208 -6.18545q-8.73633 0 -14.9209 6.18457t-6.18457 14.9209t6.18457 14.9209t14.9209 6.18457zM969.129 676.076
q2.32516 0.00882747 2.33398 2.33398q0 2.33398 -2.33398 2.33398t-2.33398 -2.33398t2.33398 -2.33398zM496.961 419.447q-0.00878883 -8.72877 -6.18702 -14.9102q-6.17823 -6.18139 -14.9067 -6.19531q-8.74805 0 -14.9326 6.18457t-6.18457 14.9209t6.18457 14.9209
t14.9209 6.18457t14.9209 -6.18457t6.18457 -14.9209zM475.867 417.104q2.32319 0.011533 2.33203 2.34375q-0.0106129 2.32422 -2.33398 2.32422q-2.33398 0 -2.33398 -2.33398t2.33594 -2.33398zM934.375 406.195q8.73193 -0.00952148 14.9139 -6.19153t6.19153 -14.9139
q0 -8.73633 -6.18457 -14.9209t-14.9209 -6.18457t-14.9209 6.18457t-6.18457 14.9209t6.18457 14.9209t14.9209 6.18457zM934.375 382.758q2.32163 0.00882077 2.33398 2.33203q0 2.33203 -2.33203 2.33203t-2.33203 -2.33203q0 -2.33026 2.33008 -2.33203z" />
  </font>
</defs>
</svg>
