<svg width="24" height="24" viewBox="0 0 24 24" fill="none" xmlns="http://www.w3.org/2000/svg">
<path fill-rule="evenodd" clip-rule="evenodd" d="M14.58 2.58L19.41 7.41C19.79 7.79 20 8.3 20 8.83V20C20 21.1 19.1 22 18 22H5.99C4.89 22 4 21.1 4 20L4.01 4C4.01 2.9 4.9 2 6 2H13.17C13.7 2 14.21 2.21 14.58 2.58ZM13 8C13 8.55 13.45 9 14 9H18.5L13 3.5V8ZM9.4981 15L11.2981 15L11.2981 12C11.2981 11.45 11.7481 11 12.2981 11C12.8481 11 13.2981 11.45 13.2981 12V15H15.0881C15.5381 15 15.7581 15.54 15.4381 15.85L12.6381 18.64C12.4381 18.83 12.1281 18.83 11.9281 18.64L9.1381 15.85C8.8381 15.54 9.0581 15 9.4981 15Z" fill="white"/>
</svg>
