<svg xmlns="http://www.w3.org/2000/svg" xmlns:xlink="http://www.w3.org/1999/xlink" width="58" height="51.552" viewBox="0 0 58 51.552">
  <defs>
    <filter id="Path_41409" x="0" y="0" width="58" height="51.552" filterUnits="userSpaceOnUse">
      <feOffset input="SourceAlpha"/>
      <feGaussianBlur stdDeviation="3" result="blur"/>
      <feFlood flood-color="#ffb700"/>
      <feComposite operator="in" in2="blur"/>
      <feComposite in="SourceGraphic"/>
    </filter>
    <filter id="Path_41410" x="13.866" y="3.696" width="30.269" height="35.311" filterUnits="userSpaceOnUse">
      <feOffset input="SourceAlpha"/>
      <feGaussianBlur stdDeviation="3" result="blur-2"/>
      <feFlood flood-color="#b48205" flood-opacity="0.302"/>
      <feComposite operator="in" in2="blur-2"/>
      <feComposite in="SourceGraphic"/>
    </filter>
    <filter id="Path_41411" x="17.317" y="2.113" width="23.826" height="32.602" filterUnits="userSpaceOnUse">
      <feOffset input="SourceAlpha"/>
      <feGaussianBlur stdDeviation="3" result="blur-3"/>
      <feFlood flood-color="#b48205" flood-opacity="0.302"/>
      <feComposite operator="in" in2="blur-3"/>
      <feComposite in="SourceGraphic"/>
    </filter>
  </defs>
  <g id="first" transform="translate(9 -32.265)">
    <g id="Group_24100" data-name="Group 24100" transform="translate(0 41.264)">
      <g id="Group_24099" data-name="Group 24099">
        <g transform="matrix(1, 0, 0, 1, -9, -9)" filter="url(#Path_41409)">
          <path id="Path_41409-2" data-name="Path 41409" d="M39.034,54.26a.758.758,0,0,0-.907.085c-.667.6-1.344,1.154-2.044,1.672q.231-.757.4-1.487a6.624,6.624,0,0,0,2.742-3.21,10.018,10.018,0,0,0,.762-4.391.763.763,0,0,0-1.423-.34,26.378,26.378,0,0,1-1.445,2.247c0-.619-.03-1.22-.081-1.8,0-.012,0-.023,0-.035a25.6,25.6,0,0,0-.978-5.319.587.587,0,1,0-1.126.332,24.622,24.622,0,0,1,.742,3.374c-.642-.62-1.3-1.2-2-1.749a.763.763,0,0,0-1.21.8,14.97,14.97,0,0,0,3.408,6.4q-.057.739-.174,1.521a25.477,25.477,0,0,0-1.379-2.176.763.763,0,0,0-1.385.407,14.127,14.127,0,0,0,1.371,6.952q-.266.674-.6,1.37a25.078,25.078,0,0,0-.69-2.466.764.764,0,0,0-.718-.52h-.006a.762.762,0,0,0-.718.507,14,14,0,0,0-.7,7.013q-.454.572-.977,1.145a24.584,24.584,0,0,0,.064-2.568.763.763,0,0,0-1.376-.433,14.479,14.479,0,0,0-2.767,6.557,11.132,11.132,0,0,1-3.261,1.819A11.118,11.118,0,0,0,20,71.262a11.119,11.119,0,0,0-2.561-1.289,11.131,11.131,0,0,1-3.261-1.819A14.479,14.479,0,0,0,11.411,61.6a.763.763,0,0,0-1.376.433A24.561,24.561,0,0,0,10.1,64.6q-.523-.572-.977-1.145a14,14,0,0,0-.7-7.013.762.762,0,0,0-.718-.507H7.7a.764.764,0,0,0-.718.52,25.081,25.081,0,0,0-.69,2.466q-.332-.695-.6-1.37A14.125,14.125,0,0,0,7.063,50.6a.763.763,0,0,0-1.385-.407A25.517,25.517,0,0,0,4.3,52.365q-.117-.78-.174-1.521a14.97,14.97,0,0,0,3.408-6.4.763.763,0,0,0-1.21-.8c-.7.55-1.358,1.129-2,1.749a24.608,24.608,0,0,1,.742-3.374.587.587,0,0,0-1.126-.332A25.6,25.6,0,0,0,2.962,47c0,.012,0,.025,0,.037-.05.577-.077,1.177-.081,1.8A26.362,26.362,0,0,1,1.435,46.59a.758.758,0,0,0-.84-.362.756.756,0,0,0-.583.7,10.018,10.018,0,0,0,.762,4.391,6.624,6.624,0,0,0,2.742,3.21q.169.728.4,1.487c-.7-.518-1.377-1.071-2.043-1.672A.763.763,0,0,0,.623,55.1C1.3,57.711,3.27,60.562,6.17,61.21q.372.645.81,1.3c-.818-.29-1.625-.619-2.437-1A.763.763,0,0,0,3.571,62.6c1.34,2.186,3.868,4.245,6.672,4.245.138,0,.276-.006.415-.016a24.466,24.466,0,0,0,2.621,2.114,12.522,12.522,0,0,0,3.746,2.126A10.171,10.171,0,0,1,18.977,72c-.607.465-1.31,1.049-2.143,1.795a.587.587,0,1,0,.783.875c.967-.865,1.74-1.5,2.383-1.973.644.476,1.416,1.108,2.383,1.973a.587.587,0,1,0,.783-.875c-.834-.746-1.537-1.33-2.144-1.795a10.177,10.177,0,0,1,1.953-.927,12.52,12.52,0,0,0,3.744-2.125,24.486,24.486,0,0,0,2.622-2.115c.139.01.277.016.415.016,2.8,0,5.331-2.059,6.672-4.245a.763.763,0,0,0-.972-1.089c-.812.377-1.619.706-2.437,1q.438-.654.81-1.3c2.9-.648,4.868-3.5,5.547-6.107A.757.757,0,0,0,39.034,54.26Zm-2.195-1.582c.016-.1.032-.207.047-.31.009-.063.017-.126.025-.188.013-.1.026-.192.037-.288.008-.064.015-.128.022-.192.011-.093.021-.186.03-.279q.009-.1.018-.19.013-.139.023-.276c0-.034.006-.068.009-.1a26.768,26.768,0,0,0,1.71-2.338,7.166,7.166,0,0,1-1.943,4.307C36.825,52.775,36.832,52.727,36.839,52.679Zm-35.6-4.162a26.777,26.777,0,0,0,1.709,2.338c0,.035.006.072.009.107q.01.132.022.265c.006.066.012.131.019.2.009.09.019.181.029.272.007.065.015.131.023.2.011.095.024.19.037.285.009.063.017.126.026.19.015.1.031.209.048.315.007.047.014.094.021.141A7.164,7.164,0,0,1,1.239,48.517Zm4.65,3.471a13.114,13.114,0,0,1-.769,3.947L5.077,55.8c-.025-.079-.049-.159-.073-.238-.019-.064-.037-.127-.055-.19s-.045-.156-.066-.233-.035-.126-.051-.189-.041-.152-.06-.228-.032-.125-.047-.188-.037-.15-.054-.225l-.021-.094A25.362,25.362,0,0,1,5.888,51.988Zm-1.833-3.28c0-.067,0-.134,0-.2,0-.084,0-.168.006-.251,0-.067,0-.133.007-.2q.005-.123.011-.245.005-.1.011-.2.008-.121.017-.241c0-.034.005-.067.008-.1.605-.651,1.223-1.254,1.866-1.822a13.877,13.877,0,0,1-1.931,3.661c0-.05,0-.1,0-.148C4.055,48.879,4.055,48.793,4.056,48.708ZM2.262,56.221A27.715,27.715,0,0,0,4.569,57.9c.013.033.027.066.04.1q.047.12.1.24l.076.184c.034.081.069.162.1.244l.08.182c.038.085.077.17.116.254.027.058.053.116.08.174.043.092.088.185.133.278.021.043.04.085.062.128A7.08,7.08,0,0,1,2.262,56.221ZM7.7,58.1a12.94,12.94,0,0,1,.4,3.975l-.077-.113c-.048-.07-.1-.14-.141-.21l-.106-.162-.132-.205-.1-.164-.124-.2-.1-.165-.116-.2-.048-.084A24.922,24.922,0,0,1,7.7,58.1ZM5.459,63.188a28.291,28.291,0,0,0,2.691.931l.066.082.166.205.125.152.175.208.127.148c.062.072.126.143.189.215l.125.14c.071.078.143.156.215.234l.092.1A7.107,7.107,0,0,1,5.459,63.188Zm7.221,3.84-.2-.163-.151-.126-.189-.159-.149-.129-.18-.158-.146-.131L11.491,66l-.073-.068a24.405,24.405,0,0,1-.21-2.537,13.442,13.442,0,0,1,1.581,3.717Zm15.9-1.093L28.51,66l-.175.161-.144.129-.181.159-.15.129-.187.158-.155.129-.194.156-.115.092A13.441,13.441,0,0,1,28.791,63.4,24.405,24.405,0,0,1,28.581,65.935ZM32.3,58.1a24.94,24.94,0,0,1,.544,2.472l-.048.083-.116.2-.1.168c-.04.066-.081.132-.122.2l-.105.168-.129.2-.11.168-.134.2-.083.122A12.94,12.94,0,0,1,32.3,58.1Zm2.245,5.086A7.109,7.109,0,0,1,30.57,65.6l.1-.112c.068-.074.136-.147.2-.221l.131-.147c.062-.07.124-.139.184-.209l.13-.151.173-.2.126-.154.164-.2.067-.083A28.253,28.253,0,0,0,34.541,63.188Zm-.527-17.736c.643.568,1.261,1.171,1.866,1.822,0,.035.006.07.008.105q.009.117.016.235.006.1.012.2.006.122.011.245c0,.066.005.131.007.2,0,.084,0,.169.006.254,0,.066,0,.131,0,.2,0,.087,0,.174,0,.262,0,.049,0,.1,0,.146A13.87,13.87,0,0,1,34.013,45.452Zm.1,6.535a25.342,25.342,0,0,1,1.241,2.224l-.022.1q-.026.11-.053.221-.023.095-.047.19c-.019.076-.04.152-.06.229s-.033.124-.051.187c-.022.079-.045.159-.068.239-.018.061-.035.121-.053.182-.025.083-.051.166-.076.249l-.04.129A13.117,13.117,0,0,1,34.111,51.988Zm.532,7.695c.021-.042.04-.084.06-.126.045-.094.091-.187.134-.28.027-.057.053-.114.079-.172.039-.086.079-.171.117-.257l.079-.18c.036-.082.071-.164.106-.246l.075-.181q.05-.122.1-.244c.013-.032.026-.064.039-.1a27.73,27.73,0,0,0,2.307-1.679A7.08,7.08,0,0,1,34.643,59.683Z" transform="translate(9 -32.26)" fill="#ffb700"/>
        </g>
      </g>
    </g>
    <g id="Group_24102" data-name="Group 24102" transform="translate(13.866 44.961)">
      <g id="Group_24101" data-name="Group 24101" transform="translate(0 0)">
        <g transform="matrix(1, 0, 0, 1, -22.87, -12.7)" filter="url(#Path_41410)">
          <path id="Path_41410-2" data-name="Path 41410" d="M188.955,121.887h-2.2V120.58a.587.587,0,0,0-1.174,0v1.894a.587.587,0,0,0,.587.587h2.413v1.618h-8.712v-1.618h2.855a.587.587,0,0,0,.587-.587v-9.412c0-.1,0-.581,0-1.083a.587.587,0,0,0-.964-.452l-2.529,2.122-1.079-1.431,3.1-2.643a.587.587,0,0,0-.759-.9l-3.264,2.778a.953.953,0,0,0-.144,1.3l1.345,1.783a.953.953,0,0,0,1.373.156l1.741-1.461v8.65h-2.647a.8.8,0,0,0-.8.8v2.374a.8.8,0,0,0,.8.8h9.469a.8.8,0,0,0,.8-.8v-2.374A.8.8,0,0,0,188.955,121.887Z" transform="translate(-154.62 -95.84)" fill="#ffb700"/>
        </g>
      </g>
    </g>
    <g id="Group_24104" data-name="Group 24104" transform="translate(17.317 43.378)">
      <g id="Group_24103" data-name="Group 24103" transform="translate(0 0)">
        <g transform="matrix(1, 0, 0, 1, -26.32, -11.11)" filter="url(#Path_41411)">
          <path id="Path_41411-2" data-name="Path 41411" d="M226.525,68.326H224.2a.953.953,0,0,0-.616.226l-1.721,1.458a.587.587,0,0,0,.759.9l1.659-1.406H226.3l.009,12.841a.587.587,0,0,0,1.174,0l-.009-13.062A.954.954,0,0,0,226.525,68.326Z" transform="translate(-195.34 -57.21)" fill="#ffb700"/>
        </g>
      </g>
    </g>
  </g>
</svg>
