<?xml version="1.0" standalone="no"?>
<!DOCTYPE svg PUBLIC "-//W3C//DTD SVG 1.1//EN" "http://www.w3.org/Graphics/SVG/1.1/DTD/svg11.dtd" >
<svg xmlns="http://www.w3.org/2000/svg" xmlns:xlink="http://www.w3.org/1999/xlink" version="1.1">
<metadata>
Created by FontForge 20170731 at Tue Jul 12 10:27:42 2022
 By Aleksey,,,
Copyright  2020 by Latinotype Ltda. All rights reserved.
</metadata>
<defs>
<font id="FONTSPRINGDEMO-OrganettoSemiExtRegular" horiz-adv-x="1224" >
  <font-face 
    font-family="FSP DEMO - Organetto SemiExt"
    font-weight="400"
    font-stretch="semi-expanded"
    units-per-em="2048"
    panose-1="0 0 5 5 0 0 0 0 0 0"
    ascent="1638"
    descent="-410"
    x-height="1417"
    cap-height="1417"
    bbox="23 -348 2218 1436"
    underline-thickness="102"
    underline-position="-307"
    unicode-range="U+0020-007E"
  />
<missing-glyph 
d="M207 403q-13 0 -19 -2v-200q4 -2 19 -2q37 0 50 25t13 77q0 54 -13 78t-50 24zM518 330v-49h-82v-78h96v-49h-155v297h155v-52h-96v-69h82zM203 150q-47 0 -74 4v292q61 9 76 9q67 0 96 -37.5t29 -116.5t-29.5 -115t-97.5 -36zM586 451h80l39 -164l38 164h82
q3 -45 13 -297h-60q0 108 -6 213l-41 -168h-55l-41 168h-2q-4 -140 -4 -213h-58q3 156 15 297zM987 150q-60 0 -84 35.5t-24 115.5q0 81 24 117.5t84 36.5t85.5 -37t25.5 -117q0 -79 -25.5 -115t-85.5 -36zM987 403q-29 0 -39 -23.5t-10 -78.5q0 -54 10 -78t39 -24
q30 0 40.5 24t10.5 78q0 55 -10 78.5t-41 23.5zM967 1016q49 0 79.5 -24.5t39 -51t8.5 -53.5q0 -43 -34.5 -72.5t-72.5 -34.5q-213 -23 -340 -147q3 8 9 22t25 53.5t39 75.5t50 80.5t59.5 76t66 53.5t71.5 22zM285 909q39 0 78 -21t69.5 -55t58.5 -74.5t48 -81.5t35 -75
t22 -55l8 -21q-117 148 -319 148q-49 0 -88 30t-39 76q0 53 33.5 91t93.5 38zM643 1214q38 -37 48.5 -102t-2.5 -131t-31.5 -126.5t-35.5 -98.5l-18 -39q20 191 -125 330q-35 35 -42 81.5t24 83.5q23 23 53 34t65 3.5t64 -35.5z" />
    <glyph glyph-name=".notdef" 
d="M207 403q-13 0 -19 -2v-200q4 -2 19 -2q37 0 50 25t13 77q0 54 -13 78t-50 24zM518 330v-49h-82v-78h96v-49h-155v297h155v-52h-96v-69h82zM203 150q-47 0 -74 4v292q61 9 76 9q67 0 96 -37.5t29 -116.5t-29.5 -115t-97.5 -36zM586 451h80l39 -164l38 164h82
q3 -45 13 -297h-60q0 108 -6 213l-41 -168h-55l-41 168h-2q-4 -140 -4 -213h-58q3 156 15 297zM987 150q-60 0 -84 35.5t-24 115.5q0 81 24 117.5t84 36.5t85.5 -37t25.5 -117q0 -79 -25.5 -115t-85.5 -36zM987 403q-29 0 -39 -23.5t-10 -78.5q0 -54 10 -78t39 -24
q30 0 40.5 24t10.5 78q0 55 -10 78.5t-41 23.5zM967 1016q49 0 79.5 -24.5t39 -51t8.5 -53.5q0 -43 -34.5 -72.5t-72.5 -34.5q-213 -23 -340 -147q3 8 9 22t25 53.5t39 75.5t50 80.5t59.5 76t66 53.5t71.5 22zM285 909q39 0 78 -21t69.5 -55t58.5 -74.5t48 -81.5t35 -75
t22 -55l8 -21q-117 148 -319 148q-49 0 -88 30t-39 76q0 53 33.5 91t93.5 38zM643 1214q38 -37 48.5 -102t-2.5 -131t-31.5 -126.5t-35.5 -98.5l-18 -39q20 191 -125 330q-35 35 -42 81.5t24 83.5q23 23 53 34t65 3.5t64 -35.5z" />
    <glyph glyph-name=".null" horiz-adv-x="0" 
 />
    <glyph glyph-name="nonmarkingreturn" horiz-adv-x="682" 
 />
    <glyph glyph-name="space" unicode=" " horiz-adv-x="634" 
 />
    <glyph glyph-name="exclam" unicode="!" 
d="M207 403q-13 0 -19 -2v-200q4 -2 19 -2q37 0 50 25t13 77q0 54 -13 78t-50 24zM518 330v-49h-82v-78h96v-49h-155v297h155v-52h-96v-69h82zM203 150q-47 0 -74 4v292q61 9 76 9q67 0 96 -37.5t29 -116.5t-29.5 -115t-97.5 -36zM586 451h80l39 -164l38 164h82
q3 -45 13 -297h-60q0 108 -6 213l-41 -168h-55l-41 168h-2q-4 -140 -4 -213h-58q3 156 15 297zM987 150q-60 0 -84 35.5t-24 115.5q0 81 24 117.5t84 36.5t85.5 -37t25.5 -117q0 -79 -25.5 -115t-85.5 -36zM987 403q-29 0 -39 -23.5t-10 -78.5q0 -54 10 -78t39 -24
q30 0 40.5 24t10.5 78q0 55 -10 78.5t-41 23.5zM967 1016q49 0 79.5 -24.5t39 -51t8.5 -53.5q0 -43 -34.5 -72.5t-72.5 -34.5q-213 -23 -340 -147q3 8 9 22t25 53.5t39 75.5t50 80.5t59.5 76t66 53.5t71.5 22zM285 909q39 0 78 -21t69.5 -55t58.5 -74.5t48 -81.5t35 -75
t22 -55l8 -21q-117 148 -319 148q-49 0 -88 30t-39 76q0 53 33.5 91t93.5 38zM643 1214q38 -37 48.5 -102t-2.5 -131t-31.5 -126.5t-35.5 -98.5l-18 -39q20 191 -125 330q-35 35 -42 81.5t24 83.5q23 23 53 34t65 3.5t64 -35.5z" />
    <glyph glyph-name="quotedbl" unicode="&#x22;" 
d="M207 403q-13 0 -19 -2v-200q4 -2 19 -2q37 0 50 25t13 77q0 54 -13 78t-50 24zM518 330v-49h-82v-78h96v-49h-155v297h155v-52h-96v-69h82zM203 150q-47 0 -74 4v292q61 9 76 9q67 0 96 -37.5t29 -116.5t-29.5 -115t-97.5 -36zM586 451h80l39 -164l38 164h82
q3 -45 13 -297h-60q0 108 -6 213l-41 -168h-55l-41 168h-2q-4 -140 -4 -213h-58q3 156 15 297zM987 150q-60 0 -84 35.5t-24 115.5q0 81 24 117.5t84 36.5t85.5 -37t25.5 -117q0 -79 -25.5 -115t-85.5 -36zM987 403q-29 0 -39 -23.5t-10 -78.5q0 -54 10 -78t39 -24
q30 0 40.5 24t10.5 78q0 55 -10 78.5t-41 23.5zM967 1016q49 0 79.5 -24.5t39 -51t8.5 -53.5q0 -43 -34.5 -72.5t-72.5 -34.5q-213 -23 -340 -147q3 8 9 22t25 53.5t39 75.5t50 80.5t59.5 76t66 53.5t71.5 22zM285 909q39 0 78 -21t69.5 -55t58.5 -74.5t48 -81.5t35 -75
t22 -55l8 -21q-117 148 -319 148q-49 0 -88 30t-39 76q0 53 33.5 91t93.5 38zM643 1214q38 -37 48.5 -102t-2.5 -131t-31.5 -126.5t-35.5 -98.5l-18 -39q20 191 -125 330q-35 35 -42 81.5t24 83.5q23 23 53 34t65 3.5t64 -35.5z" />
    <glyph glyph-name="numbersign" unicode="#" 
d="M207 403q-13 0 -19 -2v-200q4 -2 19 -2q37 0 50 25t13 77q0 54 -13 78t-50 24zM518 330v-49h-82v-78h96v-49h-155v297h155v-52h-96v-69h82zM203 150q-47 0 -74 4v292q61 9 76 9q67 0 96 -37.5t29 -116.5t-29.5 -115t-97.5 -36zM586 451h80l39 -164l38 164h82
q3 -45 13 -297h-60q0 108 -6 213l-41 -168h-55l-41 168h-2q-4 -140 -4 -213h-58q3 156 15 297zM987 150q-60 0 -84 35.5t-24 115.5q0 81 24 117.5t84 36.5t85.5 -37t25.5 -117q0 -79 -25.5 -115t-85.5 -36zM987 403q-29 0 -39 -23.5t-10 -78.5q0 -54 10 -78t39 -24
q30 0 40.5 24t10.5 78q0 55 -10 78.5t-41 23.5zM967 1016q49 0 79.5 -24.5t39 -51t8.5 -53.5q0 -43 -34.5 -72.5t-72.5 -34.5q-213 -23 -340 -147q3 8 9 22t25 53.5t39 75.5t50 80.5t59.5 76t66 53.5t71.5 22zM285 909q39 0 78 -21t69.5 -55t58.5 -74.5t48 -81.5t35 -75
t22 -55l8 -21q-117 148 -319 148q-49 0 -88 30t-39 76q0 53 33.5 91t93.5 38zM643 1214q38 -37 48.5 -102t-2.5 -131t-31.5 -126.5t-35.5 -98.5l-18 -39q20 191 -125 330q-35 35 -42 81.5t24 83.5q23 23 53 34t65 3.5t64 -35.5z" />
    <glyph glyph-name="dollar" unicode="$" 
d="M207 403q-13 0 -19 -2v-200q4 -2 19 -2q37 0 50 25t13 77q0 54 -13 78t-50 24zM518 330v-49h-82v-78h96v-49h-155v297h155v-52h-96v-69h82zM203 150q-47 0 -74 4v292q61 9 76 9q67 0 96 -37.5t29 -116.5t-29.5 -115t-97.5 -36zM586 451h80l39 -164l38 164h82
q3 -45 13 -297h-60q0 108 -6 213l-41 -168h-55l-41 168h-2q-4 -140 -4 -213h-58q3 156 15 297zM987 150q-60 0 -84 35.5t-24 115.5q0 81 24 117.5t84 36.5t85.5 -37t25.5 -117q0 -79 -25.5 -115t-85.5 -36zM987 403q-29 0 -39 -23.5t-10 -78.5q0 -54 10 -78t39 -24
q30 0 40.5 24t10.5 78q0 55 -10 78.5t-41 23.5zM967 1016q49 0 79.5 -24.5t39 -51t8.5 -53.5q0 -43 -34.5 -72.5t-72.5 -34.5q-213 -23 -340 -147q3 8 9 22t25 53.5t39 75.5t50 80.5t59.5 76t66 53.5t71.5 22zM285 909q39 0 78 -21t69.5 -55t58.5 -74.5t48 -81.5t35 -75
t22 -55l8 -21q-117 148 -319 148q-49 0 -88 30t-39 76q0 53 33.5 91t93.5 38zM643 1214q38 -37 48.5 -102t-2.5 -131t-31.5 -126.5t-35.5 -98.5l-18 -39q20 191 -125 330q-35 35 -42 81.5t24 83.5q23 23 53 34t65 3.5t64 -35.5z" />
    <glyph glyph-name="percent" unicode="%" 
d="M207 403q-13 0 -19 -2v-200q4 -2 19 -2q37 0 50 25t13 77q0 54 -13 78t-50 24zM518 330v-49h-82v-78h96v-49h-155v297h155v-52h-96v-69h82zM203 150q-47 0 -74 4v292q61 9 76 9q67 0 96 -37.5t29 -116.5t-29.5 -115t-97.5 -36zM586 451h80l39 -164l38 164h82
q3 -45 13 -297h-60q0 108 -6 213l-41 -168h-55l-41 168h-2q-4 -140 -4 -213h-58q3 156 15 297zM987 150q-60 0 -84 35.5t-24 115.5q0 81 24 117.5t84 36.5t85.5 -37t25.5 -117q0 -79 -25.5 -115t-85.5 -36zM987 403q-29 0 -39 -23.5t-10 -78.5q0 -54 10 -78t39 -24
q30 0 40.5 24t10.5 78q0 55 -10 78.5t-41 23.5zM967 1016q49 0 79.5 -24.5t39 -51t8.5 -53.5q0 -43 -34.5 -72.5t-72.5 -34.5q-213 -23 -340 -147q3 8 9 22t25 53.5t39 75.5t50 80.5t59.5 76t66 53.5t71.5 22zM285 909q39 0 78 -21t69.5 -55t58.5 -74.5t48 -81.5t35 -75
t22 -55l8 -21q-117 148 -319 148q-49 0 -88 30t-39 76q0 53 33.5 91t93.5 38zM643 1214q38 -37 48.5 -102t-2.5 -131t-31.5 -126.5t-35.5 -98.5l-18 -39q20 191 -125 330q-35 35 -42 81.5t24 83.5q23 23 53 34t65 3.5t64 -35.5z" />
    <glyph glyph-name="ampersand" unicode="&#x26;" 
d="M207 403q-13 0 -19 -2v-200q4 -2 19 -2q37 0 50 25t13 77q0 54 -13 78t-50 24zM518 330v-49h-82v-78h96v-49h-155v297h155v-52h-96v-69h82zM203 150q-47 0 -74 4v292q61 9 76 9q67 0 96 -37.5t29 -116.5t-29.5 -115t-97.5 -36zM586 451h80l39 -164l38 164h82
q3 -45 13 -297h-60q0 108 -6 213l-41 -168h-55l-41 168h-2q-4 -140 -4 -213h-58q3 156 15 297zM987 150q-60 0 -84 35.5t-24 115.5q0 81 24 117.5t84 36.5t85.5 -37t25.5 -117q0 -79 -25.5 -115t-85.5 -36zM987 403q-29 0 -39 -23.5t-10 -78.5q0 -54 10 -78t39 -24
q30 0 40.5 24t10.5 78q0 55 -10 78.5t-41 23.5zM967 1016q49 0 79.5 -24.5t39 -51t8.5 -53.5q0 -43 -34.5 -72.5t-72.5 -34.5q-213 -23 -340 -147q3 8 9 22t25 53.5t39 75.5t50 80.5t59.5 76t66 53.5t71.5 22zM285 909q39 0 78 -21t69.5 -55t58.5 -74.5t48 -81.5t35 -75
t22 -55l8 -21q-117 148 -319 148q-49 0 -88 30t-39 76q0 53 33.5 91t93.5 38zM643 1214q38 -37 48.5 -102t-2.5 -131t-31.5 -126.5t-35.5 -98.5l-18 -39q20 191 -125 330q-35 35 -42 81.5t24 83.5q23 23 53 34t65 3.5t64 -35.5z" />
    <glyph glyph-name="quotesingle" unicode="'" 
d="M207 403q-13 0 -19 -2v-200q4 -2 19 -2q37 0 50 25t13 77q0 54 -13 78t-50 24zM518 330v-49h-82v-78h96v-49h-155v297h155v-52h-96v-69h82zM203 150q-47 0 -74 4v292q61 9 76 9q67 0 96 -37.5t29 -116.5t-29.5 -115t-97.5 -36zM586 451h80l39 -164l38 164h82
q3 -45 13 -297h-60q0 108 -6 213l-41 -168h-55l-41 168h-2q-4 -140 -4 -213h-58q3 156 15 297zM987 150q-60 0 -84 35.5t-24 115.5q0 81 24 117.5t84 36.5t85.5 -37t25.5 -117q0 -79 -25.5 -115t-85.5 -36zM987 403q-29 0 -39 -23.5t-10 -78.5q0 -54 10 -78t39 -24
q30 0 40.5 24t10.5 78q0 55 -10 78.5t-41 23.5zM967 1016q49 0 79.5 -24.5t39 -51t8.5 -53.5q0 -43 -34.5 -72.5t-72.5 -34.5q-213 -23 -340 -147q3 8 9 22t25 53.5t39 75.5t50 80.5t59.5 76t66 53.5t71.5 22zM285 909q39 0 78 -21t69.5 -55t58.5 -74.5t48 -81.5t35 -75
t22 -55l8 -21q-117 148 -319 148q-49 0 -88 30t-39 76q0 53 33.5 91t93.5 38zM643 1214q38 -37 48.5 -102t-2.5 -131t-31.5 -126.5t-35.5 -98.5l-18 -39q20 191 -125 330q-35 35 -42 81.5t24 83.5q23 23 53 34t65 3.5t64 -35.5z" />
    <glyph glyph-name="parenleft" unicode="(" 
d="M207 403q-13 0 -19 -2v-200q4 -2 19 -2q37 0 50 25t13 77q0 54 -13 78t-50 24zM518 330v-49h-82v-78h96v-49h-155v297h155v-52h-96v-69h82zM203 150q-47 0 -74 4v292q61 9 76 9q67 0 96 -37.5t29 -116.5t-29.5 -115t-97.5 -36zM586 451h80l39 -164l38 164h82
q3 -45 13 -297h-60q0 108 -6 213l-41 -168h-55l-41 168h-2q-4 -140 -4 -213h-58q3 156 15 297zM987 150q-60 0 -84 35.5t-24 115.5q0 81 24 117.5t84 36.5t85.5 -37t25.5 -117q0 -79 -25.5 -115t-85.5 -36zM987 403q-29 0 -39 -23.5t-10 -78.5q0 -54 10 -78t39 -24
q30 0 40.5 24t10.5 78q0 55 -10 78.5t-41 23.5zM967 1016q49 0 79.5 -24.5t39 -51t8.5 -53.5q0 -43 -34.5 -72.5t-72.5 -34.5q-213 -23 -340 -147q3 8 9 22t25 53.5t39 75.5t50 80.5t59.5 76t66 53.5t71.5 22zM285 909q39 0 78 -21t69.5 -55t58.5 -74.5t48 -81.5t35 -75
t22 -55l8 -21q-117 148 -319 148q-49 0 -88 30t-39 76q0 53 33.5 91t93.5 38zM643 1214q38 -37 48.5 -102t-2.5 -131t-31.5 -126.5t-35.5 -98.5l-18 -39q20 191 -125 330q-35 35 -42 81.5t24 83.5q23 23 53 34t65 3.5t64 -35.5z" />
    <glyph glyph-name="parenright" unicode=")" 
d="M207 403q-13 0 -19 -2v-200q4 -2 19 -2q37 0 50 25t13 77q0 54 -13 78t-50 24zM518 330v-49h-82v-78h96v-49h-155v297h155v-52h-96v-69h82zM203 150q-47 0 -74 4v292q61 9 76 9q67 0 96 -37.5t29 -116.5t-29.5 -115t-97.5 -36zM586 451h80l39 -164l38 164h82
q3 -45 13 -297h-60q0 108 -6 213l-41 -168h-55l-41 168h-2q-4 -140 -4 -213h-58q3 156 15 297zM987 150q-60 0 -84 35.5t-24 115.5q0 81 24 117.5t84 36.5t85.5 -37t25.5 -117q0 -79 -25.5 -115t-85.5 -36zM987 403q-29 0 -39 -23.5t-10 -78.5q0 -54 10 -78t39 -24
q30 0 40.5 24t10.5 78q0 55 -10 78.5t-41 23.5zM967 1016q49 0 79.5 -24.5t39 -51t8.5 -53.5q0 -43 -34.5 -72.5t-72.5 -34.5q-213 -23 -340 -147q3 8 9 22t25 53.5t39 75.5t50 80.5t59.5 76t66 53.5t71.5 22zM285 909q39 0 78 -21t69.5 -55t58.5 -74.5t48 -81.5t35 -75
t22 -55l8 -21q-117 148 -319 148q-49 0 -88 30t-39 76q0 53 33.5 91t93.5 38zM643 1214q38 -37 48.5 -102t-2.5 -131t-31.5 -126.5t-35.5 -98.5l-18 -39q20 191 -125 330q-35 35 -42 81.5t24 83.5q23 23 53 34t65 3.5t64 -35.5z" />
    <glyph glyph-name="asterisk" unicode="*" 
d="M207 403q-13 0 -19 -2v-200q4 -2 19 -2q37 0 50 25t13 77q0 54 -13 78t-50 24zM518 330v-49h-82v-78h96v-49h-155v297h155v-52h-96v-69h82zM203 150q-47 0 -74 4v292q61 9 76 9q67 0 96 -37.5t29 -116.5t-29.5 -115t-97.5 -36zM586 451h80l39 -164l38 164h82
q3 -45 13 -297h-60q0 108 -6 213l-41 -168h-55l-41 168h-2q-4 -140 -4 -213h-58q3 156 15 297zM987 150q-60 0 -84 35.5t-24 115.5q0 81 24 117.5t84 36.5t85.5 -37t25.5 -117q0 -79 -25.5 -115t-85.5 -36zM987 403q-29 0 -39 -23.5t-10 -78.5q0 -54 10 -78t39 -24
q30 0 40.5 24t10.5 78q0 55 -10 78.5t-41 23.5zM967 1016q49 0 79.5 -24.5t39 -51t8.5 -53.5q0 -43 -34.5 -72.5t-72.5 -34.5q-213 -23 -340 -147q3 8 9 22t25 53.5t39 75.5t50 80.5t59.5 76t66 53.5t71.5 22zM285 909q39 0 78 -21t69.5 -55t58.5 -74.5t48 -81.5t35 -75
t22 -55l8 -21q-117 148 -319 148q-49 0 -88 30t-39 76q0 53 33.5 91t93.5 38zM643 1214q38 -37 48.5 -102t-2.5 -131t-31.5 -126.5t-35.5 -98.5l-18 -39q20 191 -125 330q-35 35 -42 81.5t24 83.5q23 23 53 34t65 3.5t64 -35.5z" />
    <glyph glyph-name="plus" unicode="+" 
d="M207 403q-13 0 -19 -2v-200q4 -2 19 -2q37 0 50 25t13 77q0 54 -13 78t-50 24zM518 330v-49h-82v-78h96v-49h-155v297h155v-52h-96v-69h82zM203 150q-47 0 -74 4v292q61 9 76 9q67 0 96 -37.5t29 -116.5t-29.5 -115t-97.5 -36zM586 451h80l39 -164l38 164h82
q3 -45 13 -297h-60q0 108 -6 213l-41 -168h-55l-41 168h-2q-4 -140 -4 -213h-58q3 156 15 297zM987 150q-60 0 -84 35.5t-24 115.5q0 81 24 117.5t84 36.5t85.5 -37t25.5 -117q0 -79 -25.5 -115t-85.5 -36zM987 403q-29 0 -39 -23.5t-10 -78.5q0 -54 10 -78t39 -24
q30 0 40.5 24t10.5 78q0 55 -10 78.5t-41 23.5zM967 1016q49 0 79.5 -24.5t39 -51t8.5 -53.5q0 -43 -34.5 -72.5t-72.5 -34.5q-213 -23 -340 -147q3 8 9 22t25 53.5t39 75.5t50 80.5t59.5 76t66 53.5t71.5 22zM285 909q39 0 78 -21t69.5 -55t58.5 -74.5t48 -81.5t35 -75
t22 -55l8 -21q-117 148 -319 148q-49 0 -88 30t-39 76q0 53 33.5 91t93.5 38zM643 1214q38 -37 48.5 -102t-2.5 -131t-31.5 -126.5t-35.5 -98.5l-18 -39q20 191 -125 330q-35 35 -42 81.5t24 83.5q23 23 53 34t65 3.5t64 -35.5z" />
    <glyph glyph-name="comma" unicode="," horiz-adv-x="595" 
d="M317 -225h-141l76 211q-51 11 -87 48.5t-36 92.5q0 63 48.5 104t125.5 41t125.5 -41t48.5 -104q0 -44 -35 -109z" />
    <glyph glyph-name="hyphen" unicode="-" 
d="M207 403q-13 0 -19 -2v-200q4 -2 19 -2q37 0 50 25t13 77q0 54 -13 78t-50 24zM518 330v-49h-82v-78h96v-49h-155v297h155v-52h-96v-69h82zM203 150q-47 0 -74 4v292q61 9 76 9q67 0 96 -37.5t29 -116.5t-29.5 -115t-97.5 -36zM586 451h80l39 -164l38 164h82
q3 -45 13 -297h-60q0 108 -6 213l-41 -168h-55l-41 168h-2q-4 -140 -4 -213h-58q3 156 15 297zM987 150q-60 0 -84 35.5t-24 115.5q0 81 24 117.5t84 36.5t85.5 -37t25.5 -117q0 -79 -25.5 -115t-85.5 -36zM987 403q-29 0 -39 -23.5t-10 -78.5q0 -54 10 -78t39 -24
q30 0 40.5 24t10.5 78q0 55 -10 78.5t-41 23.5zM967 1016q49 0 79.5 -24.5t39 -51t8.5 -53.5q0 -43 -34.5 -72.5t-72.5 -34.5q-213 -23 -340 -147q3 8 9 22t25 53.5t39 75.5t50 80.5t59.5 76t66 53.5t71.5 22zM285 909q39 0 78 -21t69.5 -55t58.5 -74.5t48 -81.5t35 -75
t22 -55l8 -21q-117 148 -319 148q-49 0 -88 30t-39 76q0 53 33.5 91t93.5 38zM643 1214q38 -37 48.5 -102t-2.5 -131t-31.5 -126.5t-35.5 -98.5l-18 -39q20 191 -125 330q-35 35 -42 81.5t24 83.5q23 23 53 34t65 3.5t64 -35.5z" />
    <glyph glyph-name="period" unicode="." horiz-adv-x="608" 
d="M303 -23q-77 0 -124.5 42.5t-47.5 107.5q0 64 47.5 104.5t124.5 40.5t125.5 -41t48.5 -104q0 -65 -48.5 -107.5t-125.5 -42.5z" />
    <glyph glyph-name="slash" unicode="/" 
d="M207 403q-13 0 -19 -2v-200q4 -2 19 -2q37 0 50 25t13 77q0 54 -13 78t-50 24zM518 330v-49h-82v-78h96v-49h-155v297h155v-52h-96v-69h82zM203 150q-47 0 -74 4v292q61 9 76 9q67 0 96 -37.5t29 -116.5t-29.5 -115t-97.5 -36zM586 451h80l39 -164l38 164h82
q3 -45 13 -297h-60q0 108 -6 213l-41 -168h-55l-41 168h-2q-4 -140 -4 -213h-58q3 156 15 297zM987 150q-60 0 -84 35.5t-24 115.5q0 81 24 117.5t84 36.5t85.5 -37t25.5 -117q0 -79 -25.5 -115t-85.5 -36zM987 403q-29 0 -39 -23.5t-10 -78.5q0 -54 10 -78t39 -24
q30 0 40.5 24t10.5 78q0 55 -10 78.5t-41 23.5zM967 1016q49 0 79.5 -24.5t39 -51t8.5 -53.5q0 -43 -34.5 -72.5t-72.5 -34.5q-213 -23 -340 -147q3 8 9 22t25 53.5t39 75.5t50 80.5t59.5 76t66 53.5t71.5 22zM285 909q39 0 78 -21t69.5 -55t58.5 -74.5t48 -81.5t35 -75
t22 -55l8 -21q-117 148 -319 148q-49 0 -88 30t-39 76q0 53 33.5 91t93.5 38zM643 1214q38 -37 48.5 -102t-2.5 -131t-31.5 -126.5t-35.5 -98.5l-18 -39q20 191 -125 330q-35 35 -42 81.5t24 83.5q23 23 53 34t65 3.5t64 -35.5z" />
    <glyph glyph-name="zero" unicode="0" horiz-adv-x="1798" 
d="M760 1436h280q312 0 488 -195t176 -530v-2q0 -336 -176 -531.5t-488 -195.5h-280q-313 0 -489.5 195.5t-176.5 531.5v2q0 334 177 529.5t489 195.5zM760 205h280q202 0 315 134t113 370v2q0 234 -113 367.5t-315 133.5h-280q-203 0 -316.5 -133.5t-113.5 -367.5v-2
q0 -236 113.5 -370t316.5 -134z" />
    <glyph glyph-name="one" unicode="1" horiz-adv-x="882" 
d="M164 1047l-90 208l375 162h237v-1417h-237v1169z" />
    <glyph glyph-name="two" unicode="2" horiz-adv-x="1536" 
d="M502 238l-82 -37h1028v-201h-1352v221l903 512q105 69 151 129.5t46 145.5q0 103 -73.5 160t-204.5 57h-300q-248 0 -323 -205l-215 92q121 324 538 324h300q234 0 368.5 -110t134.5 -314q0 -138 -70 -234.5t-206 -175.5z" />
    <glyph glyph-name="three" unicode="3" horiz-adv-x="1552" 
d="M1176 711q278 -72 278 -346q0 -184 -136 -283.5t-390 -99.5h-307q-211 0 -356 78.5t-199 240.5l208 92q64 -205 347 -205h309q297 0 297 213q0 211 -305 211h-410v189h410q278 0 278 207q0 110 -73.5 165.5t-208.5 55.5h-308q-267 0 -329 -205l-209 92q54 162 194 241
t344 79h303q247 0 379.5 -101.5t132.5 -287.5q0 -262 -249 -336z" />
    <glyph glyph-name="four" unicode="4" 
d="M207 403q-13 0 -19 -2v-200q4 -2 19 -2q37 0 50 25t13 77q0 54 -13 78t-50 24zM518 330v-49h-82v-78h96v-49h-155v297h155v-52h-96v-69h82zM203 150q-47 0 -74 4v292q61 9 76 9q67 0 96 -37.5t29 -116.5t-29.5 -115t-97.5 -36zM586 451h80l39 -164l38 164h82
q3 -45 13 -297h-60q0 108 -6 213l-41 -168h-55l-41 168h-2q-4 -140 -4 -213h-58q3 156 15 297zM987 150q-60 0 -84 35.5t-24 115.5q0 81 24 117.5t84 36.5t85.5 -37t25.5 -117q0 -79 -25.5 -115t-85.5 -36zM987 403q-29 0 -39 -23.5t-10 -78.5q0 -54 10 -78t39 -24
q30 0 40.5 24t10.5 78q0 55 -10 78.5t-41 23.5zM967 1016q49 0 79.5 -24.5t39 -51t8.5 -53.5q0 -43 -34.5 -72.5t-72.5 -34.5q-213 -23 -340 -147q3 8 9 22t25 53.5t39 75.5t50 80.5t59.5 76t66 53.5t71.5 22zM285 909q39 0 78 -21t69.5 -55t58.5 -74.5t48 -81.5t35 -75
t22 -55l8 -21q-117 148 -319 148q-49 0 -88 30t-39 76q0 53 33.5 91t93.5 38zM643 1214q38 -37 48.5 -102t-2.5 -131t-31.5 -126.5t-35.5 -98.5l-18 -39q20 191 -125 330q-35 35 -42 81.5t24 83.5q23 23 53 34t65 3.5t64 -35.5z" />
    <glyph glyph-name="five" unicode="5" horiz-adv-x="1513" 
d="M418 1206l-19 -368h506q527 0 527 -432q0 -202 -132.5 -313t-381.5 -111h-304q-206 0 -347 79t-199 240l211 92q71 -205 335 -205h308q135 0 209.5 57.5t74.5 166.5q0 114 -72 173.5t-235 59.5h-739l35 772h1146v-211h-923z" />
    <glyph glyph-name="six" unicode="6" horiz-adv-x="1568" 
d="M963 -18h-355q-253 0 -391.5 129.5t-138.5 337.5q0 138 42 243t140 203l516 522h293l-596 -592q109 84 279 84h254q227 0 358 -124t131 -341q0 -210 -138 -336t-394 -126zM612 184h346q147 0 228.5 72t81.5 190q0 124 -81.5 198.5t-228.5 74.5h-344q-62 0 -114 -13
t-97.5 -42.5t-71.5 -84t-26 -130.5q0 -117 81 -191t226 -74z" />
    <glyph glyph-name="seven" unicode="7" horiz-adv-x="1478" 
d="M55 1417h1356v-211l-772 -1206h-289l787 1202h-1082v215z" />
    <glyph glyph-name="eight" unicode="8" horiz-adv-x="1591" 
d="M1245 723q124 -44 189 -132.5t65 -211.5q0 -178 -134 -287.5t-382 -109.5h-375q-250 0 -382 109t-132 288q0 124 63 212t187 132q-103 47 -156 130t-53 191q0 174 122.5 283t356.5 109h363q230 0 355.5 -109.5t125.5 -282.5q0 -107 -54.5 -190.5t-158.5 -130.5zM967 1245
h-340q-134 0 -207.5 -60.5t-73.5 -160.5q0 -96 73.5 -156.5t207.5 -60.5h340q133 0 205.5 60.5t72.5 156.5q0 100 -72 160.5t-206 60.5zM621 172h352q143 0 221 61.5t78 165.5q0 107 -77.5 168.5t-221.5 61.5h-352q-146 0 -224 -61.5t-78 -168.5q0 -104 78.5 -165.5
t223.5 -61.5z" />
    <glyph glyph-name="nine" unicode="9" horiz-adv-x="1568" 
d="M793 0h-291l565 549q-111 -66 -254 -66h-256q-216 0 -348.5 130t-132.5 341q-2 219 136.5 350.5t395.5 131.5h355q253 0 390.5 -132.5t137.5 -349.5q0 -130 -42 -232t-136 -200zM608 676h346q62 0 116.5 16t99 48t70.5 87.5t26 128.5q-2 125 -83 202t-225 77h-346
q-147 0 -229 -77.5t-82 -203.5q2 -121 83.5 -199.5t223.5 -78.5z" />
    <glyph glyph-name="colon" unicode=":" horiz-adv-x="608" 
d="M303 717q-77 0 -124.5 41t-47.5 106q0 64 47.5 105t124.5 41t125.5 -41t48.5 -105q0 -65 -48 -106t-126 -41zM303 -23q-77 0 -124.5 42.5t-47.5 107.5q0 64 47.5 104.5t124.5 40.5t125.5 -41t48.5 -104q0 -65 -48.5 -107.5t-125.5 -42.5z" />
    <glyph glyph-name="semicolon" unicode=";" horiz-adv-x="602" 
d="M309 717q-78 0 -126 41t-48 106q0 64 48.5 105t125.5 41t124.5 -41t47.5 -105q0 -65 -47.5 -106t-124.5 -41zM317 -225h-141l76 211q-51 11 -87 48.5t-36 92.5q0 63 48.5 104t125.5 41t125.5 -41t48.5 -104q0 -44 -35 -109z" />
    <glyph glyph-name="less" unicode="&#x3c;" 
d="M207 403q-13 0 -19 -2v-200q4 -2 19 -2q37 0 50 25t13 77q0 54 -13 78t-50 24zM518 330v-49h-82v-78h96v-49h-155v297h155v-52h-96v-69h82zM203 150q-47 0 -74 4v292q61 9 76 9q67 0 96 -37.5t29 -116.5t-29.5 -115t-97.5 -36zM586 451h80l39 -164l38 164h82
q3 -45 13 -297h-60q0 108 -6 213l-41 -168h-55l-41 168h-2q-4 -140 -4 -213h-58q3 156 15 297zM987 150q-60 0 -84 35.5t-24 115.5q0 81 24 117.5t84 36.5t85.5 -37t25.5 -117q0 -79 -25.5 -115t-85.5 -36zM987 403q-29 0 -39 -23.5t-10 -78.5q0 -54 10 -78t39 -24
q30 0 40.5 24t10.5 78q0 55 -10 78.5t-41 23.5zM967 1016q49 0 79.5 -24.5t39 -51t8.5 -53.5q0 -43 -34.5 -72.5t-72.5 -34.5q-213 -23 -340 -147q3 8 9 22t25 53.5t39 75.5t50 80.5t59.5 76t66 53.5t71.5 22zM285 909q39 0 78 -21t69.5 -55t58.5 -74.5t48 -81.5t35 -75
t22 -55l8 -21q-117 148 -319 148q-49 0 -88 30t-39 76q0 53 33.5 91t93.5 38zM643 1214q38 -37 48.5 -102t-2.5 -131t-31.5 -126.5t-35.5 -98.5l-18 -39q20 191 -125 330q-35 35 -42 81.5t24 83.5q23 23 53 34t65 3.5t64 -35.5z" />
    <glyph glyph-name="equal" unicode="=" 
d="M207 403q-13 0 -19 -2v-200q4 -2 19 -2q37 0 50 25t13 77q0 54 -13 78t-50 24zM518 330v-49h-82v-78h96v-49h-155v297h155v-52h-96v-69h82zM203 150q-47 0 -74 4v292q61 9 76 9q67 0 96 -37.5t29 -116.5t-29.5 -115t-97.5 -36zM586 451h80l39 -164l38 164h82
q3 -45 13 -297h-60q0 108 -6 213l-41 -168h-55l-41 168h-2q-4 -140 -4 -213h-58q3 156 15 297zM987 150q-60 0 -84 35.5t-24 115.5q0 81 24 117.5t84 36.5t85.5 -37t25.5 -117q0 -79 -25.5 -115t-85.5 -36zM987 403q-29 0 -39 -23.5t-10 -78.5q0 -54 10 -78t39 -24
q30 0 40.5 24t10.5 78q0 55 -10 78.5t-41 23.5zM967 1016q49 0 79.5 -24.5t39 -51t8.5 -53.5q0 -43 -34.5 -72.5t-72.5 -34.5q-213 -23 -340 -147q3 8 9 22t25 53.5t39 75.5t50 80.5t59.5 76t66 53.5t71.5 22zM285 909q39 0 78 -21t69.5 -55t58.5 -74.5t48 -81.5t35 -75
t22 -55l8 -21q-117 148 -319 148q-49 0 -88 30t-39 76q0 53 33.5 91t93.5 38zM643 1214q38 -37 48.5 -102t-2.5 -131t-31.5 -126.5t-35.5 -98.5l-18 -39q20 191 -125 330q-35 35 -42 81.5t24 83.5q23 23 53 34t65 3.5t64 -35.5z" />
    <glyph glyph-name="greater" unicode="&#x3e;" 
d="M207 403q-13 0 -19 -2v-200q4 -2 19 -2q37 0 50 25t13 77q0 54 -13 78t-50 24zM518 330v-49h-82v-78h96v-49h-155v297h155v-52h-96v-69h82zM203 150q-47 0 -74 4v292q61 9 76 9q67 0 96 -37.5t29 -116.5t-29.5 -115t-97.5 -36zM586 451h80l39 -164l38 164h82
q3 -45 13 -297h-60q0 108 -6 213l-41 -168h-55l-41 168h-2q-4 -140 -4 -213h-58q3 156 15 297zM987 150q-60 0 -84 35.5t-24 115.5q0 81 24 117.5t84 36.5t85.5 -37t25.5 -117q0 -79 -25.5 -115t-85.5 -36zM987 403q-29 0 -39 -23.5t-10 -78.5q0 -54 10 -78t39 -24
q30 0 40.5 24t10.5 78q0 55 -10 78.5t-41 23.5zM967 1016q49 0 79.5 -24.5t39 -51t8.5 -53.5q0 -43 -34.5 -72.5t-72.5 -34.5q-213 -23 -340 -147q3 8 9 22t25 53.5t39 75.5t50 80.5t59.5 76t66 53.5t71.5 22zM285 909q39 0 78 -21t69.5 -55t58.5 -74.5t48 -81.5t35 -75
t22 -55l8 -21q-117 148 -319 148q-49 0 -88 30t-39 76q0 53 33.5 91t93.5 38zM643 1214q38 -37 48.5 -102t-2.5 -131t-31.5 -126.5t-35.5 -98.5l-18 -39q20 191 -125 330q-35 35 -42 81.5t24 83.5q23 23 53 34t65 3.5t64 -35.5z" />
    <glyph glyph-name="question" unicode="?" horiz-adv-x="1583" 
d="M573 1436h312q268 0 418.5 -118t150.5 -357v-3q0 -107 -41.5 -191t-110.5 -134t-151.5 -75.5t-171.5 -25.5h-143v-139h-236v316h244q69 0 132.5 13t122 40t93.5 77.5t35 118.5v3q0 128 -95 190.5t-251 62.5h-312q-198 0 -356 -102l-129 184q201 140 489 140zM717 -23
q-78 0 -126 42.5t-48 107.5q0 64 47.5 104.5t126.5 40.5q77 0 124.5 -40.5t47.5 -104.5q0 -65 -47.5 -107.5t-124.5 -42.5z" />
    <glyph glyph-name="at" unicode="@" 
d="M207 403q-13 0 -19 -2v-200q4 -2 19 -2q37 0 50 25t13 77q0 54 -13 78t-50 24zM518 330v-49h-82v-78h96v-49h-155v297h155v-52h-96v-69h82zM203 150q-47 0 -74 4v292q61 9 76 9q67 0 96 -37.5t29 -116.5t-29.5 -115t-97.5 -36zM586 451h80l39 -164l38 164h82
q3 -45 13 -297h-60q0 108 -6 213l-41 -168h-55l-41 168h-2q-4 -140 -4 -213h-58q3 156 15 297zM987 150q-60 0 -84 35.5t-24 115.5q0 81 24 117.5t84 36.5t85.5 -37t25.5 -117q0 -79 -25.5 -115t-85.5 -36zM987 403q-29 0 -39 -23.5t-10 -78.5q0 -54 10 -78t39 -24
q30 0 40.5 24t10.5 78q0 55 -10 78.5t-41 23.5zM967 1016q49 0 79.5 -24.5t39 -51t8.5 -53.5q0 -43 -34.5 -72.5t-72.5 -34.5q-213 -23 -340 -147q3 8 9 22t25 53.5t39 75.5t50 80.5t59.5 76t66 53.5t71.5 22zM285 909q39 0 78 -21t69.5 -55t58.5 -74.5t48 -81.5t35 -75
t22 -55l8 -21q-117 148 -319 148q-49 0 -88 30t-39 76q0 53 33.5 91t93.5 38zM643 1214q38 -37 48.5 -102t-2.5 -131t-31.5 -126.5t-35.5 -98.5l-18 -39q20 191 -125 330q-35 35 -42 81.5t24 83.5q23 23 53 34t65 3.5t64 -35.5z" />
    <glyph glyph-name="A" unicode="A" horiz-adv-x="1880" 
d="M1061 1417l766 -1417h-254l-172 328h-922l-172 -328h-254l764 1417h244zM1298 530l-358 662l-360 -662h718z" />
    <glyph glyph-name="B" unicode="B" horiz-adv-x="1746" 
d="M1339 719q153 -26 232.5 -106t79.5 -228q0 -197 -136.5 -291t-381.5 -94h-959v1417h905q258 0 387 -92t129 -283q0 -143 -64.5 -219.5t-191.5 -103.5zM1079 1219h-669v-408h671q142 0 211.5 46t69.5 155q0 111 -70 159t-213 48zM410 627v-428h723q144 0 214 50t70 163
q0 215 -289 215h-718z" />
    <glyph glyph-name="C" unicode="C" horiz-adv-x="1732" 
d="M1669 1268l-135 -174q-142 125 -399 125h-291q-240 0 -378 -138t-138 -370v-2q2 -234 139.5 -372t376.5 -138h291q257 0 399 125l135 -174q-100 -88 -229.5 -128t-304.5 -40h-291q-351 0 -551.5 196t-200.5 531v2q0 334 200.5 529.5t551.5 195.5h291q347 0 534 -168z" />
    <glyph glyph-name="D" unicode="D" horiz-adv-x="1857" 
d="M174 1417h854q349 0 543 -189t194 -519v-2q0 -328 -194 -517.5t-543 -189.5h-854v1417zM412 1198v-979h616q240 0 372 130.5t132 357.5v2q0 227 -132 358t-372 131h-616z" />
    <glyph glyph-name="E" unicode="E" horiz-adv-x="1579" 
d="M174 1417h1299v-213h-1063v-393h970v-211h-970v-387h1063v-213h-1299v1417z" />
    <glyph glyph-name="F" unicode="F" horiz-adv-x="1546" 
d="M174 1417h1299v-219h-1063v-420h970v-219h-970v-559h-236v1417z" />
    <glyph glyph-name="G" unicode="G" horiz-adv-x="1871" 
d="M1714 1268l-133 -174q-142 125 -420 125h-301q-251 0 -391.5 -137t-140.5 -371v-2q0 -232 138.5 -371t379.5 -139h289q172 0 284 56.5t133 168.5v113h-434v190h633v-727h-143l-13 184q-116 -202 -473 -202h-291q-344 0 -541.5 196.5t-197.5 530.5v2q0 332 204 528.5
t564 196.5h301q182 0 318 -39.5t235 -128.5z" />
    <glyph glyph-name="H" unicode="H" horiz-adv-x="1914" 
d="M412 815h1091v602h238v-1417h-238v598h-1091v-598h-238v1417h238v-602z" />
    <glyph glyph-name="I" unicode="I" horiz-adv-x="587" 
d="M412 0h-238v1417h238v-1417z" />
    <glyph glyph-name="J" unicode="J" horiz-adv-x="1509" 
d="M477 1417h889v-858q0 -280 -150.5 -428.5t-437.5 -148.5h-209q-383 0 -518 268l152 170q51 -110 137.5 -162.5t228.5 -52.5h209q170 0 259 90t89 264v639h-649v219z" />
    <glyph glyph-name="K" unicode="K" horiz-adv-x="1746" 
d="M1004 807l415 610h262l-495 -727l495 -690h-264l-424 590h-581v-590h-238v1417h238v-610h592z" />
    <glyph glyph-name="L" unicode="L" horiz-adv-x="1546" 
d="M174 1417h238v-1192h1069v-225h-1307v1417z" />
    <glyph glyph-name="M" unicode="M" horiz-adv-x="2131" 
d="M408 1417l659 -862l659 862h232v-1417h-234v1061l-591 -782h-132l-593 782v-1061h-234v1417h234z" />
    <glyph glyph-name="N" unicode="N" horiz-adv-x="1904" 
d="M1497 350v1067h234v-1417h-224l-1099 1065v-1065h-234v1417h223z" />
    <glyph glyph-name="O" unicode="O" horiz-adv-x="1998" 
d="M844 1436h309q351 0 552.5 -196.5t201.5 -528.5v-2q0 -335 -201.5 -531t-552.5 -196h-309q-350 0 -551 196t-201 531v2q0 332 201.5 528.5t550.5 196.5zM844 199h309q245 0 381.5 136.5t136.5 373.5v2q0 236 -136.5 372t-381.5 136h-309q-244 0 -380 -136.5t-136 -371.5
v-2q0 -237 136 -373.5t380 -136.5z" />
    <glyph glyph-name="P" unicode="P" horiz-adv-x="1712" 
d="M174 1417h875q289 0 435 -134t146 -378v-2q0 -246 -146 -380t-435 -134h-639v-389h-236v1417zM1397 903v2q0 293 -348 293h-639v-590h639q176 0 262 73.5t86 221.5z" />
    <glyph glyph-name="Q" unicode="Q" horiz-adv-x="1998" 
d="M1907 711v-2q0 -220 -89.5 -383.5t-254.5 -251.5l243 -267l-186 -155l-309 342q-77 -12 -158 -12h-309q-350 0 -551 196t-201 531v2q0 332 201.5 528.5t550.5 196.5h309q351 0 552.5 -196.5t201.5 -528.5zM1671 709v2q0 236 -136.5 372t-381.5 136h-309
q-244 0 -380 -136.5t-136 -371.5v-2q0 -237 136 -373.5t380 -136.5h309q245 0 381.5 136.5t136.5 373.5z" />
    <glyph glyph-name="R" unicode="R" horiz-adv-x="1744" 
d="M1309 502l356 -502h-264l-320 469h-18h-653v-469h-236v1417h889q280 0 423.5 -128.5t143.5 -350.5v-2q0 -163 -80.5 -275.5t-240.5 -158.5zM1063 1206h-653v-532h653q164 0 249 67t85 195v2q0 131 -85 199.5t-249 68.5z" />
    <glyph glyph-name="S" unicode="S" horiz-adv-x="1632" 
d="M1524 1174l-162 -144q-97 199 -373 199h-338q-144 0 -222.5 -47.5t-78.5 -134.5q0 -70 54.5 -117.5t181.5 -69.5l571 -67q387 -62 387 -412q0 -183 -140.5 -291t-391.5 -108h-346q-230 0 -381.5 83t-210.5 240l202 125q49 -127 146 -185.5t248 -58.5h346
q146 0 222.5 52.5t76.5 146.5q0 83 -55 132.5t-175 72.5l-591 74q-194 35 -283.5 134t-89.5 242q0 185 141 290.5t400 105.5h333q197 0 333.5 -68.5t195.5 -193.5z" />
    <glyph glyph-name="T" unicode="T" horiz-adv-x="1587" 
d="M63 1417h1461v-223h-611v-1194h-237v1194h-613v223z" />
    <glyph glyph-name="U" unicode="U" horiz-adv-x="1869" 
d="M1493 651v766h238v-766q0 -172 -48.5 -301t-138.5 -209t-211.5 -119.5t-273.5 -39.5h-248q-152 0 -273.5 39.5t-211.5 119.5t-138.5 209t-48.5 301v766h238v-766q0 -119 32.5 -206.5t92.5 -139t137 -76t172 -24.5h248q95 0 172 24.5t137 76t92.5 139t32.5 206.5z" />
    <glyph glyph-name="V" unicode="V" horiz-adv-x="1800" 
d="M313 1417l588 -1149l586 1149h266l-731 -1417h-244l-731 1417h266z" />
    <glyph glyph-name="W" unicode="W" horiz-adv-x="2285" 
d="M631 315l393 783h238l391 -783l309 1102h256l-424 -1417h-225l-424 864h-4l-426 -864h-223l-424 1417h256z" />
    <glyph glyph-name="X" unicode="X" horiz-adv-x="1730" 
d="M1663 1417l-621 -704l629 -713h-291l-516 590l-514 -590h-291l627 713l-618 704h290l508 -577l506 577h291z" />
    <glyph glyph-name="Y" unicode="Y" horiz-adv-x="1742" 
d="M303 1417l567 -710l570 710h280l-731 -909v-508h-237v506l-729 911h280z" />
    <glyph glyph-name="Z" unicode="Z" horiz-adv-x="1654" 
d="M500 256l-62 -49h1127v-207h-1469v207l1049 952l65 51h-1110v207h1450v-207z" />
    <glyph glyph-name="bracketleft" unicode="[" 
d="M207 403q-13 0 -19 -2v-200q4 -2 19 -2q37 0 50 25t13 77q0 54 -13 78t-50 24zM518 330v-49h-82v-78h96v-49h-155v297h155v-52h-96v-69h82zM203 150q-47 0 -74 4v292q61 9 76 9q67 0 96 -37.5t29 -116.5t-29.5 -115t-97.5 -36zM586 451h80l39 -164l38 164h82
q3 -45 13 -297h-60q0 108 -6 213l-41 -168h-55l-41 168h-2q-4 -140 -4 -213h-58q3 156 15 297zM987 150q-60 0 -84 35.5t-24 115.5q0 81 24 117.5t84 36.5t85.5 -37t25.5 -117q0 -79 -25.5 -115t-85.5 -36zM987 403q-29 0 -39 -23.5t-10 -78.5q0 -54 10 -78t39 -24
q30 0 40.5 24t10.5 78q0 55 -10 78.5t-41 23.5zM967 1016q49 0 79.5 -24.5t39 -51t8.5 -53.5q0 -43 -34.5 -72.5t-72.5 -34.5q-213 -23 -340 -147q3 8 9 22t25 53.5t39 75.5t50 80.5t59.5 76t66 53.5t71.5 22zM285 909q39 0 78 -21t69.5 -55t58.5 -74.5t48 -81.5t35 -75
t22 -55l8 -21q-117 148 -319 148q-49 0 -88 30t-39 76q0 53 33.5 91t93.5 38zM643 1214q38 -37 48.5 -102t-2.5 -131t-31.5 -126.5t-35.5 -98.5l-18 -39q20 191 -125 330q-35 35 -42 81.5t24 83.5q23 23 53 34t65 3.5t64 -35.5z" />
    <glyph glyph-name="backslash" unicode="\" 
d="M207 403q-13 0 -19 -2v-200q4 -2 19 -2q37 0 50 25t13 77q0 54 -13 78t-50 24zM518 330v-49h-82v-78h96v-49h-155v297h155v-52h-96v-69h82zM203 150q-47 0 -74 4v292q61 9 76 9q67 0 96 -37.5t29 -116.5t-29.5 -115t-97.5 -36zM586 451h80l39 -164l38 164h82
q3 -45 13 -297h-60q0 108 -6 213l-41 -168h-55l-41 168h-2q-4 -140 -4 -213h-58q3 156 15 297zM987 150q-60 0 -84 35.5t-24 115.5q0 81 24 117.5t84 36.5t85.5 -37t25.5 -117q0 -79 -25.5 -115t-85.5 -36zM987 403q-29 0 -39 -23.5t-10 -78.5q0 -54 10 -78t39 -24
q30 0 40.5 24t10.5 78q0 55 -10 78.5t-41 23.5zM967 1016q49 0 79.5 -24.5t39 -51t8.5 -53.5q0 -43 -34.5 -72.5t-72.5 -34.5q-213 -23 -340 -147q3 8 9 22t25 53.5t39 75.5t50 80.5t59.5 76t66 53.5t71.5 22zM285 909q39 0 78 -21t69.5 -55t58.5 -74.5t48 -81.5t35 -75
t22 -55l8 -21q-117 148 -319 148q-49 0 -88 30t-39 76q0 53 33.5 91t93.5 38zM643 1214q38 -37 48.5 -102t-2.5 -131t-31.5 -126.5t-35.5 -98.5l-18 -39q20 191 -125 330q-35 35 -42 81.5t24 83.5q23 23 53 34t65 3.5t64 -35.5z" />
    <glyph glyph-name="bracketright" unicode="]" 
d="M207 403q-13 0 -19 -2v-200q4 -2 19 -2q37 0 50 25t13 77q0 54 -13 78t-50 24zM518 330v-49h-82v-78h96v-49h-155v297h155v-52h-96v-69h82zM203 150q-47 0 -74 4v292q61 9 76 9q67 0 96 -37.5t29 -116.5t-29.5 -115t-97.5 -36zM586 451h80l39 -164l38 164h82
q3 -45 13 -297h-60q0 108 -6 213l-41 -168h-55l-41 168h-2q-4 -140 -4 -213h-58q3 156 15 297zM987 150q-60 0 -84 35.5t-24 115.5q0 81 24 117.5t84 36.5t85.5 -37t25.5 -117q0 -79 -25.5 -115t-85.5 -36zM987 403q-29 0 -39 -23.5t-10 -78.5q0 -54 10 -78t39 -24
q30 0 40.5 24t10.5 78q0 55 -10 78.5t-41 23.5zM967 1016q49 0 79.5 -24.5t39 -51t8.5 -53.5q0 -43 -34.5 -72.5t-72.5 -34.5q-213 -23 -340 -147q3 8 9 22t25 53.5t39 75.5t50 80.5t59.5 76t66 53.5t71.5 22zM285 909q39 0 78 -21t69.5 -55t58.5 -74.5t48 -81.5t35 -75
t22 -55l8 -21q-117 148 -319 148q-49 0 -88 30t-39 76q0 53 33.5 91t93.5 38zM643 1214q38 -37 48.5 -102t-2.5 -131t-31.5 -126.5t-35.5 -98.5l-18 -39q20 191 -125 330q-35 35 -42 81.5t24 83.5q23 23 53 34t65 3.5t64 -35.5z" />
    <glyph glyph-name="asciicircum" unicode="^" 
d="M207 403q-13 0 -19 -2v-200q4 -2 19 -2q37 0 50 25t13 77q0 54 -13 78t-50 24zM518 330v-49h-82v-78h96v-49h-155v297h155v-52h-96v-69h82zM203 150q-47 0 -74 4v292q61 9 76 9q67 0 96 -37.5t29 -116.5t-29.5 -115t-97.5 -36zM586 451h80l39 -164l38 164h82
q3 -45 13 -297h-60q0 108 -6 213l-41 -168h-55l-41 168h-2q-4 -140 -4 -213h-58q3 156 15 297zM987 150q-60 0 -84 35.5t-24 115.5q0 81 24 117.5t84 36.5t85.5 -37t25.5 -117q0 -79 -25.5 -115t-85.5 -36zM987 403q-29 0 -39 -23.5t-10 -78.5q0 -54 10 -78t39 -24
q30 0 40.5 24t10.5 78q0 55 -10 78.5t-41 23.5zM967 1016q49 0 79.5 -24.5t39 -51t8.5 -53.5q0 -43 -34.5 -72.5t-72.5 -34.5q-213 -23 -340 -147q3 8 9 22t25 53.5t39 75.5t50 80.5t59.5 76t66 53.5t71.5 22zM285 909q39 0 78 -21t69.5 -55t58.5 -74.5t48 -81.5t35 -75
t22 -55l8 -21q-117 148 -319 148q-49 0 -88 30t-39 76q0 53 33.5 91t93.5 38zM643 1214q38 -37 48.5 -102t-2.5 -131t-31.5 -126.5t-35.5 -98.5l-18 -39q20 191 -125 330q-35 35 -42 81.5t24 83.5q23 23 53 34t65 3.5t64 -35.5z" />
    <glyph glyph-name="underscore" unicode="_" 
d="M207 403q-13 0 -19 -2v-200q4 -2 19 -2q37 0 50 25t13 77q0 54 -13 78t-50 24zM518 330v-49h-82v-78h96v-49h-155v297h155v-52h-96v-69h82zM203 150q-47 0 -74 4v292q61 9 76 9q67 0 96 -37.5t29 -116.5t-29.5 -115t-97.5 -36zM586 451h80l39 -164l38 164h82
q3 -45 13 -297h-60q0 108 -6 213l-41 -168h-55l-41 168h-2q-4 -140 -4 -213h-58q3 156 15 297zM987 150q-60 0 -84 35.5t-24 115.5q0 81 24 117.5t84 36.5t85.5 -37t25.5 -117q0 -79 -25.5 -115t-85.5 -36zM987 403q-29 0 -39 -23.5t-10 -78.5q0 -54 10 -78t39 -24
q30 0 40.5 24t10.5 78q0 55 -10 78.5t-41 23.5zM967 1016q49 0 79.5 -24.5t39 -51t8.5 -53.5q0 -43 -34.5 -72.5t-72.5 -34.5q-213 -23 -340 -147q3 8 9 22t25 53.5t39 75.5t50 80.5t59.5 76t66 53.5t71.5 22zM285 909q39 0 78 -21t69.5 -55t58.5 -74.5t48 -81.5t35 -75
t22 -55l8 -21q-117 148 -319 148q-49 0 -88 30t-39 76q0 53 33.5 91t93.5 38zM643 1214q38 -37 48.5 -102t-2.5 -131t-31.5 -126.5t-35.5 -98.5l-18 -39q20 191 -125 330q-35 35 -42 81.5t24 83.5q23 23 53 34t65 3.5t64 -35.5z" />
    <glyph glyph-name="grave" unicode="`" 
d="M207 403q-13 0 -19 -2v-200q4 -2 19 -2q37 0 50 25t13 77q0 54 -13 78t-50 24zM518 330v-49h-82v-78h96v-49h-155v297h155v-52h-96v-69h82zM203 150q-47 0 -74 4v292q61 9 76 9q67 0 96 -37.5t29 -116.5t-29.5 -115t-97.5 -36zM586 451h80l39 -164l38 164h82
q3 -45 13 -297h-60q0 108 -6 213l-41 -168h-55l-41 168h-2q-4 -140 -4 -213h-58q3 156 15 297zM987 150q-60 0 -84 35.5t-24 115.5q0 81 24 117.5t84 36.5t85.5 -37t25.5 -117q0 -79 -25.5 -115t-85.5 -36zM987 403q-29 0 -39 -23.5t-10 -78.5q0 -54 10 -78t39 -24
q30 0 40.5 24t10.5 78q0 55 -10 78.5t-41 23.5zM967 1016q49 0 79.5 -24.5t39 -51t8.5 -53.5q0 -43 -34.5 -72.5t-72.5 -34.5q-213 -23 -340 -147q3 8 9 22t25 53.5t39 75.5t50 80.5t59.5 76t66 53.5t71.5 22zM285 909q39 0 78 -21t69.5 -55t58.5 -74.5t48 -81.5t35 -75
t22 -55l8 -21q-117 148 -319 148q-49 0 -88 30t-39 76q0 53 33.5 91t93.5 38zM643 1214q38 -37 48.5 -102t-2.5 -131t-31.5 -126.5t-35.5 -98.5l-18 -39q20 191 -125 330q-35 35 -42 81.5t24 83.5q23 23 53 34t65 3.5t64 -35.5z" />
    <glyph glyph-name="a" unicode="a" horiz-adv-x="1880" 
d="M1061 1417l766 -1417h-254l-172 328h-922l-172 -328h-254l764 1417h244zM1298 530l-358 662l-360 -662h718z" />
    <glyph glyph-name="b" unicode="b" horiz-adv-x="1746" 
d="M1339 719q153 -26 232.5 -106t79.5 -228q0 -197 -136.5 -291t-381.5 -94h-959v1417h905q258 0 387 -92t129 -283q0 -143 -64.5 -219.5t-191.5 -103.5zM1079 1219h-669v-408h671q142 0 211.5 46t69.5 155q0 111 -70 159t-213 48zM410 627v-428h723q144 0 214 50t70 163
q0 215 -289 215h-718z" />
    <glyph glyph-name="c" unicode="c" horiz-adv-x="1732" 
d="M1669 1268l-135 -174q-142 125 -399 125h-291q-240 0 -378 -138t-138 -370v-2q2 -234 139.5 -372t376.5 -138h291q257 0 399 125l135 -174q-100 -88 -229.5 -128t-304.5 -40h-291q-351 0 -551.5 196t-200.5 531v2q0 334 200.5 529.5t551.5 195.5h291q347 0 534 -168z" />
    <glyph glyph-name="d" unicode="d" horiz-adv-x="1857" 
d="M174 1417h854q349 0 543 -189t194 -519v-2q0 -328 -194 -517.5t-543 -189.5h-854v1417zM412 1198v-979h616q240 0 372 130.5t132 357.5v2q0 227 -132 358t-372 131h-616z" />
    <glyph glyph-name="e" unicode="e" horiz-adv-x="1579" 
d="M174 1417h1299v-213h-1063v-393h970v-211h-970v-387h1063v-213h-1299v1417z" />
    <glyph glyph-name="f" unicode="f" horiz-adv-x="1546" 
d="M174 1417h1299v-219h-1063v-420h970v-219h-970v-559h-236v1417z" />
    <glyph glyph-name="g" unicode="g" horiz-adv-x="1871" 
d="M1714 1268l-133 -174q-142 125 -420 125h-301q-251 0 -391.5 -137t-140.5 -371v-2q0 -232 138.5 -371t379.5 -139h289q172 0 284 56.5t133 168.5v113h-434v190h633v-727h-143l-13 184q-116 -202 -473 -202h-291q-344 0 -541.5 196.5t-197.5 530.5v2q0 332 204 528.5
t564 196.5h301q182 0 318 -39.5t235 -128.5z" />
    <glyph glyph-name="h" unicode="h" horiz-adv-x="1914" 
d="M412 815h1091v602h238v-1417h-238v598h-1091v-598h-238v1417h238v-602z" />
    <glyph glyph-name="i" unicode="i" horiz-adv-x="587" 
d="M412 0h-238v1417h238v-1417z" />
    <glyph glyph-name="j" unicode="j" horiz-adv-x="1509" 
d="M477 1417h889v-858q0 -280 -150.5 -428.5t-437.5 -148.5h-209q-383 0 -518 268l152 170q51 -110 137.5 -162.5t228.5 -52.5h209q170 0 259 90t89 264v639h-649v219z" />
    <glyph glyph-name="k" unicode="k" horiz-adv-x="1746" 
d="M1004 807l415 610h262l-495 -727l495 -690h-264l-424 590h-581v-590h-238v1417h238v-610h592z" />
    <glyph glyph-name="l" unicode="l" horiz-adv-x="1546" 
d="M174 1417h238v-1192h1069v-225h-1307v1417z" />
    <glyph glyph-name="m" unicode="m" horiz-adv-x="2131" 
d="M408 1417l659 -862l659 862h232v-1417h-234v1061l-591 -782h-132l-593 782v-1061h-234v1417h234z" />
    <glyph glyph-name="n" unicode="n" horiz-adv-x="1904" 
d="M1497 350v1067h234v-1417h-224l-1099 1065v-1065h-234v1417h223z" />
    <glyph glyph-name="o" unicode="o" horiz-adv-x="1998" 
d="M844 1436h309q351 0 552.5 -196.5t201.5 -528.5v-2q0 -335 -201.5 -531t-552.5 -196h-309q-350 0 -551 196t-201 531v2q0 332 201.5 528.5t550.5 196.5zM844 199h309q245 0 381.5 136.5t136.5 373.5v2q0 236 -136.5 372t-381.5 136h-309q-244 0 -380 -136.5t-136 -371.5
v-2q0 -237 136 -373.5t380 -136.5z" />
    <glyph glyph-name="p" unicode="p" horiz-adv-x="1712" 
d="M174 1417h875q289 0 435 -134t146 -378v-2q0 -246 -146 -380t-435 -134h-639v-389h-236v1417zM1397 903v2q0 293 -348 293h-639v-590h639q176 0 262 73.5t86 221.5z" />
    <glyph glyph-name="q" unicode="q" horiz-adv-x="1998" 
d="M1907 711v-2q0 -220 -89.5 -383.5t-254.5 -251.5l243 -267l-186 -155l-309 342q-77 -12 -158 -12h-309q-350 0 -551 196t-201 531v2q0 332 201.5 528.5t550.5 196.5h309q351 0 552.5 -196.5t201.5 -528.5zM1671 709v2q0 236 -136.5 372t-381.5 136h-309
q-244 0 -380 -136.5t-136 -371.5v-2q0 -237 136 -373.5t380 -136.5h309q245 0 381.5 136.5t136.5 373.5z" />
    <glyph glyph-name="r" unicode="r" horiz-adv-x="1744" 
d="M1309 502l356 -502h-264l-320 469h-18h-653v-469h-236v1417h889q280 0 423.5 -128.5t143.5 -350.5v-2q0 -163 -80.5 -275.5t-240.5 -158.5zM1063 1206h-653v-532h653q164 0 249 67t85 195v2q0 131 -85 199.5t-249 68.5z" />
    <glyph glyph-name="s" unicode="s" horiz-adv-x="1632" 
d="M1524 1174l-162 -144q-97 199 -373 199h-338q-144 0 -222.5 -47.5t-78.5 -134.5q0 -70 54.5 -117.5t181.5 -69.5l571 -67q387 -62 387 -412q0 -183 -140.5 -291t-391.5 -108h-346q-230 0 -381.5 83t-210.5 240l202 125q49 -127 146 -185.5t248 -58.5h346
q146 0 222.5 52.5t76.5 146.5q0 83 -55 132.5t-175 72.5l-591 74q-194 35 -283.5 134t-89.5 242q0 185 141 290.5t400 105.5h333q197 0 333.5 -68.5t195.5 -193.5z" />
    <glyph glyph-name="t" unicode="t" horiz-adv-x="1587" 
d="M63 1417h1461v-223h-611v-1194h-237v1194h-613v223z" />
    <glyph glyph-name="u" unicode="u" horiz-adv-x="1869" 
d="M1493 651v766h238v-766q0 -172 -48.5 -301t-138.5 -209t-211.5 -119.5t-273.5 -39.5h-248q-152 0 -273.5 39.5t-211.5 119.5t-138.5 209t-48.5 301v766h238v-766q0 -119 32.5 -206.5t92.5 -139t137 -76t172 -24.5h248q95 0 172 24.5t137 76t92.5 139t32.5 206.5z" />
    <glyph glyph-name="v" unicode="v" horiz-adv-x="1800" 
d="M313 1417l588 -1149l586 1149h266l-731 -1417h-244l-731 1417h266z" />
    <glyph glyph-name="w" unicode="w" horiz-adv-x="2285" 
d="M631 315l393 783h238l391 -783l309 1102h256l-424 -1417h-225l-424 864h-4l-426 -864h-223l-424 1417h256z" />
    <glyph glyph-name="x" unicode="x" horiz-adv-x="1730" 
d="M1663 1417l-621 -704l629 -713h-291l-516 590l-514 -590h-291l627 713l-618 704h290l508 -577l506 577h291z" />
    <glyph glyph-name="y" unicode="y" horiz-adv-x="1742" 
d="M303 1417l567 -710l570 710h280l-731 -909v-508h-237v506l-729 911h280z" />
    <glyph glyph-name="z" unicode="z" horiz-adv-x="1654" 
d="M500 256l-62 -49h1127v-207h-1469v207l1049 952l65 51h-1110v207h1450v-207z" />
    <glyph glyph-name="braceleft" unicode="{" 
d="M207 403q-13 0 -19 -2v-200q4 -2 19 -2q37 0 50 25t13 77q0 54 -13 78t-50 24zM518 330v-49h-82v-78h96v-49h-155v297h155v-52h-96v-69h82zM203 150q-47 0 -74 4v292q61 9 76 9q67 0 96 -37.5t29 -116.5t-29.5 -115t-97.5 -36zM586 451h80l39 -164l38 164h82
q3 -45 13 -297h-60q0 108 -6 213l-41 -168h-55l-41 168h-2q-4 -140 -4 -213h-58q3 156 15 297zM987 150q-60 0 -84 35.5t-24 115.5q0 81 24 117.5t84 36.5t85.5 -37t25.5 -117q0 -79 -25.5 -115t-85.5 -36zM987 403q-29 0 -39 -23.5t-10 -78.5q0 -54 10 -78t39 -24
q30 0 40.5 24t10.5 78q0 55 -10 78.5t-41 23.5zM967 1016q49 0 79.5 -24.5t39 -51t8.5 -53.5q0 -43 -34.5 -72.5t-72.5 -34.5q-213 -23 -340 -147q3 8 9 22t25 53.5t39 75.5t50 80.5t59.5 76t66 53.5t71.5 22zM285 909q39 0 78 -21t69.5 -55t58.5 -74.5t48 -81.5t35 -75
t22 -55l8 -21q-117 148 -319 148q-49 0 -88 30t-39 76q0 53 33.5 91t93.5 38zM643 1214q38 -37 48.5 -102t-2.5 -131t-31.5 -126.5t-35.5 -98.5l-18 -39q20 191 -125 330q-35 35 -42 81.5t24 83.5q23 23 53 34t65 3.5t64 -35.5z" />
    <glyph glyph-name="bar" unicode="|" 
d="M207 403q-13 0 -19 -2v-200q4 -2 19 -2q37 0 50 25t13 77q0 54 -13 78t-50 24zM518 330v-49h-82v-78h96v-49h-155v297h155v-52h-96v-69h82zM203 150q-47 0 -74 4v292q61 9 76 9q67 0 96 -37.5t29 -116.5t-29.5 -115t-97.5 -36zM586 451h80l39 -164l38 164h82
q3 -45 13 -297h-60q0 108 -6 213l-41 -168h-55l-41 168h-2q-4 -140 -4 -213h-58q3 156 15 297zM987 150q-60 0 -84 35.5t-24 115.5q0 81 24 117.5t84 36.5t85.5 -37t25.5 -117q0 -79 -25.5 -115t-85.5 -36zM987 403q-29 0 -39 -23.5t-10 -78.5q0 -54 10 -78t39 -24
q30 0 40.5 24t10.5 78q0 55 -10 78.5t-41 23.5zM967 1016q49 0 79.5 -24.5t39 -51t8.5 -53.5q0 -43 -34.5 -72.5t-72.5 -34.5q-213 -23 -340 -147q3 8 9 22t25 53.5t39 75.5t50 80.5t59.5 76t66 53.5t71.5 22zM285 909q39 0 78 -21t69.5 -55t58.5 -74.5t48 -81.5t35 -75
t22 -55l8 -21q-117 148 -319 148q-49 0 -88 30t-39 76q0 53 33.5 91t93.5 38zM643 1214q38 -37 48.5 -102t-2.5 -131t-31.5 -126.5t-35.5 -98.5l-18 -39q20 191 -125 330q-35 35 -42 81.5t24 83.5q23 23 53 34t65 3.5t64 -35.5z" />
    <glyph glyph-name="braceright" unicode="}" 
d="M207 403q-13 0 -19 -2v-200q4 -2 19 -2q37 0 50 25t13 77q0 54 -13 78t-50 24zM518 330v-49h-82v-78h96v-49h-155v297h155v-52h-96v-69h82zM203 150q-47 0 -74 4v292q61 9 76 9q67 0 96 -37.5t29 -116.5t-29.5 -115t-97.5 -36zM586 451h80l39 -164l38 164h82
q3 -45 13 -297h-60q0 108 -6 213l-41 -168h-55l-41 168h-2q-4 -140 -4 -213h-58q3 156 15 297zM987 150q-60 0 -84 35.5t-24 115.5q0 81 24 117.5t84 36.5t85.5 -37t25.5 -117q0 -79 -25.5 -115t-85.5 -36zM987 403q-29 0 -39 -23.5t-10 -78.5q0 -54 10 -78t39 -24
q30 0 40.5 24t10.5 78q0 55 -10 78.5t-41 23.5zM967 1016q49 0 79.5 -24.5t39 -51t8.5 -53.5q0 -43 -34.5 -72.5t-72.5 -34.5q-213 -23 -340 -147q3 8 9 22t25 53.5t39 75.5t50 80.5t59.5 76t66 53.5t71.5 22zM285 909q39 0 78 -21t69.5 -55t58.5 -74.5t48 -81.5t35 -75
t22 -55l8 -21q-117 148 -319 148q-49 0 -88 30t-39 76q0 53 33.5 91t93.5 38zM643 1214q38 -37 48.5 -102t-2.5 -131t-31.5 -126.5t-35.5 -98.5l-18 -39q20 191 -125 330q-35 35 -42 81.5t24 83.5q23 23 53 34t65 3.5t64 -35.5z" />
    <glyph glyph-name="asciitilde" unicode="~" 
d="M207 403q-13 0 -19 -2v-200q4 -2 19 -2q37 0 50 25t13 77q0 54 -13 78t-50 24zM518 330v-49h-82v-78h96v-49h-155v297h155v-52h-96v-69h82zM203 150q-47 0 -74 4v292q61 9 76 9q67 0 96 -37.5t29 -116.5t-29.5 -115t-97.5 -36zM586 451h80l39 -164l38 164h82
q3 -45 13 -297h-60q0 108 -6 213l-41 -168h-55l-41 168h-2q-4 -140 -4 -213h-58q3 156 15 297zM987 150q-60 0 -84 35.5t-24 115.5q0 81 24 117.5t84 36.5t85.5 -37t25.5 -117q0 -79 -25.5 -115t-85.5 -36zM987 403q-29 0 -39 -23.5t-10 -78.5q0 -54 10 -78t39 -24
q30 0 40.5 24t10.5 78q0 55 -10 78.5t-41 23.5zM967 1016q49 0 79.5 -24.5t39 -51t8.5 -53.5q0 -43 -34.5 -72.5t-72.5 -34.5q-213 -23 -340 -147q3 8 9 22t25 53.5t39 75.5t50 80.5t59.5 76t66 53.5t71.5 22zM285 909q39 0 78 -21t69.5 -55t58.5 -74.5t48 -81.5t35 -75
t22 -55l8 -21q-117 148 -319 148q-49 0 -88 30t-39 76q0 53 33.5 91t93.5 38zM643 1214q38 -37 48.5 -102t-2.5 -131t-31.5 -126.5t-35.5 -98.5l-18 -39q20 191 -125 330q-35 35 -42 81.5t24 83.5q23 23 53 34t65 3.5t64 -35.5z" />
    </font>
</defs>
</svg>
