<svg xmlns="http://www.w3.org/2000/svg" xmlns:xlink="http://www.w3.org/1999/xlink" width="58" height="51.553" viewBox="0 0 58 51.553">
  <defs>
    <filter id="Path_41412" x="0" y="0" width="58" height="51.553" filterUnits="userSpaceOnUse">
      <feOffset input="SourceAlpha"/>
      <feGaussianBlur stdDeviation="3" result="blur"/>
      <feFlood flood-color="#9e9e9e" flood-opacity="0.302"/>
      <feComposite operator="in" in2="blur"/>
      <feComposite in="SourceGraphic"/>
    </filter>
    <filter id="Path_41413" x="13.278" y="2.275" width="28.396" height="36.654" filterUnits="userSpaceOnUse">
      <feOffset input="SourceAlpha"/>
      <feGaussianBlur stdDeviation="3" result="blur-2"/>
      <feFlood flood-color="#9e9e9e" flood-opacity="0.702"/>
      <feComposite operator="in" in2="blur-2"/>
      <feComposite in="SourceGraphic"/>
    </filter>
    <filter id="Path_41414" x="17.277" y="1.934" width="27.444" height="36.995" filterUnits="userSpaceOnUse">
      <feOffset input="SourceAlpha"/>
      <feGaussianBlur stdDeviation="3" result="blur-3"/>
      <feFlood flood-color="#9e9e9e" flood-opacity="0.702"/>
      <feComposite operator="in" in2="blur-3"/>
      <feComposite in="SourceGraphic"/>
    </filter>
  </defs>
  <g id="second" transform="translate(9 -32.263)">
    <g id="Group_24109" data-name="Group 24109" transform="translate(0 41.263)">
      <g id="Group_24108" data-name="Group 24108" transform="translate(0 0)">
        <g transform="matrix(1, 0, 0, 1, -9, -9)" filter="url(#Path_41412)">
          <path id="Path_41412-2" data-name="Path 41412" d="M39.035,54.259a.759.759,0,0,0-.907.085c-.667.6-1.344,1.154-2.044,1.672q.231-.757.4-1.487a6.624,6.624,0,0,0,2.742-3.21,10.017,10.017,0,0,0,.762-4.391.763.763,0,0,0-1.423-.34,26.362,26.362,0,0,1-1.445,2.247c0-.025,0-.05,0-.075q-.008-.889-.081-1.721c0-.012,0-.024,0-.037a25.589,25.589,0,0,0-.978-5.319.587.587,0,1,0-1.126.332,24.6,24.6,0,0,1,.742,3.374c-.642-.62-1.3-1.2-2-1.749a.763.763,0,0,0-1.21.8,14.97,14.97,0,0,0,3.408,6.4q-.057.739-.174,1.521a25.5,25.5,0,0,0-1.379-2.176.763.763,0,0,0-1.385.407,14.126,14.126,0,0,0,1.371,6.952q-.266.674-.6,1.37a25.057,25.057,0,0,0-.69-2.465.764.764,0,0,0-.718-.52h-.006a.762.762,0,0,0-.718.507,14,14,0,0,0-.7,7.013q-.454.572-.977,1.145a24.563,24.563,0,0,0,.064-2.568.763.763,0,0,0-1.376-.433,14.479,14.479,0,0,0-2.767,6.557,11.131,11.131,0,0,1-3.261,1.819A11.117,11.117,0,0,0,20,71.261a11.12,11.12,0,0,0-2.561-1.289,11.132,11.132,0,0,1-3.261-1.819A14.479,14.479,0,0,0,11.41,61.6a.763.763,0,0,0-1.376.433A24.564,24.564,0,0,0,10.1,64.6q-.523-.572-.977-1.145a14,14,0,0,0-.7-7.013.762.762,0,0,0-.718-.507H7.7a.764.764,0,0,0-.718.52,25.06,25.06,0,0,0-.69,2.466q-.332-.695-.6-1.37a14.125,14.125,0,0,0,1.371-6.952.763.763,0,0,0-1.385-.407A25.49,25.49,0,0,0,4.3,52.363q-.117-.781-.174-1.521a14.97,14.97,0,0,0,3.408-6.4.763.763,0,0,0-1.21-.8,26.554,26.554,0,0,0-2,1.749,24.609,24.609,0,0,1,.742-3.374.587.587,0,1,0-1.126-.332A25.614,25.614,0,0,0,2.963,47c0,.012,0,.025,0,.037q-.072.831-.081,1.721c0,.025,0,.05,0,.075a26.391,26.391,0,0,1-1.445-2.247.758.758,0,0,0-.84-.362.756.756,0,0,0-.583.7,10.018,10.018,0,0,0,.762,4.391,6.624,6.624,0,0,0,2.742,3.21q.169.728.4,1.487c-.7-.518-1.377-1.071-2.044-1.672A.763.763,0,0,0,.623,55.1C1.3,57.71,3.27,60.56,6.17,61.208q.372.645.81,1.3c-.818-.29-1.625-.619-2.437-1A.763.763,0,0,0,3.571,62.6c1.34,2.186,3.868,4.245,6.672,4.245.138,0,.276-.006.415-.016a24.48,24.48,0,0,0,2.621,2.114,12.522,12.522,0,0,0,3.745,2.126A10.169,10.169,0,0,1,18.977,72c-.607.465-1.31,1.049-2.143,1.795a.587.587,0,1,0,.783.875c.967-.865,1.74-1.5,2.383-1.973.644.476,1.416,1.108,2.383,1.973a.587.587,0,1,0,.783-.875c-.834-.746-1.537-1.33-2.143-1.795a10.178,10.178,0,0,1,1.953-.927,12.525,12.525,0,0,0,3.745-2.126,24.487,24.487,0,0,0,2.621-2.114c.139.01.277.016.415.016,2.8,0,5.331-2.059,6.672-4.245a.763.763,0,0,0-.972-1.089c-.812.377-1.619.706-2.437,1q.438-.654.81-1.3c2.9-.648,4.869-3.5,5.547-6.107A.757.757,0,0,0,39.035,54.259Zm-2.2-1.575c.016-.106.033-.212.048-.317.009-.063.017-.125.025-.188.013-.1.026-.192.037-.287.008-.065.015-.13.023-.2.01-.091.02-.182.029-.273.007-.066.013-.131.019-.2q.012-.133.022-.266c0-.036.006-.072.009-.107a26.777,26.777,0,0,0,1.709-2.338,7.164,7.164,0,0,1-1.943,4.308C36.825,52.776,36.832,52.73,36.839,52.684Zm-35.6-4.169a26.79,26.79,0,0,0,1.709,2.338c0,.035.006.072.009.107q.01.132.022.266c.006.065.012.131.019.2.009.091.019.182.029.273.007.065.015.13.023.2.012.1.024.191.037.287.008.063.016.125.025.188.015.105.031.211.048.317.007.046.013.092.021.139A7.163,7.163,0,0,1,1.239,48.515Zm4.65,3.471a13.114,13.114,0,0,1-.769,3.947L5.078,55.8c-.025-.081-.05-.162-.074-.243-.019-.062-.037-.125-.055-.187-.023-.079-.045-.157-.067-.235s-.034-.126-.051-.188-.041-.153-.06-.229-.032-.125-.047-.187-.037-.151-.054-.226l-.021-.094A25.32,25.32,0,0,1,5.889,51.986Zm-1.833-3.28c0-.067,0-.134,0-.2,0-.084,0-.168.006-.251,0-.067,0-.133.007-.2q.005-.123.011-.245.005-.1.011-.2.008-.121.017-.241c0-.034.005-.067.008-.1.605-.651,1.223-1.254,1.866-1.822a13.877,13.877,0,0,1-1.931,3.661c0-.05,0-.1,0-.148C4.055,48.878,4.055,48.792,4.056,48.707ZM2.262,56.22A27.746,27.746,0,0,0,4.569,57.9c.013.033.027.066.04.1q.048.12.1.241l.075.182c.035.082.07.165.106.248l.078.178c.038.086.078.173.118.259.026.056.051.113.078.169.044.095.09.19.136.284l.059.123A7.081,7.081,0,0,1,2.262,56.22ZM7.7,58.1a12.94,12.94,0,0,1,.4,3.975l-.079-.116c-.047-.069-.093-.137-.139-.206l-.108-.165-.13-.2-.1-.166-.124-.2-.1-.165-.117-.2-.047-.082A24.941,24.941,0,0,1,7.7,58.1ZM5.459,63.187a28.287,28.287,0,0,0,2.691.931l.066.082.165.205.125.152.174.207.128.15c.061.071.124.142.187.213l.127.142c.069.076.139.152.21.229l.1.105A7.11,7.11,0,0,1,5.459,63.187Zm7.218,3.837-.2-.159-.154-.128-.187-.158-.15-.13-.18-.158-.145-.131L11.49,66l-.072-.067a24.409,24.409,0,0,1-.21-2.537,13.44,13.44,0,0,1,1.581,3.717Zm15.9-1.09L28.51,66l-.174.16-.145.131-.18.158-.15.13-.187.158-.154.128-.2.159-.112.09A13.446,13.446,0,0,1,28.791,63.4,24.388,24.388,0,0,1,28.581,65.934ZM32.3,58.1a24.907,24.907,0,0,1,.544,2.472l-.047.082-.118.2-.1.165-.124.2-.1.166-.13.2-.108.165c-.045.069-.092.137-.139.206l-.079.116A12.947,12.947,0,0,1,32.3,58.1Zm2.245,5.086A7.108,7.108,0,0,1,30.57,65.6l.1-.106c.07-.076.14-.152.209-.228L31,65.125c.062-.07.124-.14.185-.211l.129-.151.173-.206.125-.153.165-.205.066-.082A28.253,28.253,0,0,0,34.541,63.187Zm-.527-17.736c.643.568,1.26,1.171,1.866,1.822,0,.034.006.067.008.1q.009.12.017.241.006.1.011.2c0,.081.008.163.011.245,0,.066.005.132.008.2,0,.083,0,.167.006.251,0,.067,0,.134,0,.2,0,.085,0,.171,0,.258,0,.049,0,.1,0,.148A13.878,13.878,0,0,1,34.014,45.451Zm.1,6.535a25.35,25.35,0,0,1,1.241,2.224l-.021.094q-.026.112-.054.226-.023.094-.047.187-.029.114-.06.228c-.017.063-.034.126-.051.189s-.044.155-.066.232-.037.127-.056.19-.048.157-.072.236l-.044.14A13.114,13.114,0,0,1,34.111,51.986Zm.532,7.695.059-.123c.046-.095.092-.19.136-.284.027-.057.052-.113.078-.169.04-.087.079-.173.118-.259.026-.059.052-.119.078-.178q.054-.124.106-.248l.075-.182q.049-.121.1-.241c.013-.033.027-.066.04-.1a27.745,27.745,0,0,0,2.308-1.68A7.079,7.079,0,0,1,34.644,59.681Z" transform="translate(9 -32.26)" fill="#7d7d7d"/>
        </g>
      </g>
    </g>
    <g id="Group_24111" data-name="Group 24111" transform="translate(13.278 43.538)">
      <g id="Group_24110" data-name="Group 24110" transform="translate(0 0)">
        <g transform="matrix(1, 0, 0, 1, -22.28, -11.28)" filter="url(#Path_41413)">
          <path id="Path_41413-2" data-name="Path 41413" d="M178.827,91.826a2.78,2.78,0,0,0-2.059-.759,3.233,3.233,0,0,0-1.05.166,3.1,3.1,0,0,0-.864.454,2.808,2.808,0,0,0-.665.691,4.882,4.882,0,0,0-.648,1.426l-.033.107-2.024-.372a5.866,5.866,0,0,1,.577-1.586A5.391,5.391,0,0,1,175.3,89.52c1.975-.462-.444-.424-.687-.637s.678-.53-.275-.288a6.073,6.073,0,0,0-3.3,2.793,7.251,7.251,0,0,0-.767,2.274.846.846,0,0,0,.679.972l2.632.484a.843.843,0,0,0,.947-.54c.056-.151.1-.292.142-.432a3.767,3.767,0,0,1,.5-1.119,1.661,1.661,0,0,1,.394-.4,1.933,1.933,0,0,1,.538-.281,2.067,2.067,0,0,1,.67-.1,1.663,1.663,0,0,1,1.225.411,1.809,1.809,0,0,1,.41,1.308,4.024,4.024,0,0,1-.144,1.085,4.511,4.511,0,0,1-.441,1.033,7.981,7.981,0,0,1-.778,1.1c-.322.388-.7.8-1.128,1.226l-5.173,5.185a2.412,2.412,0,0,0-.605.918,2.683,2.683,0,0,0-.172.906v.547a1.2,1.2,0,0,0,1.2,1.2h8.608a.587.587,0,0,0,0-1.174h-8.608a.029.029,0,0,1-.028-.028v-.547a1.523,1.523,0,0,1,.1-.508,1.254,1.254,0,0,1,.32-.474l.009-.008,5.176-5.188c.451-.451.854-.89,1.2-1.3a9.147,9.147,0,0,0,.892-1.263,5.68,5.68,0,0,0,.555-1.3,5.194,5.194,0,0,0,.187-1.4A2.916,2.916,0,0,0,178.827,91.826Z" transform="translate(-147.68 -77.23)" fill="#7d7d7d"/>
        </g>
      </g>
    </g>
    <g id="Group_24113" data-name="Group 24113" transform="translate(17.277 43.197)">
      <g id="Group_24112" data-name="Group 24112" transform="translate(0 0)">
        <g transform="matrix(1, 0, 0, 1, -26.28, -10.93)" filter="url(#Path_41414)">
          <path id="Path_41414-2" data-name="Path 41414" d="M229.652,80.633H224.46l2.226-2.276c.47-.478.923-.96,1.346-1.431A12.092,12.092,0,0,0,229.2,75.4a7.78,7.78,0,0,0,.823-1.705,6.215,6.215,0,0,0,.312-2,5.829,5.829,0,0,0-.451-2.309,5.2,5.2,0,0,0-1.284-1.814,5.845,5.845,0,0,0-1.961-1.157,7.306,7.306,0,0,0-2.484-.407,8.065,8.065,0,0,0-2.4.349q-.1.032-.2.067a.587.587,0,1,0,.386,1.108l.167-.055a6.9,6.9,0,0,1,2.052-.3,6.138,6.138,0,0,1,2.085.337,4.676,4.676,0,0,1,1.571.922,4.028,4.028,0,0,1,.994,1.407,4.662,4.662,0,0,1,.356,1.847,5.047,5.047,0,0,1-.25,1.619,6.6,6.6,0,0,1-.7,1.447,10.905,10.905,0,0,1-1.053,1.374c-.411.458-.851.927-1.31,1.393l-3.124,3.195a.634.634,0,0,0,.453,1.077h6.247v2.029h-2.9a.587.587,0,0,0,0,1.174h3.131a.947.947,0,0,0,.946-.946V81.579A.947.947,0,0,0,229.652,80.633Z" transform="translate(-194.88 -55.08)" fill="#7d7d7d"/>
        </g>
      </g>
    </g>
  </g>
</svg>
