<svg xmlns="http://www.w3.org/2000/svg" xmlns:xlink="http://www.w3.org/1999/xlink" width="58" height="51.553" viewBox="0 0 58 51.553">
  <defs>
    <filter id="Path_41405" x="0" y="0" width="58" height="51.553" filterUnits="userSpaceOnUse">
      <feOffset input="SourceAlpha"/>
      <feGaussianBlur stdDeviation="3" result="blur"/>
      <feFlood flood-color="#b46559" flood-opacity="0.302"/>
      <feComposite operator="in" in2="blur"/>
      <feComposite in="SourceGraphic"/>
    </filter>
    <filter id="Union_52" x="13.278" y="1.933" width="31.459" height="37.188" filterUnits="userSpaceOnUse">
      <feOffset input="SourceAlpha"/>
      <feGaussianBlur stdDeviation="3" result="blur-2"/>
      <feFlood flood-color="#b46559" flood-opacity="0.302"/>
      <feComposite operator="in" in2="blur-2"/>
      <feComposite in="SourceGraphic"/>
    </filter>
  </defs>
  <g id="third" transform="translate(9 -32.262)">
    <g id="Group_24080" data-name="Group 24080" transform="translate(0 41.261)">
      <g id="Group_24079" data-name="Group 24079" transform="translate(0 0)">
        <g transform="matrix(1, 0, 0, 1, -9, -9)" filter="url(#Path_41405)">
          <path id="Path_41405-2" data-name="Path 41405" d="M39.034,54.258a.759.759,0,0,0-.907.085c-.667.6-1.344,1.154-2.044,1.672q.231-.758.4-1.487a6.624,6.624,0,0,0,2.742-3.21,10.018,10.018,0,0,0,.762-4.391.763.763,0,0,0-1.423-.34,26.381,26.381,0,0,1-1.445,2.247c0-.619-.03-1.22-.081-1.8,0-.012,0-.023,0-.035a25.6,25.6,0,0,0-.978-5.319.587.587,0,0,0-1.126.332,24.619,24.619,0,0,1,.742,3.374c-.642-.62-1.3-1.2-2-1.749a.763.763,0,0,0-1.21.8,14.97,14.97,0,0,0,3.408,6.4q-.057.739-.174,1.521a25.5,25.5,0,0,0-1.379-2.176.763.763,0,0,0-1.385.407,14.127,14.127,0,0,0,1.371,6.952q-.266.674-.6,1.37a25.057,25.057,0,0,0-.69-2.466.764.764,0,0,0-.718-.52h-.006a.762.762,0,0,0-.718.507,14,14,0,0,0-.7,7.013q-.454.572-.977,1.145a24.585,24.585,0,0,0,.064-2.568.763.763,0,0,0-1.376-.433,14.479,14.479,0,0,0-2.767,6.557,11.134,11.134,0,0,1-3.261,1.819A11.119,11.119,0,0,0,20,71.26a11.116,11.116,0,0,0-2.561-1.289,11.131,11.131,0,0,1-3.261-1.819,14.479,14.479,0,0,0-2.767-6.557.763.763,0,0,0-1.376.433,24.582,24.582,0,0,0,.064,2.568q-.523-.572-.977-1.145a14,14,0,0,0-.7-7.013A.762.762,0,0,0,7.7,55.93H7.7a.764.764,0,0,0-.718.52,25.052,25.052,0,0,0-.69,2.466q-.332-.695-.6-1.37a14.127,14.127,0,0,0,1.371-6.953.763.763,0,0,0-1.385-.407A25.48,25.48,0,0,0,4.3,52.362q-.117-.78-.174-1.521a14.969,14.969,0,0,0,3.408-6.4.763.763,0,0,0-1.21-.8c-.7.55-1.358,1.129-2,1.749a24.617,24.617,0,0,1,.742-3.374.587.587,0,0,0-1.126-.332A25.6,25.6,0,0,0,2.963,47c0,.012,0,.023,0,.035-.05.578-.077,1.179-.081,1.8a26.388,26.388,0,0,1-1.446-2.247.758.758,0,0,0-.84-.362.756.756,0,0,0-.583.7,10.018,10.018,0,0,0,.762,4.391,6.625,6.625,0,0,0,2.742,3.21q.169.728.4,1.487c-.7-.518-1.377-1.071-2.044-1.672A.763.763,0,0,0,.624,55.1C1.3,57.709,3.27,60.559,6.17,61.207q.372.645.81,1.3c-.818-.29-1.625-.619-2.437-1A.763.763,0,0,0,3.571,62.6c1.34,2.186,3.868,4.245,6.672,4.245.138,0,.276-.006.415-.016q.375.351.782.7c.57.483,1.186.958,1.84,1.418a12.523,12.523,0,0,0,3.744,2.125A10.175,10.175,0,0,1,18.977,72c-.607.465-1.31,1.049-2.144,1.795a.587.587,0,1,0,.783.875c.967-.865,1.74-1.5,2.383-1.973.644.476,1.416,1.108,2.383,1.973a.587.587,0,0,0,.783-.875c-.834-.746-1.537-1.33-2.143-1.795a10.175,10.175,0,0,1,1.953-.927,12.523,12.523,0,0,0,3.744-2.125c.655-.46,1.27-.935,1.84-1.418q.407-.345.782-.7c.139.01.277.016.415.016,2.8,0,5.331-2.059,6.672-4.245a.763.763,0,0,0-.972-1.089c-.812.377-1.619.706-2.437,1q.438-.654.81-1.3c2.9-.648,4.868-3.5,5.547-6.107A.756.756,0,0,0,39.034,54.258ZM36.84,52.676c.016-.1.032-.207.047-.31.009-.063.017-.126.025-.188.013-.1.026-.192.037-.288.008-.064.015-.128.022-.192q.016-.14.03-.279.009-.095.018-.189.013-.139.023-.276c0-.034.006-.068.009-.1a26.781,26.781,0,0,0,1.71-2.338,7.166,7.166,0,0,1-1.943,4.307C36.826,52.773,36.832,52.725,36.84,52.676Zm-35.6-4.162a26.757,26.757,0,0,0,1.71,2.338c0,.034.006.068.009.1q.011.137.023.276c.006.063.012.126.018.189q.014.139.03.279c.007.064.014.127.022.192.012.1.024.192.037.288.008.063.016.125.025.188.015.1.031.206.047.31.008.049.014.1.022.146A7.166,7.166,0,0,1,1.239,48.514Zm4.65,3.471a13.115,13.115,0,0,1-.769,3.947L5.078,55.8c-.025-.081-.05-.161-.074-.242-.019-.063-.037-.125-.055-.187-.023-.078-.045-.157-.067-.235s-.034-.126-.051-.189-.041-.152-.06-.228-.032-.126-.047-.189-.036-.148-.053-.222l-.022-.1A25.339,25.339,0,0,1,5.889,51.985ZM4.056,48.7c0-.066,0-.132,0-.2,0-.085,0-.17.006-.254,0-.066,0-.132.007-.2q.005-.123.011-.244c0-.067.007-.133.012-.2s.01-.156.016-.234c0-.035.006-.07.008-.106.605-.651,1.223-1.254,1.866-1.822a13.878,13.878,0,0,1-1.931,3.661c0-.049,0-.1,0-.146C4.055,48.878,4.055,48.791,4.056,48.7ZM2.262,56.219A27.747,27.747,0,0,0,4.569,57.9l.038.095q.049.123.1.246l.075.18q.051.122.105.245c.026.061.053.121.08.182.037.084.076.168.114.252.027.059.054.118.082.177.042.09.086.181.13.271.022.045.042.089.064.133A7.08,7.08,0,0,1,2.262,56.219ZM7.7,58.1a12.94,12.94,0,0,1,.4,3.975l-.082-.121-.134-.2-.111-.17-.127-.2-.107-.171-.121-.2-.1-.168-.115-.2-.048-.084A24.922,24.922,0,0,1,7.7,58.1ZM5.459,63.186a28.27,28.27,0,0,0,2.691.931l.067.084.163.2.127.155.172.2.13.152c.061.07.123.141.186.211l.128.144c.07.077.141.154.212.231l.094.1A7.109,7.109,0,0,1,5.459,63.186Zm7.216,3.836-.195-.157-.155-.129-.187-.157-.151-.13-.18-.158-.145-.131L11.49,66l-.071-.067a24.409,24.409,0,0,1-.21-2.537,13.438,13.438,0,0,1,1.581,3.717Zm15.906-1.089L28.51,66l-.174.16-.145.131-.18.158-.151.13-.187.157-.155.129-.195.157-.115.092A13.441,13.441,0,0,1,28.791,63.4,24.386,24.386,0,0,1,28.581,65.933ZM32.3,58.1a24.94,24.94,0,0,1,.544,2.472l-.048.084-.115.2-.1.169-.12.2-.107.17-.127.2-.112.171c-.044.066-.089.133-.134.2l-.082.121A12.94,12.94,0,0,1,32.3,58.1Zm2.245,5.086A7.109,7.109,0,0,1,30.57,65.6l.1-.107c.07-.075.139-.15.207-.226L31,65.123c.062-.07.124-.14.185-.21l.13-.152.172-.2.127-.155.163-.2.067-.084A28.27,28.27,0,0,0,34.541,63.186ZM34.014,45.45c.643.568,1.26,1.171,1.866,1.822,0,.035.006.07.008.106q.009.116.016.234.006.1.012.2.006.122.011.245c0,.066.005.131.007.2,0,.084,0,.169.006.254,0,.066,0,.131,0,.2,0,.087,0,.174,0,.262,0,.049,0,.1,0,.146A13.87,13.87,0,0,1,34.014,45.45Zm.1,6.535a25.32,25.32,0,0,1,1.24,2.224l-.022.1q-.026.111-.053.222-.023.094-.047.189c-.019.076-.04.152-.06.228s-.034.126-.051.189-.044.156-.067.235c-.018.062-.036.125-.055.187-.024.08-.049.161-.074.242l-.042.135A13.115,13.115,0,0,1,34.111,51.985Zm.532,7.695c.022-.045.042-.089.064-.133.044-.091.088-.181.13-.271.028-.059.055-.118.082-.177.039-.084.077-.168.114-.252.027-.061.053-.121.08-.182q.053-.123.105-.245l.075-.18q.051-.123.1-.246c.012-.031.026-.063.038-.095a27.749,27.749,0,0,0,2.307-1.679A7.081,7.081,0,0,1,34.644,59.68Z" transform="translate(9 -32.26)" fill="#7d4840"/>
        </g>
      </g>
    </g>
    <g transform="matrix(1, 0, 0, 1, -9, 32.26)" filter="url(#Union_52)">
      <path id="Union_52-2" data-name="Union 52" d="M4.283,18.871a5.736,5.736,0,0,1-1.937-.979,5.973,5.973,0,0,1-1.43-1.629A10.675,10.675,0,0,1,.07,14.49a1.081,1.081,0,0,1,.6-1.381l2.021-.84a1.063,1.063,0,0,1,.415-.084,1.084,1.084,0,0,1,.937.542c.392.68.752,1.284.836,1.4a2.875,2.875,0,0,0,.491.542A1.875,1.875,0,0,0,5.934,15a2.166,2.166,0,0,0,.752.117,2.354,2.354,0,0,0,.947-.173,2.062,2.062,0,0,0,.655-.445,1.786,1.786,0,0,0,.382-.608A1.927,1.927,0,0,0,8.8,13.2a4.378,4.378,0,0,0-.092-.944.857.857,0,0,0-.29-.477,2.079,2.079,0,0,0-.875-.384,7.46,7.46,0,0,0-1.526-.162,1.078,1.078,0,0,1-1.06-1.083V8.638A1.078,1.078,0,0,1,6.006,7.557,5.908,5.908,0,0,0,7.255,7.4a2.245,2.245,0,0,0,.84-.376,1.009,1.009,0,0,0,.337-.477,2.516,2.516,0,0,0,.119-.79,1.775,1.775,0,0,0-.4-1.28,1.66,1.66,0,0,0-1.22-.4,2.123,2.123,0,0,0-.668.1,2,2,0,0,0-.539.281,1.859,1.859,0,0,0-.4.417,1.684,1.684,0,0,0-.24.509c-.007.016-.01.033-.017.048-.037.1-.092.287-.149.483L4.9,5.955c-.019.061-.037.125-.058.191A1.075,1.075,0,0,1,3.621,6.9l-2.27-.391a1.062,1.062,0,0,1-.709-.454,1.083,1.083,0,0,1-.166-.834,7,7,0,0,1,.715-2A6.376,6.376,0,0,1,3.738.759c.152-.074.272-.132.37-.173a.637.637,0,0,1,.111-.06C4.379.462,4.543.4,4.712.352A7.92,7.92,0,0,1,7.107,0,7.357,7.357,0,0,1,9.578.395a5.711,5.711,0,0,1,1.9,1.1A4.869,4.869,0,0,1,13.119,5.18a6.232,6.232,0,0,1-.2,1.641A4.079,4.079,0,0,1,12.3,8.138a3.845,3.845,0,0,1-.976.93,4.419,4.419,0,0,1,2.115,3.753.187.187,0,0,1,.009.147,6.318,6.318,0,0,1-2.062,4.694,6.344,6.344,0,0,1-2.159,1.152,8.407,8.407,0,0,1-2.5.372A8.549,8.549,0,0,1,4.283,18.871ZM1.2,14.159a9.446,9.446,0,0,0,.719,1.493,4.8,4.8,0,0,0,1.15,1.315,4.678,4.678,0,0,0,1.547.781,7.521,7.521,0,0,0,2.107.267A7.252,7.252,0,0,0,8.878,17.7a5.181,5.181,0,0,0,1.76-.936,8.565,8.565,0,0,0,1.138-1.427,5.415,5.415,0,0,0,.509-2.277.573.573,0,0,1-.016-.123A3.371,3.371,0,0,0,9.8,9.632a.585.585,0,0,1,0-1.1,4.47,4.47,0,0,0,.842-.419,2.721,2.721,0,0,0,.709-.668,2.867,2.867,0,0,0,.437-.938,4.98,4.98,0,0,0,.156-1.328,3.685,3.685,0,0,0-1.251-2.811A4.538,4.538,0,0,0,9.182,1.5a6.181,6.181,0,0,0-2.075-.327,6.843,6.843,0,0,0-2.046.3c-.135.043-.273.091-.4.144a.528.528,0,0,1-.081.026A5.218,5.218,0,0,0,2.218,3.788,6.03,6.03,0,0,0,1.643,5.37l2.1.361c.012-.036.023-.074.033-.111l.012-.037c.061-.214.117-.4.168-.541a2.807,2.807,0,0,1,.4-.84,3.019,3.019,0,0,1,.657-.68,3.11,3.11,0,0,1,.863-.455A3.214,3.214,0,0,1,6.927,2.9a2.772,2.772,0,0,1,2.054.752A2.878,2.878,0,0,1,9.724,5.76a3.7,3.7,0,0,1-.177,1.159,2.163,2.163,0,0,1-.709,1.016,3.362,3.362,0,0,1-1.29.606,6.875,6.875,0,0,1-1.413.184v1.338a8.289,8.289,0,0,1,1.689.193A3.206,3.206,0,0,1,9.2,10.9,2.029,2.029,0,0,1,9.856,12a5.552,5.552,0,0,1,.121,1.2,3.114,3.114,0,0,1-.208,1.1,2.9,2.9,0,0,1-.631,1,3.163,3.163,0,0,1-1.031.711,3.5,3.5,0,0,1-1.422.273A3.358,3.358,0,0,1,5.529,16.1a3.051,3.051,0,0,1-.916-.526,4,4,0,0,1-.7-.766c-.158-.222-.69-1.142-.852-1.424Z" transform="translate(22.28 10.93)" fill="#7d4840"/>
    </g>
  </g>
</svg>
