<svg xmlns="http://www.w3.org/2000/svg" width="38" height="38" viewBox="0 0 38 38"><defs><style>.a{fill:#222;}.b{fill:#ffb700;}</style></defs><g transform="translate(-572 -112)"><g transform="translate(-35 858)"><circle class="a" cx="19" cy="19" r="19" transform="translate(607 -746)"/></g><g transform="translate(580.011 119.548)"><g transform="translate(0.039 7.041)"><g transform="translate(0)"><path class="b" d="M13.4,166.11a4.968,4.968,0,0,0-.858-.69,5.111,5.111,0,0,0-6.369.69l-4.643,4.646a5.11,5.11,0,0,0,7.223,7.23l3.832-3.832a.365.365,0,0,0-.259-.624h-.146a6.144,6.144,0,0,1-2.336-.453.365.365,0,0,0-.4.08l-2.756,2.759a2.191,2.191,0,0,1-3.1-3.1l4.661-4.657a2.19,2.19,0,0,1,3.1,0,1.5,1.5,0,0,0,2.051,0,1.446,1.446,0,0,0,0-2.051Z" transform="translate(-0.039 -164.614)"/></g></g><g transform="translate(8.143 0)"><g transform="translate(0 0)"><path class="b" d="M201.8,1.5a5.11,5.11,0,0,0-7.227,0l-3.829,3.825a.366.366,0,0,0,.266.624h.135a6.132,6.132,0,0,1,2.332.456.365.365,0,0,0,.4-.08l2.748-2.745a2.191,2.191,0,0,1,3.1,3.1L196.3,10.1l-.029.033-1.2,1.19a2.19,2.19,0,0,1-3.1,0,1.5,1.5,0,0,0-2.051,0,1.455,1.455,0,0,0,0,2.059,5.066,5.066,0,0,0,1.46,1.022c.077.036.153.066.23.1s.157.058.234.088.157.055.234.077l.215.058c.146.036.292.066.442.091a5.081,5.081,0,0,0,.544.051h.277l.219-.026c.08,0,.164-.022.259-.022h.124l.252-.036.117-.022.212-.044h.04a5.11,5.11,0,0,0,2.369-1.343L201.8,8.724A5.11,5.11,0,0,0,201.8,1.5Z" transform="translate(-189.502 0)"/></g></g></g></g></svg>