<?xml version="1.0" encoding="utf-8"?>
<!-- Generator: Adobe Illustrator 23.0.1, SVG Export Plug-In . SVG Version: 6.00 Build 0)  -->
<svg version="1.1" id="Layer_1" xmlns="http://www.w3.org/2000/svg" xmlns:xlink="http://www.w3.org/1999/xlink" x="0px" y="0px"
	 viewBox="0 0 24 24" style="enable-background:new 0 0 24 24;" xml:space="preserve">
<style type="text/css">
	.st0{fill:#B00000;}
</style>
<g>
	<path class="st0" d="M11.15,16.66h-6.6v-1.13l3.27-3.57c0.47-0.53,0.81-0.97,1.01-1.32c0.2-0.35,0.3-0.71,0.3-1.06
		c0-0.47-0.13-0.84-0.39-1.13C8.47,8.17,8.12,8.03,7.68,8.03c-0.53,0-0.94,0.16-1.23,0.49C6.15,8.84,6,9.28,6,9.84H4.36
		c0-0.6,0.14-1.14,0.41-1.62c0.27-0.48,0.66-0.85,1.17-1.12c0.51-0.27,1.09-0.4,1.75-0.4c0.95,0,1.7,0.24,2.26,0.72
		c0.55,0.48,0.83,1.14,0.83,1.99c0,0.49-0.14,1-0.41,1.54C10.08,11.49,9.63,12.1,9,12.79l-2.4,2.57h4.56V16.66z"/>
	<path class="st0" d="M16.84,16.66h-1.63V8.78L12.8,9.6V8.22l3.83-1.41h0.21V16.66z"/>
	<path class="st0" d="M21.44,11.26H24v1.5h-2.56v2.92h-1.59v-2.92h-2.58v-1.5h2.58V8.53h1.59V11.26z"/>
	<path class="st0" d="M18.62,16.51c-1.56,2.69-4.47,4.51-7.8,4.51c-4.97,0-9.02-4.05-9.02-9.02c0-4.97,4.05-9.02,9.02-9.02
		c3.33,0,6.24,1.82,7.8,4.51h2.03c-1.71-3.72-5.46-6.31-9.83-6.31C4.84,1.18,0,6.02,0,12c0,5.98,4.84,10.82,10.82,10.82
		c4.36,0,8.12-2.59,9.83-6.31H18.62z"/>
</g>
</svg>
