<svg version="1.1" id="Layer_1" xmlns="http://www.w3.org/2000/svg" xmlns:xlink="http://www.w3.org/1999/xlink" x="0px" y="0px"
	 viewBox="0 0 23.2 15" style="enable-background:new 0 0 23.2 15;" xml:space="preserve">
<path fill="#FFB700" class="st0" d="M12.1,0H0v11.2L11.6,15l11.6-3.8V0H12.1z M6.5,8.8H5.2L2.6,4.6v4.2H1.4V2.4h1.3l2.6,4.3V2.4h1.2
	C6.5,2.4,6.5,8.8,6.5,8.8z M12.8,8.8H7.9V2.4h4.8v1.1H9.2v1.4h3.2V6H9.2v1.8h3.6C12.8,7.8,12.8,8.8,12.8,8.8z M20.2,8.8h-1.4L17.5,4
	l-1.3,4.8h-1.4l-1.5-6.5h1.3l1,4.4l1.2-4.4h1.5l1.1,4.5l1-4.5h1.3L20.2,8.8z"/>
</svg>