<?xml version="1.0" encoding="utf-8"?>
<svg version="1.1" id="" xmlns="http://www.w3.org/2000/svg" xmlns:xlink="http://www.w3.org/1999/xlink" x="0px" y="0px"
	 viewBox="0 0 24 24" style="enable-background:new 0 0 24 2;" xml:space="preserve" >
<g>
	<polygon points="16.05,3.25 14.97,2.08 12.09,2.07 12.09,2.07 12,2.07 11.91,2.07 11.91,2.07 9.03,2.08 7.95,3.25 4,3.25 4,5.47 
		11.91,5.47 12.09,5.47 20,5.47 20,3.2" fill="white"/>
	<path d="M12.09,6.44h-0.18H5.13v12.69c0,1.54,1.25,2.8,2.8,2.8h0.71h0.67h2.62h0.18h2.62h0.67h0.71c1.54,0,2.8-1.25,2.8-2.8V6.44
		H12.09z M16.09,16.63l-1.65,1.65L12,15.84l-2.44,2.44l-1.65-1.65l2.44-2.44l-2.44-2.44l1.65-1.65L12,12.53l2.44-2.44l1.65,1.65
		l-2.44,2.44L16.09,16.63z" fill="white" />
</g>
</svg>
