<svg xmlns="http://www.w3.org/2000/svg" width="21.635" height="31.383" viewBox="0 0 21.635 31.383"><defs><style>.a{fill:#e19b00;}.b{fill:#ffcc5b;}.c{fill:#ffdb70;}</style></defs><path class="a" d="M6.5,13.947,0,18.209.013,0l13,.01L13,18.219Z" transform="translate(4.605 13.164)"/><path class="b" d="M10.817,0A10.817,10.817,0,1,1,0,10.817,10.817,10.817,0,0,1,10.817,0Z"/><path class="c" d="M130.306,68.882a7.721,7.721,0,1,1,7.722-7.721A7.731,7.731,0,0,1,130.306,68.882Z" transform="translate(-119.488 -50.344)"/><path class="a" d="M-44.973-160.962h-1.962v-7.562l-2.342.726v-1.6l4.093-1.466h.21Z" transform="translate(57.223 176.834)"/></svg>