<svg xmlns="http://www.w3.org/2000/svg" width="21.635" height="31.383" viewBox="0 0 21.635 31.383"><defs><style>.a{fill:#c25116;}.b{fill:#db5f1f;}.c{fill:#ffa170;}</style></defs><path class="a" d="M6.5,13.947,0,18.209.013,0l13,.01L13,18.219Z" transform="translate(4.605 13.164)"/><path class="b" d="M10.817,0A10.817,10.817,0,1,1,0,10.817,10.817,10.817,0,0,1,10.817,0Z" transform="translate(0)"/><path class="c" d="M130.306,68.882a7.721,7.721,0,1,1,7.722-7.721A7.731,7.731,0,0,1,130.306,68.882Z" transform="translate(-119.488 -50.344)"/><path class="a" d="M-59.114-168.76h1.045a1.473,1.473,0,0,0,1.107-.373,1.368,1.368,0,0,0,.36-.991,1.21,1.21,0,0,0-.356-.93,1.381,1.381,0,0,0-.981-.333,1.448,1.448,0,0,0-.944.309.988.988,0,0,0-.38.8h-1.962a2.413,2.413,0,0,1,.417-1.388,2.782,2.782,0,0,1,1.168-.961,3.9,3.9,0,0,1,1.653-.346,3.7,3.7,0,0,1,2.457.75,2.559,2.559,0,0,1,.889,2.067,2.08,2.08,0,0,1-.414,1.249,2.69,2.69,0,0,1-1.086.876,2.456,2.456,0,0,1,1.246.9,2.431,2.431,0,0,1,.411,1.412,2.6,2.6,0,0,1-.961,2.111,3.862,3.862,0,0,1-2.542.794,3.662,3.662,0,0,1-2.42-.781,2.55,2.55,0,0,1-.94-2.064h1.962a1.137,1.137,0,0,0,.417.91,1.538,1.538,0,0,0,1.028.353,1.546,1.546,0,0,0,1.1-.37,1.277,1.277,0,0,0,.4-.981q0-1.48-1.629-1.48h-1.039Z" transform="translate(68.71 178.821)"/></svg>