<svg xmlns="http://www.w3.org/2000/svg" width="21.635" height="31.383" viewBox="0 0 21.635 31.383"><defs><style>.a{fill:#555;}.b{fill:gray;}.c{fill:#cbcbcb;}</style></defs><path class="a" d="M6.5,13.947,0,18.209.013,0l13,.01L13,18.219Z" transform="translate(4.605 13.164)"/><path class="b" d="M10.817,0A10.817,10.817,0,1,1,0,10.817,10.817,10.817,0,0,1,10.817,0Z" transform="translate(0)"/><path class="c" d="M130.306,68.882a7.721,7.721,0,1,1,7.722-7.721A7.731,7.731,0,0,1,130.306,68.882Z" transform="translate(-119.488 -50.344)"/><path class="a" d="M-53.673-162.949h-6.775v-1.344l3.2-3.408a7.888,7.888,0,0,0,.974-1.256,2.018,2.018,0,0,0,.316-1.018,1.51,1.51,0,0,0-.333-1.035,1.2,1.2,0,0,0-.95-.377,1.3,1.3,0,0,0-1.049.458,1.815,1.815,0,0,0-.384,1.2h-1.969a3.24,3.24,0,0,1,.431-1.65,3.038,3.038,0,0,1,1.219-1.171,3.7,3.7,0,0,1,1.785-.424,3.507,3.507,0,0,1,2.373.733,2.594,2.594,0,0,1,.845,2.07,3.323,3.323,0,0,1-.38,1.493,8.3,8.3,0,0,1-1.3,1.772l-2.247,2.369h4.25Z" transform="translate(68.106 178.821)"/></svg>