<svg xmlns="http://www.w3.org/2000/svg" width="22.593" height="24.859" viewBox="0 0 22.593 24.859"><defs><style>.a{fill:#161616;}</style></defs><g transform="translate(-42.544 0)"><g transform="translate(42.544 0)"><path class="a" d="M44.2,179.141a1.656,1.656,0,0,0-1.171.448,1.418,1.418,0,0,0-.481,1.076v6.424a1.434,1.434,0,0,0,.481,1.091,1.656,1.656,0,0,0,1.171.448,1.63,1.63,0,0,0,1.164-.448,1.446,1.446,0,0,0,.473-1.091v-6.424a1.418,1.418,0,0,0-.481-1.076A1.636,1.636,0,0,0,44.2,179.141Z" transform="translate(-42.544 -171.089)"/><path class="a" d="M133.723,2.286,134.862.329a.19.19,0,0,0-.08-.3.23.23,0,0,0-.321.089l-1.155,1.972a8.6,8.6,0,0,0-6.451,0L125.7.12a.23.23,0,0,0-.321-.089.19.19,0,0,0-.08.3l1.139,1.957a6.893,6.893,0,0,0-2.76,2.293,5.508,5.508,0,0,0-1.027,3.22h14.843a5.51,5.51,0,0,0-1.027-3.22A6.918,6.918,0,0,0,133.723,2.286Zm-6.587,2.846a.624.624,0,0,1-.441.172.6.6,0,0,1-.433-.172.566.566,0,0,1,0-.821.6.6,0,0,1,.433-.172.626.626,0,0,1,.441.172.549.549,0,0,1,0,.821Zm6.763,0a.6.6,0,0,1-.433.172.624.624,0,0,1-.442-.172.549.549,0,0,1,0-.821.625.625,0,0,1,.442-.172.6.6,0,0,1,.433.172.566.566,0,0,1,0,.821Z" transform="translate(-118.783 0)"/><path class="a" d="M123.971,195.4a1.532,1.532,0,0,0,.513,1.165,1.77,1.77,0,0,0,1.252.478h1.188l.016,3.392a1.435,1.435,0,0,0,.481,1.091,1.636,1.636,0,0,0,1.155.448,1.656,1.656,0,0,0,1.171-.448,1.435,1.435,0,0,0,.481-1.091v-3.391h2.214v3.391a1.435,1.435,0,0,0,.481,1.091,1.755,1.755,0,0,0,2.343,0,1.435,1.435,0,0,0,.481-1.091v-3.391h1.2a1.751,1.751,0,0,0,1.236-.478,1.532,1.532,0,0,0,.513-1.165v-9.95h-14.73Z" transform="translate(-120.04 -177.114)"/><path class="a" d="M444.013,179.141a1.652,1.652,0,0,0-1.155.441,1.412,1.412,0,0,0-.481,1.083v6.424a1.434,1.434,0,0,0,.481,1.091,1.636,1.636,0,0,0,1.155.448,1.656,1.656,0,0,0,1.171-.448,1.434,1.434,0,0,0,.481-1.091v-6.424a1.412,1.412,0,0,0-.481-1.083A1.673,1.673,0,0,0,444.013,179.141Z" transform="translate(-423.072 -171.089)"/></g></g></svg>